%TF.GenerationSoftware,KiCad,Pcbnew,9.0.2*%
%TF.CreationDate,2025-08-25T15:59:26+09:00*%
%TF.ProjectId,imu_controller_board,696d755f-636f-46e7-9472-6f6c6c65725f,rev?*%
%TF.SameCoordinates,Original*%
%TF.FileFunction,Copper,L2,Bot*%
%TF.FilePolarity,Positive*%
%FSLAX46Y46*%
G04 Gerber Fmt 4.6, Leading zero omitted, Abs format (unit mm)*
G04 Created by KiCad (PCBNEW 9.0.2) date 2025-08-25 15:59:26*
%MOMM*%
%LPD*%
G01*
G04 APERTURE LIST*
%TA.AperFunction,ComponentPad*%
%ADD10R,1.700000X1.700000*%
%TD*%
%TA.AperFunction,ComponentPad*%
%ADD11C,1.700000*%
%TD*%
%TA.AperFunction,ComponentPad*%
%ADD12C,1.524000*%
%TD*%
%TA.AperFunction,ViaPad*%
%ADD13C,0.600000*%
%TD*%
%TA.AperFunction,Conductor*%
%ADD14C,0.300000*%
%TD*%
G04 APERTURE END LIST*
D10*
%TO.P,J1,1,Pin_1*%
%TO.N,+3V3*%
X93300000Y-85180000D03*
D11*
%TO.P,J1,2,Pin_2*%
%TO.N,GND*%
X93300000Y-87720000D03*
%TO.P,J1,3,Pin_3*%
%TO.N,/SCK*%
X93300000Y-90260000D03*
%TO.P,J1,4,Pin_4*%
%TO.N,/MOSI*%
X93300000Y-92800000D03*
%TO.P,J1,5,Pin_5*%
%TO.N,/MISO*%
X93300000Y-95340000D03*
%TO.P,J1,6,Pin_6*%
%TO.N,/CS1*%
X93300000Y-97880000D03*
%TD*%
D10*
%TO.P,J2,1,Pin_1*%
%TO.N,+3V3*%
X99385714Y-85180000D03*
D11*
%TO.P,J2,2,Pin_2*%
%TO.N,GND*%
X99385714Y-87720000D03*
%TO.P,J2,3,Pin_3*%
%TO.N,/SCK*%
X99385714Y-90260000D03*
%TO.P,J2,4,Pin_4*%
%TO.N,/MOSI*%
X99385714Y-92800000D03*
%TO.P,J2,5,Pin_5*%
%TO.N,/MISO*%
X99385714Y-95340000D03*
%TO.P,J2,6,Pin_6*%
%TO.N,/CS2*%
X99385714Y-97880000D03*
%TD*%
D10*
%TO.P,J3,1,Pin_1*%
%TO.N,+3V3*%
X105471429Y-85180000D03*
D11*
%TO.P,J3,2,Pin_2*%
%TO.N,GND*%
X105471429Y-87720000D03*
%TO.P,J3,3,Pin_3*%
%TO.N,/SCK*%
X105471429Y-90260000D03*
%TO.P,J3,4,Pin_4*%
%TO.N,/MOSI*%
X105471429Y-92800000D03*
%TO.P,J3,5,Pin_5*%
%TO.N,/MISO*%
X105471429Y-95340000D03*
%TO.P,J3,6,Pin_6*%
%TO.N,/CS3*%
X105471429Y-97880000D03*
%TD*%
D10*
%TO.P,J8,1,Pin_1*%
%TO.N,+3V3*%
X135900000Y-85180000D03*
D11*
%TO.P,J8,2,Pin_2*%
%TO.N,GND*%
X135900000Y-87720000D03*
%TO.P,J8,3,Pin_3*%
%TO.N,/SCK*%
X135900000Y-90260000D03*
%TO.P,J8,4,Pin_4*%
%TO.N,/MOSI*%
X135900000Y-92800000D03*
%TO.P,J8,5,Pin_5*%
%TO.N,/MISO*%
X135900000Y-95340000D03*
%TO.P,J8,6,Pin_6*%
%TO.N,/CS8*%
X135900000Y-97880000D03*
%TD*%
D10*
%TO.P,J7,1,Pin_1*%
%TO.N,+3V3*%
X129814286Y-85180000D03*
D11*
%TO.P,J7,2,Pin_2*%
%TO.N,GND*%
X129814286Y-87720000D03*
%TO.P,J7,3,Pin_3*%
%TO.N,/SCK*%
X129814286Y-90260000D03*
%TO.P,J7,4,Pin_4*%
%TO.N,/MOSI*%
X129814286Y-92800000D03*
%TO.P,J7,5,Pin_5*%
%TO.N,/MISO*%
X129814286Y-95340000D03*
%TO.P,J7,6,Pin_6*%
%TO.N,/CS7*%
X129814286Y-97880000D03*
%TD*%
D10*
%TO.P,J6,1,Pin_1*%
%TO.N,+3V3*%
X123728571Y-85180000D03*
D11*
%TO.P,J6,2,Pin_2*%
%TO.N,GND*%
X123728571Y-87720000D03*
%TO.P,J6,3,Pin_3*%
%TO.N,/SCK*%
X123728571Y-90260000D03*
%TO.P,J6,4,Pin_4*%
%TO.N,/MOSI*%
X123728571Y-92800000D03*
%TO.P,J6,5,Pin_5*%
%TO.N,/MISO*%
X123728571Y-95340000D03*
%TO.P,J6,6,Pin_6*%
%TO.N,/CS6*%
X123728571Y-97880000D03*
%TD*%
D10*
%TO.P,J5,1,Pin_1*%
%TO.N,+3V3*%
X117642857Y-85180000D03*
D11*
%TO.P,J5,2,Pin_2*%
%TO.N,GND*%
X117642857Y-87720000D03*
%TO.P,J5,3,Pin_3*%
%TO.N,/SCK*%
X117642857Y-90260000D03*
%TO.P,J5,4,Pin_4*%
%TO.N,/MOSI*%
X117642857Y-92800000D03*
%TO.P,J5,5,Pin_5*%
%TO.N,/MISO*%
X117642857Y-95340000D03*
%TO.P,J5,6,Pin_6*%
%TO.N,/CS5*%
X117642857Y-97880000D03*
%TD*%
D10*
%TO.P,J4,1,Pin_1*%
%TO.N,+3V3*%
X111557143Y-85180000D03*
D11*
%TO.P,J4,2,Pin_2*%
%TO.N,GND*%
X111557143Y-87720000D03*
%TO.P,J4,3,Pin_3*%
%TO.N,/SCK*%
X111557143Y-90260000D03*
%TO.P,J4,4,Pin_4*%
%TO.N,/MOSI*%
X111557143Y-92800000D03*
%TO.P,J4,5,Pin_5*%
%TO.N,/MISO*%
X111557143Y-95340000D03*
%TO.P,J4,6,Pin_6*%
%TO.N,/CS4*%
X111557143Y-97880000D03*
%TD*%
D12*
%TO.P,U1,1,GPIO0/A0/D0*%
%TO.N,/CS1*%
X69000000Y-95900000D03*
%TO.P,U1,2,GPIO1/A1/D1*%
%TO.N,/CS2*%
X71540000Y-95900000D03*
%TO.P,U1,3,GPIO2/A2/D2*%
%TO.N,/CS3*%
X74080000Y-95900000D03*
%TO.P,U1,4,GPIO21/D3*%
%TO.N,/CS4*%
X76620000Y-95900000D03*
%TO.P,U1,5,GPIO22/D4/SDA*%
%TO.N,/CS5*%
X79160000Y-95900000D03*
%TO.P,U1,6,GPIO23/D5/SCL*%
%TO.N,/CS6*%
X81700000Y-95900000D03*
%TO.P,U1,7,GPIO16/D6/TX*%
%TO.N,/CS7*%
X84240000Y-95900000D03*
%TO.P,U1,8,GPIO17/D7/RX*%
%TO.N,/CS8*%
X84240000Y-80660000D03*
%TO.P,U1,9,GPIO19/D8/SCK*%
%TO.N,/SCK*%
X81700000Y-80660000D03*
%TO.P,U1,10,GPIO20/D9/MISO*%
%TO.N,/MISO*%
X79160000Y-80660000D03*
%TO.P,U1,11,GPIO18/D10/MOSI*%
%TO.N,/MOSI*%
X76620000Y-80660000D03*
%TO.P,U1,12,3V3*%
%TO.N,+3V3*%
X74080000Y-80660000D03*
%TO.P,U1,13,GND*%
%TO.N,GND*%
X71540000Y-80660000D03*
%TO.P,U1,14,VBUS*%
%TO.N,unconnected-(U1-VBUS-Pad14)*%
X69000000Y-80660000D03*
%TD*%
D13*
%TO.N,/MISO*%
X80700000Y-108500000D03*
%TO.N,/CS2*%
X99400000Y-107400000D03*
%TO.N,/CS4*%
X111300000Y-105500000D03*
%TO.N,GND*%
X133200000Y-87600000D03*
X128100000Y-83300000D03*
%TO.N,*%
X115000000Y-83600000D03*
X115000000Y-86300000D03*
%TO.N,GND*%
X94800000Y-74000000D03*
%TO.N,/SCK*%
X71400000Y-106200000D03*
%TO.N,/MISO*%
X71300000Y-104300000D03*
%TO.N,/MOSI*%
X71400000Y-103300000D03*
%TO.N,/MISO*%
X140600000Y-99600000D03*
%TO.N,/MOSI*%
X93600000Y-79900000D03*
%TO.N,GND*%
X70400000Y-75700000D03*
X70000000Y-83300000D03*
X108900000Y-78700000D03*
X108800000Y-83100000D03*
%TO.N,/SCK*%
X131128571Y-77522902D03*
X140000000Y-78000000D03*
%TO.N,/MISO*%
X139400000Y-79100000D03*
X130228571Y-77471429D03*
%TO.N,/MOSI*%
X137900000Y-88900000D03*
%TO.N,/MISO*%
X126000000Y-91700000D03*
%TO.N,/SCK*%
X121900000Y-90260000D03*
%TO.N,/MISO*%
X121600000Y-95340000D03*
%TO.N,/MOSI*%
X120965693Y-92734307D03*
%TO.N,/SCK*%
X114300000Y-90260000D03*
%TO.N,/MISO*%
X113600000Y-91700000D03*
%TO.N,/MOSI*%
X98800000Y-79500000D03*
%TO.N,/MISO*%
X131200000Y-97500000D03*
X133000000Y-95400000D03*
%TO.N,/MOSI*%
X119700000Y-93300000D03*
X107300000Y-93200000D03*
X101300000Y-92800000D03*
X95900000Y-92900000D03*
%TO.N,GND*%
X146100000Y-89300000D03*
X70100000Y-105300000D03*
X80500000Y-113000000D03*
X94800000Y-112200000D03*
X107900000Y-112000000D03*
X121200000Y-111600000D03*
%TO.N,/MOSI*%
X139600000Y-92400000D03*
X141900000Y-93100000D03*
%TO.N,/MISO*%
X140300000Y-101700000D03*
%TO.N,/SCK*%
X139500000Y-90100000D03*
X141600000Y-89200000D03*
%TO.N,GND*%
X146000000Y-102500000D03*
X134600000Y-112400000D03*
%TO.N,/SCK*%
X142300000Y-101600000D03*
%TO.N,/MISO*%
X142400000Y-103600000D03*
%TO.N,/MOSI*%
X142300000Y-104600000D03*
%TO.N,/SCK*%
X133800000Y-99200000D03*
X134900000Y-104300000D03*
%TO.N,/MISO*%
X133400000Y-105700000D03*
%TO.N,/MOSI*%
X132300000Y-106700000D03*
%TO.N,/SCK*%
X120900000Y-104300000D03*
X121800000Y-108000000D03*
%TO.N,/MISO*%
X115900000Y-97700000D03*
%TO.N,/MOSI*%
X114900000Y-93400000D03*
%TO.N,/MISO*%
X107500000Y-95500000D03*
%TO.N,/SCK*%
X95500000Y-108800000D03*
%TO.N,/MISO*%
X93300000Y-111400000D03*
X80000000Y-111500000D03*
%TO.N,/MOSI*%
X92400000Y-109000000D03*
%TO.N,/SCK*%
X81900000Y-108800000D03*
%TO.N,/MOSI*%
X79000000Y-107800000D03*
%TO.N,/SCK*%
X79800000Y-84100000D03*
%TO.N,/MISO*%
X78500000Y-83300000D03*
%TO.N,GND*%
X139700000Y-74100000D03*
X130706871Y-74290995D03*
X121800000Y-74200000D03*
X112800000Y-74200000D03*
X103800000Y-74100000D03*
%TO.N,/MISO*%
X94442857Y-78400000D03*
%TO.N,/CS2*%
X96700000Y-82900000D03*
X89400000Y-82500000D03*
X86900000Y-79800000D03*
X89200000Y-77600000D03*
%TO.N,/SCK*%
X87400000Y-77700000D03*
%TO.N,/MISO*%
X86224265Y-77575735D03*
%TO.N,GND*%
X86000000Y-74200000D03*
%TO.N,/MOSI*%
X91300000Y-87400000D03*
%TO.N,/CS1*%
X78700000Y-77200000D03*
%TO.N,GND*%
X76700000Y-74000000D03*
%TO.N,/CS7*%
X129800000Y-102500000D03*
%TO.N,/CS6*%
X123600000Y-103400000D03*
%TO.N,/CS5*%
X117800000Y-104200000D03*
%TO.N,/CS3*%
X105800000Y-106700000D03*
%TO.N,/MISO*%
X89500000Y-90100000D03*
%TD*%
D14*
%TO.N,/CS3*%
X84380000Y-106200000D02*
X105300000Y-106200000D01*
X105300000Y-106200000D02*
X105800000Y-106700000D01*
X74080000Y-95900000D02*
X84380000Y-106200000D01*
%TO.N,/MOSI*%
X82772900Y-107700000D02*
X83272900Y-108200000D01*
X83272900Y-108200000D02*
X91600000Y-108200000D01*
X79202000Y-107700000D02*
X82772900Y-107700000D01*
X79102000Y-107800000D02*
X79202000Y-107700000D01*
X91600000Y-108200000D02*
X92400000Y-109000000D01*
X79000000Y-107800000D02*
X79102000Y-107800000D01*
%TO.N,/MISO*%
X75500000Y-108500000D02*
X71300000Y-104300000D01*
X80700000Y-108500000D02*
X80550000Y-108500000D01*
X80700000Y-108500000D02*
X75500000Y-108500000D01*
%TO.N,/MOSI*%
X101300000Y-92800000D02*
X105471429Y-92800000D01*
%TO.N,/CS5*%
X87760000Y-104500000D02*
X117500000Y-104500000D01*
X79160000Y-95900000D02*
X87760000Y-104500000D01*
X117500000Y-104500000D02*
X117800000Y-104200000D01*
%TO.N,/SCK*%
X140000000Y-78000000D02*
X139500000Y-77500000D01*
X131151473Y-77500000D02*
X131128571Y-77522902D01*
X139500000Y-77500000D02*
X131151473Y-77500000D01*
%TO.N,/MISO*%
X138600000Y-78300000D02*
X131057142Y-78300000D01*
X139400000Y-79100000D02*
X138600000Y-78300000D01*
X131057142Y-78300000D02*
X130228571Y-77471429D01*
%TO.N,/MOSI*%
X139800000Y-92400000D02*
X140500000Y-93100000D01*
X140500000Y-93100000D02*
X141900000Y-93100000D01*
X139600000Y-92400000D02*
X139800000Y-92400000D01*
%TO.N,/SCK*%
X140700000Y-90100000D02*
X141600000Y-89200000D01*
X139500000Y-90100000D02*
X140700000Y-90100000D01*
%TO.N,/CS8*%
X138700000Y-83000000D02*
X138700000Y-95080000D01*
X136360000Y-80660000D02*
X138700000Y-83000000D01*
X138700000Y-95080000D02*
X135900000Y-97880000D01*
X84240000Y-80660000D02*
X136360000Y-80660000D01*
%TO.N,/MOSI*%
X137400000Y-92800000D02*
X135900000Y-92800000D01*
X137900000Y-92300000D02*
X137400000Y-92800000D01*
X137900000Y-88900000D02*
X137900000Y-92300000D01*
%TO.N,GND*%
X135900000Y-87720000D02*
X133320000Y-87720000D01*
X133320000Y-87720000D02*
X133200000Y-87600000D01*
X133080000Y-87720000D02*
X133200000Y-87600000D01*
X129814286Y-87720000D02*
X133080000Y-87720000D01*
X129814286Y-87720000D02*
X123728571Y-87720000D01*
%TO.N,/SCK*%
X81500000Y-109200000D02*
X81900000Y-108800000D01*
X71900000Y-106200000D02*
X74900000Y-109200000D01*
X71400000Y-106200000D02*
X71900000Y-106200000D01*
X74900000Y-109200000D02*
X81500000Y-109200000D01*
%TO.N,/MOSI*%
X79000000Y-107800000D02*
X75900000Y-107800000D01*
X75900000Y-107800000D02*
X71400000Y-103300000D01*
%TO.N,/MISO*%
X133000000Y-98240000D02*
X135900000Y-95340000D01*
X133000000Y-105300000D02*
X133000000Y-98240000D01*
X133400000Y-105700000D02*
X133000000Y-105300000D01*
X135840000Y-95400000D02*
X135900000Y-95340000D01*
X133000000Y-95400000D02*
X135840000Y-95400000D01*
X131200000Y-97500000D02*
X131200000Y-96725714D01*
X131200000Y-96725714D02*
X129814286Y-95340000D01*
%TO.N,/MOSI*%
X139400000Y-107500000D02*
X142300000Y-104600000D01*
X132300000Y-106949943D02*
X132850057Y-107500000D01*
X132300000Y-106700000D02*
X132300000Y-106949943D01*
X132850057Y-107500000D02*
X139400000Y-107500000D01*
%TO.N,/CS1*%
X90257000Y-94837000D02*
X93300000Y-97880000D01*
X69000000Y-95900000D02*
X70063000Y-94837000D01*
X70063000Y-94837000D02*
X90257000Y-94837000D01*
%TO.N,/MISO*%
X80000000Y-111500000D02*
X93200000Y-111500000D01*
X93200000Y-111500000D02*
X93300000Y-111400000D01*
%TO.N,/SCK*%
X81900000Y-108800000D02*
X82700000Y-109600000D01*
%TO.N,/MISO*%
X107340000Y-95340000D02*
X105471429Y-95340000D01*
%TO.N,/SCK*%
X121800000Y-105200000D02*
X120900000Y-104300000D01*
%TO.N,/MOSI*%
X115500000Y-92800000D02*
X117642857Y-92800000D01*
%TO.N,/MISO*%
X107500000Y-95500000D02*
X107340000Y-95340000D01*
X115900000Y-97700000D02*
X115900000Y-97082857D01*
%TO.N,/SCK*%
X82700000Y-109600000D02*
X94700000Y-109600000D01*
%TO.N,/MOSI*%
X114900000Y-93400000D02*
X115500000Y-92800000D01*
%TO.N,/SCK*%
X94700000Y-109600000D02*
X95500000Y-108800000D01*
%TO.N,/MISO*%
X115900000Y-97082857D02*
X117642857Y-95340000D01*
%TO.N,/SCK*%
X121800000Y-108000000D02*
X121800000Y-105200000D01*
%TO.N,/MISO*%
X89500000Y-90100000D02*
X89500000Y-91540000D01*
X89500000Y-91540000D02*
X93300000Y-95340000D01*
X94442857Y-78400000D02*
X93041857Y-76999000D01*
X86801000Y-76999000D02*
X86224265Y-77575735D01*
%TO.N,/SCK*%
X79800000Y-84100000D02*
X81700000Y-82200000D01*
%TO.N,/MISO*%
X78500000Y-83300000D02*
X79160000Y-82640000D01*
X79160000Y-82640000D02*
X79160000Y-80660000D01*
%TO.N,/SCK*%
X81700000Y-82200000D02*
X81700000Y-80660000D01*
X134900000Y-99600000D02*
X134500000Y-99200000D01*
%TO.N,/MISO*%
X140300000Y-105700000D02*
X142400000Y-103600000D01*
X133400000Y-105700000D02*
X140300000Y-105700000D01*
%TO.N,/SCK*%
X139600000Y-104300000D02*
X142300000Y-101600000D01*
X134900000Y-104300000D02*
X134900000Y-99600000D01*
X134900000Y-104300000D02*
X139600000Y-104300000D01*
X134500000Y-99200000D02*
X133800000Y-99200000D01*
%TO.N,+3V3*%
X117642857Y-85180000D02*
X123728571Y-85180000D01*
X74080000Y-80660000D02*
X78600000Y-85180000D01*
X111557143Y-85180000D02*
X117642857Y-85180000D01*
%TO.N,/CS6*%
X81700000Y-95900000D02*
X89200000Y-103400000D01*
%TO.N,+3V3*%
X78600000Y-85180000D02*
X93300000Y-85180000D01*
%TO.N,/CS6*%
X89200000Y-103400000D02*
X123600000Y-103400000D01*
%TO.N,+3V3*%
X129814286Y-85180000D02*
X135900000Y-85180000D01*
X93300000Y-85180000D02*
X99385714Y-85180000D01*
X99385714Y-85180000D02*
X105471429Y-85180000D01*
X105471429Y-85180000D02*
X111557143Y-85180000D01*
X123728571Y-85180000D02*
X129814286Y-85180000D01*
%TO.N,/CS7*%
X84240000Y-95900000D02*
X90840000Y-102500000D01*
%TO.N,/CS1*%
X78700000Y-77200000D02*
X76036690Y-77200000D01*
%TO.N,/CS7*%
X90840000Y-102500000D02*
X129800000Y-102500000D01*
%TO.N,/CS1*%
X76036690Y-77200000D02*
X72603000Y-80633690D01*
%TO.N,/MOSI*%
X91300000Y-90800000D02*
X93300000Y-92800000D01*
X91300000Y-87400000D02*
X91300000Y-90800000D01*
%TO.N,/CS1*%
X72603000Y-80633690D02*
X72603000Y-92297000D01*
X72603000Y-92297000D02*
X69000000Y-95900000D01*
%TO.N,/CS2*%
X87100000Y-79800000D02*
X86900000Y-79800000D01*
%TO.N,/MISO*%
X93041857Y-76999000D02*
X86801000Y-76999000D01*
%TO.N,/CS2*%
X89200000Y-77700000D02*
X87100000Y-79800000D01*
X89400000Y-82500000D02*
X96300000Y-82500000D01*
X89200000Y-77600000D02*
X89200000Y-77700000D01*
X96300000Y-82500000D02*
X96700000Y-82900000D01*
%TO.N,/MISO*%
X86224265Y-77575735D02*
X82244265Y-77575735D01*
%TO.N,/SCK*%
X87400000Y-77700000D02*
X85503000Y-79597000D01*
X82763000Y-79597000D02*
X81700000Y-80660000D01*
%TO.N,/MISO*%
X82244265Y-77575735D02*
X79160000Y-80660000D01*
%TO.N,/SCK*%
X85503000Y-79597000D02*
X82763000Y-79597000D01*
%TO.N,/MOSI*%
X107300000Y-93200000D02*
X107700000Y-92800000D01*
X129814286Y-92800000D02*
X135900000Y-92800000D01*
%TO.N,/SCK*%
X123728571Y-90260000D02*
X129814286Y-90260000D01*
%TO.N,/MISO*%
X117642857Y-95340000D02*
X121600000Y-95340000D01*
%TO.N,/SCK*%
X93300000Y-90260000D02*
X99385714Y-90260000D01*
X117642857Y-90260000D02*
X121900000Y-90260000D01*
%TO.N,/MISO*%
X123728571Y-95340000D02*
X129814286Y-95340000D01*
%TO.N,/SCK*%
X111557143Y-90260000D02*
X114300000Y-90260000D01*
%TO.N,/MISO*%
X93300000Y-95340000D02*
X99385714Y-95340000D01*
X99385714Y-95340000D02*
X105471429Y-95340000D01*
%TO.N,/MOSI*%
X119700000Y-93300000D02*
X120200000Y-92800000D01*
X120200000Y-92800000D02*
X123728571Y-92800000D01*
X107700000Y-92800000D02*
X111557143Y-92800000D01*
%TO.N,/SCK*%
X99385714Y-90260000D02*
X105471429Y-90260000D01*
X105471429Y-90260000D02*
X111557143Y-90260000D01*
X129814286Y-90260000D02*
X135900000Y-90260000D01*
%TO.N,/MISO*%
X107660000Y-95340000D02*
X111557143Y-95340000D01*
X107500000Y-95500000D02*
X107660000Y-95340000D01*
X111557143Y-95340000D02*
X117642857Y-95340000D01*
%TO.N,*%
X115000000Y-87500000D02*
X115000000Y-86300000D01*
%TO.N,/MISO*%
X121600000Y-95340000D02*
X123728571Y-95340000D01*
X126000000Y-93068571D02*
X123728571Y-95340000D01*
X126000000Y-91700000D02*
X126000000Y-93068571D01*
X113600000Y-93297143D02*
X111557143Y-95340000D01*
%TO.N,/SCK*%
X114300000Y-90260000D02*
X117642857Y-90260000D01*
%TO.N,/MISO*%
X113600000Y-91700000D02*
X113600000Y-93297143D01*
%TO.N,/SCK*%
X121900000Y-90260000D02*
X123728571Y-90260000D01*
%TO.N,/MOSI*%
X95900000Y-92900000D02*
X96000000Y-92800000D01*
%TO.N,/MISO*%
X140600000Y-99600000D02*
X140600000Y-101400000D01*
X140600000Y-101400000D02*
X140300000Y-101700000D01*
%TO.N,/MOSI*%
X98400000Y-79900000D02*
X93600000Y-79900000D01*
X98800000Y-79500000D02*
X98400000Y-79900000D01*
X96000000Y-92800000D02*
X99385714Y-92800000D01*
X132300000Y-95285714D02*
X129814286Y-92800000D01*
X132300000Y-106700000D02*
X132300000Y-95285714D01*
%TO.N,/CS4*%
X76620000Y-95900000D02*
X86220000Y-105500000D01*
X86220000Y-105500000D02*
X111300000Y-105500000D01*
%TO.N,/CS2*%
X71540000Y-95900000D02*
X82840000Y-107200000D01*
X82840000Y-107200000D02*
X99200000Y-107200000D01*
X99200000Y-107200000D02*
X99400000Y-107400000D01*
%TD*%
%TA.AperFunction,Conductor*%
%TO.N,GND*%
G36*
X73433792Y-81747678D02*
G01*
X73491328Y-81776993D01*
X73595362Y-81830003D01*
X73595370Y-81830006D01*
X73646593Y-81846649D01*
X73784364Y-81891413D01*
X73980639Y-81922500D01*
X73980640Y-81922500D01*
X74179360Y-81922500D01*
X74179361Y-81922500D01*
X74326899Y-81899132D01*
X74396192Y-81908087D01*
X74433978Y-81933924D01*
X78185324Y-85685271D01*
X78185331Y-85685277D01*
X78291871Y-85756464D01*
X78291870Y-85756464D01*
X78326544Y-85770826D01*
X78410256Y-85805501D01*
X78410260Y-85805501D01*
X78410261Y-85805502D01*
X78535928Y-85830500D01*
X78535931Y-85830500D01*
X91825501Y-85830500D01*
X91892540Y-85850185D01*
X91938295Y-85902989D01*
X91949501Y-85954500D01*
X91949501Y-86077876D01*
X91955908Y-86137483D01*
X92006202Y-86272328D01*
X92006206Y-86272335D01*
X92092452Y-86387544D01*
X92092455Y-86387547D01*
X92207664Y-86473793D01*
X92207671Y-86473797D01*
X92252618Y-86490561D01*
X92342517Y-86524091D01*
X92402127Y-86530500D01*
X92412685Y-86530499D01*
X92479723Y-86550179D01*
X92500372Y-86566818D01*
X93170591Y-87237037D01*
X93107007Y-87254075D01*
X92992993Y-87319901D01*
X92899901Y-87412993D01*
X92834075Y-87527007D01*
X92817037Y-87590591D01*
X92184728Y-86958282D01*
X92184726Y-86958282D01*
X92176200Y-86970018D01*
X92120870Y-87012684D01*
X92051257Y-87018663D01*
X91989462Y-86986057D01*
X91972780Y-86966024D01*
X91921789Y-86889711D01*
X91921786Y-86889707D01*
X91810292Y-86778213D01*
X91810288Y-86778210D01*
X91679185Y-86690609D01*
X91679172Y-86690602D01*
X91533501Y-86630264D01*
X91533489Y-86630261D01*
X91378845Y-86599500D01*
X91378842Y-86599500D01*
X91221158Y-86599500D01*
X91221155Y-86599500D01*
X91066510Y-86630261D01*
X91066498Y-86630264D01*
X90920827Y-86690602D01*
X90920814Y-86690609D01*
X90789711Y-86778210D01*
X90789707Y-86778213D01*
X90678213Y-86889707D01*
X90678210Y-86889711D01*
X90590609Y-87020814D01*
X90590602Y-87020827D01*
X90530264Y-87166498D01*
X90530261Y-87166510D01*
X90499500Y-87321153D01*
X90499500Y-87478846D01*
X90530261Y-87633489D01*
X90530264Y-87633501D01*
X90590602Y-87779172D01*
X90590606Y-87779179D01*
X90628602Y-87836044D01*
X90649480Y-87902721D01*
X90649500Y-87904935D01*
X90649500Y-90864071D01*
X90669285Y-90963532D01*
X90669285Y-90963533D01*
X90674497Y-90989737D01*
X90674498Y-90989741D01*
X90674499Y-90989744D01*
X90723535Y-91108127D01*
X90778047Y-91189711D01*
X90794726Y-91214673D01*
X90794727Y-91214674D01*
X91949342Y-92369287D01*
X91982827Y-92430610D01*
X91982321Y-92478755D01*
X91983516Y-92478945D01*
X91949500Y-92693713D01*
X91949500Y-92770192D01*
X91929815Y-92837231D01*
X91877011Y-92882986D01*
X91807853Y-92892930D01*
X91744297Y-92863905D01*
X91737819Y-92857873D01*
X90186819Y-91306873D01*
X90153334Y-91245550D01*
X90150500Y-91219192D01*
X90150500Y-90604935D01*
X90170185Y-90537896D01*
X90171366Y-90536090D01*
X90209394Y-90479179D01*
X90269737Y-90333497D01*
X90300500Y-90178842D01*
X90300500Y-90021158D01*
X90300500Y-90021155D01*
X90300499Y-90021153D01*
X90278269Y-89909397D01*
X90269737Y-89866503D01*
X90217996Y-89741588D01*
X90209397Y-89720827D01*
X90209390Y-89720814D01*
X90121789Y-89589711D01*
X90121786Y-89589707D01*
X90010292Y-89478213D01*
X90010288Y-89478210D01*
X89879185Y-89390609D01*
X89879172Y-89390602D01*
X89733501Y-89330264D01*
X89733489Y-89330261D01*
X89578845Y-89299500D01*
X89578842Y-89299500D01*
X89421158Y-89299500D01*
X89421155Y-89299500D01*
X89266510Y-89330261D01*
X89266498Y-89330264D01*
X89120827Y-89390602D01*
X89120814Y-89390609D01*
X88989711Y-89478210D01*
X88989707Y-89478213D01*
X88878213Y-89589707D01*
X88878210Y-89589711D01*
X88790609Y-89720814D01*
X88790602Y-89720827D01*
X88730264Y-89866498D01*
X88730261Y-89866510D01*
X88699500Y-90021153D01*
X88699500Y-90178846D01*
X88730261Y-90333489D01*
X88730264Y-90333501D01*
X88790602Y-90479172D01*
X88790606Y-90479179D01*
X88828602Y-90536044D01*
X88849480Y-90602721D01*
X88849500Y-90604935D01*
X88849500Y-91604070D01*
X88862913Y-91671498D01*
X88862913Y-91671500D01*
X88874497Y-91729736D01*
X88874499Y-91729744D01*
X88891130Y-91769896D01*
X88923535Y-91848127D01*
X88980784Y-91933807D01*
X88994726Y-91954673D01*
X88994727Y-91954674D01*
X91949342Y-94909288D01*
X91982827Y-94970611D01*
X91982319Y-95018755D01*
X91983516Y-95018945D01*
X91949500Y-95233713D01*
X91949500Y-95310191D01*
X91929815Y-95377230D01*
X91877011Y-95422985D01*
X91807853Y-95432929D01*
X91744297Y-95403904D01*
X91737819Y-95397872D01*
X90671673Y-94331726D01*
X90638993Y-94309890D01*
X90565127Y-94260535D01*
X90446744Y-94211499D01*
X90446738Y-94211497D01*
X90321071Y-94186500D01*
X90321069Y-94186500D01*
X71932808Y-94186500D01*
X71865769Y-94166815D01*
X71820014Y-94114011D01*
X71810070Y-94044853D01*
X71839095Y-93981297D01*
X71845127Y-93974819D01*
X73108271Y-92711675D01*
X73108276Y-92711670D01*
X73162671Y-92630261D01*
X73179464Y-92605129D01*
X73179465Y-92605127D01*
X73228501Y-92486744D01*
X73232179Y-92468248D01*
X73235909Y-92449502D01*
X73235909Y-92449500D01*
X73253500Y-92361069D01*
X73253500Y-81858163D01*
X73273185Y-81791124D01*
X73325989Y-81745369D01*
X73395147Y-81735425D01*
X73433792Y-81747678D01*
G37*
%TD.AperFunction*%
%TA.AperFunction,Conductor*%
G36*
X97978254Y-85850185D02*
G01*
X98024009Y-85902989D01*
X98035215Y-85954500D01*
X98035215Y-86077876D01*
X98041622Y-86137483D01*
X98091916Y-86272328D01*
X98091920Y-86272335D01*
X98178166Y-86387544D01*
X98178169Y-86387547D01*
X98293378Y-86473793D01*
X98293385Y-86473797D01*
X98338332Y-86490561D01*
X98428231Y-86524091D01*
X98487841Y-86530500D01*
X98498399Y-86530499D01*
X98565437Y-86550179D01*
X98586086Y-86566818D01*
X99256305Y-87237037D01*
X99192721Y-87254075D01*
X99078707Y-87319901D01*
X98985615Y-87412993D01*
X98919789Y-87527007D01*
X98902751Y-87590591D01*
X98270442Y-86958282D01*
X98270441Y-86958282D01*
X98231094Y-87012439D01*
X98134618Y-87201782D01*
X98068956Y-87403869D01*
X98068956Y-87403872D01*
X98035714Y-87613753D01*
X98035714Y-87826246D01*
X98068956Y-88036127D01*
X98068956Y-88036130D01*
X98134618Y-88238217D01*
X98231089Y-88427550D01*
X98270442Y-88481716D01*
X98902751Y-87849408D01*
X98919789Y-87912993D01*
X98985615Y-88027007D01*
X99078707Y-88120099D01*
X99192721Y-88185925D01*
X99256304Y-88202962D01*
X98623996Y-88835269D01*
X98623996Y-88835270D01*
X98678166Y-88874626D01*
X98678165Y-88874626D01*
X98687209Y-88879234D01*
X98738006Y-88927208D01*
X98754801Y-88995029D01*
X98732264Y-89061164D01*
X98687213Y-89100202D01*
X98677896Y-89104949D01*
X98505927Y-89229890D01*
X98355604Y-89380213D01*
X98227799Y-89556125D01*
X98226454Y-89555148D01*
X98180009Y-89597166D01*
X98126096Y-89609500D01*
X94559618Y-89609500D01*
X94492579Y-89589815D01*
X94458900Y-89555408D01*
X94457915Y-89556125D01*
X94330109Y-89380213D01*
X94179786Y-89229890D01*
X94007817Y-89104949D01*
X93998504Y-89100204D01*
X93947707Y-89052230D01*
X93930912Y-88984409D01*
X93953449Y-88918274D01*
X93998507Y-88879232D01*
X94007555Y-88874622D01*
X94061716Y-88835270D01*
X94061717Y-88835270D01*
X93429408Y-88202962D01*
X93492993Y-88185925D01*
X93607007Y-88120099D01*
X93700099Y-88027007D01*
X93765925Y-87912993D01*
X93782962Y-87849408D01*
X94415270Y-88481717D01*
X94415270Y-88481716D01*
X94454622Y-88427554D01*
X94551095Y-88238217D01*
X94616757Y-88036130D01*
X94616757Y-88036127D01*
X94650000Y-87826246D01*
X94650000Y-87613753D01*
X94616757Y-87403872D01*
X94616757Y-87403869D01*
X94551095Y-87201782D01*
X94454624Y-87012449D01*
X94415270Y-86958282D01*
X94415269Y-86958282D01*
X93782962Y-87590590D01*
X93765925Y-87527007D01*
X93700099Y-87412993D01*
X93607007Y-87319901D01*
X93492993Y-87254075D01*
X93429409Y-87237037D01*
X94099627Y-86566818D01*
X94160950Y-86533333D01*
X94187307Y-86530499D01*
X94197872Y-86530499D01*
X94257483Y-86524091D01*
X94392331Y-86473796D01*
X94507546Y-86387546D01*
X94593796Y-86272331D01*
X94644091Y-86137483D01*
X94650500Y-86077873D01*
X94650500Y-85954500D01*
X94670185Y-85887461D01*
X94722989Y-85841706D01*
X94774500Y-85830500D01*
X97911215Y-85830500D01*
X97978254Y-85850185D01*
G37*
%TD.AperFunction*%
%TA.AperFunction,Conductor*%
G36*
X104063969Y-85850185D02*
G01*
X104109724Y-85902989D01*
X104120930Y-85954500D01*
X104120930Y-86077876D01*
X104127337Y-86137483D01*
X104177631Y-86272328D01*
X104177635Y-86272335D01*
X104263881Y-86387544D01*
X104263884Y-86387547D01*
X104379093Y-86473793D01*
X104379100Y-86473797D01*
X104424047Y-86490561D01*
X104513946Y-86524091D01*
X104573556Y-86530500D01*
X104584114Y-86530499D01*
X104651152Y-86550179D01*
X104671801Y-86566818D01*
X105342020Y-87237037D01*
X105278436Y-87254075D01*
X105164422Y-87319901D01*
X105071330Y-87412993D01*
X105005504Y-87527007D01*
X104988466Y-87590591D01*
X104356157Y-86958282D01*
X104356156Y-86958282D01*
X104316809Y-87012439D01*
X104220333Y-87201782D01*
X104154671Y-87403869D01*
X104154671Y-87403872D01*
X104121429Y-87613753D01*
X104121429Y-87826246D01*
X104154671Y-88036127D01*
X104154671Y-88036130D01*
X104220333Y-88238217D01*
X104316804Y-88427550D01*
X104356157Y-88481716D01*
X104988466Y-87849408D01*
X105005504Y-87912993D01*
X105071330Y-88027007D01*
X105164422Y-88120099D01*
X105278436Y-88185925D01*
X105342019Y-88202962D01*
X104709711Y-88835269D01*
X104709711Y-88835270D01*
X104763881Y-88874626D01*
X104763880Y-88874626D01*
X104772924Y-88879234D01*
X104823721Y-88927208D01*
X104840516Y-88995029D01*
X104817979Y-89061164D01*
X104772928Y-89100202D01*
X104763611Y-89104949D01*
X104591642Y-89229890D01*
X104441319Y-89380213D01*
X104313514Y-89556125D01*
X104312169Y-89555148D01*
X104265724Y-89597166D01*
X104211811Y-89609500D01*
X100645332Y-89609500D01*
X100578293Y-89589815D01*
X100544614Y-89555408D01*
X100543629Y-89556125D01*
X100415823Y-89380213D01*
X100265500Y-89229890D01*
X100093531Y-89104949D01*
X100084218Y-89100204D01*
X100033421Y-89052230D01*
X100016626Y-88984409D01*
X100039163Y-88918274D01*
X100084221Y-88879232D01*
X100093269Y-88874622D01*
X100147430Y-88835270D01*
X100147431Y-88835270D01*
X99515122Y-88202962D01*
X99578707Y-88185925D01*
X99692721Y-88120099D01*
X99785813Y-88027007D01*
X99851639Y-87912993D01*
X99868676Y-87849409D01*
X100500984Y-88481717D01*
X100500984Y-88481716D01*
X100540336Y-88427554D01*
X100636809Y-88238217D01*
X100702471Y-88036130D01*
X100702471Y-88036127D01*
X100735714Y-87826246D01*
X100735714Y-87613753D01*
X100702471Y-87403872D01*
X100702471Y-87403869D01*
X100636809Y-87201782D01*
X100540338Y-87012449D01*
X100500984Y-86958282D01*
X100500983Y-86958282D01*
X99868676Y-87590590D01*
X99851639Y-87527007D01*
X99785813Y-87412993D01*
X99692721Y-87319901D01*
X99578707Y-87254075D01*
X99515123Y-87237037D01*
X100185341Y-86566818D01*
X100246664Y-86533333D01*
X100273021Y-86530499D01*
X100283586Y-86530499D01*
X100343197Y-86524091D01*
X100478045Y-86473796D01*
X100593260Y-86387546D01*
X100679510Y-86272331D01*
X100729805Y-86137483D01*
X100736214Y-86077873D01*
X100736214Y-85954500D01*
X100755899Y-85887461D01*
X100808703Y-85841706D01*
X100860214Y-85830500D01*
X103996930Y-85830500D01*
X104063969Y-85850185D01*
G37*
%TD.AperFunction*%
%TA.AperFunction,Conductor*%
G36*
X110149683Y-85850185D02*
G01*
X110195438Y-85902989D01*
X110206644Y-85954500D01*
X110206644Y-86077876D01*
X110213051Y-86137483D01*
X110263345Y-86272328D01*
X110263349Y-86272335D01*
X110349595Y-86387544D01*
X110349598Y-86387547D01*
X110464807Y-86473793D01*
X110464814Y-86473797D01*
X110509761Y-86490561D01*
X110599660Y-86524091D01*
X110659270Y-86530500D01*
X110669828Y-86530499D01*
X110736866Y-86550179D01*
X110757515Y-86566818D01*
X111427734Y-87237037D01*
X111364150Y-87254075D01*
X111250136Y-87319901D01*
X111157044Y-87412993D01*
X111091218Y-87527007D01*
X111074180Y-87590591D01*
X110441871Y-86958282D01*
X110441870Y-86958282D01*
X110402523Y-87012439D01*
X110306047Y-87201782D01*
X110240385Y-87403869D01*
X110240385Y-87403872D01*
X110207143Y-87613753D01*
X110207143Y-87826246D01*
X110240385Y-88036127D01*
X110240385Y-88036130D01*
X110306047Y-88238217D01*
X110402518Y-88427550D01*
X110441871Y-88481716D01*
X111074180Y-87849408D01*
X111091218Y-87912993D01*
X111157044Y-88027007D01*
X111250136Y-88120099D01*
X111364150Y-88185925D01*
X111427733Y-88202962D01*
X110795425Y-88835269D01*
X110795425Y-88835270D01*
X110849595Y-88874626D01*
X110849594Y-88874626D01*
X110858638Y-88879234D01*
X110909435Y-88927208D01*
X110926230Y-88995029D01*
X110903693Y-89061164D01*
X110858642Y-89100202D01*
X110849325Y-89104949D01*
X110677356Y-89229890D01*
X110527033Y-89380213D01*
X110399228Y-89556125D01*
X110397883Y-89555148D01*
X110351438Y-89597166D01*
X110297525Y-89609500D01*
X106731047Y-89609500D01*
X106664008Y-89589815D01*
X106630329Y-89555408D01*
X106629344Y-89556125D01*
X106501538Y-89380213D01*
X106351215Y-89229890D01*
X106179246Y-89104949D01*
X106169933Y-89100204D01*
X106119136Y-89052230D01*
X106102341Y-88984409D01*
X106124878Y-88918274D01*
X106169936Y-88879232D01*
X106178984Y-88874622D01*
X106233145Y-88835270D01*
X106233146Y-88835270D01*
X105600837Y-88202962D01*
X105664422Y-88185925D01*
X105778436Y-88120099D01*
X105871528Y-88027007D01*
X105937354Y-87912993D01*
X105954391Y-87849409D01*
X106586699Y-88481717D01*
X106586699Y-88481716D01*
X106626051Y-88427554D01*
X106722524Y-88238217D01*
X106788186Y-88036130D01*
X106788186Y-88036127D01*
X106821429Y-87826246D01*
X106821429Y-87613753D01*
X106788186Y-87403872D01*
X106788186Y-87403869D01*
X106722524Y-87201782D01*
X106626053Y-87012449D01*
X106586699Y-86958282D01*
X106586698Y-86958282D01*
X105954391Y-87590590D01*
X105937354Y-87527007D01*
X105871528Y-87412993D01*
X105778436Y-87319901D01*
X105664422Y-87254075D01*
X105600838Y-87237037D01*
X106271056Y-86566818D01*
X106332379Y-86533333D01*
X106358736Y-86530499D01*
X106369301Y-86530499D01*
X106428912Y-86524091D01*
X106563760Y-86473796D01*
X106678975Y-86387546D01*
X106765225Y-86272331D01*
X106815520Y-86137483D01*
X106821929Y-86077873D01*
X106821929Y-85954500D01*
X106841614Y-85887461D01*
X106894418Y-85841706D01*
X106945929Y-85830500D01*
X110082644Y-85830500D01*
X110149683Y-85850185D01*
G37*
%TD.AperFunction*%
%TA.AperFunction,Conductor*%
G36*
X114209478Y-85850185D02*
G01*
X114255233Y-85902989D01*
X114265177Y-85972147D01*
X114257000Y-86001952D01*
X114230264Y-86066498D01*
X114230261Y-86066510D01*
X114199500Y-86221153D01*
X114199500Y-86378846D01*
X114230261Y-86533489D01*
X114230264Y-86533501D01*
X114290602Y-86679172D01*
X114290606Y-86679179D01*
X114328602Y-86736044D01*
X114349480Y-86802721D01*
X114349500Y-86804935D01*
X114349500Y-87564069D01*
X114349500Y-87564071D01*
X114349499Y-87564071D01*
X114374497Y-87689738D01*
X114374499Y-87689744D01*
X114423533Y-87808124D01*
X114423538Y-87808133D01*
X114494723Y-87914668D01*
X114494726Y-87914672D01*
X114585327Y-88005273D01*
X114585331Y-88005276D01*
X114691866Y-88076461D01*
X114691872Y-88076464D01*
X114691873Y-88076465D01*
X114810256Y-88125501D01*
X114810260Y-88125501D01*
X114810261Y-88125502D01*
X114935928Y-88150500D01*
X114935931Y-88150500D01*
X115064071Y-88150500D01*
X115165804Y-88130263D01*
X115189744Y-88125501D01*
X115308127Y-88076465D01*
X115414669Y-88005276D01*
X115505276Y-87914669D01*
X115576465Y-87808127D01*
X115625501Y-87689744D01*
X115640617Y-87613753D01*
X115646399Y-87584689D01*
X115646399Y-87584688D01*
X115650499Y-87564073D01*
X115650500Y-87564071D01*
X115650500Y-86804935D01*
X115670185Y-86737896D01*
X115671366Y-86736090D01*
X115709394Y-86679179D01*
X115769737Y-86533497D01*
X115800500Y-86378842D01*
X115800500Y-86221158D01*
X115800500Y-86221155D01*
X115800499Y-86221153D01*
X115783856Y-86137483D01*
X115769737Y-86066503D01*
X115769735Y-86066498D01*
X115743000Y-86001952D01*
X115735531Y-85932482D01*
X115766807Y-85870003D01*
X115826896Y-85834352D01*
X115857561Y-85830500D01*
X116168358Y-85830500D01*
X116235397Y-85850185D01*
X116281152Y-85902989D01*
X116292358Y-85954500D01*
X116292358Y-86077876D01*
X116298765Y-86137483D01*
X116349059Y-86272328D01*
X116349063Y-86272335D01*
X116435309Y-86387544D01*
X116435312Y-86387547D01*
X116550521Y-86473793D01*
X116550528Y-86473797D01*
X116595475Y-86490561D01*
X116685374Y-86524091D01*
X116744984Y-86530500D01*
X116755542Y-86530499D01*
X116822580Y-86550179D01*
X116843229Y-86566818D01*
X117513448Y-87237037D01*
X117449864Y-87254075D01*
X117335850Y-87319901D01*
X117242758Y-87412993D01*
X117176932Y-87527007D01*
X117159894Y-87590591D01*
X116527585Y-86958282D01*
X116527584Y-86958282D01*
X116488237Y-87012439D01*
X116391761Y-87201782D01*
X116326099Y-87403869D01*
X116326099Y-87403872D01*
X116292857Y-87613753D01*
X116292857Y-87826246D01*
X116326099Y-88036127D01*
X116326099Y-88036130D01*
X116391761Y-88238217D01*
X116488232Y-88427550D01*
X116527585Y-88481716D01*
X117159894Y-87849408D01*
X117176932Y-87912993D01*
X117242758Y-88027007D01*
X117335850Y-88120099D01*
X117449864Y-88185925D01*
X117513447Y-88202962D01*
X116881139Y-88835269D01*
X116881139Y-88835270D01*
X116935309Y-88874626D01*
X116935308Y-88874626D01*
X116944352Y-88879234D01*
X116995149Y-88927208D01*
X117011944Y-88995029D01*
X116989407Y-89061164D01*
X116944356Y-89100202D01*
X116935039Y-89104949D01*
X116763070Y-89229890D01*
X116612747Y-89380213D01*
X116484942Y-89556125D01*
X116483597Y-89555148D01*
X116437152Y-89597166D01*
X116383239Y-89609500D01*
X114804935Y-89609500D01*
X114737896Y-89589815D01*
X114736090Y-89588633D01*
X114679179Y-89550606D01*
X114679172Y-89550602D01*
X114533501Y-89490264D01*
X114533489Y-89490261D01*
X114378845Y-89459500D01*
X114378842Y-89459500D01*
X114221158Y-89459500D01*
X114221155Y-89459500D01*
X114066510Y-89490261D01*
X114066498Y-89490264D01*
X113920827Y-89550602D01*
X113920820Y-89550606D01*
X113905379Y-89560924D01*
X113863955Y-89588602D01*
X113797279Y-89609480D01*
X113795065Y-89609500D01*
X112816761Y-89609500D01*
X112749722Y-89589815D01*
X112716043Y-89555408D01*
X112715058Y-89556125D01*
X112587252Y-89380213D01*
X112436929Y-89229890D01*
X112264960Y-89104949D01*
X112255647Y-89100204D01*
X112204850Y-89052230D01*
X112188055Y-88984409D01*
X112210592Y-88918274D01*
X112255650Y-88879232D01*
X112264698Y-88874622D01*
X112318859Y-88835270D01*
X112318860Y-88835270D01*
X111686551Y-88202962D01*
X111750136Y-88185925D01*
X111864150Y-88120099D01*
X111957242Y-88027007D01*
X112023068Y-87912993D01*
X112040105Y-87849409D01*
X112672413Y-88481717D01*
X112672413Y-88481716D01*
X112711765Y-88427554D01*
X112808238Y-88238217D01*
X112873900Y-88036130D01*
X112873900Y-88036127D01*
X112907143Y-87826246D01*
X112907143Y-87613753D01*
X112873900Y-87403872D01*
X112873900Y-87403869D01*
X112808238Y-87201782D01*
X112711767Y-87012449D01*
X112672413Y-86958282D01*
X112672412Y-86958282D01*
X112040105Y-87590590D01*
X112023068Y-87527007D01*
X111957242Y-87412993D01*
X111864150Y-87319901D01*
X111750136Y-87254075D01*
X111686552Y-87237037D01*
X112356770Y-86566818D01*
X112418093Y-86533333D01*
X112444450Y-86530499D01*
X112455015Y-86530499D01*
X112514626Y-86524091D01*
X112649474Y-86473796D01*
X112764689Y-86387546D01*
X112850939Y-86272331D01*
X112901234Y-86137483D01*
X112907643Y-86077873D01*
X112907643Y-85954500D01*
X112927328Y-85887461D01*
X112980132Y-85841706D01*
X113031643Y-85830500D01*
X114142439Y-85830500D01*
X114209478Y-85850185D01*
G37*
%TD.AperFunction*%
%TA.AperFunction,Conductor*%
G36*
X122321111Y-85850185D02*
G01*
X122366866Y-85902989D01*
X122378072Y-85954500D01*
X122378072Y-86077876D01*
X122384479Y-86137483D01*
X122434773Y-86272328D01*
X122434777Y-86272335D01*
X122521023Y-86387544D01*
X122521026Y-86387547D01*
X122636235Y-86473793D01*
X122636242Y-86473797D01*
X122681189Y-86490561D01*
X122771088Y-86524091D01*
X122830698Y-86530500D01*
X122841256Y-86530499D01*
X122908294Y-86550179D01*
X122928943Y-86566818D01*
X123599162Y-87237037D01*
X123535578Y-87254075D01*
X123421564Y-87319901D01*
X123328472Y-87412993D01*
X123262646Y-87527007D01*
X123245608Y-87590591D01*
X122613299Y-86958282D01*
X122613298Y-86958282D01*
X122573951Y-87012439D01*
X122477475Y-87201782D01*
X122411813Y-87403869D01*
X122411813Y-87403872D01*
X122378571Y-87613753D01*
X122378571Y-87826246D01*
X122411813Y-88036127D01*
X122411813Y-88036130D01*
X122477475Y-88238217D01*
X122573946Y-88427550D01*
X122613299Y-88481716D01*
X123245608Y-87849408D01*
X123262646Y-87912993D01*
X123328472Y-88027007D01*
X123421564Y-88120099D01*
X123535578Y-88185925D01*
X123599161Y-88202962D01*
X122966853Y-88835269D01*
X122966853Y-88835270D01*
X123021023Y-88874626D01*
X123021022Y-88874626D01*
X123030066Y-88879234D01*
X123080863Y-88927208D01*
X123097658Y-88995029D01*
X123075121Y-89061164D01*
X123030070Y-89100202D01*
X123020753Y-89104949D01*
X122848784Y-89229890D01*
X122698461Y-89380213D01*
X122570656Y-89556125D01*
X122569311Y-89555148D01*
X122566979Y-89557257D01*
X122562666Y-89566703D01*
X122541510Y-89580298D01*
X122522866Y-89597166D01*
X122511062Y-89599866D01*
X122503888Y-89604477D01*
X122468953Y-89609500D01*
X122404935Y-89609500D01*
X122337896Y-89589815D01*
X122336090Y-89588633D01*
X122279179Y-89550606D01*
X122279172Y-89550602D01*
X122133501Y-89490264D01*
X122133489Y-89490261D01*
X121978845Y-89459500D01*
X121978842Y-89459500D01*
X121821158Y-89459500D01*
X121821155Y-89459500D01*
X121666510Y-89490261D01*
X121666498Y-89490264D01*
X121520827Y-89550602D01*
X121520820Y-89550606D01*
X121505379Y-89560924D01*
X121463955Y-89588602D01*
X121397279Y-89609480D01*
X121395065Y-89609500D01*
X118902475Y-89609500D01*
X118835436Y-89589815D01*
X118801757Y-89555408D01*
X118800772Y-89556125D01*
X118672966Y-89380213D01*
X118522643Y-89229890D01*
X118350674Y-89104949D01*
X118341361Y-89100204D01*
X118290564Y-89052230D01*
X118273769Y-88984409D01*
X118296306Y-88918274D01*
X118341364Y-88879232D01*
X118350412Y-88874622D01*
X118404573Y-88835270D01*
X118404574Y-88835270D01*
X117772265Y-88202962D01*
X117835850Y-88185925D01*
X117949864Y-88120099D01*
X118042956Y-88027007D01*
X118108782Y-87912993D01*
X118125819Y-87849409D01*
X118758127Y-88481717D01*
X118758127Y-88481716D01*
X118797479Y-88427554D01*
X118893952Y-88238217D01*
X118959614Y-88036130D01*
X118959614Y-88036127D01*
X118992857Y-87826246D01*
X118992857Y-87613753D01*
X118959614Y-87403872D01*
X118959614Y-87403869D01*
X118893952Y-87201782D01*
X118797481Y-87012449D01*
X118758127Y-86958282D01*
X118758126Y-86958282D01*
X118125819Y-87590590D01*
X118108782Y-87527007D01*
X118042956Y-87412993D01*
X117949864Y-87319901D01*
X117835850Y-87254075D01*
X117772266Y-87237037D01*
X118442484Y-86566818D01*
X118503807Y-86533333D01*
X118530164Y-86530499D01*
X118540729Y-86530499D01*
X118600340Y-86524091D01*
X118735188Y-86473796D01*
X118850403Y-86387546D01*
X118936653Y-86272331D01*
X118986948Y-86137483D01*
X118993357Y-86077873D01*
X118993357Y-85954500D01*
X119013042Y-85887461D01*
X119065846Y-85841706D01*
X119117357Y-85830500D01*
X122254072Y-85830500D01*
X122321111Y-85850185D01*
G37*
%TD.AperFunction*%
%TA.AperFunction,Conductor*%
G36*
X128406826Y-85850185D02*
G01*
X128452581Y-85902989D01*
X128463787Y-85954500D01*
X128463787Y-86077876D01*
X128470194Y-86137483D01*
X128520488Y-86272328D01*
X128520492Y-86272335D01*
X128606738Y-86387544D01*
X128606741Y-86387547D01*
X128721950Y-86473793D01*
X128721957Y-86473797D01*
X128766904Y-86490561D01*
X128856803Y-86524091D01*
X128916413Y-86530500D01*
X128926971Y-86530499D01*
X128994009Y-86550179D01*
X129014658Y-86566818D01*
X129684877Y-87237037D01*
X129621293Y-87254075D01*
X129507279Y-87319901D01*
X129414187Y-87412993D01*
X129348361Y-87527007D01*
X129331323Y-87590591D01*
X128699014Y-86958282D01*
X128699013Y-86958282D01*
X128659666Y-87012439D01*
X128563190Y-87201782D01*
X128497528Y-87403869D01*
X128497528Y-87403872D01*
X128464286Y-87613753D01*
X128464286Y-87826246D01*
X128497528Y-88036127D01*
X128497528Y-88036130D01*
X128563190Y-88238217D01*
X128659661Y-88427550D01*
X128699014Y-88481716D01*
X129331323Y-87849408D01*
X129348361Y-87912993D01*
X129414187Y-88027007D01*
X129507279Y-88120099D01*
X129621293Y-88185925D01*
X129684876Y-88202962D01*
X129052568Y-88835269D01*
X129052568Y-88835270D01*
X129106738Y-88874626D01*
X129106737Y-88874626D01*
X129115781Y-88879234D01*
X129166578Y-88927208D01*
X129183373Y-88995029D01*
X129160836Y-89061164D01*
X129115785Y-89100202D01*
X129106468Y-89104949D01*
X128934499Y-89229890D01*
X128784176Y-89380213D01*
X128656371Y-89556125D01*
X128655026Y-89555148D01*
X128608581Y-89597166D01*
X128554668Y-89609500D01*
X124988189Y-89609500D01*
X124921150Y-89589815D01*
X124887471Y-89555408D01*
X124886486Y-89556125D01*
X124758680Y-89380213D01*
X124608357Y-89229890D01*
X124436388Y-89104949D01*
X124427075Y-89100204D01*
X124376278Y-89052230D01*
X124359483Y-88984409D01*
X124382020Y-88918274D01*
X124427078Y-88879232D01*
X124436126Y-88874622D01*
X124490287Y-88835270D01*
X124490288Y-88835270D01*
X123857979Y-88202962D01*
X123921564Y-88185925D01*
X124035578Y-88120099D01*
X124128670Y-88027007D01*
X124194496Y-87912993D01*
X124211533Y-87849409D01*
X124843841Y-88481717D01*
X124843841Y-88481716D01*
X124883193Y-88427554D01*
X124979666Y-88238217D01*
X125045328Y-88036130D01*
X125045328Y-88036127D01*
X125078571Y-87826246D01*
X125078571Y-87613753D01*
X125045328Y-87403872D01*
X125045328Y-87403869D01*
X124979666Y-87201782D01*
X124883195Y-87012449D01*
X124843841Y-86958282D01*
X124211533Y-87590590D01*
X124194496Y-87527007D01*
X124128670Y-87412993D01*
X124035578Y-87319901D01*
X123921564Y-87254075D01*
X123857980Y-87237037D01*
X124528198Y-86566818D01*
X124589521Y-86533333D01*
X124615878Y-86530499D01*
X124626443Y-86530499D01*
X124686054Y-86524091D01*
X124820902Y-86473796D01*
X124936117Y-86387546D01*
X125022367Y-86272331D01*
X125072662Y-86137483D01*
X125079071Y-86077873D01*
X125079071Y-85954500D01*
X125098756Y-85887461D01*
X125151560Y-85841706D01*
X125203071Y-85830500D01*
X128339787Y-85830500D01*
X128406826Y-85850185D01*
G37*
%TD.AperFunction*%
%TA.AperFunction,Conductor*%
G36*
X134492540Y-85850185D02*
G01*
X134538295Y-85902989D01*
X134549501Y-85954500D01*
X134549501Y-86077876D01*
X134555908Y-86137483D01*
X134606202Y-86272328D01*
X134606206Y-86272335D01*
X134692452Y-86387544D01*
X134692455Y-86387547D01*
X134807664Y-86473793D01*
X134807671Y-86473797D01*
X134852618Y-86490561D01*
X134942517Y-86524091D01*
X135002127Y-86530500D01*
X135012685Y-86530499D01*
X135079723Y-86550179D01*
X135100372Y-86566818D01*
X135770591Y-87237037D01*
X135707007Y-87254075D01*
X135592993Y-87319901D01*
X135499901Y-87412993D01*
X135434075Y-87527007D01*
X135417037Y-87590591D01*
X134784728Y-86958282D01*
X134784727Y-86958282D01*
X134745380Y-87012439D01*
X134648904Y-87201782D01*
X134583242Y-87403869D01*
X134583242Y-87403872D01*
X134550000Y-87613753D01*
X134550000Y-87826246D01*
X134583242Y-88036127D01*
X134583242Y-88036130D01*
X134648904Y-88238217D01*
X134745375Y-88427550D01*
X134784728Y-88481716D01*
X135417037Y-87849408D01*
X135434075Y-87912993D01*
X135499901Y-88027007D01*
X135592993Y-88120099D01*
X135707007Y-88185925D01*
X135770590Y-88202962D01*
X135138282Y-88835269D01*
X135138282Y-88835270D01*
X135192452Y-88874626D01*
X135192451Y-88874626D01*
X135201495Y-88879234D01*
X135252292Y-88927208D01*
X135269087Y-88995029D01*
X135246550Y-89061164D01*
X135201499Y-89100202D01*
X135192182Y-89104949D01*
X135020213Y-89229890D01*
X134869890Y-89380213D01*
X134742085Y-89556125D01*
X134740740Y-89555148D01*
X134694295Y-89597166D01*
X134640382Y-89609500D01*
X131073904Y-89609500D01*
X131006865Y-89589815D01*
X130973186Y-89555408D01*
X130972201Y-89556125D01*
X130844395Y-89380213D01*
X130694072Y-89229890D01*
X130522103Y-89104949D01*
X130512790Y-89100204D01*
X130461993Y-89052230D01*
X130445198Y-88984409D01*
X130467735Y-88918274D01*
X130512793Y-88879232D01*
X130521841Y-88874622D01*
X130576002Y-88835270D01*
X130576003Y-88835270D01*
X129943694Y-88202962D01*
X130007279Y-88185925D01*
X130121293Y-88120099D01*
X130214385Y-88027007D01*
X130280211Y-87912993D01*
X130297248Y-87849408D01*
X130929556Y-88481717D01*
X130929556Y-88481716D01*
X130968908Y-88427554D01*
X131065381Y-88238217D01*
X131131043Y-88036130D01*
X131131043Y-88036127D01*
X131164286Y-87826246D01*
X131164286Y-87613753D01*
X131131043Y-87403872D01*
X131131043Y-87403869D01*
X131065381Y-87201782D01*
X130968910Y-87012449D01*
X130929556Y-86958282D01*
X130297248Y-87590590D01*
X130280211Y-87527007D01*
X130214385Y-87412993D01*
X130121293Y-87319901D01*
X130007279Y-87254075D01*
X129943695Y-87237037D01*
X130613913Y-86566818D01*
X130675236Y-86533333D01*
X130701593Y-86530499D01*
X130712158Y-86530499D01*
X130771769Y-86524091D01*
X130906617Y-86473796D01*
X131021832Y-86387546D01*
X131108082Y-86272331D01*
X131158377Y-86137483D01*
X131164786Y-86077873D01*
X131164786Y-85954500D01*
X131184471Y-85887461D01*
X131237275Y-85841706D01*
X131288786Y-85830500D01*
X134425501Y-85830500D01*
X134492540Y-85850185D01*
G37*
%TD.AperFunction*%
%TA.AperFunction,Conductor*%
G36*
X137016636Y-88483083D02*
G01*
X137079909Y-88496375D01*
X137129666Y-88545426D01*
X137145005Y-88613591D01*
X137135823Y-88653080D01*
X137130263Y-88666503D01*
X137130261Y-88666510D01*
X137099500Y-88821153D01*
X137099500Y-88978846D01*
X137130261Y-89133489D01*
X137130264Y-89133501D01*
X137190602Y-89279172D01*
X137190606Y-89279179D01*
X137228602Y-89336044D01*
X137234253Y-89354091D01*
X137244477Y-89370000D01*
X137248928Y-89400959D01*
X137249480Y-89402721D01*
X137249500Y-89404935D01*
X137249500Y-89438186D01*
X137229815Y-89505225D01*
X137177011Y-89550980D01*
X137107853Y-89560924D01*
X137044297Y-89531899D01*
X137025182Y-89511071D01*
X136930109Y-89380214D01*
X136930105Y-89380209D01*
X136779786Y-89229890D01*
X136607817Y-89104949D01*
X136598504Y-89100204D01*
X136547707Y-89052230D01*
X136530912Y-88984409D01*
X136553449Y-88918274D01*
X136598507Y-88879232D01*
X136607555Y-88874622D01*
X136661716Y-88835270D01*
X136661717Y-88835270D01*
X136029408Y-88202962D01*
X136092993Y-88185925D01*
X136207007Y-88120099D01*
X136300099Y-88027007D01*
X136365925Y-87912993D01*
X136382962Y-87849408D01*
X137016636Y-88483083D01*
G37*
%TD.AperFunction*%
%TA.AperFunction,Conductor*%
G36*
X92834075Y-87912993D02*
G01*
X92899901Y-88027007D01*
X92992993Y-88120099D01*
X93107007Y-88185925D01*
X93170590Y-88202962D01*
X92538282Y-88835269D01*
X92538282Y-88835270D01*
X92592452Y-88874626D01*
X92592451Y-88874626D01*
X92601495Y-88879234D01*
X92652292Y-88927208D01*
X92669087Y-88995029D01*
X92646550Y-89061164D01*
X92601499Y-89100202D01*
X92592182Y-89104949D01*
X92420213Y-89229890D01*
X92269894Y-89380209D01*
X92269890Y-89380214D01*
X92174818Y-89511071D01*
X92119488Y-89553737D01*
X92049875Y-89559716D01*
X91988080Y-89527111D01*
X91953723Y-89466272D01*
X91950500Y-89438186D01*
X91950500Y-88540961D01*
X91970185Y-88473922D01*
X92022989Y-88428167D01*
X92092147Y-88418223D01*
X92155703Y-88447248D01*
X92174819Y-88468077D01*
X92184728Y-88481716D01*
X92817037Y-87849408D01*
X92834075Y-87912993D01*
G37*
%TD.AperFunction*%
%TA.AperFunction,Conductor*%
G36*
X83041446Y-81120165D02*
G01*
X83080484Y-81165218D01*
X83160213Y-81321694D01*
X83277019Y-81482464D01*
X83417536Y-81622981D01*
X83578306Y-81739787D01*
X83665149Y-81784035D01*
X83755367Y-81830005D01*
X83755370Y-81830006D01*
X83806593Y-81846649D01*
X83944364Y-81891413D01*
X84140639Y-81922500D01*
X84140640Y-81922500D01*
X84339360Y-81922500D01*
X84339361Y-81922500D01*
X84535636Y-81891413D01*
X84724632Y-81830005D01*
X84901694Y-81739787D01*
X85062464Y-81622981D01*
X85202981Y-81482464D01*
X85290783Y-81361615D01*
X85346113Y-81318949D01*
X85391101Y-81310500D01*
X136039192Y-81310500D01*
X136106231Y-81330185D01*
X136126873Y-81346819D01*
X138013181Y-83233127D01*
X138046666Y-83294450D01*
X138049500Y-83320808D01*
X138049500Y-87975500D01*
X138029815Y-88042539D01*
X137977011Y-88088294D01*
X137925500Y-88099500D01*
X137821155Y-88099500D01*
X137666510Y-88130261D01*
X137666498Y-88130264D01*
X137520827Y-88190602D01*
X137520814Y-88190609D01*
X137389711Y-88278210D01*
X137389710Y-88278210D01*
X137382214Y-88285707D01*
X137320889Y-88319189D01*
X137251198Y-88314202D01*
X137195266Y-88272328D01*
X137170852Y-88206863D01*
X137176605Y-88159703D01*
X137216758Y-88036126D01*
X137250000Y-87826246D01*
X137250000Y-87613753D01*
X137216757Y-87403872D01*
X137216757Y-87403869D01*
X137151095Y-87201782D01*
X137054624Y-87012449D01*
X137015270Y-86958282D01*
X136382962Y-87590590D01*
X136365925Y-87527007D01*
X136300099Y-87412993D01*
X136207007Y-87319901D01*
X136092993Y-87254075D01*
X136029409Y-87237037D01*
X136699627Y-86566818D01*
X136760950Y-86533333D01*
X136787307Y-86530499D01*
X136797872Y-86530499D01*
X136857483Y-86524091D01*
X136992331Y-86473796D01*
X137107546Y-86387546D01*
X137193796Y-86272331D01*
X137244091Y-86137483D01*
X137250500Y-86077873D01*
X137250499Y-84282128D01*
X137244091Y-84222517D01*
X137243819Y-84221789D01*
X137193797Y-84087671D01*
X137193793Y-84087664D01*
X137107547Y-83972455D01*
X137107544Y-83972452D01*
X136992335Y-83886206D01*
X136992328Y-83886202D01*
X136857482Y-83835908D01*
X136857483Y-83835908D01*
X136797883Y-83829501D01*
X136797881Y-83829500D01*
X136797873Y-83829500D01*
X136797864Y-83829500D01*
X135002129Y-83829500D01*
X135002123Y-83829501D01*
X134942516Y-83835908D01*
X134807671Y-83886202D01*
X134807664Y-83886206D01*
X134692455Y-83972452D01*
X134692452Y-83972455D01*
X134606206Y-84087664D01*
X134606202Y-84087671D01*
X134555908Y-84222517D01*
X134549501Y-84282116D01*
X134549501Y-84282123D01*
X134549500Y-84282135D01*
X134549500Y-84405500D01*
X134529815Y-84472539D01*
X134477011Y-84518294D01*
X134425500Y-84529500D01*
X131288785Y-84529500D01*
X131221746Y-84509815D01*
X131175991Y-84457011D01*
X131164785Y-84405500D01*
X131164785Y-84282129D01*
X131164784Y-84282123D01*
X131164783Y-84282116D01*
X131158377Y-84222517D01*
X131158105Y-84221789D01*
X131108083Y-84087671D01*
X131108079Y-84087664D01*
X131021833Y-83972455D01*
X131021830Y-83972452D01*
X130906621Y-83886206D01*
X130906614Y-83886202D01*
X130771768Y-83835908D01*
X130771769Y-83835908D01*
X130712169Y-83829501D01*
X130712167Y-83829500D01*
X130712159Y-83829500D01*
X130712150Y-83829500D01*
X128916415Y-83829500D01*
X128916409Y-83829501D01*
X128856802Y-83835908D01*
X128721957Y-83886202D01*
X128721950Y-83886206D01*
X128606741Y-83972452D01*
X128606738Y-83972455D01*
X128520492Y-84087664D01*
X128520488Y-84087671D01*
X128470194Y-84222517D01*
X128463787Y-84282116D01*
X128463787Y-84282123D01*
X128463786Y-84282135D01*
X128463786Y-84405500D01*
X128444101Y-84472539D01*
X128391297Y-84518294D01*
X128339786Y-84529500D01*
X125203070Y-84529500D01*
X125136031Y-84509815D01*
X125090276Y-84457011D01*
X125079070Y-84405500D01*
X125079070Y-84282129D01*
X125079069Y-84282123D01*
X125079068Y-84282116D01*
X125072662Y-84222517D01*
X125072390Y-84221789D01*
X125022368Y-84087671D01*
X125022364Y-84087664D01*
X124936118Y-83972455D01*
X124936115Y-83972452D01*
X124820906Y-83886206D01*
X124820899Y-83886202D01*
X124686053Y-83835908D01*
X124686054Y-83835908D01*
X124626454Y-83829501D01*
X124626452Y-83829500D01*
X124626444Y-83829500D01*
X124626435Y-83829500D01*
X122830700Y-83829500D01*
X122830694Y-83829501D01*
X122771087Y-83835908D01*
X122636242Y-83886202D01*
X122636235Y-83886206D01*
X122521026Y-83972452D01*
X122521023Y-83972455D01*
X122434777Y-84087664D01*
X122434773Y-84087671D01*
X122384479Y-84222517D01*
X122378072Y-84282116D01*
X122378072Y-84282123D01*
X122378071Y-84282135D01*
X122378071Y-84405500D01*
X122358386Y-84472539D01*
X122305582Y-84518294D01*
X122254071Y-84529500D01*
X119117356Y-84529500D01*
X119050317Y-84509815D01*
X119004562Y-84457011D01*
X118993356Y-84405500D01*
X118993356Y-84282129D01*
X118993355Y-84282123D01*
X118993354Y-84282116D01*
X118986948Y-84222517D01*
X118986676Y-84221789D01*
X118936654Y-84087671D01*
X118936650Y-84087664D01*
X118850404Y-83972455D01*
X118850401Y-83972452D01*
X118735192Y-83886206D01*
X118735185Y-83886202D01*
X118600339Y-83835908D01*
X118600340Y-83835908D01*
X118540740Y-83829501D01*
X118540738Y-83829500D01*
X118540730Y-83829500D01*
X118540721Y-83829500D01*
X116744986Y-83829500D01*
X116744980Y-83829501D01*
X116685373Y-83835908D01*
X116550528Y-83886202D01*
X116550521Y-83886206D01*
X116435312Y-83972452D01*
X116435309Y-83972455D01*
X116349063Y-84087664D01*
X116349059Y-84087671D01*
X116298765Y-84222517D01*
X116292358Y-84282116D01*
X116292358Y-84282123D01*
X116292357Y-84282135D01*
X116292357Y-84405500D01*
X116272672Y-84472539D01*
X116219868Y-84518294D01*
X116168357Y-84529500D01*
X115458541Y-84529500D01*
X115391502Y-84509815D01*
X115345747Y-84457011D01*
X115335803Y-84387853D01*
X115364828Y-84324297D01*
X115389650Y-84302398D01*
X115455006Y-84258728D01*
X115510289Y-84221789D01*
X115621789Y-84110289D01*
X115709394Y-83979179D01*
X115769737Y-83833497D01*
X115800500Y-83678842D01*
X115800500Y-83521158D01*
X115800500Y-83521155D01*
X115800499Y-83521153D01*
X115791957Y-83478211D01*
X115769737Y-83366503D01*
X115742398Y-83300500D01*
X115709397Y-83220827D01*
X115709390Y-83220814D01*
X115621789Y-83089711D01*
X115621786Y-83089707D01*
X115510292Y-82978213D01*
X115510288Y-82978210D01*
X115379185Y-82890609D01*
X115379172Y-82890602D01*
X115233501Y-82830264D01*
X115233489Y-82830261D01*
X115078845Y-82799500D01*
X115078842Y-82799500D01*
X114921158Y-82799500D01*
X114921155Y-82799500D01*
X114766510Y-82830261D01*
X114766498Y-82830264D01*
X114620827Y-82890602D01*
X114620814Y-82890609D01*
X114489711Y-82978210D01*
X114489707Y-82978213D01*
X114378213Y-83089707D01*
X114378210Y-83089711D01*
X114290609Y-83220814D01*
X114290602Y-83220827D01*
X114230264Y-83366498D01*
X114230261Y-83366510D01*
X114199500Y-83521153D01*
X114199500Y-83678846D01*
X114230261Y-83833489D01*
X114230264Y-83833501D01*
X114290602Y-83979172D01*
X114290609Y-83979185D01*
X114378210Y-84110288D01*
X114378213Y-84110292D01*
X114489707Y-84221786D01*
X114489711Y-84221789D01*
X114610350Y-84302398D01*
X114655155Y-84356010D01*
X114663862Y-84425335D01*
X114633708Y-84488363D01*
X114574264Y-84525082D01*
X114541459Y-84529500D01*
X113031642Y-84529500D01*
X112964603Y-84509815D01*
X112918848Y-84457011D01*
X112907642Y-84405500D01*
X112907642Y-84282129D01*
X112907641Y-84282123D01*
X112907640Y-84282116D01*
X112901234Y-84222517D01*
X112900962Y-84221789D01*
X112850940Y-84087671D01*
X112850936Y-84087664D01*
X112764690Y-83972455D01*
X112764687Y-83972452D01*
X112649478Y-83886206D01*
X112649471Y-83886202D01*
X112514625Y-83835908D01*
X112514626Y-83835908D01*
X112455026Y-83829501D01*
X112455024Y-83829500D01*
X112455016Y-83829500D01*
X112455007Y-83829500D01*
X110659272Y-83829500D01*
X110659266Y-83829501D01*
X110599659Y-83835908D01*
X110464814Y-83886202D01*
X110464807Y-83886206D01*
X110349598Y-83972452D01*
X110349595Y-83972455D01*
X110263349Y-84087664D01*
X110263345Y-84087671D01*
X110213051Y-84222517D01*
X110206644Y-84282116D01*
X110206644Y-84282123D01*
X110206643Y-84282135D01*
X110206643Y-84405500D01*
X110186958Y-84472539D01*
X110134154Y-84518294D01*
X110082643Y-84529500D01*
X106945928Y-84529500D01*
X106878889Y-84509815D01*
X106833134Y-84457011D01*
X106821928Y-84405500D01*
X106821928Y-84282129D01*
X106821927Y-84282123D01*
X106821926Y-84282116D01*
X106815520Y-84222517D01*
X106815248Y-84221789D01*
X106765226Y-84087671D01*
X106765222Y-84087664D01*
X106678976Y-83972455D01*
X106678973Y-83972452D01*
X106563764Y-83886206D01*
X106563757Y-83886202D01*
X106428911Y-83835908D01*
X106428912Y-83835908D01*
X106369312Y-83829501D01*
X106369310Y-83829500D01*
X106369302Y-83829500D01*
X106369293Y-83829500D01*
X104573558Y-83829500D01*
X104573552Y-83829501D01*
X104513945Y-83835908D01*
X104379100Y-83886202D01*
X104379093Y-83886206D01*
X104263884Y-83972452D01*
X104263881Y-83972455D01*
X104177635Y-84087664D01*
X104177631Y-84087671D01*
X104127337Y-84222517D01*
X104120930Y-84282116D01*
X104120930Y-84282123D01*
X104120929Y-84282135D01*
X104120929Y-84405500D01*
X104101244Y-84472539D01*
X104048440Y-84518294D01*
X103996929Y-84529500D01*
X100860213Y-84529500D01*
X100793174Y-84509815D01*
X100747419Y-84457011D01*
X100736213Y-84405500D01*
X100736213Y-84282129D01*
X100736212Y-84282123D01*
X100736211Y-84282116D01*
X100729805Y-84222517D01*
X100729533Y-84221789D01*
X100679511Y-84087671D01*
X100679507Y-84087664D01*
X100593261Y-83972455D01*
X100593258Y-83972452D01*
X100478049Y-83886206D01*
X100478042Y-83886202D01*
X100343196Y-83835908D01*
X100343197Y-83835908D01*
X100283597Y-83829501D01*
X100283595Y-83829500D01*
X100283587Y-83829500D01*
X100283578Y-83829500D01*
X98487843Y-83829500D01*
X98487837Y-83829501D01*
X98428230Y-83835908D01*
X98293385Y-83886202D01*
X98293378Y-83886206D01*
X98178169Y-83972452D01*
X98178166Y-83972455D01*
X98091920Y-84087664D01*
X98091916Y-84087671D01*
X98041622Y-84222517D01*
X98035215Y-84282116D01*
X98035215Y-84282123D01*
X98035214Y-84282135D01*
X98035214Y-84405500D01*
X98015529Y-84472539D01*
X97962725Y-84518294D01*
X97911214Y-84529500D01*
X94774499Y-84529500D01*
X94707460Y-84509815D01*
X94661705Y-84457011D01*
X94650499Y-84405500D01*
X94650499Y-84282129D01*
X94650498Y-84282123D01*
X94650497Y-84282116D01*
X94644091Y-84222517D01*
X94643819Y-84221789D01*
X94593797Y-84087671D01*
X94593793Y-84087664D01*
X94507547Y-83972455D01*
X94507544Y-83972452D01*
X94392335Y-83886206D01*
X94392328Y-83886202D01*
X94257482Y-83835908D01*
X94257483Y-83835908D01*
X94197883Y-83829501D01*
X94197881Y-83829500D01*
X94197873Y-83829500D01*
X94197864Y-83829500D01*
X92402129Y-83829500D01*
X92402123Y-83829501D01*
X92342516Y-83835908D01*
X92207671Y-83886202D01*
X92207664Y-83886206D01*
X92092455Y-83972452D01*
X92092452Y-83972455D01*
X92006206Y-84087664D01*
X92006202Y-84087671D01*
X91955908Y-84222517D01*
X91949501Y-84282116D01*
X91949501Y-84282123D01*
X91949500Y-84282135D01*
X91949500Y-84405500D01*
X91929815Y-84472539D01*
X91877011Y-84518294D01*
X91825500Y-84529500D01*
X80674129Y-84529500D01*
X80650242Y-84522486D01*
X80625518Y-84519574D01*
X80617300Y-84512813D01*
X80607090Y-84509815D01*
X80590787Y-84491001D01*
X80571562Y-84475184D01*
X80568303Y-84465053D01*
X80561335Y-84457011D01*
X80557791Y-84432367D01*
X80550170Y-84408670D01*
X80552544Y-84395877D01*
X80551391Y-84387853D01*
X80554298Y-84373618D01*
X80556416Y-84365656D01*
X80569737Y-84333497D01*
X80583850Y-84262540D01*
X80584865Y-84258728D01*
X80601026Y-84232108D01*
X80615463Y-84204509D01*
X80616958Y-84202986D01*
X82205277Y-82614669D01*
X82276465Y-82508127D01*
X82300436Y-82450256D01*
X82312491Y-82421153D01*
X88599500Y-82421153D01*
X88599500Y-82578846D01*
X88630261Y-82733489D01*
X88630264Y-82733501D01*
X88690602Y-82879172D01*
X88690609Y-82879185D01*
X88778210Y-83010288D01*
X88778213Y-83010292D01*
X88889707Y-83121786D01*
X88889711Y-83121789D01*
X89020814Y-83209390D01*
X89020827Y-83209397D01*
X89165800Y-83269446D01*
X89166503Y-83269737D01*
X89290743Y-83294450D01*
X89321153Y-83300499D01*
X89321156Y-83300500D01*
X89321158Y-83300500D01*
X89478844Y-83300500D01*
X89478845Y-83300499D01*
X89633497Y-83269737D01*
X89751592Y-83220821D01*
X89779172Y-83209397D01*
X89779172Y-83209396D01*
X89779179Y-83209394D01*
X89836044Y-83171397D01*
X89902721Y-83150520D01*
X89904935Y-83150500D01*
X95854452Y-83150500D01*
X95921491Y-83170185D01*
X95967246Y-83222989D01*
X95969013Y-83227048D01*
X95990606Y-83279179D01*
X95990607Y-83279182D01*
X96078210Y-83410288D01*
X96078213Y-83410292D01*
X96189707Y-83521786D01*
X96189711Y-83521789D01*
X96320814Y-83609390D01*
X96320827Y-83609397D01*
X96466498Y-83669735D01*
X96466503Y-83669737D01*
X96621153Y-83700499D01*
X96621156Y-83700500D01*
X96621158Y-83700500D01*
X96778844Y-83700500D01*
X96778845Y-83700499D01*
X96933497Y-83669737D01*
X97079179Y-83609394D01*
X97210289Y-83521789D01*
X97321789Y-83410289D01*
X97409394Y-83279179D01*
X97469737Y-83133497D01*
X97500500Y-82978842D01*
X97500500Y-82821158D01*
X97500500Y-82821155D01*
X97500499Y-82821153D01*
X97472066Y-82678211D01*
X97469737Y-82666503D01*
X97448269Y-82614674D01*
X97409397Y-82520827D01*
X97409390Y-82520814D01*
X97321789Y-82389711D01*
X97321786Y-82389707D01*
X97210292Y-82278213D01*
X97210288Y-82278210D01*
X97079185Y-82190609D01*
X97079172Y-82190602D01*
X96933501Y-82130264D01*
X96933489Y-82130261D01*
X96866420Y-82116920D01*
X96804509Y-82084535D01*
X96802983Y-82083037D01*
X96714669Y-81994723D01*
X96608127Y-81923535D01*
X96606391Y-81922816D01*
X96489744Y-81874499D01*
X96489738Y-81874497D01*
X96364071Y-81849500D01*
X96364069Y-81849500D01*
X89904935Y-81849500D01*
X89837896Y-81829815D01*
X89836090Y-81828633D01*
X89779179Y-81790606D01*
X89779172Y-81790602D01*
X89633501Y-81730264D01*
X89633489Y-81730261D01*
X89478845Y-81699500D01*
X89478842Y-81699500D01*
X89321158Y-81699500D01*
X89321155Y-81699500D01*
X89166510Y-81730261D01*
X89166498Y-81730264D01*
X89020827Y-81790602D01*
X89020814Y-81790609D01*
X88889711Y-81878210D01*
X88889707Y-81878213D01*
X88778213Y-81989707D01*
X88778210Y-81989711D01*
X88690609Y-82120814D01*
X88690602Y-82120827D01*
X88630264Y-82266498D01*
X88630261Y-82266510D01*
X88599500Y-82421153D01*
X82312491Y-82421153D01*
X82325501Y-82389744D01*
X82327361Y-82380388D01*
X82327363Y-82380386D01*
X82350500Y-82264071D01*
X82350500Y-81811101D01*
X82370185Y-81744062D01*
X82401615Y-81710783D01*
X82427260Y-81692150D01*
X82522464Y-81622981D01*
X82662981Y-81482464D01*
X82779787Y-81321694D01*
X82859515Y-81165218D01*
X82907490Y-81114423D01*
X82975311Y-81097628D01*
X83041446Y-81120165D01*
G37*
%TD.AperFunction*%
%TA.AperFunction,Conductor*%
G36*
X146391209Y-69504500D02*
G01*
X146405385Y-69503656D01*
X146424069Y-69514149D01*
X146444625Y-69520185D01*
X146453922Y-69530914D01*
X146466305Y-69537869D01*
X146476350Y-69556797D01*
X146490380Y-69572989D01*
X146492400Y-69587043D01*
X146499057Y-69599586D01*
X146497274Y-69620937D01*
X146500324Y-69642147D01*
X146494312Y-69656419D01*
X146493244Y-69669214D01*
X146475961Y-69699987D01*
X146333075Y-69886196D01*
X146201958Y-70113299D01*
X146201953Y-70113309D01*
X146101605Y-70355571D01*
X146101602Y-70355581D01*
X146033730Y-70608885D01*
X145999500Y-70868872D01*
X145999500Y-71131127D01*
X146020436Y-71290140D01*
X146033730Y-71391116D01*
X146055178Y-71471161D01*
X146101602Y-71644418D01*
X146101605Y-71644428D01*
X146201953Y-71886690D01*
X146201958Y-71886700D01*
X146333075Y-72113803D01*
X146492718Y-72321851D01*
X146492726Y-72321860D01*
X146678140Y-72507274D01*
X146678148Y-72507281D01*
X146886196Y-72666924D01*
X147113299Y-72798041D01*
X147113309Y-72798046D01*
X147355571Y-72898394D01*
X147355581Y-72898398D01*
X147608884Y-72966270D01*
X147868880Y-73000500D01*
X147868887Y-73000500D01*
X148131113Y-73000500D01*
X148131120Y-73000500D01*
X148391116Y-72966270D01*
X148644419Y-72898398D01*
X148886697Y-72798043D01*
X149113803Y-72666924D01*
X149300015Y-72524036D01*
X149365182Y-72498843D01*
X149433627Y-72512881D01*
X149483617Y-72561694D01*
X149499500Y-72622413D01*
X149499500Y-112377586D01*
X149479815Y-112444625D01*
X149427011Y-112490380D01*
X149357853Y-112500324D01*
X149300013Y-112475961D01*
X149113803Y-112333075D01*
X148886700Y-112201958D01*
X148886690Y-112201953D01*
X148644428Y-112101605D01*
X148644421Y-112101603D01*
X148644419Y-112101602D01*
X148391116Y-112033730D01*
X148333339Y-112026123D01*
X148131127Y-111999500D01*
X148131120Y-111999500D01*
X147868880Y-111999500D01*
X147868872Y-111999500D01*
X147637772Y-112029926D01*
X147608884Y-112033730D01*
X147355581Y-112101602D01*
X147355571Y-112101605D01*
X147113309Y-112201953D01*
X147113299Y-112201958D01*
X146886196Y-112333075D01*
X146678148Y-112492718D01*
X146492718Y-112678148D01*
X146333075Y-112886196D01*
X146201958Y-113113299D01*
X146201953Y-113113309D01*
X146101605Y-113355571D01*
X146101602Y-113355581D01*
X146033730Y-113608885D01*
X145999500Y-113868872D01*
X145999500Y-114131127D01*
X146020436Y-114290140D01*
X146033730Y-114391116D01*
X146055178Y-114471161D01*
X146101602Y-114644418D01*
X146101605Y-114644428D01*
X146201953Y-114886690D01*
X146201958Y-114886700D01*
X146333075Y-115113803D01*
X146475961Y-115300013D01*
X146501156Y-115365182D01*
X146487118Y-115433627D01*
X146438304Y-115483617D01*
X146377586Y-115499500D01*
X69622414Y-115499500D01*
X69555375Y-115479815D01*
X69509620Y-115427011D01*
X69499676Y-115357853D01*
X69524039Y-115300013D01*
X69666924Y-115113803D01*
X69798041Y-114886700D01*
X69798046Y-114886690D01*
X69898394Y-114644428D01*
X69898398Y-114644419D01*
X69966270Y-114391116D01*
X70000500Y-114131120D01*
X70000500Y-113868880D01*
X69966270Y-113608884D01*
X69898398Y-113355581D01*
X69800204Y-113118520D01*
X69798046Y-113113309D01*
X69798041Y-113113299D01*
X69666924Y-112886196D01*
X69507281Y-112678148D01*
X69507274Y-112678140D01*
X69321860Y-112492726D01*
X69321851Y-112492718D01*
X69113803Y-112333075D01*
X68886700Y-112201958D01*
X68886690Y-112201953D01*
X68644428Y-112101605D01*
X68644421Y-112101603D01*
X68644419Y-112101602D01*
X68391116Y-112033730D01*
X68333339Y-112026123D01*
X68131127Y-111999500D01*
X68131120Y-111999500D01*
X67868880Y-111999500D01*
X67868872Y-111999500D01*
X67637772Y-112029926D01*
X67608884Y-112033730D01*
X67355581Y-112101602D01*
X67355571Y-112101605D01*
X67113309Y-112201953D01*
X67113299Y-112201958D01*
X66886196Y-112333075D01*
X66699987Y-112475961D01*
X66634818Y-112501156D01*
X66566373Y-112487118D01*
X66516383Y-112438304D01*
X66500500Y-112377586D01*
X66500500Y-111421153D01*
X79199500Y-111421153D01*
X79199500Y-111578846D01*
X79230261Y-111733489D01*
X79230264Y-111733501D01*
X79290602Y-111879172D01*
X79290609Y-111879185D01*
X79378210Y-112010288D01*
X79378213Y-112010292D01*
X79489707Y-112121786D01*
X79489711Y-112121789D01*
X79620814Y-112209390D01*
X79620827Y-112209397D01*
X79766498Y-112269735D01*
X79766503Y-112269737D01*
X79921153Y-112300499D01*
X79921156Y-112300500D01*
X79921158Y-112300500D01*
X80078844Y-112300500D01*
X80078845Y-112300499D01*
X80233497Y-112269737D01*
X80379179Y-112209394D01*
X80436044Y-112171397D01*
X80502721Y-112150520D01*
X80504935Y-112150500D01*
X92995396Y-112150500D01*
X93042844Y-112159937D01*
X93066503Y-112169737D01*
X93066508Y-112169738D01*
X93066511Y-112169739D01*
X93221153Y-112200499D01*
X93221156Y-112200500D01*
X93221158Y-112200500D01*
X93378844Y-112200500D01*
X93378845Y-112200499D01*
X93533497Y-112169737D01*
X93679179Y-112109394D01*
X93810289Y-112021789D01*
X93921789Y-111910289D01*
X94009394Y-111779179D01*
X94069737Y-111633497D01*
X94100500Y-111478842D01*
X94100500Y-111321158D01*
X94100500Y-111321155D01*
X94100499Y-111321153D01*
X94069738Y-111166510D01*
X94069737Y-111166503D01*
X94050812Y-111120814D01*
X94009397Y-111020827D01*
X94009390Y-111020814D01*
X93921789Y-110889711D01*
X93921786Y-110889707D01*
X93810292Y-110778213D01*
X93810288Y-110778210D01*
X93679185Y-110690609D01*
X93679172Y-110690602D01*
X93533501Y-110630264D01*
X93533489Y-110630261D01*
X93378845Y-110599500D01*
X93378842Y-110599500D01*
X93221158Y-110599500D01*
X93221155Y-110599500D01*
X93066510Y-110630261D01*
X93066498Y-110630264D01*
X92920827Y-110690602D01*
X92920814Y-110690609D01*
X92789711Y-110778210D01*
X92789707Y-110778213D01*
X92754742Y-110813180D01*
X92693420Y-110846666D01*
X92667060Y-110849500D01*
X80504935Y-110849500D01*
X80437896Y-110829815D01*
X80436090Y-110828633D01*
X80379179Y-110790606D01*
X80379172Y-110790602D01*
X80233501Y-110730264D01*
X80233489Y-110730261D01*
X80078845Y-110699500D01*
X80078842Y-110699500D01*
X79921158Y-110699500D01*
X79921155Y-110699500D01*
X79766510Y-110730261D01*
X79766498Y-110730264D01*
X79620827Y-110790602D01*
X79620814Y-110790609D01*
X79489711Y-110878210D01*
X79489707Y-110878213D01*
X79378213Y-110989707D01*
X79378210Y-110989711D01*
X79290609Y-111120814D01*
X79290602Y-111120827D01*
X79230264Y-111266498D01*
X79230261Y-111266510D01*
X79199500Y-111421153D01*
X66500500Y-111421153D01*
X66500500Y-80560639D01*
X67737500Y-80560639D01*
X67737500Y-80759360D01*
X67768587Y-80955637D01*
X67829993Y-81144629D01*
X67829994Y-81144632D01*
X67914509Y-81310500D01*
X67920213Y-81321694D01*
X68037019Y-81482464D01*
X68177536Y-81622981D01*
X68338306Y-81739787D01*
X68425149Y-81784035D01*
X68515367Y-81830005D01*
X68515370Y-81830006D01*
X68566593Y-81846649D01*
X68704364Y-81891413D01*
X68900639Y-81922500D01*
X68900640Y-81922500D01*
X69099360Y-81922500D01*
X69099361Y-81922500D01*
X69295636Y-81891413D01*
X69484632Y-81830005D01*
X69661694Y-81739787D01*
X69822464Y-81622981D01*
X69962981Y-81482464D01*
X70079787Y-81321694D01*
X70159796Y-81164667D01*
X70207769Y-81113872D01*
X70275590Y-81097077D01*
X70341725Y-81119614D01*
X70380765Y-81164668D01*
X70460641Y-81321432D01*
X70487730Y-81358715D01*
X70487731Y-81358716D01*
X71102352Y-80744094D01*
X71125792Y-80831571D01*
X71184311Y-80932930D01*
X71267070Y-81015689D01*
X71368429Y-81074208D01*
X71455905Y-81097647D01*
X70841283Y-81712268D01*
X70841283Y-81712269D01*
X70878567Y-81739358D01*
X71055562Y-81829542D01*
X71244477Y-81890924D01*
X71440679Y-81922000D01*
X71639321Y-81922000D01*
X71809102Y-81895109D01*
X71878395Y-81904063D01*
X71931847Y-81949060D01*
X71952487Y-82015811D01*
X71952500Y-82017582D01*
X71952500Y-91976191D01*
X71932815Y-92043230D01*
X71916181Y-92063872D01*
X69353977Y-94626075D01*
X69292654Y-94659560D01*
X69246899Y-94660867D01*
X69099361Y-94637500D01*
X68900639Y-94637500D01*
X68835214Y-94647862D01*
X68704362Y-94668587D01*
X68515370Y-94729993D01*
X68515367Y-94729994D01*
X68338305Y-94820213D01*
X68177533Y-94937021D01*
X68037021Y-95077533D01*
X67920213Y-95238305D01*
X67829994Y-95415367D01*
X67829993Y-95415370D01*
X67768587Y-95604362D01*
X67760370Y-95656243D01*
X67737500Y-95800639D01*
X67737500Y-95999361D01*
X67745425Y-96049397D01*
X67768587Y-96195637D01*
X67829993Y-96384629D01*
X67829994Y-96384632D01*
X67912976Y-96547491D01*
X67920213Y-96561694D01*
X68037019Y-96722464D01*
X68177536Y-96862981D01*
X68338306Y-96979787D01*
X68425149Y-97024035D01*
X68515367Y-97070005D01*
X68515370Y-97070006D01*
X68566593Y-97086649D01*
X68704364Y-97131413D01*
X68900639Y-97162500D01*
X68900640Y-97162500D01*
X69099360Y-97162500D01*
X69099361Y-97162500D01*
X69295636Y-97131413D01*
X69477815Y-97072219D01*
X69484629Y-97070006D01*
X69484632Y-97070005D01*
X69661694Y-96979787D01*
X69822464Y-96862981D01*
X69962981Y-96722464D01*
X70079787Y-96561694D01*
X70159515Y-96405218D01*
X70207490Y-96354423D01*
X70275311Y-96337628D01*
X70341446Y-96360165D01*
X70380484Y-96405218D01*
X70460213Y-96561694D01*
X70577019Y-96722464D01*
X70717536Y-96862981D01*
X70878306Y-96979787D01*
X70965149Y-97024035D01*
X71055367Y-97070005D01*
X71055370Y-97070006D01*
X71106593Y-97086649D01*
X71244364Y-97131413D01*
X71440639Y-97162500D01*
X71440640Y-97162500D01*
X71639360Y-97162500D01*
X71639361Y-97162500D01*
X71786899Y-97139132D01*
X71856192Y-97148087D01*
X71893978Y-97173924D01*
X81557873Y-106837819D01*
X81591358Y-106899142D01*
X81586374Y-106968834D01*
X81544502Y-107024767D01*
X81479038Y-107049184D01*
X81470192Y-107049500D01*
X79304604Y-107049500D01*
X79257155Y-107040062D01*
X79233497Y-107030263D01*
X79233493Y-107030262D01*
X79233488Y-107030260D01*
X79078845Y-106999500D01*
X79078842Y-106999500D01*
X78921158Y-106999500D01*
X78921155Y-106999500D01*
X78766510Y-107030261D01*
X78766498Y-107030264D01*
X78620827Y-107090602D01*
X78620820Y-107090606D01*
X78591928Y-107109911D01*
X78563955Y-107128602D01*
X78497279Y-107149480D01*
X78495065Y-107149500D01*
X76220808Y-107149500D01*
X76153769Y-107129815D01*
X76133127Y-107113181D01*
X72217015Y-103197069D01*
X72183530Y-103135746D01*
X72183093Y-103133652D01*
X72169737Y-103066503D01*
X72145599Y-103008230D01*
X72109397Y-102920827D01*
X72109390Y-102920814D01*
X72021789Y-102789711D01*
X72021786Y-102789707D01*
X71910292Y-102678213D01*
X71910288Y-102678210D01*
X71779185Y-102590609D01*
X71779172Y-102590602D01*
X71633501Y-102530264D01*
X71633489Y-102530261D01*
X71478845Y-102499500D01*
X71478842Y-102499500D01*
X71321158Y-102499500D01*
X71321155Y-102499500D01*
X71166510Y-102530261D01*
X71166498Y-102530264D01*
X71020827Y-102590602D01*
X71020814Y-102590609D01*
X70889711Y-102678210D01*
X70889707Y-102678213D01*
X70778213Y-102789707D01*
X70778210Y-102789711D01*
X70690609Y-102920814D01*
X70690602Y-102920827D01*
X70630264Y-103066498D01*
X70630261Y-103066510D01*
X70599500Y-103221153D01*
X70599500Y-103378846D01*
X70630261Y-103533489D01*
X70630264Y-103533501D01*
X70688761Y-103674727D01*
X70696230Y-103744196D01*
X70677302Y-103791070D01*
X70590609Y-103920814D01*
X70590602Y-103920827D01*
X70530264Y-104066498D01*
X70530261Y-104066510D01*
X70499500Y-104221153D01*
X70499500Y-104378846D01*
X70530261Y-104533489D01*
X70530264Y-104533501D01*
X70590602Y-104679172D01*
X70590609Y-104679185D01*
X70678210Y-104810288D01*
X70678213Y-104810292D01*
X70789707Y-104921786D01*
X70789711Y-104921789D01*
X70920814Y-105009390D01*
X70920827Y-105009397D01*
X70981174Y-105034393D01*
X71066503Y-105069737D01*
X71133580Y-105083079D01*
X71150337Y-105091844D01*
X71168815Y-105095864D01*
X71193849Y-105114604D01*
X71195490Y-105115463D01*
X71197069Y-105117015D01*
X71289234Y-105209180D01*
X71322719Y-105270503D01*
X71317735Y-105340195D01*
X71275863Y-105396128D01*
X71225746Y-105418478D01*
X71166507Y-105430262D01*
X71166498Y-105430264D01*
X71020827Y-105490602D01*
X71020814Y-105490609D01*
X70889711Y-105578210D01*
X70889707Y-105578213D01*
X70778213Y-105689707D01*
X70778210Y-105689711D01*
X70690609Y-105820814D01*
X70690602Y-105820827D01*
X70630264Y-105966498D01*
X70630261Y-105966510D01*
X70599500Y-106121153D01*
X70599500Y-106278846D01*
X70630261Y-106433489D01*
X70630264Y-106433501D01*
X70690602Y-106579172D01*
X70690609Y-106579185D01*
X70778210Y-106710288D01*
X70778213Y-106710292D01*
X70889707Y-106821786D01*
X70889711Y-106821789D01*
X71020814Y-106909390D01*
X71020827Y-106909397D01*
X71142778Y-106959910D01*
X71166503Y-106969737D01*
X71289793Y-106994261D01*
X71321153Y-107000499D01*
X71321156Y-107000500D01*
X71321158Y-107000500D01*
X71478844Y-107000500D01*
X71478845Y-107000499D01*
X71633497Y-106969737D01*
X71639174Y-106967385D01*
X71708638Y-106959910D01*
X71771120Y-106991178D01*
X71774315Y-106994261D01*
X74485325Y-109705272D01*
X74485332Y-109705278D01*
X74581801Y-109769736D01*
X74581802Y-109769736D01*
X74583944Y-109771167D01*
X74591873Y-109776465D01*
X74710256Y-109825501D01*
X74710260Y-109825501D01*
X74710261Y-109825502D01*
X74835928Y-109850500D01*
X74835931Y-109850500D01*
X81564071Y-109850500D01*
X81648615Y-109833682D01*
X81689744Y-109825501D01*
X81808127Y-109776465D01*
X81812464Y-109773567D01*
X81879138Y-109752686D01*
X81946519Y-109771167D01*
X81969039Y-109788985D01*
X82285325Y-110105272D01*
X82285326Y-110105273D01*
X82285329Y-110105275D01*
X82285331Y-110105277D01*
X82391873Y-110176465D01*
X82510256Y-110225501D01*
X82510260Y-110225501D01*
X82510261Y-110225502D01*
X82635928Y-110250500D01*
X82635931Y-110250500D01*
X94764071Y-110250500D01*
X94848615Y-110233682D01*
X94889744Y-110225501D01*
X95008127Y-110176465D01*
X95114669Y-110105277D01*
X95602932Y-109617012D01*
X95664252Y-109583530D01*
X95666317Y-109583099D01*
X95733497Y-109569737D01*
X95879179Y-109509394D01*
X96010289Y-109421789D01*
X96121789Y-109310289D01*
X96209394Y-109179179D01*
X96269737Y-109033497D01*
X96300500Y-108878842D01*
X96300500Y-108721158D01*
X96300500Y-108721155D01*
X96300499Y-108721153D01*
X96280734Y-108621789D01*
X96269737Y-108566503D01*
X96237929Y-108489711D01*
X96209397Y-108420827D01*
X96209390Y-108420814D01*
X96121789Y-108289711D01*
X96121786Y-108289707D01*
X96010292Y-108178213D01*
X96010288Y-108178210D01*
X95879185Y-108090609D01*
X95879178Y-108090605D01*
X95875451Y-108089062D01*
X95821047Y-108045222D01*
X95798981Y-107978928D01*
X95816259Y-107911229D01*
X95867395Y-107863617D01*
X95922902Y-107850500D01*
X98671982Y-107850500D01*
X98739021Y-107870185D01*
X98775086Y-107905612D01*
X98778211Y-107910290D01*
X98889707Y-108021786D01*
X98889711Y-108021789D01*
X99020814Y-108109390D01*
X99020827Y-108109397D01*
X99120060Y-108150500D01*
X99166503Y-108169737D01*
X99321153Y-108200499D01*
X99321156Y-108200500D01*
X99321158Y-108200500D01*
X99478844Y-108200500D01*
X99478845Y-108200499D01*
X99633497Y-108169737D01*
X99779179Y-108109394D01*
X99910289Y-108021789D01*
X100021789Y-107910289D01*
X100109394Y-107779179D01*
X100169737Y-107633497D01*
X100200500Y-107478842D01*
X100200500Y-107321158D01*
X100200500Y-107321155D01*
X100200499Y-107321153D01*
X100169737Y-107166503D01*
X100162686Y-107149480D01*
X100109863Y-107021952D01*
X100102394Y-106952483D01*
X100133669Y-106890004D01*
X100193759Y-106854352D01*
X100224424Y-106850500D01*
X104913122Y-106850500D01*
X104980161Y-106870185D01*
X105025916Y-106922989D01*
X105027784Y-106927930D01*
X105027932Y-106927869D01*
X105090602Y-107079172D01*
X105090609Y-107079185D01*
X105178210Y-107210288D01*
X105178213Y-107210292D01*
X105289707Y-107321786D01*
X105289711Y-107321789D01*
X105420814Y-107409390D01*
X105420827Y-107409397D01*
X105566498Y-107469735D01*
X105566503Y-107469737D01*
X105693830Y-107495064D01*
X105721153Y-107500499D01*
X105721156Y-107500500D01*
X105721158Y-107500500D01*
X105878844Y-107500500D01*
X105878845Y-107500499D01*
X106033497Y-107469737D01*
X106179179Y-107409394D01*
X106310289Y-107321789D01*
X106421789Y-107210289D01*
X106509394Y-107079179D01*
X106569737Y-106933497D01*
X106600500Y-106778842D01*
X106600500Y-106621158D01*
X106600500Y-106621155D01*
X106600499Y-106621153D01*
X106586183Y-106549184D01*
X106569737Y-106466503D01*
X106551713Y-106422989D01*
X106509863Y-106321952D01*
X106502394Y-106252483D01*
X106533669Y-106190004D01*
X106593759Y-106154352D01*
X106624424Y-106150500D01*
X110795065Y-106150500D01*
X110862104Y-106170185D01*
X110863909Y-106171366D01*
X110920821Y-106209394D01*
X110920823Y-106209395D01*
X110920827Y-106209397D01*
X111052541Y-106263954D01*
X111066503Y-106269737D01*
X111221153Y-106300499D01*
X111221156Y-106300500D01*
X111221158Y-106300500D01*
X111378844Y-106300500D01*
X111378845Y-106300499D01*
X111533497Y-106269737D01*
X111679179Y-106209394D01*
X111810289Y-106121789D01*
X111921789Y-106010289D01*
X112009394Y-105879179D01*
X112069737Y-105733497D01*
X112100500Y-105578842D01*
X112100500Y-105421158D01*
X112100500Y-105421155D01*
X112076140Y-105298692D01*
X112082367Y-105229100D01*
X112125230Y-105173923D01*
X112191120Y-105150678D01*
X112197757Y-105150500D01*
X117564071Y-105150500D01*
X117648615Y-105133682D01*
X117689744Y-105125501D01*
X117808127Y-105076465D01*
X117816172Y-105071089D01*
X117818198Y-105069736D01*
X117919529Y-105002030D01*
X117964225Y-104983515D01*
X118033497Y-104969737D01*
X118179179Y-104909394D01*
X118310289Y-104821789D01*
X118421789Y-104710289D01*
X118509394Y-104579179D01*
X118569737Y-104433497D01*
X118600500Y-104278842D01*
X118600500Y-104174500D01*
X118620185Y-104107461D01*
X118672989Y-104061706D01*
X118724500Y-104050500D01*
X119982351Y-104050500D01*
X120049390Y-104070185D01*
X120095145Y-104122989D01*
X120105089Y-104192147D01*
X120103969Y-104198690D01*
X120099500Y-104221158D01*
X120099500Y-104378846D01*
X120130261Y-104533489D01*
X120130264Y-104533501D01*
X120190602Y-104679172D01*
X120190609Y-104679185D01*
X120278210Y-104810288D01*
X120278213Y-104810292D01*
X120389707Y-104921786D01*
X120389711Y-104921789D01*
X120520814Y-105009390D01*
X120520827Y-105009397D01*
X120581174Y-105034393D01*
X120666503Y-105069737D01*
X120733581Y-105083079D01*
X120795490Y-105115463D01*
X120797070Y-105117015D01*
X121113181Y-105433126D01*
X121146666Y-105494449D01*
X121149500Y-105520807D01*
X121149500Y-107495064D01*
X121129815Y-107562103D01*
X121128603Y-107563954D01*
X121090608Y-107620817D01*
X121090602Y-107620828D01*
X121030264Y-107766498D01*
X121030261Y-107766510D01*
X120999500Y-107921153D01*
X120999500Y-108078846D01*
X121030261Y-108233489D01*
X121030264Y-108233501D01*
X121090602Y-108379172D01*
X121090609Y-108379185D01*
X121178210Y-108510288D01*
X121178213Y-108510292D01*
X121289707Y-108621786D01*
X121289711Y-108621789D01*
X121420814Y-108709390D01*
X121420827Y-108709397D01*
X121558683Y-108766498D01*
X121566503Y-108769737D01*
X121721153Y-108800499D01*
X121721156Y-108800500D01*
X121721158Y-108800500D01*
X121878844Y-108800500D01*
X121878845Y-108800499D01*
X122033497Y-108769737D01*
X122179179Y-108709394D01*
X122310289Y-108621789D01*
X122421789Y-108510289D01*
X122509394Y-108379179D01*
X122569737Y-108233497D01*
X122600500Y-108078842D01*
X122600500Y-107921158D01*
X122600500Y-107921155D01*
X122600499Y-107921153D01*
X122586445Y-107850500D01*
X122569737Y-107766503D01*
X122509394Y-107620821D01*
X122471396Y-107563953D01*
X122450520Y-107497276D01*
X122450500Y-107495064D01*
X122450500Y-105135928D01*
X122425502Y-105010261D01*
X122425501Y-105010260D01*
X122425501Y-105010256D01*
X122383724Y-104909397D01*
X122376466Y-104891875D01*
X122376461Y-104891866D01*
X122305277Y-104785332D01*
X122288779Y-104768834D01*
X122214669Y-104694724D01*
X121782126Y-104262181D01*
X121748641Y-104200858D01*
X121753625Y-104131166D01*
X121795497Y-104075233D01*
X121860961Y-104050816D01*
X121869807Y-104050500D01*
X123095065Y-104050500D01*
X123162104Y-104070185D01*
X123163909Y-104071366D01*
X123220821Y-104109394D01*
X123220823Y-104109395D01*
X123220827Y-104109397D01*
X123366498Y-104169735D01*
X123366503Y-104169737D01*
X123479165Y-104192147D01*
X123521153Y-104200499D01*
X123521156Y-104200500D01*
X123521158Y-104200500D01*
X123678844Y-104200500D01*
X123678845Y-104200499D01*
X123833497Y-104169737D01*
X123979179Y-104109394D01*
X124110289Y-104021789D01*
X124221789Y-103910289D01*
X124309394Y-103779179D01*
X124369737Y-103633497D01*
X124400500Y-103478842D01*
X124400500Y-103321158D01*
X124396031Y-103298690D01*
X124402260Y-103229099D01*
X124445123Y-103173922D01*
X124511013Y-103150678D01*
X124517649Y-103150500D01*
X129295065Y-103150500D01*
X129362104Y-103170185D01*
X129363909Y-103171366D01*
X129420821Y-103209394D01*
X129420823Y-103209395D01*
X129420827Y-103209397D01*
X129468393Y-103229099D01*
X129566503Y-103269737D01*
X129712059Y-103298690D01*
X129721153Y-103300499D01*
X129721156Y-103300500D01*
X129721158Y-103300500D01*
X129878844Y-103300500D01*
X129878845Y-103300499D01*
X130033497Y-103269737D01*
X130151592Y-103220821D01*
X130179172Y-103209397D01*
X130179172Y-103209396D01*
X130179179Y-103209394D01*
X130310289Y-103121789D01*
X130421789Y-103010289D01*
X130509394Y-102879179D01*
X130569737Y-102733497D01*
X130600500Y-102578842D01*
X130600500Y-102421158D01*
X130600500Y-102421155D01*
X130600499Y-102421153D01*
X130580734Y-102321789D01*
X130569737Y-102266503D01*
X130546452Y-102210288D01*
X130509397Y-102120827D01*
X130509390Y-102120814D01*
X130421789Y-101989711D01*
X130421786Y-101989707D01*
X130310292Y-101878213D01*
X130310288Y-101878210D01*
X130179185Y-101790609D01*
X130179172Y-101790602D01*
X130033501Y-101730264D01*
X130033489Y-101730261D01*
X129878845Y-101699500D01*
X129878842Y-101699500D01*
X129721158Y-101699500D01*
X129721155Y-101699500D01*
X129566510Y-101730261D01*
X129566498Y-101730264D01*
X129420827Y-101790602D01*
X129420820Y-101790606D01*
X129391928Y-101809911D01*
X129363955Y-101828602D01*
X129297279Y-101849480D01*
X129295065Y-101849500D01*
X91160808Y-101849500D01*
X91093769Y-101829815D01*
X91073127Y-101813181D01*
X85513924Y-96253978D01*
X85480439Y-96192655D01*
X85479132Y-96146899D01*
X85481469Y-96132147D01*
X85502500Y-95999361D01*
X85502500Y-95800639D01*
X85479630Y-95656243D01*
X85475616Y-95630898D01*
X85484571Y-95561604D01*
X85529567Y-95508152D01*
X85596319Y-95487513D01*
X85598089Y-95487500D01*
X89936192Y-95487500D01*
X90003231Y-95507185D01*
X90023873Y-95523819D01*
X91949342Y-97449288D01*
X91982827Y-97510611D01*
X91982319Y-97558755D01*
X91983516Y-97558945D01*
X91949500Y-97773713D01*
X91949500Y-97986286D01*
X91982753Y-98196239D01*
X91982753Y-98196241D01*
X91982754Y-98196243D01*
X92025729Y-98328507D01*
X92048444Y-98398414D01*
X92144951Y-98587820D01*
X92269890Y-98759786D01*
X92420213Y-98910109D01*
X92592179Y-99035048D01*
X92592181Y-99035049D01*
X92592184Y-99035051D01*
X92781588Y-99131557D01*
X92983757Y-99197246D01*
X93193713Y-99230500D01*
X93193714Y-99230500D01*
X93406286Y-99230500D01*
X93406287Y-99230500D01*
X93616243Y-99197246D01*
X93818412Y-99131557D01*
X94007816Y-99035051D01*
X94029789Y-99019086D01*
X94179786Y-98910109D01*
X94179788Y-98910106D01*
X94179792Y-98910104D01*
X94330104Y-98759792D01*
X94330106Y-98759788D01*
X94330109Y-98759786D01*
X94455048Y-98587820D01*
X94455047Y-98587820D01*
X94455051Y-98587816D01*
X94551557Y-98398412D01*
X94617246Y-98196243D01*
X94650500Y-97986287D01*
X94650500Y-97773713D01*
X94617246Y-97563757D01*
X94551557Y-97361588D01*
X94455051Y-97172184D01*
X94455049Y-97172181D01*
X94455048Y-97172179D01*
X94330109Y-97000213D01*
X94179786Y-96849890D01*
X94007820Y-96724951D01*
X94007115Y-96724591D01*
X93999054Y-96720485D01*
X93948259Y-96672512D01*
X93931463Y-96604692D01*
X93953999Y-96538556D01*
X93999054Y-96499515D01*
X94007816Y-96495051D01*
X94029789Y-96479086D01*
X94179786Y-96370109D01*
X94179788Y-96370106D01*
X94179792Y-96370104D01*
X94330104Y-96219792D01*
X94330106Y-96219788D01*
X94330109Y-96219786D01*
X94457915Y-96043875D01*
X94459259Y-96044851D01*
X94505705Y-96002834D01*
X94559618Y-95990500D01*
X98126096Y-95990500D01*
X98193135Y-96010185D01*
X98226813Y-96044591D01*
X98227799Y-96043875D01*
X98355604Y-96219786D01*
X98505927Y-96370109D01*
X98677896Y-96495050D01*
X98686660Y-96499516D01*
X98737456Y-96547491D01*
X98754250Y-96615312D01*
X98731712Y-96681447D01*
X98686660Y-96720484D01*
X98677896Y-96724949D01*
X98505927Y-96849890D01*
X98355604Y-97000213D01*
X98230665Y-97172179D01*
X98134158Y-97361585D01*
X98068467Y-97563760D01*
X98035214Y-97773713D01*
X98035214Y-97986286D01*
X98068467Y-98196239D01*
X98068467Y-98196241D01*
X98068468Y-98196243D01*
X98111443Y-98328507D01*
X98134158Y-98398414D01*
X98230665Y-98587820D01*
X98355604Y-98759786D01*
X98505927Y-98910109D01*
X98677893Y-99035048D01*
X98677895Y-99035049D01*
X98677898Y-99035051D01*
X98867302Y-99131557D01*
X99069471Y-99197246D01*
X99279427Y-99230500D01*
X99279428Y-99230500D01*
X99492000Y-99230500D01*
X99492001Y-99230500D01*
X99701957Y-99197246D01*
X99904126Y-99131557D01*
X100093530Y-99035051D01*
X100115503Y-99019086D01*
X100265500Y-98910109D01*
X100265502Y-98910106D01*
X100265506Y-98910104D01*
X100415818Y-98759792D01*
X100415820Y-98759788D01*
X100415823Y-98759786D01*
X100540762Y-98587820D01*
X100540761Y-98587820D01*
X100540765Y-98587816D01*
X100637271Y-98398412D01*
X100702960Y-98196243D01*
X100736214Y-97986287D01*
X100736214Y-97773713D01*
X100702960Y-97563757D01*
X100637271Y-97361588D01*
X100540765Y-97172184D01*
X100540763Y-97172181D01*
X100540762Y-97172179D01*
X100415823Y-97000213D01*
X100265500Y-96849890D01*
X100093534Y-96724951D01*
X100092829Y-96724591D01*
X100084768Y-96720485D01*
X100033973Y-96672512D01*
X100017177Y-96604692D01*
X100039713Y-96538556D01*
X100084768Y-96499515D01*
X100093530Y-96495051D01*
X100115503Y-96479086D01*
X100265500Y-96370109D01*
X100265502Y-96370106D01*
X100265506Y-96370104D01*
X100415818Y-96219792D01*
X100415820Y-96219788D01*
X100415823Y-96219786D01*
X100543629Y-96043875D01*
X100544973Y-96044851D01*
X100591419Y-96002834D01*
X100645332Y-95990500D01*
X104211811Y-95990500D01*
X104278850Y-96010185D01*
X104312528Y-96044591D01*
X104313514Y-96043875D01*
X104441319Y-96219786D01*
X104591642Y-96370109D01*
X104763611Y-96495050D01*
X104772375Y-96499516D01*
X104823171Y-96547491D01*
X104839965Y-96615312D01*
X104817427Y-96681447D01*
X104772375Y-96720484D01*
X104763611Y-96724949D01*
X104591642Y-96849890D01*
X104441319Y-97000213D01*
X104316380Y-97172179D01*
X104219873Y-97361585D01*
X104154182Y-97563760D01*
X104120929Y-97773713D01*
X104120929Y-97986286D01*
X104154182Y-98196239D01*
X104154182Y-98196241D01*
X104154183Y-98196243D01*
X104197158Y-98328507D01*
X104219873Y-98398414D01*
X104316380Y-98587820D01*
X104441319Y-98759786D01*
X104591642Y-98910109D01*
X104763608Y-99035048D01*
X104763610Y-99035049D01*
X104763613Y-99035051D01*
X104953017Y-99131557D01*
X105155186Y-99197246D01*
X105365142Y-99230500D01*
X105365143Y-99230500D01*
X105577715Y-99230500D01*
X105577716Y-99230500D01*
X105787672Y-99197246D01*
X105989841Y-99131557D01*
X106179245Y-99035051D01*
X106201218Y-99019086D01*
X106351215Y-98910109D01*
X106351217Y-98910106D01*
X106351221Y-98910104D01*
X106501533Y-98759792D01*
X106501535Y-98759788D01*
X106501538Y-98759786D01*
X106626477Y-98587820D01*
X106626476Y-98587820D01*
X106626480Y-98587816D01*
X106722986Y-98398412D01*
X106788675Y-98196243D01*
X106821929Y-97986287D01*
X106821929Y-97773713D01*
X106788675Y-97563757D01*
X106722986Y-97361588D01*
X106626480Y-97172184D01*
X106626478Y-97172181D01*
X106626477Y-97172179D01*
X106501538Y-97000213D01*
X106351215Y-96849890D01*
X106179249Y-96724951D01*
X106178544Y-96724591D01*
X106170483Y-96720485D01*
X106119688Y-96672512D01*
X106102892Y-96604692D01*
X106125428Y-96538556D01*
X106170483Y-96499515D01*
X106179245Y-96495051D01*
X106201218Y-96479086D01*
X106351215Y-96370109D01*
X106351217Y-96370106D01*
X106351221Y-96370104D01*
X106501533Y-96219792D01*
X106501535Y-96219788D01*
X106501538Y-96219786D01*
X106629344Y-96043875D01*
X106630688Y-96044851D01*
X106633020Y-96042742D01*
X106637334Y-96033297D01*
X106658489Y-96019701D01*
X106677134Y-96002834D01*
X106688937Y-96000133D01*
X106696112Y-95995523D01*
X106731047Y-95990500D01*
X106807060Y-95990500D01*
X106874099Y-96010185D01*
X106894736Y-96026814D01*
X106946566Y-96078644D01*
X106989712Y-96121790D01*
X107120814Y-96209390D01*
X107120827Y-96209397D01*
X107248261Y-96262181D01*
X107266503Y-96269737D01*
X107421153Y-96300499D01*
X107421156Y-96300500D01*
X107421158Y-96300500D01*
X107578844Y-96300500D01*
X107578845Y-96300499D01*
X107733497Y-96269737D01*
X107879179Y-96209394D01*
X108010289Y-96121789D01*
X108105260Y-96026817D01*
X108166581Y-95993334D01*
X108192940Y-95990500D01*
X110297525Y-95990500D01*
X110364564Y-96010185D01*
X110398242Y-96044591D01*
X110399228Y-96043875D01*
X110527033Y-96219786D01*
X110677356Y-96370109D01*
X110849325Y-96495050D01*
X110858089Y-96499516D01*
X110908885Y-96547491D01*
X110925679Y-96615312D01*
X110903141Y-96681447D01*
X110858089Y-96720484D01*
X110849325Y-96724949D01*
X110677356Y-96849890D01*
X110527033Y-97000213D01*
X110402094Y-97172179D01*
X110305587Y-97361585D01*
X110239896Y-97563760D01*
X110206643Y-97773713D01*
X110206643Y-97986286D01*
X110239896Y-98196239D01*
X110239896Y-98196241D01*
X110239897Y-98196243D01*
X110282872Y-98328507D01*
X110305587Y-98398414D01*
X110402094Y-98587820D01*
X110527033Y-98759786D01*
X110677356Y-98910109D01*
X110849322Y-99035048D01*
X110849324Y-99035049D01*
X110849327Y-99035051D01*
X111038731Y-99131557D01*
X111240900Y-99197246D01*
X111450856Y-99230500D01*
X111450857Y-99230500D01*
X111663429Y-99230500D01*
X111663430Y-99230500D01*
X111873386Y-99197246D01*
X112075555Y-99131557D01*
X112264959Y-99035051D01*
X112286932Y-99019086D01*
X112436929Y-98910109D01*
X112436931Y-98910106D01*
X112436935Y-98910104D01*
X112587247Y-98759792D01*
X112587249Y-98759788D01*
X112587252Y-98759786D01*
X112712191Y-98587820D01*
X112712190Y-98587820D01*
X112712194Y-98587816D01*
X112808700Y-98398412D01*
X112874389Y-98196243D01*
X112907643Y-97986287D01*
X112907643Y-97773713D01*
X112874389Y-97563757D01*
X112808700Y-97361588D01*
X112712194Y-97172184D01*
X112712192Y-97172181D01*
X112712191Y-97172179D01*
X112587252Y-97000213D01*
X112436929Y-96849890D01*
X112264963Y-96724951D01*
X112264258Y-96724591D01*
X112256197Y-96720485D01*
X112205402Y-96672512D01*
X112188606Y-96604692D01*
X112211142Y-96538556D01*
X112256197Y-96499515D01*
X112264959Y-96495051D01*
X112286932Y-96479086D01*
X112436929Y-96370109D01*
X112436931Y-96370106D01*
X112436935Y-96370104D01*
X112587247Y-96219792D01*
X112587249Y-96219788D01*
X112587252Y-96219786D01*
X112715058Y-96043875D01*
X112716402Y-96044851D01*
X112762848Y-96002834D01*
X112816761Y-95990500D01*
X115773049Y-95990500D01*
X115840088Y-96010185D01*
X115885843Y-96062989D01*
X115895787Y-96132147D01*
X115866762Y-96195703D01*
X115860730Y-96202181D01*
X115394727Y-96668182D01*
X115394726Y-96668183D01*
X115394723Y-96668188D01*
X115348446Y-96737448D01*
X115335990Y-96756089D01*
X115323535Y-96774729D01*
X115323533Y-96774732D01*
X115274499Y-96893112D01*
X115274497Y-96893118D01*
X115249500Y-97018785D01*
X115249500Y-97195064D01*
X115229815Y-97262103D01*
X115228603Y-97263954D01*
X115190608Y-97320817D01*
X115190602Y-97320828D01*
X115130264Y-97466498D01*
X115130261Y-97466510D01*
X115099500Y-97621153D01*
X115099500Y-97778846D01*
X115130261Y-97933489D01*
X115130264Y-97933501D01*
X115190602Y-98079172D01*
X115190609Y-98079185D01*
X115278210Y-98210288D01*
X115278213Y-98210292D01*
X115389707Y-98321786D01*
X115389711Y-98321789D01*
X115520814Y-98409390D01*
X115520827Y-98409397D01*
X115618269Y-98449758D01*
X115666503Y-98469737D01*
X115771398Y-98490602D01*
X115821153Y-98500499D01*
X115821156Y-98500500D01*
X115821158Y-98500500D01*
X115978844Y-98500500D01*
X115978845Y-98500499D01*
X116133497Y-98469737D01*
X116270483Y-98412995D01*
X116339950Y-98405527D01*
X116402430Y-98436802D01*
X116428419Y-98471262D01*
X116487808Y-98587820D01*
X116612747Y-98759786D01*
X116763070Y-98910109D01*
X116935036Y-99035048D01*
X116935038Y-99035049D01*
X116935041Y-99035051D01*
X117124445Y-99131557D01*
X117326614Y-99197246D01*
X117536570Y-99230500D01*
X117536571Y-99230500D01*
X117749143Y-99230500D01*
X117749144Y-99230500D01*
X117959100Y-99197246D01*
X118161269Y-99131557D01*
X118350673Y-99035051D01*
X118372646Y-99019086D01*
X118522643Y-98910109D01*
X118522645Y-98910106D01*
X118522649Y-98910104D01*
X118672961Y-98759792D01*
X118672963Y-98759788D01*
X118672966Y-98759786D01*
X118797905Y-98587820D01*
X118797904Y-98587820D01*
X118797908Y-98587816D01*
X118894414Y-98398412D01*
X118960103Y-98196243D01*
X118993357Y-97986287D01*
X118993357Y-97773713D01*
X118960103Y-97563757D01*
X118894414Y-97361588D01*
X118797908Y-97172184D01*
X118797906Y-97172181D01*
X118797905Y-97172179D01*
X118672966Y-97000213D01*
X118522643Y-96849890D01*
X118350677Y-96724951D01*
X118349972Y-96724591D01*
X118341911Y-96720485D01*
X118291116Y-96672512D01*
X118274320Y-96604692D01*
X118296856Y-96538556D01*
X118341911Y-96499515D01*
X118350673Y-96495051D01*
X118372646Y-96479086D01*
X118522643Y-96370109D01*
X118522645Y-96370106D01*
X118522649Y-96370104D01*
X118672961Y-96219792D01*
X118672963Y-96219788D01*
X118672966Y-96219786D01*
X118800772Y-96043875D01*
X118802116Y-96044851D01*
X118848562Y-96002834D01*
X118902475Y-95990500D01*
X121095065Y-95990500D01*
X121162104Y-96010185D01*
X121163909Y-96011366D01*
X121220821Y-96049394D01*
X121220823Y-96049395D01*
X121220827Y-96049397D01*
X121365675Y-96109394D01*
X121366503Y-96109737D01*
X121479165Y-96132147D01*
X121521153Y-96140499D01*
X121521156Y-96140500D01*
X121521158Y-96140500D01*
X121678844Y-96140500D01*
X121678845Y-96140499D01*
X121833497Y-96109737D01*
X121979179Y-96049394D01*
X122036044Y-96011397D01*
X122102721Y-95990520D01*
X122104935Y-95990500D01*
X122468953Y-95990500D01*
X122535992Y-96010185D01*
X122569670Y-96044591D01*
X122570656Y-96043875D01*
X122698461Y-96219786D01*
X122848784Y-96370109D01*
X123020753Y-96495050D01*
X123029517Y-96499516D01*
X123080313Y-96547491D01*
X123097107Y-96615312D01*
X123074569Y-96681447D01*
X123029517Y-96720484D01*
X123020753Y-96724949D01*
X122848784Y-96849890D01*
X122698461Y-97000213D01*
X122573522Y-97172179D01*
X122477015Y-97361585D01*
X122411324Y-97563760D01*
X122378071Y-97773713D01*
X122378071Y-97986286D01*
X122411324Y-98196239D01*
X122411324Y-98196241D01*
X122411325Y-98196243D01*
X122454300Y-98328507D01*
X122477015Y-98398414D01*
X122573522Y-98587820D01*
X122698461Y-98759786D01*
X122848784Y-98910109D01*
X123020750Y-99035048D01*
X123020752Y-99035049D01*
X123020755Y-99035051D01*
X123210159Y-99131557D01*
X123412328Y-99197246D01*
X123622284Y-99230500D01*
X123622285Y-99230500D01*
X123834857Y-99230500D01*
X123834858Y-99230500D01*
X124044814Y-99197246D01*
X124246983Y-99131557D01*
X124436387Y-99035051D01*
X124458360Y-99019086D01*
X124608357Y-98910109D01*
X124608359Y-98910106D01*
X124608363Y-98910104D01*
X124758675Y-98759792D01*
X124758677Y-98759788D01*
X124758680Y-98759786D01*
X124883619Y-98587820D01*
X124883618Y-98587820D01*
X124883622Y-98587816D01*
X124980128Y-98398412D01*
X125045817Y-98196243D01*
X125079071Y-97986287D01*
X125079071Y-97773713D01*
X125045817Y-97563757D01*
X124980128Y-97361588D01*
X124883622Y-97172184D01*
X124883620Y-97172181D01*
X124883619Y-97172179D01*
X124758680Y-97000213D01*
X124608357Y-96849890D01*
X124436391Y-96724951D01*
X124435686Y-96724591D01*
X124427625Y-96720485D01*
X124376830Y-96672512D01*
X124360034Y-96604692D01*
X124382570Y-96538556D01*
X124427625Y-96499515D01*
X124436387Y-96495051D01*
X124458360Y-96479086D01*
X124608357Y-96370109D01*
X124608359Y-96370106D01*
X124608363Y-96370104D01*
X124758675Y-96219792D01*
X124758677Y-96219788D01*
X124758680Y-96219786D01*
X124886486Y-96043875D01*
X124887830Y-96044851D01*
X124934276Y-96002834D01*
X124988189Y-95990500D01*
X128554668Y-95990500D01*
X128621707Y-96010185D01*
X128655385Y-96044591D01*
X128656371Y-96043875D01*
X128784176Y-96219786D01*
X128934499Y-96370109D01*
X129106468Y-96495050D01*
X129115232Y-96499516D01*
X129166028Y-96547491D01*
X129182822Y-96615312D01*
X129160284Y-96681447D01*
X129115232Y-96720484D01*
X129106468Y-96724949D01*
X128934499Y-96849890D01*
X128784176Y-97000213D01*
X128659237Y-97172179D01*
X128562730Y-97361585D01*
X128497039Y-97563760D01*
X128463786Y-97773713D01*
X128463786Y-97986286D01*
X128497039Y-98196239D01*
X128497039Y-98196241D01*
X128497040Y-98196243D01*
X128540015Y-98328507D01*
X128562730Y-98398414D01*
X128659237Y-98587820D01*
X128784176Y-98759786D01*
X128934499Y-98910109D01*
X129106465Y-99035048D01*
X129106467Y-99035049D01*
X129106470Y-99035051D01*
X129295874Y-99131557D01*
X129498043Y-99197246D01*
X129707999Y-99230500D01*
X129708000Y-99230500D01*
X129920572Y-99230500D01*
X129920573Y-99230500D01*
X130130529Y-99197246D01*
X130332698Y-99131557D01*
X130522102Y-99035051D01*
X130544075Y-99019086D01*
X130694072Y-98910109D01*
X130694074Y-98910106D01*
X130694078Y-98910104D01*
X130844390Y-98759792D01*
X130844392Y-98759788D01*
X130844395Y-98759786D01*
X130969334Y-98587820D01*
X130969333Y-98587820D01*
X130969337Y-98587816D01*
X131065843Y-98398412D01*
X131069492Y-98387182D01*
X131069817Y-98386183D01*
X131109254Y-98328507D01*
X131173612Y-98301308D01*
X131187748Y-98300500D01*
X131278844Y-98300500D01*
X131278845Y-98300499D01*
X131433497Y-98269737D01*
X131478050Y-98251282D01*
X131547515Y-98243814D01*
X131609995Y-98275088D01*
X131645648Y-98335177D01*
X131649500Y-98365844D01*
X131649500Y-106195064D01*
X131629815Y-106262103D01*
X131628603Y-106263954D01*
X131590608Y-106320817D01*
X131590602Y-106320828D01*
X131530264Y-106466498D01*
X131530261Y-106466510D01*
X131499500Y-106621153D01*
X131499500Y-106778846D01*
X131530261Y-106933489D01*
X131530264Y-106933501D01*
X131590602Y-107079172D01*
X131590609Y-107079185D01*
X131678210Y-107210288D01*
X131678213Y-107210292D01*
X131709949Y-107242028D01*
X131725370Y-107260818D01*
X131794724Y-107364614D01*
X132435382Y-108005272D01*
X132435389Y-108005278D01*
X132523377Y-108064069D01*
X132523378Y-108064069D01*
X132541930Y-108076465D01*
X132660313Y-108125501D01*
X132660317Y-108125501D01*
X132660318Y-108125502D01*
X132785985Y-108150500D01*
X132785988Y-108150500D01*
X139464071Y-108150500D01*
X139548615Y-108133682D01*
X139589744Y-108125501D01*
X139708127Y-108076465D01*
X139726679Y-108064069D01*
X139814669Y-108005277D01*
X142402931Y-105417013D01*
X142464252Y-105383530D01*
X142466317Y-105383099D01*
X142533497Y-105369737D01*
X142679179Y-105309394D01*
X142810289Y-105221789D01*
X142921789Y-105110289D01*
X143009394Y-104979179D01*
X143069737Y-104833497D01*
X143100500Y-104678842D01*
X143100500Y-104521158D01*
X143100500Y-104521155D01*
X143100499Y-104521153D01*
X143069738Y-104366510D01*
X143069737Y-104366503D01*
X143011238Y-104225272D01*
X143003769Y-104155803D01*
X143022694Y-104108933D01*
X143109394Y-103979179D01*
X143169737Y-103833497D01*
X143200500Y-103678842D01*
X143200500Y-103521158D01*
X143200500Y-103521155D01*
X143200499Y-103521153D01*
X143169737Y-103366503D01*
X143142398Y-103300500D01*
X143109397Y-103220827D01*
X143109390Y-103220814D01*
X143021789Y-103089711D01*
X143021786Y-103089707D01*
X142910292Y-102978213D01*
X142910288Y-102978210D01*
X142779185Y-102890609D01*
X142779172Y-102890602D01*
X142633501Y-102830264D01*
X142633489Y-102830261D01*
X142478845Y-102799500D01*
X142478842Y-102799500D01*
X142321158Y-102799500D01*
X142319807Y-102799500D01*
X142298561Y-102793261D01*
X142276474Y-102791682D01*
X142265690Y-102783609D01*
X142252768Y-102779815D01*
X142238269Y-102763083D01*
X142220540Y-102749811D01*
X142215832Y-102737188D01*
X142207013Y-102727011D01*
X142203861Y-102705094D01*
X142196123Y-102684346D01*
X142198985Y-102671185D01*
X142197069Y-102657853D01*
X142206268Y-102637709D01*
X142210975Y-102616073D01*
X142224243Y-102598347D01*
X142226094Y-102594297D01*
X142232126Y-102587819D01*
X142289684Y-102530261D01*
X142402931Y-102417013D01*
X142464252Y-102383530D01*
X142466317Y-102383099D01*
X142533497Y-102369737D01*
X142679179Y-102309394D01*
X142810289Y-102221789D01*
X142921789Y-102110289D01*
X143009394Y-101979179D01*
X143069737Y-101833497D01*
X143100500Y-101678842D01*
X143100500Y-101521158D01*
X143100500Y-101521155D01*
X143100499Y-101521153D01*
X143086412Y-101450333D01*
X143069737Y-101366503D01*
X143050812Y-101320814D01*
X143009397Y-101220827D01*
X143009390Y-101220814D01*
X142921789Y-101089711D01*
X142921786Y-101089707D01*
X142810292Y-100978213D01*
X142810288Y-100978210D01*
X142679185Y-100890609D01*
X142679172Y-100890602D01*
X142533501Y-100830264D01*
X142533489Y-100830261D01*
X142378845Y-100799500D01*
X142378842Y-100799500D01*
X142221158Y-100799500D01*
X142221155Y-100799500D01*
X142066510Y-100830261D01*
X142066498Y-100830264D01*
X141920827Y-100890602D01*
X141920814Y-100890609D01*
X141789711Y-100978210D01*
X141789707Y-100978213D01*
X141678213Y-101089707D01*
X141678210Y-101089711D01*
X141590609Y-101220814D01*
X141590602Y-101220827D01*
X141530264Y-101366498D01*
X141530261Y-101366508D01*
X141516920Y-101433579D01*
X141508156Y-101450333D01*
X141504137Y-101468811D01*
X141485391Y-101493852D01*
X141484535Y-101495490D01*
X141482986Y-101497066D01*
X141462183Y-101517870D01*
X141400861Y-101551357D01*
X141331169Y-101546374D01*
X141275235Y-101504504D01*
X141250816Y-101439040D01*
X141250500Y-101430191D01*
X141250500Y-100104935D01*
X141270185Y-100037896D01*
X141271366Y-100036090D01*
X141309394Y-99979179D01*
X141369737Y-99833497D01*
X141400500Y-99678842D01*
X141400500Y-99521158D01*
X141400500Y-99521155D01*
X141400499Y-99521153D01*
X141378440Y-99410255D01*
X141369737Y-99366503D01*
X141345301Y-99307509D01*
X141309397Y-99220827D01*
X141309390Y-99220814D01*
X141221789Y-99089711D01*
X141221786Y-99089707D01*
X141110292Y-98978213D01*
X141110288Y-98978210D01*
X140979185Y-98890609D01*
X140979172Y-98890602D01*
X140833501Y-98830264D01*
X140833489Y-98830261D01*
X140678845Y-98799500D01*
X140678842Y-98799500D01*
X140521158Y-98799500D01*
X140521155Y-98799500D01*
X140366510Y-98830261D01*
X140366498Y-98830264D01*
X140220827Y-98890602D01*
X140220814Y-98890609D01*
X140089711Y-98978210D01*
X140089707Y-98978213D01*
X139978213Y-99089707D01*
X139978210Y-99089711D01*
X139890609Y-99220814D01*
X139890602Y-99220827D01*
X139830264Y-99366498D01*
X139830261Y-99366510D01*
X139799500Y-99521153D01*
X139799500Y-99678846D01*
X139830261Y-99833489D01*
X139830264Y-99833501D01*
X139890602Y-99979172D01*
X139890606Y-99979179D01*
X139928602Y-100036044D01*
X139949480Y-100102721D01*
X139949500Y-100104935D01*
X139949500Y-100905164D01*
X139929815Y-100972203D01*
X139894391Y-101008266D01*
X139789710Y-101078210D01*
X139678213Y-101189707D01*
X139678210Y-101189711D01*
X139590609Y-101320814D01*
X139590602Y-101320827D01*
X139530264Y-101466498D01*
X139530261Y-101466510D01*
X139499500Y-101621153D01*
X139499500Y-101778846D01*
X139530261Y-101933489D01*
X139530264Y-101933501D01*
X139590602Y-102079172D01*
X139590609Y-102079185D01*
X139678210Y-102210288D01*
X139678213Y-102210292D01*
X139789707Y-102321786D01*
X139789711Y-102321789D01*
X139920814Y-102409390D01*
X139920827Y-102409397D01*
X140066498Y-102469735D01*
X140066503Y-102469737D01*
X140168201Y-102489966D01*
X140209152Y-102498112D01*
X140271063Y-102530497D01*
X140305637Y-102591212D01*
X140301898Y-102660982D01*
X140272642Y-102707410D01*
X139366873Y-103613181D01*
X139305550Y-103646666D01*
X139279192Y-103649500D01*
X135674500Y-103649500D01*
X135607461Y-103629815D01*
X135561706Y-103577011D01*
X135550500Y-103525500D01*
X135550500Y-99535928D01*
X135525502Y-99410261D01*
X135525501Y-99410260D01*
X135525501Y-99410256D01*
X135511716Y-99376978D01*
X135504248Y-99307509D01*
X135535523Y-99245030D01*
X135595612Y-99209378D01*
X135645676Y-99207053D01*
X135793713Y-99230500D01*
X135793714Y-99230500D01*
X136006286Y-99230500D01*
X136006287Y-99230500D01*
X136216243Y-99197246D01*
X136418412Y-99131557D01*
X136607816Y-99035051D01*
X136629789Y-99019086D01*
X136779786Y-98910109D01*
X136779788Y-98910106D01*
X136779792Y-98910104D01*
X136930104Y-98759792D01*
X136930106Y-98759788D01*
X136930109Y-98759786D01*
X137055048Y-98587820D01*
X137055047Y-98587820D01*
X137055051Y-98587816D01*
X137151557Y-98398412D01*
X137217246Y-98196243D01*
X137250500Y-97986287D01*
X137250500Y-97773713D01*
X137216484Y-97558945D01*
X137218123Y-97558685D01*
X137221257Y-97496126D01*
X137250655Y-97449289D01*
X139205277Y-95494669D01*
X139276465Y-95388127D01*
X139325501Y-95269744D01*
X139331127Y-95241459D01*
X139350500Y-95144069D01*
X139350500Y-93317648D01*
X139370185Y-93250609D01*
X139422989Y-93204854D01*
X139479987Y-93193769D01*
X139489419Y-93194186D01*
X139521158Y-93200500D01*
X139631947Y-93200500D01*
X139634679Y-93200621D01*
X139665253Y-93211088D01*
X139696231Y-93220185D01*
X139699488Y-93222810D01*
X139700782Y-93223253D01*
X139702093Y-93224908D01*
X139716873Y-93236819D01*
X140085324Y-93605271D01*
X140085327Y-93605274D01*
X140144837Y-93645037D01*
X140191866Y-93676461D01*
X140191875Y-93676466D01*
X140199905Y-93679792D01*
X140310256Y-93725501D01*
X140310260Y-93725501D01*
X140310261Y-93725502D01*
X140435928Y-93750500D01*
X140435931Y-93750500D01*
X141395065Y-93750500D01*
X141462104Y-93770185D01*
X141463909Y-93771366D01*
X141520821Y-93809394D01*
X141520823Y-93809395D01*
X141520827Y-93809397D01*
X141666498Y-93869735D01*
X141666503Y-93869737D01*
X141821153Y-93900499D01*
X141821156Y-93900500D01*
X141821158Y-93900500D01*
X141978844Y-93900500D01*
X141978845Y-93900499D01*
X142133497Y-93869737D01*
X142279179Y-93809394D01*
X142410289Y-93721789D01*
X142521789Y-93610289D01*
X142609394Y-93479179D01*
X142611029Y-93475233D01*
X142631628Y-93425500D01*
X142669737Y-93333497D01*
X142700500Y-93178842D01*
X142700500Y-93021158D01*
X142700500Y-93021155D01*
X142700499Y-93021153D01*
X142669737Y-92866503D01*
X142650953Y-92821153D01*
X142609397Y-92720827D01*
X142609390Y-92720814D01*
X142521789Y-92589711D01*
X142521786Y-92589707D01*
X142410292Y-92478213D01*
X142410288Y-92478210D01*
X142279185Y-92390609D01*
X142279172Y-92390602D01*
X142133501Y-92330264D01*
X142133489Y-92330261D01*
X141978845Y-92299500D01*
X141978842Y-92299500D01*
X141821158Y-92299500D01*
X141821155Y-92299500D01*
X141666510Y-92330261D01*
X141666498Y-92330264D01*
X141520827Y-92390602D01*
X141520820Y-92390606D01*
X141511612Y-92396759D01*
X141463955Y-92428602D01*
X141397279Y-92449480D01*
X141395065Y-92449500D01*
X140820808Y-92449500D01*
X140753769Y-92429815D01*
X140733127Y-92413181D01*
X140254855Y-91934909D01*
X140239434Y-91916119D01*
X140221787Y-91889708D01*
X140110292Y-91778213D01*
X140110288Y-91778210D01*
X139979185Y-91690609D01*
X139979172Y-91690602D01*
X139833501Y-91630264D01*
X139833489Y-91630261D01*
X139678845Y-91599500D01*
X139678842Y-91599500D01*
X139521158Y-91599500D01*
X139498690Y-91603969D01*
X139429099Y-91597740D01*
X139373922Y-91554877D01*
X139350678Y-91488987D01*
X139350500Y-91482351D01*
X139350500Y-91024500D01*
X139370185Y-90957461D01*
X139422989Y-90911706D01*
X139474500Y-90900500D01*
X139578844Y-90900500D01*
X139578845Y-90900499D01*
X139733497Y-90869737D01*
X139879179Y-90809394D01*
X139936044Y-90771397D01*
X140002721Y-90750520D01*
X140004935Y-90750500D01*
X140764071Y-90750500D01*
X140848615Y-90733682D01*
X140889744Y-90725501D01*
X141008127Y-90676465D01*
X141063930Y-90639179D01*
X141114669Y-90605277D01*
X141702931Y-90017012D01*
X141764250Y-89983530D01*
X141766329Y-89983096D01*
X141833497Y-89969737D01*
X141979179Y-89909394D01*
X142110289Y-89821789D01*
X142221789Y-89710289D01*
X142309394Y-89579179D01*
X142369737Y-89433497D01*
X142400500Y-89278842D01*
X142400500Y-89121158D01*
X142400500Y-89121155D01*
X142400499Y-89121153D01*
X142386789Y-89052230D01*
X142369737Y-88966503D01*
X142346126Y-88909500D01*
X142309397Y-88820827D01*
X142309390Y-88820814D01*
X142221789Y-88689711D01*
X142221786Y-88689707D01*
X142110292Y-88578213D01*
X142110288Y-88578210D01*
X141979185Y-88490609D01*
X141979172Y-88490602D01*
X141833501Y-88430264D01*
X141833489Y-88430261D01*
X141678845Y-88399500D01*
X141678842Y-88399500D01*
X141521158Y-88399500D01*
X141521155Y-88399500D01*
X141366510Y-88430261D01*
X141366498Y-88430264D01*
X141220827Y-88490602D01*
X141220814Y-88490609D01*
X141089711Y-88578210D01*
X141089707Y-88578213D01*
X140978213Y-88689707D01*
X140978210Y-88689711D01*
X140890609Y-88820814D01*
X140890602Y-88820827D01*
X140830264Y-88966498D01*
X140830261Y-88966508D01*
X140816920Y-89033580D01*
X140784535Y-89095491D01*
X140782984Y-89097069D01*
X140466873Y-89413181D01*
X140405550Y-89446666D01*
X140379192Y-89449500D01*
X140004935Y-89449500D01*
X139937896Y-89429815D01*
X139936090Y-89428633D01*
X139879179Y-89390606D01*
X139879172Y-89390602D01*
X139733501Y-89330264D01*
X139733489Y-89330261D01*
X139578845Y-89299500D01*
X139578842Y-89299500D01*
X139474500Y-89299500D01*
X139407461Y-89279815D01*
X139361706Y-89227011D01*
X139350500Y-89175500D01*
X139350500Y-82935928D01*
X139325502Y-82810261D01*
X139325500Y-82810253D01*
X139276466Y-82691876D01*
X139276465Y-82691873D01*
X139264856Y-82674499D01*
X139205277Y-82585331D01*
X139205275Y-82585329D01*
X139205273Y-82585326D01*
X136774673Y-80154726D01*
X136774669Y-80154723D01*
X136668127Y-80083535D01*
X136549744Y-80034499D01*
X136549742Y-80034498D01*
X136549741Y-80034498D01*
X136544712Y-80033498D01*
X136544707Y-80033497D01*
X136424071Y-80009500D01*
X136424069Y-80009500D01*
X99640992Y-80009500D01*
X99573953Y-79989815D01*
X99528198Y-79937011D01*
X99518254Y-79867853D01*
X99526431Y-79838047D01*
X99526644Y-79837533D01*
X99569737Y-79733497D01*
X99600500Y-79578842D01*
X99600500Y-79421158D01*
X99600500Y-79421155D01*
X99600499Y-79421153D01*
X99597883Y-79408003D01*
X99569737Y-79266503D01*
X99562694Y-79249500D01*
X99509397Y-79120827D01*
X99509390Y-79120814D01*
X99421789Y-78989711D01*
X99421786Y-78989707D01*
X99310292Y-78878213D01*
X99310288Y-78878210D01*
X99179185Y-78790609D01*
X99179172Y-78790602D01*
X99033501Y-78730264D01*
X99033489Y-78730261D01*
X98878845Y-78699500D01*
X98878842Y-78699500D01*
X98721158Y-78699500D01*
X98721155Y-78699500D01*
X98566510Y-78730261D01*
X98566498Y-78730264D01*
X98420827Y-78790602D01*
X98420814Y-78790609D01*
X98289711Y-78878210D01*
X98289707Y-78878213D01*
X98178213Y-78989707D01*
X98178210Y-78989711D01*
X98090607Y-79120817D01*
X98090606Y-79120820D01*
X98069013Y-79172952D01*
X98025173Y-79227356D01*
X97958879Y-79249421D01*
X97954452Y-79249500D01*
X95021126Y-79249500D01*
X94954087Y-79229815D01*
X94908332Y-79177011D01*
X94898388Y-79107853D01*
X94927413Y-79044297D01*
X94948483Y-79025707D01*
X94948438Y-79025653D01*
X94949976Y-79024390D01*
X94952236Y-79022397D01*
X94953146Y-79021789D01*
X95064646Y-78910289D01*
X95152251Y-78779179D01*
X95212594Y-78633497D01*
X95243357Y-78478842D01*
X95243357Y-78321158D01*
X95243357Y-78321155D01*
X95243356Y-78321153D01*
X95238895Y-78298724D01*
X95212594Y-78166503D01*
X95182239Y-78093218D01*
X95152254Y-78020827D01*
X95152247Y-78020814D01*
X95064646Y-77889711D01*
X95064643Y-77889707D01*
X94953149Y-77778213D01*
X94953145Y-77778210D01*
X94822042Y-77690609D01*
X94822029Y-77690602D01*
X94676356Y-77630263D01*
X94676348Y-77630261D01*
X94609275Y-77616919D01*
X94592518Y-77608153D01*
X94574040Y-77604134D01*
X94549003Y-77585391D01*
X94547364Y-77584534D01*
X94545786Y-77582983D01*
X94436979Y-77474176D01*
X94355385Y-77392582D01*
X129428071Y-77392582D01*
X129428071Y-77550275D01*
X129458832Y-77704918D01*
X129458835Y-77704930D01*
X129519173Y-77850601D01*
X129519180Y-77850614D01*
X129606781Y-77981717D01*
X129606784Y-77981721D01*
X129718278Y-78093215D01*
X129718282Y-78093218D01*
X129849385Y-78180819D01*
X129849398Y-78180826D01*
X129936801Y-78217028D01*
X129995074Y-78241166D01*
X130062151Y-78254508D01*
X130124059Y-78286890D01*
X130125639Y-78288443D01*
X130642466Y-78805271D01*
X130642469Y-78805274D01*
X130708660Y-78849501D01*
X130749008Y-78876461D01*
X130749017Y-78876466D01*
X130753230Y-78878211D01*
X130867398Y-78925501D01*
X130867402Y-78925501D01*
X130867403Y-78925502D01*
X130993070Y-78950500D01*
X130993073Y-78950500D01*
X138279192Y-78950500D01*
X138346231Y-78970185D01*
X138366873Y-78986819D01*
X138582984Y-79202930D01*
X138616469Y-79264253D01*
X138616920Y-79266420D01*
X138630261Y-79333489D01*
X138630264Y-79333501D01*
X138690602Y-79479172D01*
X138690609Y-79479185D01*
X138778210Y-79610288D01*
X138778213Y-79610292D01*
X138889707Y-79721786D01*
X138889711Y-79721789D01*
X139020814Y-79809390D01*
X139020827Y-79809397D01*
X139166498Y-79869735D01*
X139166503Y-79869737D01*
X139321153Y-79900499D01*
X139321156Y-79900500D01*
X139321158Y-79900500D01*
X139478844Y-79900500D01*
X139478845Y-79900499D01*
X139633497Y-79869737D01*
X139779179Y-79809394D01*
X139910289Y-79721789D01*
X140021789Y-79610289D01*
X140109394Y-79479179D01*
X140111809Y-79473350D01*
X140143226Y-79397500D01*
X140169737Y-79333497D01*
X140200500Y-79178842D01*
X140200500Y-79021158D01*
X140200500Y-79021155D01*
X140176661Y-78901311D01*
X140182888Y-78831719D01*
X140225751Y-78776542D01*
X140250814Y-78762563D01*
X140379179Y-78709394D01*
X140510289Y-78621789D01*
X140621789Y-78510289D01*
X140709394Y-78379179D01*
X140710976Y-78375361D01*
X140757701Y-78262554D01*
X140769737Y-78233497D01*
X140800500Y-78078842D01*
X140800500Y-77921158D01*
X140800500Y-77921155D01*
X140800499Y-77921153D01*
X140794244Y-77889707D01*
X140769737Y-77766503D01*
X140738298Y-77690602D01*
X140709397Y-77620827D01*
X140709390Y-77620814D01*
X140621789Y-77489711D01*
X140621786Y-77489707D01*
X140510292Y-77378213D01*
X140510288Y-77378210D01*
X140379185Y-77290609D01*
X140379172Y-77290602D01*
X140233501Y-77230264D01*
X140233489Y-77230261D01*
X140166420Y-77216920D01*
X140104509Y-77184535D01*
X140102930Y-77182984D01*
X139914674Y-76994727D01*
X139914673Y-76994726D01*
X139914669Y-76994723D01*
X139808127Y-76923535D01*
X139689744Y-76874499D01*
X139689745Y-76874499D01*
X139687127Y-76873978D01*
X139679202Y-76872402D01*
X139564071Y-76849500D01*
X139564069Y-76849500D01*
X131599231Y-76849500D01*
X131532192Y-76829815D01*
X131530341Y-76828602D01*
X131507752Y-76813508D01*
X131507748Y-76813506D01*
X131362072Y-76753166D01*
X131362060Y-76753163D01*
X131207416Y-76722402D01*
X131207413Y-76722402D01*
X131049729Y-76722402D01*
X131049726Y-76722402D01*
X130895081Y-76753163D01*
X130895069Y-76753166D01*
X130770742Y-76804664D01*
X130701273Y-76812133D01*
X130654399Y-76793205D01*
X130607755Y-76762038D01*
X130607752Y-76762036D01*
X130607750Y-76762035D01*
X130607747Y-76762033D01*
X130607742Y-76762031D01*
X130462072Y-76701693D01*
X130462060Y-76701690D01*
X130307416Y-76670929D01*
X130307413Y-76670929D01*
X130149729Y-76670929D01*
X130149726Y-76670929D01*
X129995081Y-76701690D01*
X129995069Y-76701693D01*
X129849398Y-76762031D01*
X129849385Y-76762038D01*
X129718282Y-76849639D01*
X129718278Y-76849642D01*
X129606784Y-76961136D01*
X129606781Y-76961140D01*
X129519180Y-77092243D01*
X129519173Y-77092256D01*
X129458835Y-77237927D01*
X129458832Y-77237939D01*
X129428071Y-77392582D01*
X94355385Y-77392582D01*
X93456531Y-76493727D01*
X93456530Y-76493726D01*
X93456526Y-76493723D01*
X93349984Y-76422535D01*
X93231601Y-76373499D01*
X93231595Y-76373497D01*
X93105928Y-76348500D01*
X93105926Y-76348500D01*
X86736931Y-76348500D01*
X86736929Y-76348500D01*
X86611261Y-76373497D01*
X86611255Y-76373499D01*
X86492870Y-76422535D01*
X86386331Y-76493722D01*
X86386324Y-76493728D01*
X86121333Y-76758719D01*
X86060010Y-76792204D01*
X86057844Y-76792655D01*
X85990773Y-76805996D01*
X85990763Y-76805999D01*
X85845092Y-76866337D01*
X85845085Y-76866341D01*
X85816193Y-76885646D01*
X85788220Y-76904337D01*
X85721544Y-76925215D01*
X85719330Y-76925235D01*
X82180194Y-76925235D01*
X82058211Y-76949500D01*
X82057458Y-76949649D01*
X82054522Y-76950233D01*
X82054520Y-76950234D01*
X81936135Y-76999270D01*
X81829596Y-77070457D01*
X81829589Y-77070463D01*
X79513977Y-79386075D01*
X79452654Y-79419560D01*
X79406899Y-79420867D01*
X79259361Y-79397500D01*
X79060639Y-79397500D01*
X78995214Y-79407862D01*
X78864362Y-79428587D01*
X78675370Y-79489993D01*
X78675367Y-79489994D01*
X78498305Y-79580213D01*
X78337533Y-79697021D01*
X78197021Y-79837533D01*
X78080213Y-79998305D01*
X78000485Y-80154780D01*
X77952510Y-80205576D01*
X77884689Y-80222371D01*
X77818554Y-80199833D01*
X77779515Y-80154780D01*
X77760179Y-80116832D01*
X77699787Y-79998306D01*
X77582981Y-79837536D01*
X77442464Y-79697019D01*
X77281694Y-79580213D01*
X77279003Y-79578842D01*
X77104632Y-79489994D01*
X77104629Y-79489993D01*
X76915637Y-79428587D01*
X76785674Y-79408003D01*
X76719361Y-79397500D01*
X76520639Y-79397500D01*
X76455214Y-79407862D01*
X76324362Y-79428587D01*
X76135370Y-79489993D01*
X76135367Y-79489994D01*
X75958305Y-79580213D01*
X75797533Y-79697021D01*
X75657021Y-79837533D01*
X75540213Y-79998305D01*
X75460485Y-80154780D01*
X75412510Y-80205576D01*
X75344689Y-80222371D01*
X75278554Y-80199833D01*
X75239515Y-80154780D01*
X75220179Y-80116832D01*
X75159787Y-79998306D01*
X75042981Y-79837536D01*
X74902464Y-79697019D01*
X74763426Y-79596002D01*
X74720761Y-79540672D01*
X74714782Y-79471058D01*
X74747388Y-79409263D01*
X74748552Y-79408082D01*
X76269817Y-77886819D01*
X76331140Y-77853334D01*
X76357498Y-77850500D01*
X78195065Y-77850500D01*
X78262104Y-77870185D01*
X78263909Y-77871366D01*
X78320821Y-77909394D01*
X78320823Y-77909395D01*
X78320827Y-77909397D01*
X78466498Y-77969735D01*
X78466503Y-77969737D01*
X78621153Y-78000499D01*
X78621156Y-78000500D01*
X78621158Y-78000500D01*
X78778844Y-78000500D01*
X78778845Y-78000499D01*
X78933497Y-77969737D01*
X79079179Y-77909394D01*
X79210289Y-77821789D01*
X79321789Y-77710289D01*
X79409394Y-77579179D01*
X79469737Y-77433497D01*
X79500500Y-77278842D01*
X79500500Y-77121158D01*
X79500500Y-77121155D01*
X79500499Y-77121153D01*
X79490415Y-77070457D01*
X79469737Y-76966503D01*
X79462694Y-76949500D01*
X79409397Y-76820827D01*
X79409390Y-76820814D01*
X79321789Y-76689711D01*
X79321786Y-76689707D01*
X79210292Y-76578213D01*
X79210288Y-76578210D01*
X79079185Y-76490609D01*
X79079172Y-76490602D01*
X78933501Y-76430264D01*
X78933489Y-76430261D01*
X78778845Y-76399500D01*
X78778842Y-76399500D01*
X78621158Y-76399500D01*
X78621155Y-76399500D01*
X78466510Y-76430261D01*
X78466498Y-76430264D01*
X78320827Y-76490602D01*
X78320820Y-76490606D01*
X78291928Y-76509911D01*
X78263955Y-76528602D01*
X78197279Y-76549480D01*
X78195065Y-76549500D01*
X75972619Y-76549500D01*
X75846951Y-76574497D01*
X75846945Y-76574499D01*
X75728564Y-76623534D01*
X75622016Y-76694726D01*
X72097726Y-80219016D01*
X72036741Y-80310289D01*
X72036740Y-80310291D01*
X72026533Y-80325565D01*
X71977499Y-80443945D01*
X71977497Y-80443950D01*
X71962496Y-80519361D01*
X71954208Y-80488429D01*
X71895689Y-80387070D01*
X71812930Y-80304311D01*
X71711571Y-80245792D01*
X71624094Y-80222352D01*
X72238716Y-79607731D01*
X72238715Y-79607730D01*
X72201432Y-79580641D01*
X72024437Y-79490457D01*
X71835522Y-79429075D01*
X71639321Y-79398000D01*
X71440679Y-79398000D01*
X71244479Y-79429075D01*
X71244476Y-79429075D01*
X71055562Y-79490457D01*
X70878564Y-79580643D01*
X70841283Y-79607729D01*
X70841282Y-79607730D01*
X71455906Y-80222352D01*
X71368429Y-80245792D01*
X71267070Y-80304311D01*
X71184311Y-80387070D01*
X71125792Y-80488429D01*
X71102352Y-80575905D01*
X70487730Y-79961282D01*
X70487729Y-79961283D01*
X70460641Y-79998566D01*
X70380764Y-80155332D01*
X70332790Y-80206127D01*
X70264969Y-80222922D01*
X70198834Y-80200384D01*
X70159796Y-80155332D01*
X70079787Y-79998306D01*
X69962981Y-79837536D01*
X69822464Y-79697019D01*
X69661694Y-79580213D01*
X69659003Y-79578842D01*
X69484632Y-79489994D01*
X69484629Y-79489993D01*
X69295637Y-79428587D01*
X69165674Y-79408003D01*
X69099361Y-79397500D01*
X68900639Y-79397500D01*
X68835214Y-79407862D01*
X68704362Y-79428587D01*
X68515370Y-79489993D01*
X68515367Y-79489994D01*
X68338305Y-79580213D01*
X68177533Y-79697021D01*
X68037021Y-79837533D01*
X67920213Y-79998305D01*
X67829994Y-80175367D01*
X67829993Y-80175370D01*
X67768587Y-80364362D01*
X67737500Y-80560639D01*
X66500500Y-80560639D01*
X66500500Y-72622413D01*
X66520185Y-72555374D01*
X66572989Y-72509619D01*
X66642147Y-72499675D01*
X66699984Y-72524036D01*
X66749060Y-72561694D01*
X66886196Y-72666924D01*
X67113299Y-72798041D01*
X67113309Y-72798046D01*
X67355571Y-72898394D01*
X67355581Y-72898398D01*
X67608884Y-72966270D01*
X67868880Y-73000500D01*
X67868887Y-73000500D01*
X68131113Y-73000500D01*
X68131120Y-73000500D01*
X68391116Y-72966270D01*
X68644419Y-72898398D01*
X68886697Y-72798043D01*
X69113803Y-72666924D01*
X69321851Y-72507282D01*
X69321855Y-72507277D01*
X69321860Y-72507274D01*
X69507274Y-72321860D01*
X69507277Y-72321855D01*
X69507282Y-72321851D01*
X69666924Y-72113803D01*
X69798043Y-71886697D01*
X69898398Y-71644419D01*
X69966270Y-71391116D01*
X70000500Y-71131120D01*
X70000500Y-70868880D01*
X69966270Y-70608884D01*
X69898398Y-70355581D01*
X69800204Y-70118520D01*
X69798046Y-70113309D01*
X69798041Y-70113299D01*
X69666924Y-69886196D01*
X69524039Y-69699987D01*
X69498844Y-69634818D01*
X69512882Y-69566373D01*
X69561696Y-69516383D01*
X69622414Y-69500500D01*
X146377586Y-69500500D01*
X146391209Y-69504500D01*
G37*
%TD.AperFunction*%
%TD*%
M02*
