M48
; DRILL file {KiCad 9.0.2} date 2025-08-25T15:59:26+0900
; FORMAT={-:-/ absolute / inch / decimal}
; #@! TF.CreationDate,2025-08-25T15:59:26+09:00
; #@! TF.GenerationSoftware,Kicad,Pcbnew,9.0.2
; #@! TF.FileFunction,Plated,1,2,PTH
FMAT,2
INCH
; #@! TA.AperFunction,Plated,PTH,ViaDrill
T1C0.0118
; #@! TA.AperFunction,Plated,PTH,ComponentDrill
T2C0.0350
; #@! TA.AperFunction,Plated,PTH,ComponentDrill
T3C0.0394
%
G90
G05
T1
X2.7559Y-3.2795
X2.7598Y-4.1457
X2.7717Y-2.9803
X2.8071Y-4.1063
X2.811Y-4.0669
X2.811Y-4.1811
X3.0197Y-2.9134
X3.0906Y-3.2795
X3.0984Y-3.0394
X3.1102Y-4.2441
X3.1417Y-3.311
X3.1496Y-4.3898
X3.1693Y-4.4488
X3.1772Y-4.2717
X3.2244Y-4.2835
X3.3858Y-2.9213
X3.3947Y-3.0542
X3.4213Y-3.1417
X3.4409Y-3.0591
X3.5118Y-3.0551
X3.5197Y-3.248
X3.5236Y-3.5472
X3.5945Y-3.4409
X3.6378Y-4.2913
X3.6732Y-4.3858
X3.685Y-3.1457
X3.7182Y-3.0866
X3.7323Y-2.9134
X3.7323Y-4.4173
X3.7598Y-4.2835
X3.7756Y-3.6575
X3.8071Y-3.2638
X3.8898Y-3.1299
X3.9134Y-4.2283
X3.9882Y-3.6535
X4.0866Y-2.9173
X4.1654Y-4.2008
X4.2244Y-3.6693
X4.2323Y-3.7598
X4.248Y-4.4094
X4.2835Y-3.2717
X4.2874Y-3.0984
X4.3819Y-4.1535
X4.4409Y-2.9213
X4.4724Y-3.6102
X4.5Y-3.5535
X4.5236Y-3.6772
X4.5276Y-3.2913
X4.5276Y-3.3976
X4.563Y-3.8465
X4.6378Y-4.1024
X4.7126Y-3.6732
X4.7598Y-4.1063
X4.7624Y-3.651
X4.7717Y-4.3937
X4.7874Y-3.7535
X4.7953Y-2.9213
X4.7953Y-4.252
X4.7992Y-3.5535
X4.8661Y-4.0709
X4.9606Y-3.6102
X5.0433Y-3.2795
X5.1102Y-4.0354
X5.1271Y-3.0501
X5.1459Y-2.9248
X5.1625Y-3.0521
X5.1654Y-3.8386
X5.2087Y-4.2008
X5.2362Y-3.7559
X5.2441Y-3.4488
X5.252Y-4.1614
X5.2677Y-3.9055
X5.2992Y-4.4252
X5.311Y-4.1063
X5.4291Y-3.5
X5.4882Y-3.1142
X5.4921Y-3.5472
X5.4961Y-3.6378
X5.5Y-2.9173
X5.5118Y-3.0709
X5.5236Y-4.0039
X5.5354Y-3.9213
X5.5748Y-3.5118
X5.5866Y-3.6654
X5.6024Y-4.0
X5.6024Y-4.1181
X5.6063Y-4.0787
X5.748Y-4.0354
X5.752Y-3.5157
T2
X2.7165Y-3.1756
X2.7165Y-3.7756
X2.8165Y-3.1756
X2.8165Y-3.7756
X2.9165Y-3.1756
X2.9165Y-3.7756
X3.0165Y-3.1756
X3.0165Y-3.7756
X3.1165Y-3.1756
X3.1165Y-3.7756
X3.2165Y-3.1756
X3.2165Y-3.7756
X3.3165Y-3.1756
X3.3165Y-3.7756
T3
X3.6732Y-3.3535
X3.6732Y-3.4535
X3.6732Y-3.5535
X3.6732Y-3.6535
X3.6732Y-3.7535
X3.6732Y-3.8535
X3.9128Y-3.3535
X3.9128Y-3.4535
X3.9128Y-3.5535
X3.9128Y-3.6535
X3.9128Y-3.7535
X3.9128Y-3.8535
X4.1524Y-3.3535
X4.1524Y-3.4535
X4.1524Y-3.5535
X4.1524Y-3.6535
X4.1524Y-3.7535
X4.1524Y-3.8535
X4.392Y-3.3535
X4.392Y-3.4535
X4.392Y-3.5535
X4.392Y-3.6535
X4.392Y-3.7535
X4.392Y-3.8535
X4.6316Y-3.3535
X4.6316Y-3.4535
X4.6316Y-3.5535
X4.6316Y-3.6535
X4.6316Y-3.7535
X4.6316Y-3.8535
X4.8712Y-3.3535
X4.8712Y-3.4535
X4.8712Y-3.5535
X4.8712Y-3.6535
X4.8712Y-3.7535
X4.8712Y-3.8535
X5.1108Y-3.3535
X5.1108Y-3.4535
X5.1108Y-3.5535
X5.1108Y-3.6535
X5.1108Y-3.7535
X5.1108Y-3.8535
X5.3504Y-3.3535
X5.3504Y-3.4535
X5.3504Y-3.5535
X5.3504Y-3.6535
X5.3504Y-3.7535
X5.3504Y-3.8535
M30
