M48
; DRILL file {KiCad 9.0.2} date 2025-08-22T16:30:00+0900
; FORMAT={-:-/ absolute / inch / decimal}
; #@! TF.CreationDate,2025-08-22T16:30:00+09:00
; #@! TF.GenerationSoftware,Kicad,Pcbnew,9.0.2
; #@! TF.FileFunction,Plated,1,2,PTH
FMAT,2
INCH
; #@! TA.AperFunction,Plated,PTH,ViaDrill
T1C0.0118
; #@! TA.AperFunction,Plated,PTH,ComponentDrill
T2C0.0350
; #@! TA.AperFunction,Plated,PTH,ComponentDrill
T3C0.0394
%
G90
G05
T1
X2.6575Y-2.9291
X2.6575Y-4.3583
X2.6929Y-4.1811
X2.8228Y-4.5
X2.8661Y-2.7717
X2.9134Y-3.5669
X2.937Y-4.3386
X3.0433Y-3.8898
X3.0591Y-4.2087
X3.0906Y-3.6457
X3.1496Y-3.6378
X3.185Y-2.7677
X3.2008Y-3.6417
X3.2362Y-2.8661
X3.2362Y-3.6417
X3.2638Y-2.9961
X3.2795Y-3.6339
X3.311Y-3.1496
X3.315Y-3.6299
X3.3819Y-3.5118
X3.3976Y-2.9252
X3.4016Y-4.4843
X3.4055Y-4.3937
X3.4055Y-4.437
X3.5059Y-4.4665
X3.5827Y-3.4252
X3.6181Y-2.8898
X3.6378Y-2.998
X3.6575Y-3.7165
X3.6706Y-2.8093
X3.6811Y-4.1693
X3.689Y-3.9173
X3.6929Y-3.4312
X3.6929Y-3.4646
X3.7008Y-3.5945
X3.7047Y-3.6535
X3.7087Y-2.7795
X3.7362Y-2.8346
X3.7638Y-2.8622
X3.7638Y-4.4685
X3.7874Y-2.8858
X3.7874Y-4.1654
X3.7913Y-3.9094
X3.7953Y-3.6457
X3.8307Y-4.3602
X3.8661Y-3.5276
X3.8898Y-2.8858
X3.9213Y-4.437
X3.9213Y-4.4882
X3.9252Y-2.9921
X3.9291Y-2.811
X3.9646Y-2.7717
X3.9803Y-4.4646
X4.0197Y-2.8307
X4.0551Y-2.8543
X4.0748Y-2.8858
X4.0787Y-3.5945
X4.1181Y-3.4724
X4.1614Y-3.4213
X4.1614Y-3.6063
X4.1654Y-4.1142
X4.1693Y-3.874
X4.1732Y-4.0197
X4.1732Y-4.3898
X4.1811Y-2.8819
X4.2362Y-3.0079
X4.248Y-2.7992
X4.2756Y-2.7756
X4.3105Y-2.8301
X4.3465Y-4.4646
X4.3622Y-2.8543
X4.3858Y-2.8819
X4.3898Y-4.1693
X4.3937Y-3.6535
X4.3937Y-3.9094
X4.3976Y-3.4094
X4.4646Y-2.8819
X4.5236Y-3.0118
X4.5512Y-2.8071
X4.5984Y-2.7835
X4.5984Y-4.4646
X4.6339Y-2.8307
X4.6614Y-2.8583
X4.6772Y-2.8976
X4.6969Y-4.5236
X4.7244Y-2.7638
X4.7874Y-4.2795
X4.8661Y-4.3701
X4.878Y-2.9291
T2
X2.8339Y-3.6756
X2.8339Y-3.7756
X2.8339Y-3.8756
X2.8339Y-3.9756
X2.8339Y-4.0756
X2.8339Y-4.1756
X2.8339Y-4.2756
X3.4339Y-3.6756
X3.4339Y-3.7756
X3.4339Y-3.8756
X3.4339Y-3.9756
X3.4339Y-4.0756
X3.4339Y-4.1756
X3.4339Y-4.2756
T3
X2.8596Y-2.9587
X2.8596Y-3.0587
X2.8596Y-3.1587
X2.8596Y-3.2587
X2.8596Y-3.3587
X2.8596Y-3.4587
X2.9596Y-2.9587
X2.9596Y-3.0587
X2.9596Y-3.1587
X2.9596Y-3.2587
X2.9596Y-3.3587
X2.9596Y-3.4587
M30
