%TF.GenerationSoftware,KiCad,Pcbnew,9.0.2*%
%TF.CreationDate,2025-08-22T16:30:00+09:00*%
%TF.ProjectId,imu_controller_board,696d755f-636f-46e7-9472-6f6c6c65725f,rev?*%
%TF.SameCoordinates,Original*%
%TF.FileFunction,Copper,L2,Bot*%
%TF.FilePolarity,Positive*%
%FSLAX46Y46*%
G04 Gerber Fmt 4.6, Leading zero omitted, Abs format (unit mm)*
G04 Created by KiCad (PCBNEW 9.0.2) date 2025-08-22 16:30:00*
%MOMM*%
%LPD*%
G01*
G04 APERTURE LIST*
%TA.AperFunction,ComponentPad*%
%ADD10R,1.700000X1.700000*%
%TD*%
%TA.AperFunction,ComponentPad*%
%ADD11C,1.700000*%
%TD*%
%TA.AperFunction,ComponentPad*%
%ADD12C,1.524000*%
%TD*%
%TA.AperFunction,ViaPad*%
%ADD13C,0.600000*%
%TD*%
%TA.AperFunction,Conductor*%
%ADD14C,0.200000*%
%TD*%
G04 APERTURE END LIST*
D10*
%TO.P,DEBUG1,1,Pin_1*%
%TO.N,/MOSI*%
X75175000Y-87850000D03*
D11*
%TO.P,DEBUG1,2,Pin_2*%
%TO.N,/MISO*%
X72635000Y-87850000D03*
%TO.P,DEBUG1,3,Pin_3*%
%TO.N,/SCK*%
X75175000Y-85310000D03*
%TO.P,DEBUG1,4,Pin_4*%
%TO.N,/CS1*%
X72635000Y-85310000D03*
%TO.P,DEBUG1,5,Pin_5*%
%TO.N,/CS2*%
X75175000Y-82770000D03*
%TO.P,DEBUG1,6,Pin_6*%
%TO.N,/CS3*%
X72635000Y-82770000D03*
%TO.P,DEBUG1,7,Pin_7*%
%TO.N,/CS4*%
X75175000Y-80230000D03*
%TO.P,DEBUG1,8,Pin_8*%
%TO.N,/CS5*%
X72635000Y-80230000D03*
%TO.P,DEBUG1,9,Pin_9*%
%TO.N,/CS6*%
X75175000Y-77690000D03*
%TO.P,DEBUG1,10,Pin_10*%
%TO.N,/CS7*%
X72635000Y-77690000D03*
%TO.P,DEBUG1,11,Pin_11*%
%TO.N,/CS8*%
X75175000Y-75150000D03*
%TO.P,DEBUG1,12*%
%TO.N,N/C*%
X72635000Y-75150000D03*
%TD*%
D12*
%TO.P,U1,1,GPIO0/A0/D0*%
%TO.N,/CS1*%
X87220000Y-108601500D03*
%TO.P,U1,2,GPIO1/A1/D1*%
%TO.N,/CS2*%
X87220000Y-106061500D03*
%TO.P,U1,3,GPIO2/A2/D2*%
%TO.N,/CS3*%
X87220000Y-103521500D03*
%TO.P,U1,4,GPIO21/D3*%
%TO.N,/CS4*%
X87220000Y-100981500D03*
%TO.P,U1,5,GPIO22/D4/SDA*%
%TO.N,/CS5*%
X87220000Y-98441500D03*
%TO.P,U1,6,GPIO23/D5/SCL*%
%TO.N,/CS6*%
X87220000Y-95901500D03*
%TO.P,U1,7,GPIO16/D6/TX*%
%TO.N,/CS7*%
X87220000Y-93361500D03*
%TO.P,U1,8,GPIO17/D7/RX*%
%TO.N,/CS8*%
X71980000Y-93361500D03*
%TO.P,U1,9,GPIO19/D8/SCK*%
%TO.N,/SCK*%
X71980000Y-95901500D03*
%TO.P,U1,10,GPIO20/D9/MISO*%
%TO.N,/MISO*%
X71980000Y-98441500D03*
%TO.P,U1,11,GPIO18/D10/MOSI*%
%TO.N,/MOSI*%
X71980000Y-100981500D03*
%TO.P,U1,12,3V3*%
%TO.N,+3V3*%
X71980000Y-103521500D03*
%TO.P,U1,13,GND*%
%TO.N,GND*%
X71980000Y-106061500D03*
%TO.P,U1,14,VBUS*%
%TO.N,unconnected-(U1-VBUS-Pad14)*%
X71980000Y-108601500D03*
%TD*%
D13*
%TO.N,GND*%
X106000000Y-111500000D03*
X105800000Y-104500000D03*
X106000000Y-102100000D03*
X105900000Y-98400000D03*
X105700000Y-91600000D03*
X86300000Y-74300000D03*
X84100000Y-80000000D03*
X74600000Y-110200000D03*
X77300000Y-98800000D03*
X77700000Y-106900000D03*
X82200000Y-72800000D03*
X82900000Y-76100000D03*
X80900000Y-70300000D03*
X121600000Y-108700000D03*
X119300000Y-114900000D03*
X123600000Y-111000000D03*
X123900000Y-74400000D03*
X120000000Y-70200000D03*
X72800000Y-70400000D03*
X67500000Y-74400000D03*
X67500000Y-110700000D03*
X71700000Y-114300000D03*
X68400000Y-106200000D03*
X98200000Y-89600000D03*
%TO.N,/CS1*%
X78500000Y-92600000D03*
%TO.N,GND*%
X104600000Y-88200000D03*
X116800000Y-70700000D03*
X108600000Y-70500000D03*
%TO.N,/MOSI*%
X103000000Y-72500000D03*
%TO.N,GND*%
X100700000Y-70400000D03*
X94200000Y-70600000D03*
%TO.N,/CS2*%
X80000000Y-92400000D03*
%TO.N,/CS3*%
X81300000Y-92500000D03*
%TO.N,/CS4*%
X82200000Y-92500000D03*
%TO.N,/CS5*%
X83300000Y-92300000D03*
%TO.N,/CS6*%
X84200000Y-92200000D03*
%TO.N,/CS7*%
X85900000Y-89200000D03*
%TO.N,/SCK*%
X74000000Y-90600000D03*
X97300000Y-110750000D03*
X86500000Y-111600000D03*
%TO.N,/MISO*%
X99600000Y-112700000D03*
X86500000Y-112700000D03*
%TO.N,/MOSI*%
X99600000Y-114000000D03*
X86400000Y-113900000D03*
%TO.N,+3V3*%
X89050000Y-113450000D03*
%TO.N,/MISO*%
X109487851Y-71885421D03*
%TO.N,/SCK*%
X107900000Y-71100000D03*
X115600000Y-71300000D03*
%TO.N,/MISO*%
X117700000Y-71900000D03*
%TO.N,/MOSI*%
X118400000Y-72600000D03*
X110800000Y-72500000D03*
%TO.N,/SCK*%
X93234358Y-71356239D03*
X99800000Y-71400000D03*
%TO.N,/MISO*%
X94900000Y-72000000D03*
X102100000Y-71900000D03*
%TO.N,/MOSI*%
X95600000Y-72700000D03*
%TO.N,/CS8*%
X93800000Y-87151473D03*
%TO.N,/CS7*%
X105700000Y-86900000D03*
%TO.N,/CS6*%
X103600000Y-91300000D03*
%TO.N,/CS5*%
X91000000Y-87000000D03*
X111500000Y-105900000D03*
X92900000Y-94400000D03*
%TO.N,/CS4*%
X114900000Y-76500000D03*
%TO.N,/CS3*%
X107600000Y-76400000D03*
%TO.N,/CS2*%
X99700000Y-76000000D03*
%TO.N,+3V3*%
X116800000Y-113400000D03*
X110400000Y-113400000D03*
X101100000Y-113400000D03*
X95600000Y-113500000D03*
%TO.N,/CS8*%
X111700000Y-86600000D03*
%TO.N,/CS7*%
X111600000Y-92800000D03*
X93800000Y-88000000D03*
%TO.N,/CS6*%
X111600000Y-99300000D03*
X94000000Y-91300000D03*
%TO.N,/CS4*%
X96400000Y-92600000D03*
X94100000Y-92800000D03*
%TO.N,/CS3*%
X96300000Y-99300000D03*
X93700000Y-99500000D03*
%TO.N,/CS2*%
X96200000Y-105800000D03*
X93500000Y-105900000D03*
%TO.N,/CS1*%
X92400000Y-76148585D03*
%TO.N,+3V3*%
X98800000Y-73300000D03*
X106200000Y-73200000D03*
X96200000Y-73300000D03*
X111400000Y-73200000D03*
X113400000Y-73200000D03*
X91900000Y-73400000D03*
X118800000Y-73600000D03*
X103500000Y-73300000D03*
%TD*%
D14*
%TO.N,/CS7*%
X105300000Y-86500000D02*
X105700000Y-86900000D01*
X93800000Y-88000000D02*
X95300000Y-86500000D01*
X95300000Y-86500000D02*
X105300000Y-86500000D01*
%TO.N,/CS8*%
X74600000Y-73100000D02*
X75175000Y-73675000D01*
X70200000Y-73100000D02*
X74600000Y-73100000D01*
X75175000Y-73675000D02*
X75175000Y-75150000D01*
X70200000Y-91581500D02*
X70200000Y-73100000D01*
X71980000Y-93361500D02*
X70200000Y-91581500D01*
%TO.N,/CS1*%
X76088000Y-86461000D02*
X73786000Y-86461000D01*
X73786000Y-86461000D02*
X72635000Y-85310000D01*
X78500000Y-92600000D02*
X78500000Y-88873000D01*
X78500000Y-88873000D02*
X76088000Y-86461000D01*
%TO.N,GND*%
X116600000Y-70500000D02*
X116800000Y-70700000D01*
X108600000Y-70500000D02*
X116600000Y-70500000D01*
%TO.N,/MISO*%
X109502430Y-71900000D02*
X109487851Y-71885421D01*
X117700000Y-71900000D02*
X109502430Y-71900000D01*
%TO.N,/CS4*%
X113300000Y-78600000D02*
X96200000Y-78600000D01*
X114900000Y-76500000D02*
X114900000Y-77000000D01*
X93200000Y-91900000D02*
X94100000Y-92800000D01*
X114900000Y-77000000D02*
X113300000Y-78600000D01*
X96200000Y-78600000D02*
X93200000Y-81600000D01*
X93200000Y-81600000D02*
X93200000Y-91900000D01*
%TO.N,+3V3*%
X113400000Y-73200000D02*
X118400000Y-73200000D01*
X113400000Y-73200000D02*
X111400000Y-73200000D01*
X118400000Y-73200000D02*
X118800000Y-73600000D01*
%TO.N,GND*%
X108500000Y-70400000D02*
X108600000Y-70500000D01*
X100700000Y-70400000D02*
X108500000Y-70400000D01*
X94400000Y-70400000D02*
X100700000Y-70400000D01*
X94200000Y-70600000D02*
X94400000Y-70400000D01*
%TO.N,/MOSI*%
X118300000Y-72500000D02*
X118400000Y-72600000D01*
X110800000Y-72500000D02*
X118300000Y-72500000D01*
X103000000Y-72500000D02*
X110800000Y-72500000D01*
%TO.N,+3V3*%
X111400000Y-73200000D02*
X106200000Y-73200000D01*
%TO.N,/MISO*%
X109473272Y-71900000D02*
X109487851Y-71885421D01*
X102100000Y-71900000D02*
X109473272Y-71900000D01*
%TO.N,/CS3*%
X92200000Y-98000000D02*
X93700000Y-99500000D01*
X92200000Y-81867100D02*
X92200000Y-98000000D01*
X107600000Y-76900000D02*
X106800000Y-77700000D01*
X106800000Y-77700000D02*
X96367100Y-77700000D01*
X96367100Y-77700000D02*
X92200000Y-81867100D01*
X107600000Y-76400000D02*
X107600000Y-76900000D01*
%TO.N,+3V3*%
X103600000Y-73200000D02*
X106200000Y-73200000D01*
%TO.N,/MISO*%
X100900000Y-71900000D02*
X100800000Y-72000000D01*
X102100000Y-71900000D02*
X100900000Y-71900000D01*
X100800000Y-72000000D02*
X94900000Y-72000000D01*
%TO.N,/MOSI*%
X102800000Y-72700000D02*
X103000000Y-72500000D01*
X95600000Y-72700000D02*
X102800000Y-72700000D01*
%TO.N,+3V3*%
X103500000Y-73300000D02*
X98800000Y-73300000D01*
%TO.N,/CS2*%
X91600000Y-81900000D02*
X91600000Y-104000000D01*
X91600000Y-104000000D02*
X93500000Y-105900000D01*
X97500000Y-76000000D02*
X91600000Y-81900000D01*
X99700000Y-76000000D02*
X97500000Y-76000000D01*
%TO.N,+3V3*%
X98800000Y-73300000D02*
X96200000Y-73300000D01*
X92000000Y-73300000D02*
X91900000Y-73400000D01*
X96200000Y-73300000D02*
X92000000Y-73300000D01*
%TO.N,/CS1*%
X85601500Y-108601500D02*
X87220000Y-108601500D01*
X84800000Y-107800000D02*
X85601500Y-108601500D01*
X92400000Y-76148585D02*
X92400000Y-76700000D01*
X92400000Y-76700000D02*
X84800000Y-84300000D01*
X84800000Y-84300000D02*
X84800000Y-107800000D01*
%TO.N,/CS2*%
X80000000Y-87595000D02*
X75175000Y-82770000D01*
X80000000Y-92400000D02*
X80000000Y-87595000D01*
%TO.N,/CS3*%
X75819000Y-81619000D02*
X73786000Y-81619000D01*
X81300000Y-87100000D02*
X75819000Y-81619000D01*
X81300000Y-92500000D02*
X81300000Y-87100000D01*
X73786000Y-81619000D02*
X72635000Y-82770000D01*
%TO.N,/CS6*%
X75990000Y-77690000D02*
X75175000Y-77690000D01*
X84200000Y-85900000D02*
X75990000Y-77690000D01*
X84200000Y-92200000D02*
X84200000Y-85900000D01*
%TO.N,/CS5*%
X74065000Y-78800000D02*
X72635000Y-80230000D01*
X74698240Y-78841000D02*
X74657240Y-78800000D01*
X75413760Y-78841000D02*
X74698240Y-78841000D01*
X83300000Y-86727240D02*
X75413760Y-78841000D01*
X74657240Y-78800000D02*
X74065000Y-78800000D01*
X83300000Y-92300000D02*
X83300000Y-86727240D01*
%TO.N,/CS7*%
X87220000Y-90520000D02*
X85900000Y-89200000D01*
X87220000Y-93361500D02*
X87220000Y-90520000D01*
%TO.N,/SCK*%
X74000000Y-93881500D02*
X74000000Y-90600000D01*
X71980000Y-95901500D02*
X74000000Y-93881500D01*
%TO.N,/MISO*%
X75800000Y-91015000D02*
X72635000Y-87850000D01*
X75800000Y-94621500D02*
X75800000Y-91015000D01*
X71980000Y-98441500D02*
X75800000Y-94621500D01*
%TO.N,/MOSI*%
X77400000Y-90075000D02*
X75175000Y-87850000D01*
X77400000Y-95561500D02*
X77400000Y-90075000D01*
X71980000Y-100981500D02*
X77400000Y-95561500D01*
%TO.N,/SCK*%
X96450000Y-111600000D02*
X97300000Y-110750000D01*
X86500000Y-111600000D02*
X96450000Y-111600000D01*
%TO.N,/MISO*%
X86500000Y-112700000D02*
X99600000Y-112700000D01*
%TO.N,/MOSI*%
X99499000Y-114101000D02*
X99600000Y-114000000D01*
X86601000Y-114101000D02*
X99499000Y-114101000D01*
X86400000Y-113900000D02*
X86601000Y-114101000D01*
%TO.N,+3V3*%
X89100000Y-113500000D02*
X95600000Y-113500000D01*
X89050000Y-113450000D02*
X89100000Y-113500000D01*
%TO.N,/SCK*%
X107900000Y-71100000D02*
X115400000Y-71100000D01*
X115400000Y-71100000D02*
X115600000Y-71300000D01*
X100100000Y-71100000D02*
X107900000Y-71100000D01*
X99800000Y-71400000D02*
X100100000Y-71100000D01*
X93390597Y-71200000D02*
X93234358Y-71356239D01*
X99600000Y-71200000D02*
X93390597Y-71200000D01*
X99800000Y-71400000D02*
X99600000Y-71200000D01*
%TO.N,/CS8*%
X95051473Y-85900000D02*
X111000000Y-85900000D01*
X93800000Y-87151473D02*
X95051473Y-85900000D01*
X111000000Y-85900000D02*
X111700000Y-86600000D01*
%TO.N,/CS5*%
X91000000Y-95800000D02*
X88358500Y-98441500D01*
X91000000Y-87000000D02*
X91000000Y-95800000D01*
X88358500Y-98441500D02*
X87220000Y-98441500D01*
X104400000Y-105900000D02*
X111500000Y-105900000D01*
X92900000Y-94400000D02*
X104400000Y-105900000D01*
%TO.N,+3V3*%
X110400000Y-113400000D02*
X116800000Y-113400000D01*
X101100000Y-113400000D02*
X110400000Y-113400000D01*
X95700000Y-113400000D02*
X101100000Y-113400000D01*
X95600000Y-113500000D02*
X95700000Y-113400000D01*
%TO.N,/CS7*%
X105700000Y-86900000D02*
X111600000Y-92800000D01*
%TO.N,/CS6*%
X103600000Y-91300000D02*
X111600000Y-99300000D01*
X94000000Y-91300000D02*
X103600000Y-91300000D01*
%TO.N,/CS4*%
X96200000Y-92800000D02*
X96400000Y-92600000D01*
X94100000Y-92800000D02*
X96200000Y-92800000D01*
%TO.N,/CS3*%
X93700000Y-99500000D02*
X96100000Y-99500000D01*
X96100000Y-99500000D02*
X96300000Y-99300000D01*
%TO.N,/CS2*%
X96100000Y-105900000D02*
X96200000Y-105800000D01*
X93500000Y-105900000D02*
X96100000Y-105900000D01*
%TO.N,/CS4*%
X82200000Y-87255000D02*
X75175000Y-80230000D01*
X82200000Y-92500000D02*
X82200000Y-87255000D01*
%TD*%
%TA.AperFunction,Conductor*%
%TO.N,GND*%
G36*
X121391209Y-69504500D02*
G01*
X121405385Y-69503656D01*
X121424069Y-69514149D01*
X121444625Y-69520185D01*
X121453922Y-69530914D01*
X121466305Y-69537869D01*
X121476350Y-69556797D01*
X121490380Y-69572989D01*
X121492400Y-69587043D01*
X121499057Y-69599586D01*
X121497274Y-69620937D01*
X121500324Y-69642147D01*
X121494312Y-69656419D01*
X121493244Y-69669214D01*
X121475961Y-69699987D01*
X121333075Y-69886196D01*
X121201958Y-70113299D01*
X121201953Y-70113309D01*
X121101605Y-70355571D01*
X121101602Y-70355581D01*
X121036085Y-70600097D01*
X121033730Y-70608885D01*
X120999500Y-70868872D01*
X120999500Y-71131127D01*
X121021668Y-71299500D01*
X121033730Y-71391116D01*
X121068486Y-71520827D01*
X121101602Y-71644418D01*
X121101605Y-71644428D01*
X121201953Y-71886690D01*
X121201958Y-71886700D01*
X121333075Y-72113803D01*
X121492718Y-72321851D01*
X121492726Y-72321860D01*
X121678140Y-72507274D01*
X121678148Y-72507281D01*
X121678149Y-72507282D01*
X121699986Y-72524038D01*
X121886196Y-72666924D01*
X122113299Y-72798041D01*
X122113309Y-72798046D01*
X122336769Y-72890606D01*
X122355581Y-72898398D01*
X122608884Y-72966270D01*
X122868880Y-73000500D01*
X122868887Y-73000500D01*
X123131113Y-73000500D01*
X123131120Y-73000500D01*
X123391116Y-72966270D01*
X123644419Y-72898398D01*
X123886697Y-72798043D01*
X124113803Y-72666924D01*
X124300015Y-72524036D01*
X124365182Y-72498843D01*
X124433627Y-72512881D01*
X124483617Y-72561694D01*
X124499500Y-72622413D01*
X124499500Y-112377586D01*
X124479815Y-112444625D01*
X124427011Y-112490380D01*
X124357853Y-112500324D01*
X124300013Y-112475961D01*
X124113803Y-112333075D01*
X123886700Y-112201958D01*
X123886690Y-112201953D01*
X123644428Y-112101605D01*
X123644421Y-112101603D01*
X123644419Y-112101602D01*
X123391116Y-112033730D01*
X123333339Y-112026123D01*
X123131127Y-111999500D01*
X123131120Y-111999500D01*
X122868880Y-111999500D01*
X122868872Y-111999500D01*
X122637772Y-112029926D01*
X122608884Y-112033730D01*
X122363500Y-112099480D01*
X122355581Y-112101602D01*
X122355571Y-112101605D01*
X122113309Y-112201953D01*
X122113299Y-112201958D01*
X121886196Y-112333075D01*
X121678148Y-112492718D01*
X121492718Y-112678148D01*
X121333075Y-112886196D01*
X121201958Y-113113299D01*
X121201953Y-113113309D01*
X121101605Y-113355571D01*
X121101602Y-113355581D01*
X121068574Y-113478846D01*
X121033730Y-113608885D01*
X120999500Y-113868872D01*
X120999500Y-114131127D01*
X121020436Y-114290140D01*
X121033730Y-114391116D01*
X121098831Y-114634076D01*
X121101602Y-114644418D01*
X121101605Y-114644428D01*
X121201953Y-114886690D01*
X121201958Y-114886700D01*
X121333075Y-115113803D01*
X121475961Y-115300013D01*
X121501156Y-115365182D01*
X121487118Y-115433627D01*
X121438304Y-115483617D01*
X121377586Y-115499500D01*
X69622414Y-115499500D01*
X69555375Y-115479815D01*
X69509620Y-115427011D01*
X69499676Y-115357853D01*
X69524039Y-115300013D01*
X69666924Y-115113803D01*
X69798041Y-114886700D01*
X69798046Y-114886690D01*
X69877030Y-114696005D01*
X69898398Y-114644419D01*
X69966270Y-114391116D01*
X70000500Y-114131120D01*
X70000500Y-113868880D01*
X69994216Y-113821153D01*
X85599500Y-113821153D01*
X85599500Y-113978846D01*
X85630261Y-114133489D01*
X85630264Y-114133501D01*
X85690602Y-114279172D01*
X85690609Y-114279185D01*
X85778210Y-114410288D01*
X85778213Y-114410292D01*
X85889707Y-114521786D01*
X85889711Y-114521789D01*
X86020814Y-114609390D01*
X86020827Y-114609397D01*
X86105379Y-114644419D01*
X86166503Y-114669737D01*
X86318157Y-114699903D01*
X86321153Y-114700499D01*
X86321156Y-114700500D01*
X86321158Y-114700500D01*
X86478844Y-114700500D01*
X86484902Y-114699903D01*
X86484966Y-114700553D01*
X86498723Y-114699273D01*
X86514312Y-114699456D01*
X86521943Y-114701501D01*
X86680057Y-114701501D01*
X86680061Y-114701500D01*
X99177098Y-114701500D01*
X99224550Y-114710939D01*
X99366498Y-114769735D01*
X99366503Y-114769737D01*
X99521153Y-114800499D01*
X99521156Y-114800500D01*
X99521158Y-114800500D01*
X99678844Y-114800500D01*
X99678845Y-114800499D01*
X99833497Y-114769737D01*
X99979179Y-114709394D01*
X100110289Y-114621789D01*
X100221789Y-114510289D01*
X100309394Y-114379179D01*
X100369737Y-114233497D01*
X100389628Y-114133501D01*
X100396231Y-114100308D01*
X100410945Y-114072177D01*
X100424135Y-114043297D01*
X100427024Y-114041440D01*
X100428616Y-114038397D01*
X100456208Y-114022684D01*
X100482913Y-114005523D01*
X100487506Y-114004862D01*
X100489332Y-114003823D01*
X100517848Y-114000500D01*
X100520234Y-114000500D01*
X100587273Y-114020185D01*
X100589125Y-114021398D01*
X100720814Y-114109390D01*
X100720827Y-114109397D01*
X100866498Y-114169735D01*
X100866503Y-114169737D01*
X101021153Y-114200499D01*
X101021156Y-114200500D01*
X101021158Y-114200500D01*
X101178844Y-114200500D01*
X101178845Y-114200499D01*
X101333497Y-114169737D01*
X101479179Y-114109394D01*
X101496279Y-114097968D01*
X101610875Y-114021398D01*
X101677553Y-114000520D01*
X101679766Y-114000500D01*
X109820234Y-114000500D01*
X109887273Y-114020185D01*
X109889125Y-114021398D01*
X110020814Y-114109390D01*
X110020827Y-114109397D01*
X110166498Y-114169735D01*
X110166503Y-114169737D01*
X110321153Y-114200499D01*
X110321156Y-114200500D01*
X110321158Y-114200500D01*
X110478844Y-114200500D01*
X110478845Y-114200499D01*
X110633497Y-114169737D01*
X110779179Y-114109394D01*
X110796279Y-114097968D01*
X110910875Y-114021398D01*
X110977553Y-114000520D01*
X110979766Y-114000500D01*
X116220234Y-114000500D01*
X116287273Y-114020185D01*
X116289125Y-114021398D01*
X116420814Y-114109390D01*
X116420827Y-114109397D01*
X116566498Y-114169735D01*
X116566503Y-114169737D01*
X116721153Y-114200499D01*
X116721156Y-114200500D01*
X116721158Y-114200500D01*
X116878844Y-114200500D01*
X116878845Y-114200499D01*
X117033497Y-114169737D01*
X117179179Y-114109394D01*
X117310289Y-114021789D01*
X117421789Y-113910289D01*
X117509394Y-113779179D01*
X117569737Y-113633497D01*
X117600500Y-113478842D01*
X117600500Y-113321158D01*
X117600500Y-113321155D01*
X117600499Y-113321153D01*
X117581845Y-113227376D01*
X117569737Y-113166503D01*
X117549862Y-113118520D01*
X117509397Y-113020827D01*
X117509390Y-113020814D01*
X117421789Y-112889711D01*
X117421786Y-112889707D01*
X117310292Y-112778213D01*
X117310288Y-112778210D01*
X117179185Y-112690609D01*
X117179172Y-112690602D01*
X117033501Y-112630264D01*
X117033489Y-112630261D01*
X116878845Y-112599500D01*
X116878842Y-112599500D01*
X116721158Y-112599500D01*
X116721155Y-112599500D01*
X116566510Y-112630261D01*
X116566498Y-112630264D01*
X116420827Y-112690602D01*
X116420814Y-112690609D01*
X116289125Y-112778602D01*
X116222447Y-112799480D01*
X116220234Y-112799500D01*
X110979766Y-112799500D01*
X110912727Y-112779815D01*
X110910875Y-112778602D01*
X110779185Y-112690609D01*
X110779172Y-112690602D01*
X110633501Y-112630264D01*
X110633489Y-112630261D01*
X110478845Y-112599500D01*
X110478842Y-112599500D01*
X110321158Y-112599500D01*
X110321155Y-112599500D01*
X110166510Y-112630261D01*
X110166498Y-112630264D01*
X110020827Y-112690602D01*
X110020814Y-112690609D01*
X109889125Y-112778602D01*
X109822447Y-112799480D01*
X109820234Y-112799500D01*
X101679766Y-112799500D01*
X101612727Y-112779815D01*
X101610875Y-112778602D01*
X101479185Y-112690609D01*
X101479172Y-112690602D01*
X101333501Y-112630264D01*
X101333489Y-112630261D01*
X101178845Y-112599500D01*
X101178842Y-112599500D01*
X101021158Y-112599500D01*
X101021155Y-112599500D01*
X100866510Y-112630261D01*
X100866498Y-112630264D01*
X100720827Y-112690602D01*
X100720814Y-112690609D01*
X100593391Y-112775751D01*
X100526713Y-112796629D01*
X100459333Y-112778144D01*
X100412643Y-112726165D01*
X100400500Y-112672649D01*
X100400500Y-112621155D01*
X100400499Y-112621153D01*
X100374953Y-112492726D01*
X100369737Y-112466503D01*
X100332907Y-112377586D01*
X100309397Y-112320827D01*
X100309390Y-112320814D01*
X100221789Y-112189711D01*
X100221786Y-112189707D01*
X100110292Y-112078213D01*
X100110288Y-112078210D01*
X99979185Y-111990609D01*
X99979172Y-111990602D01*
X99833501Y-111930264D01*
X99833489Y-111930261D01*
X99678845Y-111899500D01*
X99678842Y-111899500D01*
X99521158Y-111899500D01*
X99521155Y-111899500D01*
X99366510Y-111930261D01*
X99366498Y-111930264D01*
X99220827Y-111990602D01*
X99220814Y-111990609D01*
X99089125Y-112078602D01*
X99022447Y-112099480D01*
X99020234Y-112099500D01*
X97099096Y-112099500D01*
X97032057Y-112079815D01*
X96986302Y-112027011D01*
X96976358Y-111957853D01*
X97005383Y-111894297D01*
X97011415Y-111887819D01*
X97314665Y-111584570D01*
X97375984Y-111551088D01*
X97378151Y-111550637D01*
X97378840Y-111550500D01*
X97378842Y-111550500D01*
X97533497Y-111519737D01*
X97679179Y-111459394D01*
X97810289Y-111371789D01*
X97921789Y-111260289D01*
X98009394Y-111129179D01*
X98069737Y-110983497D01*
X98100500Y-110828842D01*
X98100500Y-110671158D01*
X98100500Y-110671155D01*
X98100499Y-110671153D01*
X98069738Y-110516510D01*
X98069738Y-110516508D01*
X98069737Y-110516503D01*
X98069735Y-110516498D01*
X98009397Y-110370827D01*
X98009390Y-110370814D01*
X97921789Y-110239711D01*
X97921786Y-110239707D01*
X97810292Y-110128213D01*
X97810288Y-110128210D01*
X97679185Y-110040609D01*
X97679172Y-110040602D01*
X97533501Y-109980264D01*
X97533489Y-109980261D01*
X97378845Y-109949500D01*
X97378842Y-109949500D01*
X97221158Y-109949500D01*
X97221155Y-109949500D01*
X97066510Y-109980261D01*
X97066498Y-109980264D01*
X96920827Y-110040602D01*
X96920814Y-110040609D01*
X96789711Y-110128210D01*
X96789707Y-110128213D01*
X96678213Y-110239707D01*
X96678210Y-110239711D01*
X96590609Y-110370814D01*
X96590602Y-110370827D01*
X96530264Y-110516498D01*
X96530261Y-110516508D01*
X96499362Y-110671849D01*
X96466977Y-110733759D01*
X96465426Y-110735338D01*
X96237584Y-110963181D01*
X96176261Y-110996666D01*
X96149903Y-110999500D01*
X87079766Y-110999500D01*
X87012727Y-110979815D01*
X87010875Y-110978602D01*
X86879185Y-110890609D01*
X86879172Y-110890602D01*
X86733501Y-110830264D01*
X86733489Y-110830261D01*
X86578845Y-110799500D01*
X86578842Y-110799500D01*
X86421158Y-110799500D01*
X86421155Y-110799500D01*
X86266510Y-110830261D01*
X86266498Y-110830264D01*
X86120827Y-110890602D01*
X86120814Y-110890609D01*
X85989711Y-110978210D01*
X85989707Y-110978213D01*
X85878213Y-111089707D01*
X85878210Y-111089711D01*
X85790609Y-111220814D01*
X85790602Y-111220827D01*
X85730264Y-111366498D01*
X85730261Y-111366510D01*
X85699500Y-111521153D01*
X85699500Y-111678846D01*
X85730261Y-111833489D01*
X85730264Y-111833501D01*
X85790602Y-111979172D01*
X85790609Y-111979185D01*
X85858713Y-112081109D01*
X85879591Y-112147787D01*
X85861107Y-112215167D01*
X85858713Y-112218891D01*
X85790609Y-112320814D01*
X85790602Y-112320827D01*
X85730264Y-112466498D01*
X85730261Y-112466510D01*
X85699500Y-112621153D01*
X85699500Y-112778846D01*
X85730261Y-112933489D01*
X85730264Y-112933501D01*
X85790602Y-113079172D01*
X85790609Y-113079185D01*
X85853485Y-113173285D01*
X85874363Y-113239963D01*
X85855878Y-113307343D01*
X85838064Y-113329857D01*
X85778213Y-113389707D01*
X85778210Y-113389711D01*
X85690609Y-113520814D01*
X85690602Y-113520827D01*
X85630264Y-113666498D01*
X85630261Y-113666510D01*
X85599500Y-113821153D01*
X69994216Y-113821153D01*
X69966270Y-113608884D01*
X69898398Y-113355581D01*
X69884138Y-113321155D01*
X69798046Y-113113309D01*
X69798041Y-113113299D01*
X69666924Y-112886196D01*
X69516843Y-112690609D01*
X69507282Y-112678149D01*
X69507281Y-112678148D01*
X69507274Y-112678140D01*
X69321860Y-112492726D01*
X69321851Y-112492718D01*
X69113803Y-112333075D01*
X68886700Y-112201958D01*
X68886690Y-112201953D01*
X68644428Y-112101605D01*
X68644421Y-112101603D01*
X68644419Y-112101602D01*
X68391116Y-112033730D01*
X68333339Y-112026123D01*
X68131127Y-111999500D01*
X68131120Y-111999500D01*
X67868880Y-111999500D01*
X67868872Y-111999500D01*
X67637772Y-112029926D01*
X67608884Y-112033730D01*
X67363500Y-112099480D01*
X67355581Y-112101602D01*
X67355571Y-112101605D01*
X67113309Y-112201953D01*
X67113299Y-112201958D01*
X66886196Y-112333075D01*
X66699987Y-112475961D01*
X66634818Y-112501156D01*
X66566373Y-112487118D01*
X66516383Y-112438304D01*
X66500500Y-112377586D01*
X66500500Y-91660554D01*
X69599498Y-91660554D01*
X69640423Y-91813285D01*
X69661332Y-91849500D01*
X69661331Y-91849500D01*
X69661332Y-91849501D01*
X69719475Y-91950209D01*
X69719481Y-91950217D01*
X69838349Y-92069085D01*
X69838355Y-92069090D01*
X70716237Y-92946972D01*
X70749722Y-93008295D01*
X70749160Y-93061022D01*
X70749349Y-93061052D01*
X70749146Y-93062331D01*
X70749133Y-93063587D01*
X70748587Y-93065860D01*
X70717500Y-93262139D01*
X70717500Y-93460860D01*
X70748587Y-93657137D01*
X70809993Y-93846129D01*
X70809994Y-93846132D01*
X70870002Y-93963902D01*
X70900213Y-94023194D01*
X71017019Y-94183964D01*
X71157536Y-94324481D01*
X71318306Y-94441287D01*
X71421708Y-94493973D01*
X71474780Y-94521015D01*
X71525576Y-94568990D01*
X71542371Y-94636811D01*
X71519833Y-94702946D01*
X71474780Y-94741985D01*
X71318305Y-94821713D01*
X71157533Y-94938521D01*
X71017021Y-95079033D01*
X70900213Y-95239805D01*
X70809994Y-95416867D01*
X70809993Y-95416870D01*
X70748587Y-95605862D01*
X70717500Y-95802139D01*
X70717500Y-96000860D01*
X70748587Y-96197137D01*
X70809993Y-96386129D01*
X70809994Y-96386132D01*
X70847526Y-96459791D01*
X70900213Y-96563194D01*
X71017019Y-96723964D01*
X71157536Y-96864481D01*
X71318306Y-96981287D01*
X71421708Y-97033973D01*
X71474780Y-97061015D01*
X71525576Y-97108990D01*
X71542371Y-97176811D01*
X71519833Y-97242946D01*
X71474780Y-97281985D01*
X71318305Y-97361713D01*
X71157533Y-97478521D01*
X71017021Y-97619033D01*
X70900213Y-97779805D01*
X70809994Y-97956867D01*
X70809993Y-97956870D01*
X70748587Y-98145862D01*
X70748587Y-98145864D01*
X70717500Y-98342139D01*
X70717500Y-98540861D01*
X70724170Y-98582971D01*
X70748587Y-98737137D01*
X70809993Y-98926129D01*
X70809994Y-98926132D01*
X70861063Y-99026359D01*
X70900213Y-99103194D01*
X71017019Y-99263964D01*
X71157536Y-99404481D01*
X71318306Y-99521287D01*
X71431264Y-99578842D01*
X71474780Y-99601015D01*
X71525576Y-99648990D01*
X71542371Y-99716811D01*
X71519833Y-99782946D01*
X71474780Y-99821985D01*
X71318305Y-99901713D01*
X71157533Y-100018521D01*
X71017021Y-100159033D01*
X70900213Y-100319805D01*
X70809994Y-100496867D01*
X70809993Y-100496870D01*
X70748587Y-100685862D01*
X70717500Y-100882139D01*
X70717500Y-101080860D01*
X70748587Y-101277137D01*
X70809993Y-101466129D01*
X70809994Y-101466132D01*
X70900213Y-101643194D01*
X71017019Y-101803964D01*
X71157536Y-101944481D01*
X71318306Y-102061287D01*
X71436832Y-102121679D01*
X71474780Y-102141015D01*
X71525576Y-102188990D01*
X71542371Y-102256811D01*
X71519833Y-102322946D01*
X71474780Y-102361985D01*
X71318305Y-102441713D01*
X71157533Y-102558521D01*
X71017021Y-102699033D01*
X70900213Y-102859805D01*
X70809994Y-103036867D01*
X70809993Y-103036870D01*
X70748587Y-103225862D01*
X70717500Y-103422139D01*
X70717500Y-103620860D01*
X70748587Y-103817137D01*
X70809993Y-104006129D01*
X70809994Y-104006132D01*
X70847152Y-104079057D01*
X70900213Y-104183194D01*
X71017019Y-104343964D01*
X71157536Y-104484481D01*
X71318306Y-104601287D01*
X71475332Y-104681296D01*
X71526127Y-104729269D01*
X71542922Y-104797090D01*
X71520385Y-104863225D01*
X71475332Y-104902264D01*
X71318566Y-104982141D01*
X71281283Y-105009229D01*
X71281282Y-105009230D01*
X71895906Y-105623852D01*
X71808429Y-105647292D01*
X71707070Y-105705811D01*
X71624311Y-105788570D01*
X71565792Y-105889929D01*
X71542352Y-105977405D01*
X70927730Y-105362782D01*
X70927729Y-105362783D01*
X70900643Y-105400064D01*
X70810457Y-105577062D01*
X70749075Y-105765976D01*
X70749075Y-105765979D01*
X70718000Y-105962178D01*
X70718000Y-106160821D01*
X70749075Y-106357020D01*
X70749075Y-106357023D01*
X70810457Y-106545937D01*
X70900641Y-106722932D01*
X70927730Y-106760215D01*
X71542352Y-106145593D01*
X71565792Y-106233071D01*
X71624311Y-106334430D01*
X71707070Y-106417189D01*
X71808429Y-106475708D01*
X71895905Y-106499147D01*
X71281283Y-107113768D01*
X71281283Y-107113769D01*
X71318567Y-107140858D01*
X71475331Y-107220734D01*
X71526127Y-107268709D01*
X71542922Y-107336530D01*
X71520384Y-107402665D01*
X71475331Y-107441704D01*
X71318305Y-107521713D01*
X71157533Y-107638521D01*
X71017021Y-107779033D01*
X70900213Y-107939805D01*
X70809994Y-108116867D01*
X70809993Y-108116870D01*
X70748587Y-108305862D01*
X70717500Y-108502139D01*
X70717500Y-108700860D01*
X70748587Y-108897137D01*
X70809993Y-109086129D01*
X70809994Y-109086132D01*
X70869032Y-109201999D01*
X70900213Y-109263194D01*
X71017019Y-109423964D01*
X71157536Y-109564481D01*
X71318306Y-109681287D01*
X71405149Y-109725535D01*
X71495367Y-109771505D01*
X71495370Y-109771506D01*
X71589866Y-109802209D01*
X71684364Y-109832913D01*
X71880639Y-109864000D01*
X71880640Y-109864000D01*
X72079360Y-109864000D01*
X72079361Y-109864000D01*
X72275636Y-109832913D01*
X72464632Y-109771505D01*
X72641694Y-109681287D01*
X72802464Y-109564481D01*
X72942981Y-109423964D01*
X73059787Y-109263194D01*
X73150005Y-109086132D01*
X73211413Y-108897136D01*
X73242500Y-108700861D01*
X73242500Y-108502139D01*
X73211413Y-108305864D01*
X73150005Y-108116868D01*
X73150005Y-108116867D01*
X73080937Y-107981315D01*
X73059787Y-107939806D01*
X72942981Y-107779036D01*
X72802464Y-107638519D01*
X72641694Y-107521713D01*
X72484667Y-107441703D01*
X72433872Y-107393729D01*
X72417077Y-107325908D01*
X72439614Y-107259773D01*
X72484669Y-107220734D01*
X72641422Y-107140864D01*
X72678716Y-107113768D01*
X72064095Y-106499147D01*
X72151571Y-106475708D01*
X72252930Y-106417189D01*
X72335689Y-106334430D01*
X72394208Y-106233071D01*
X72417647Y-106145594D01*
X73032268Y-106760215D01*
X73059362Y-106722925D01*
X73149542Y-106545937D01*
X73210924Y-106357023D01*
X73210924Y-106357020D01*
X73242000Y-106160821D01*
X73242000Y-105962178D01*
X73210924Y-105765979D01*
X73210924Y-105765976D01*
X73149542Y-105577062D01*
X73059358Y-105400067D01*
X73032268Y-105362783D01*
X72417647Y-105977404D01*
X72394208Y-105889929D01*
X72335689Y-105788570D01*
X72252930Y-105705811D01*
X72151571Y-105647292D01*
X72064094Y-105623852D01*
X72678716Y-105009231D01*
X72678715Y-105009230D01*
X72641432Y-104982141D01*
X72484668Y-104902265D01*
X72433872Y-104854290D01*
X72417077Y-104786469D01*
X72439615Y-104720334D01*
X72484667Y-104681296D01*
X72641694Y-104601287D01*
X72802464Y-104484481D01*
X72942981Y-104343964D01*
X73059787Y-104183194D01*
X73150005Y-104006132D01*
X73211413Y-103817136D01*
X73242500Y-103620861D01*
X73242500Y-103422139D01*
X73211413Y-103225864D01*
X73150005Y-103036868D01*
X73150005Y-103036867D01*
X73059786Y-102859805D01*
X72942981Y-102699036D01*
X72802464Y-102558519D01*
X72641694Y-102441713D01*
X72485218Y-102361984D01*
X72434423Y-102314010D01*
X72417628Y-102246189D01*
X72440165Y-102180054D01*
X72485218Y-102141015D01*
X72641694Y-102061287D01*
X72802464Y-101944481D01*
X72942981Y-101803964D01*
X73059787Y-101643194D01*
X73150005Y-101466132D01*
X73211413Y-101277136D01*
X73242500Y-101080861D01*
X73242500Y-100882139D01*
X73211413Y-100685864D01*
X73211411Y-100685858D01*
X73210870Y-100683604D01*
X73210914Y-100682715D01*
X73210651Y-100681052D01*
X73211000Y-100680996D01*
X73214359Y-100613821D01*
X73243762Y-100566972D01*
X74296074Y-99514660D01*
X77880520Y-95930216D01*
X77959577Y-95793284D01*
X78000501Y-95640557D01*
X78000501Y-95482442D01*
X78000501Y-95474847D01*
X78000500Y-95474829D01*
X78000500Y-93445134D01*
X78020185Y-93378095D01*
X78072989Y-93332340D01*
X78142147Y-93322396D01*
X78171950Y-93330572D01*
X78266503Y-93369737D01*
X78396992Y-93395693D01*
X78421153Y-93400499D01*
X78421156Y-93400500D01*
X78421158Y-93400500D01*
X78578844Y-93400500D01*
X78578845Y-93400499D01*
X78733497Y-93369737D01*
X78879179Y-93309394D01*
X79010289Y-93221789D01*
X79121789Y-93110289D01*
X79209394Y-92979179D01*
X79209396Y-92979172D01*
X79212264Y-92973809D01*
X79214213Y-92974851D01*
X79251796Y-92928174D01*
X79318081Y-92906081D01*
X79385787Y-92923331D01*
X79410240Y-92942319D01*
X79489707Y-93021786D01*
X79489711Y-93021789D01*
X79620814Y-93109390D01*
X79620827Y-93109397D01*
X79747998Y-93162072D01*
X79766503Y-93169737D01*
X79854426Y-93187226D01*
X79921153Y-93200499D01*
X79921156Y-93200500D01*
X79921158Y-93200500D01*
X80078844Y-93200500D01*
X80078845Y-93200499D01*
X80233497Y-93169737D01*
X80349262Y-93121786D01*
X80379172Y-93109397D01*
X80379172Y-93109396D01*
X80379179Y-93109394D01*
X80510289Y-93021789D01*
X80512313Y-93019764D01*
X80513633Y-93019043D01*
X80514993Y-93017928D01*
X80515204Y-93018185D01*
X80573631Y-92986276D01*
X80643323Y-92991255D01*
X80687680Y-93019759D01*
X80789707Y-93121786D01*
X80789711Y-93121789D01*
X80920814Y-93209390D01*
X80920827Y-93209397D01*
X81066498Y-93269735D01*
X81066503Y-93269737D01*
X81221153Y-93300499D01*
X81221156Y-93300500D01*
X81221158Y-93300500D01*
X81378844Y-93300500D01*
X81378845Y-93300499D01*
X81533497Y-93269737D01*
X81679179Y-93209394D01*
X81681110Y-93208103D01*
X81682276Y-93207737D01*
X81684546Y-93206525D01*
X81684776Y-93206955D01*
X81747786Y-93187226D01*
X81815166Y-93205710D01*
X81818850Y-93208077D01*
X81820821Y-93209394D01*
X81820824Y-93209395D01*
X81820827Y-93209397D01*
X81966498Y-93269735D01*
X81966503Y-93269737D01*
X82121153Y-93300499D01*
X82121156Y-93300500D01*
X82121158Y-93300500D01*
X82278844Y-93300500D01*
X82278845Y-93300499D01*
X82433497Y-93269737D01*
X82579179Y-93209394D01*
X82710289Y-93121789D01*
X82792841Y-93039236D01*
X82854162Y-93005752D01*
X82923853Y-93010736D01*
X82927973Y-93012357D01*
X83066498Y-93069735D01*
X83066503Y-93069737D01*
X83202205Y-93096730D01*
X83221153Y-93100499D01*
X83221156Y-93100500D01*
X83221158Y-93100500D01*
X83378844Y-93100500D01*
X83378845Y-93100499D01*
X83533497Y-93069737D01*
X83654139Y-93019766D01*
X83679172Y-93009397D01*
X83679172Y-93009396D01*
X83679179Y-93009394D01*
X83706326Y-92991255D01*
X83770662Y-92948267D01*
X83771085Y-92948134D01*
X83771373Y-92947795D01*
X83804449Y-92937687D01*
X83837339Y-92927389D01*
X83837909Y-92927462D01*
X83838193Y-92927376D01*
X83840114Y-92927747D01*
X83873181Y-92932016D01*
X83880234Y-92934003D01*
X83966503Y-92969737D01*
X84104456Y-92997177D01*
X84109128Y-92998494D01*
X84134781Y-93014585D01*
X84161602Y-93028615D01*
X84164077Y-93032961D01*
X84168317Y-93035621D01*
X84181197Y-93063027D01*
X84196176Y-93089330D01*
X84197038Y-93096730D01*
X84198037Y-93098855D01*
X84197637Y-93101868D01*
X84199500Y-93117847D01*
X84199500Y-107713330D01*
X84199499Y-107713348D01*
X84199499Y-107879054D01*
X84199498Y-107879054D01*
X84240423Y-108031785D01*
X84269358Y-108081900D01*
X84269359Y-108081904D01*
X84269360Y-108081904D01*
X84319479Y-108168714D01*
X84319481Y-108168717D01*
X84438349Y-108287585D01*
X84438355Y-108287590D01*
X85116639Y-108965874D01*
X85116649Y-108965885D01*
X85120979Y-108970215D01*
X85120980Y-108970216D01*
X85232784Y-109082020D01*
X85319595Y-109132139D01*
X85319597Y-109132141D01*
X85357651Y-109154111D01*
X85369715Y-109161077D01*
X85522443Y-109202000D01*
X85680557Y-109202000D01*
X86033270Y-109202000D01*
X86100309Y-109221685D01*
X86137191Y-109259366D01*
X86137349Y-109259252D01*
X86138127Y-109260323D01*
X86139000Y-109261215D01*
X86140210Y-109263190D01*
X86140213Y-109263194D01*
X86257019Y-109423964D01*
X86397536Y-109564481D01*
X86558306Y-109681287D01*
X86645149Y-109725535D01*
X86735367Y-109771505D01*
X86735370Y-109771506D01*
X86829866Y-109802209D01*
X86924364Y-109832913D01*
X87120639Y-109864000D01*
X87120640Y-109864000D01*
X87319360Y-109864000D01*
X87319361Y-109864000D01*
X87515636Y-109832913D01*
X87704632Y-109771505D01*
X87881694Y-109681287D01*
X88042464Y-109564481D01*
X88182981Y-109423964D01*
X88299787Y-109263194D01*
X88390005Y-109086132D01*
X88451413Y-108897136D01*
X88482500Y-108700861D01*
X88482500Y-108502139D01*
X88451413Y-108305864D01*
X88390005Y-108116868D01*
X88390005Y-108116867D01*
X88320937Y-107981315D01*
X88299787Y-107939806D01*
X88182981Y-107779036D01*
X88042464Y-107638519D01*
X87881694Y-107521713D01*
X87725218Y-107441984D01*
X87674423Y-107394010D01*
X87657628Y-107326189D01*
X87680165Y-107260054D01*
X87725218Y-107221015D01*
X87881694Y-107141287D01*
X88042464Y-107024481D01*
X88182981Y-106883964D01*
X88299787Y-106723194D01*
X88390005Y-106546132D01*
X88451413Y-106357136D01*
X88482500Y-106160861D01*
X88482500Y-105962139D01*
X88451413Y-105765864D01*
X88390005Y-105576868D01*
X88390005Y-105576867D01*
X88344035Y-105486649D01*
X88299787Y-105399806D01*
X88182981Y-105239036D01*
X88042464Y-105098519D01*
X87881694Y-104981713D01*
X87725218Y-104901984D01*
X87674423Y-104854010D01*
X87657628Y-104786189D01*
X87680165Y-104720054D01*
X87725218Y-104681015D01*
X87881694Y-104601287D01*
X88042464Y-104484481D01*
X88182981Y-104343964D01*
X88299787Y-104183194D01*
X88390005Y-104006132D01*
X88451413Y-103817136D01*
X88482500Y-103620861D01*
X88482500Y-103422139D01*
X88451413Y-103225864D01*
X88390005Y-103036868D01*
X88390005Y-103036867D01*
X88299786Y-102859805D01*
X88182981Y-102699036D01*
X88042464Y-102558519D01*
X87881694Y-102441713D01*
X87725218Y-102361984D01*
X87674423Y-102314010D01*
X87657628Y-102246189D01*
X87680165Y-102180054D01*
X87725218Y-102141015D01*
X87881694Y-102061287D01*
X88042464Y-101944481D01*
X88182981Y-101803964D01*
X88299787Y-101643194D01*
X88390005Y-101466132D01*
X88451413Y-101277136D01*
X88482500Y-101080861D01*
X88482500Y-100882139D01*
X88451413Y-100685864D01*
X88390005Y-100496868D01*
X88390005Y-100496867D01*
X88299786Y-100319805D01*
X88285760Y-100300500D01*
X88182981Y-100159036D01*
X88042464Y-100018519D01*
X87881694Y-99901713D01*
X87725218Y-99821984D01*
X87674423Y-99774010D01*
X87657628Y-99706189D01*
X87680165Y-99640054D01*
X87725218Y-99601015D01*
X87881694Y-99521287D01*
X88042464Y-99404481D01*
X88182981Y-99263964D01*
X88299787Y-99103194D01*
X88299791Y-99103184D01*
X88301004Y-99101208D01*
X88301663Y-99100611D01*
X88302651Y-99099252D01*
X88302936Y-99099459D01*
X88352818Y-99054334D01*
X88406730Y-99042001D01*
X88437554Y-99042001D01*
X88437557Y-99042001D01*
X88590285Y-99001077D01*
X88640404Y-98972139D01*
X88727216Y-98922020D01*
X88839020Y-98810216D01*
X88839020Y-98810214D01*
X88849228Y-98800007D01*
X88849229Y-98800004D01*
X90787820Y-96861413D01*
X90849142Y-96827930D01*
X90918834Y-96832914D01*
X90974767Y-96874786D01*
X90999184Y-96940250D01*
X90999500Y-96949096D01*
X90999500Y-103913330D01*
X90999499Y-103913348D01*
X90999499Y-104079054D01*
X90999498Y-104079054D01*
X91040423Y-104231786D01*
X91054130Y-104255525D01*
X91054131Y-104255530D01*
X91054133Y-104255530D01*
X91119479Y-104368714D01*
X91119481Y-104368717D01*
X91238349Y-104487585D01*
X91238355Y-104487590D01*
X92665425Y-105914660D01*
X92698910Y-105975983D01*
X92699361Y-105978149D01*
X92730261Y-106133491D01*
X92730264Y-106133501D01*
X92790602Y-106279172D01*
X92790609Y-106279185D01*
X92878210Y-106410288D01*
X92878213Y-106410292D01*
X92989707Y-106521786D01*
X92989711Y-106521789D01*
X93120814Y-106609390D01*
X93120827Y-106609397D01*
X93266498Y-106669735D01*
X93266503Y-106669737D01*
X93421153Y-106700499D01*
X93421156Y-106700500D01*
X93421158Y-106700500D01*
X93578844Y-106700500D01*
X93578845Y-106700499D01*
X93733497Y-106669737D01*
X93879179Y-106609394D01*
X93892491Y-106600499D01*
X94010875Y-106521398D01*
X94077553Y-106500520D01*
X94079766Y-106500500D01*
X95774684Y-106500500D01*
X95822136Y-106509939D01*
X95909515Y-106546132D01*
X95966503Y-106569737D01*
X96121153Y-106600499D01*
X96121156Y-106600500D01*
X96121158Y-106600500D01*
X96278844Y-106600500D01*
X96278845Y-106600499D01*
X96433497Y-106569737D01*
X96579179Y-106509394D01*
X96710289Y-106421789D01*
X96821789Y-106310289D01*
X96909394Y-106179179D01*
X96969737Y-106033497D01*
X97000500Y-105878842D01*
X97000500Y-105721158D01*
X97000500Y-105721155D01*
X97000499Y-105721153D01*
X96985807Y-105647292D01*
X96969737Y-105566503D01*
X96950812Y-105520814D01*
X96909397Y-105420827D01*
X96909390Y-105420814D01*
X96821789Y-105289711D01*
X96821786Y-105289707D01*
X96710292Y-105178213D01*
X96710288Y-105178210D01*
X96579185Y-105090609D01*
X96579172Y-105090602D01*
X96433501Y-105030264D01*
X96433489Y-105030261D01*
X96278845Y-104999500D01*
X96278842Y-104999500D01*
X96121158Y-104999500D01*
X96121155Y-104999500D01*
X95966510Y-105030261D01*
X95966498Y-105030264D01*
X95820827Y-105090602D01*
X95820814Y-105090609D01*
X95689712Y-105178209D01*
X95647227Y-105220695D01*
X95604739Y-105263182D01*
X95543419Y-105296666D01*
X95517060Y-105299500D01*
X94079766Y-105299500D01*
X94012727Y-105279815D01*
X94010875Y-105278602D01*
X93879185Y-105190609D01*
X93879172Y-105190602D01*
X93733501Y-105130264D01*
X93733491Y-105130261D01*
X93578151Y-105099362D01*
X93516241Y-105066977D01*
X93514662Y-105065426D01*
X92236819Y-103787583D01*
X92203334Y-103726260D01*
X92200500Y-103699902D01*
X92200500Y-99149097D01*
X92220185Y-99082058D01*
X92272989Y-99036303D01*
X92342147Y-99026359D01*
X92405703Y-99055384D01*
X92412181Y-99061416D01*
X92865425Y-99514660D01*
X92898910Y-99575983D01*
X92899361Y-99578149D01*
X92930261Y-99733491D01*
X92930264Y-99733501D01*
X92990602Y-99879172D01*
X92990609Y-99879185D01*
X93078210Y-100010288D01*
X93078213Y-100010292D01*
X93189707Y-100121786D01*
X93189711Y-100121789D01*
X93320814Y-100209390D01*
X93320827Y-100209397D01*
X93466498Y-100269735D01*
X93466503Y-100269737D01*
X93621153Y-100300499D01*
X93621156Y-100300500D01*
X93621158Y-100300500D01*
X93778844Y-100300500D01*
X93778845Y-100300499D01*
X93933497Y-100269737D01*
X94079179Y-100209394D01*
X94154545Y-100159036D01*
X94210875Y-100121398D01*
X94277553Y-100100520D01*
X94279766Y-100100500D01*
X96020939Y-100100500D01*
X96020943Y-100100501D01*
X96179057Y-100100501D01*
X96184987Y-100098911D01*
X96199137Y-100098781D01*
X96205314Y-100100533D01*
X96215004Y-100100850D01*
X96215098Y-100099903D01*
X96221156Y-100100500D01*
X96221158Y-100100500D01*
X96378844Y-100100500D01*
X96378845Y-100100499D01*
X96533497Y-100069737D01*
X96679179Y-100009394D01*
X96810289Y-99921789D01*
X96921789Y-99810289D01*
X97009394Y-99679179D01*
X97009397Y-99679172D01*
X97032263Y-99623969D01*
X97076104Y-99569565D01*
X97142398Y-99547500D01*
X97210097Y-99564779D01*
X97234505Y-99583740D01*
X103915139Y-106264374D01*
X103915149Y-106264385D01*
X103919479Y-106268715D01*
X103919480Y-106268716D01*
X104031284Y-106380520D01*
X104102765Y-106421789D01*
X104168215Y-106459577D01*
X104320943Y-106500501D01*
X104320946Y-106500501D01*
X104486653Y-106500501D01*
X104486669Y-106500500D01*
X110920234Y-106500500D01*
X110987273Y-106520185D01*
X110989125Y-106521398D01*
X111120814Y-106609390D01*
X111120827Y-106609397D01*
X111266498Y-106669735D01*
X111266503Y-106669737D01*
X111421153Y-106700499D01*
X111421156Y-106700500D01*
X111421158Y-106700500D01*
X111578844Y-106700500D01*
X111578845Y-106700499D01*
X111733497Y-106669737D01*
X111879179Y-106609394D01*
X112010289Y-106521789D01*
X112121789Y-106410289D01*
X112209394Y-106279179D01*
X112269737Y-106133497D01*
X112300500Y-105978842D01*
X112300500Y-105821158D01*
X112300500Y-105821155D01*
X112300499Y-105821153D01*
X112289524Y-105765979D01*
X112269737Y-105666503D01*
X112261780Y-105647292D01*
X112209397Y-105520827D01*
X112209390Y-105520814D01*
X112121789Y-105389711D01*
X112121786Y-105389707D01*
X112010292Y-105278213D01*
X112010288Y-105278210D01*
X111879185Y-105190609D01*
X111879172Y-105190602D01*
X111733501Y-105130264D01*
X111733489Y-105130261D01*
X111578845Y-105099500D01*
X111578842Y-105099500D01*
X111421158Y-105099500D01*
X111421155Y-105099500D01*
X111266510Y-105130261D01*
X111266498Y-105130264D01*
X111120827Y-105190602D01*
X111120814Y-105190609D01*
X110989125Y-105278602D01*
X110922447Y-105299480D01*
X110920234Y-105299500D01*
X104700097Y-105299500D01*
X104633058Y-105279815D01*
X104612416Y-105263181D01*
X93734574Y-94385339D01*
X93701089Y-94324016D01*
X93700638Y-94321849D01*
X93682595Y-94231147D01*
X93669737Y-94166503D01*
X93610377Y-94023194D01*
X93609397Y-94020827D01*
X93609390Y-94020814D01*
X93521789Y-93889711D01*
X93521786Y-93889707D01*
X93410292Y-93778213D01*
X93410288Y-93778210D01*
X93279185Y-93690609D01*
X93279172Y-93690602D01*
X93133501Y-93630264D01*
X93133489Y-93630261D01*
X92978845Y-93599500D01*
X92978842Y-93599500D01*
X92924500Y-93599500D01*
X92857461Y-93579815D01*
X92811706Y-93527011D01*
X92800500Y-93475500D01*
X92800500Y-92649097D01*
X92820185Y-92582058D01*
X92872989Y-92536303D01*
X92942147Y-92526359D01*
X93005703Y-92555384D01*
X93012181Y-92561416D01*
X93265425Y-92814660D01*
X93298910Y-92875983D01*
X93299361Y-92878149D01*
X93330261Y-93033491D01*
X93330264Y-93033501D01*
X93390602Y-93179172D01*
X93390609Y-93179185D01*
X93478210Y-93310288D01*
X93478213Y-93310292D01*
X93589707Y-93421786D01*
X93589711Y-93421789D01*
X93720814Y-93509390D01*
X93720827Y-93509397D01*
X93866498Y-93569735D01*
X93866503Y-93569737D01*
X94016131Y-93599500D01*
X94021153Y-93600499D01*
X94021156Y-93600500D01*
X94021158Y-93600500D01*
X94178844Y-93600500D01*
X94178845Y-93600499D01*
X94333497Y-93569737D01*
X94479179Y-93509394D01*
X94551814Y-93460861D01*
X94610875Y-93421398D01*
X94677553Y-93400520D01*
X94679766Y-93400500D01*
X96120939Y-93400500D01*
X96120943Y-93400501D01*
X96279057Y-93400501D01*
X96284987Y-93398911D01*
X96299137Y-93398781D01*
X96305314Y-93400533D01*
X96315004Y-93400850D01*
X96315098Y-93399903D01*
X96321156Y-93400500D01*
X96321158Y-93400500D01*
X96478844Y-93400500D01*
X96478845Y-93400499D01*
X96633497Y-93369737D01*
X96779179Y-93309394D01*
X96910289Y-93221789D01*
X97021789Y-93110289D01*
X97109394Y-92979179D01*
X97169737Y-92833497D01*
X97200500Y-92678842D01*
X97200500Y-92521158D01*
X97200500Y-92521155D01*
X97200499Y-92521153D01*
X97180543Y-92420827D01*
X97169737Y-92366503D01*
X97137929Y-92289711D01*
X97109397Y-92220827D01*
X97109390Y-92220814D01*
X97024248Y-92093391D01*
X97003370Y-92026714D01*
X97021854Y-91959334D01*
X97073833Y-91912643D01*
X97127350Y-91900500D01*
X103020234Y-91900500D01*
X103087273Y-91920185D01*
X103089125Y-91921398D01*
X103220814Y-92009390D01*
X103220827Y-92009397D01*
X103363328Y-92068422D01*
X103366503Y-92069737D01*
X103431147Y-92082595D01*
X103521849Y-92100638D01*
X103583760Y-92133023D01*
X103585339Y-92134574D01*
X110765425Y-99314660D01*
X110798910Y-99375983D01*
X110799361Y-99378149D01*
X110830261Y-99533491D01*
X110830264Y-99533501D01*
X110890602Y-99679172D01*
X110890609Y-99679185D01*
X110978210Y-99810288D01*
X110978213Y-99810292D01*
X111089707Y-99921786D01*
X111089711Y-99921789D01*
X111220814Y-100009390D01*
X111220827Y-100009397D01*
X111366498Y-100069735D01*
X111366503Y-100069737D01*
X111496992Y-100095693D01*
X111521153Y-100100499D01*
X111521156Y-100100500D01*
X111521158Y-100100500D01*
X111678844Y-100100500D01*
X111678845Y-100100499D01*
X111833497Y-100069737D01*
X111979179Y-100009394D01*
X112110289Y-99921789D01*
X112221789Y-99810289D01*
X112309394Y-99679179D01*
X112311990Y-99672913D01*
X112325600Y-99640054D01*
X112369737Y-99533497D01*
X112400500Y-99378842D01*
X112400500Y-99221158D01*
X112400500Y-99221155D01*
X112400499Y-99221153D01*
X112376640Y-99101208D01*
X112369737Y-99066503D01*
X112365131Y-99055384D01*
X112309397Y-98920827D01*
X112309390Y-98920814D01*
X112221789Y-98789711D01*
X112221786Y-98789707D01*
X112110292Y-98678213D01*
X112110288Y-98678210D01*
X111979185Y-98590609D01*
X111979172Y-98590602D01*
X111833501Y-98530264D01*
X111833491Y-98530261D01*
X111678149Y-98499361D01*
X111616238Y-98466976D01*
X111614660Y-98465425D01*
X104434574Y-91285339D01*
X104401089Y-91224016D01*
X104400638Y-91221849D01*
X104369738Y-91066510D01*
X104369737Y-91066503D01*
X104333569Y-90979185D01*
X104309397Y-90920827D01*
X104309390Y-90920814D01*
X104221789Y-90789711D01*
X104221786Y-90789707D01*
X104110292Y-90678213D01*
X104110288Y-90678210D01*
X103979185Y-90590609D01*
X103979172Y-90590602D01*
X103833501Y-90530264D01*
X103833489Y-90530261D01*
X103678845Y-90499500D01*
X103678842Y-90499500D01*
X103521158Y-90499500D01*
X103521155Y-90499500D01*
X103366510Y-90530261D01*
X103366498Y-90530264D01*
X103220827Y-90590602D01*
X103220814Y-90590609D01*
X103089125Y-90678602D01*
X103022447Y-90699480D01*
X103020234Y-90699500D01*
X94579766Y-90699500D01*
X94512727Y-90679815D01*
X94510875Y-90678602D01*
X94379185Y-90590609D01*
X94379172Y-90590602D01*
X94233501Y-90530264D01*
X94233489Y-90530261D01*
X94078845Y-90499500D01*
X94078842Y-90499500D01*
X93924500Y-90499500D01*
X93857461Y-90479815D01*
X93811706Y-90427011D01*
X93800500Y-90375500D01*
X93800500Y-88917847D01*
X93820185Y-88850808D01*
X93872989Y-88805053D01*
X93900309Y-88796230D01*
X93916291Y-88793050D01*
X94033497Y-88769737D01*
X94179179Y-88709394D01*
X94310289Y-88621789D01*
X94421789Y-88510289D01*
X94509394Y-88379179D01*
X94569737Y-88233497D01*
X94600500Y-88078842D01*
X94600638Y-88078150D01*
X94633023Y-88016239D01*
X94634518Y-88014716D01*
X95512416Y-87136819D01*
X95573739Y-87103334D01*
X95600097Y-87100500D01*
X104833741Y-87100500D01*
X104900780Y-87120185D01*
X104946535Y-87172989D01*
X104948302Y-87177048D01*
X104990602Y-87279172D01*
X104990609Y-87279185D01*
X105078210Y-87410288D01*
X105078213Y-87410292D01*
X105189707Y-87521786D01*
X105189711Y-87521789D01*
X105320814Y-87609390D01*
X105320827Y-87609397D01*
X105466498Y-87669735D01*
X105466503Y-87669737D01*
X105531147Y-87682595D01*
X105621849Y-87700638D01*
X105683760Y-87733023D01*
X105685339Y-87734574D01*
X110765425Y-92814660D01*
X110798910Y-92875983D01*
X110799361Y-92878149D01*
X110830261Y-93033491D01*
X110830264Y-93033501D01*
X110890602Y-93179172D01*
X110890609Y-93179185D01*
X110978210Y-93310288D01*
X110978213Y-93310292D01*
X111089707Y-93421786D01*
X111089711Y-93421789D01*
X111220814Y-93509390D01*
X111220827Y-93509397D01*
X111366498Y-93569735D01*
X111366503Y-93569737D01*
X111516131Y-93599500D01*
X111521153Y-93600499D01*
X111521156Y-93600500D01*
X111521158Y-93600500D01*
X111678844Y-93600500D01*
X111678845Y-93600499D01*
X111833497Y-93569737D01*
X111979179Y-93509394D01*
X112110289Y-93421789D01*
X112221789Y-93310289D01*
X112309394Y-93179179D01*
X112369737Y-93033497D01*
X112400500Y-92878842D01*
X112400500Y-92721158D01*
X112400500Y-92721155D01*
X112400499Y-92721153D01*
X112396253Y-92699805D01*
X112369737Y-92566503D01*
X112350955Y-92521158D01*
X112309397Y-92420827D01*
X112309390Y-92420814D01*
X112221789Y-92289711D01*
X112221786Y-92289707D01*
X112110292Y-92178213D01*
X112110288Y-92178210D01*
X111979185Y-92090609D01*
X111979172Y-92090602D01*
X111833501Y-92030264D01*
X111833491Y-92030261D01*
X111678149Y-91999361D01*
X111616238Y-91966976D01*
X111614660Y-91965425D01*
X106534574Y-86885339D01*
X106525713Y-86869111D01*
X106512783Y-86855897D01*
X106502017Y-86825716D01*
X106501089Y-86824016D01*
X106500809Y-86822696D01*
X106500500Y-86821197D01*
X106500500Y-86821158D01*
X106469737Y-86666503D01*
X106467486Y-86661069D01*
X106465109Y-86649538D01*
X106467045Y-86626058D01*
X106464497Y-86602641D01*
X106469862Y-86591886D01*
X106470851Y-86579905D01*
X106485174Y-86561198D01*
X106495691Y-86540122D01*
X106506019Y-86533975D01*
X106513329Y-86524430D01*
X106535492Y-86516436D01*
X106555734Y-86504392D01*
X106575982Y-86501835D01*
X106579055Y-86500727D01*
X106581082Y-86501191D01*
X106586555Y-86500500D01*
X110699903Y-86500500D01*
X110766942Y-86520185D01*
X110787584Y-86536819D01*
X110865425Y-86614660D01*
X110898910Y-86675983D01*
X110899361Y-86678149D01*
X110930261Y-86833491D01*
X110930264Y-86833501D01*
X110990602Y-86979172D01*
X110990609Y-86979185D01*
X111078210Y-87110288D01*
X111078213Y-87110292D01*
X111189707Y-87221786D01*
X111189711Y-87221789D01*
X111320814Y-87309390D01*
X111320827Y-87309397D01*
X111374402Y-87331588D01*
X111466503Y-87369737D01*
X111621153Y-87400499D01*
X111621156Y-87400500D01*
X111621158Y-87400500D01*
X111778844Y-87400500D01*
X111778845Y-87400499D01*
X111933497Y-87369737D01*
X112079179Y-87309394D01*
X112210289Y-87221789D01*
X112321789Y-87110289D01*
X112409394Y-86979179D01*
X112469737Y-86833497D01*
X112500500Y-86678842D01*
X112500500Y-86521158D01*
X112500500Y-86521155D01*
X112500499Y-86521153D01*
X112490228Y-86469516D01*
X112469737Y-86366503D01*
X112438298Y-86290602D01*
X112409397Y-86220827D01*
X112409390Y-86220814D01*
X112321789Y-86089711D01*
X112321786Y-86089707D01*
X112210292Y-85978213D01*
X112210288Y-85978210D01*
X112079185Y-85890609D01*
X112079172Y-85890602D01*
X111933501Y-85830264D01*
X111933491Y-85830261D01*
X111778149Y-85799361D01*
X111716238Y-85766976D01*
X111714660Y-85765425D01*
X111487590Y-85538355D01*
X111487588Y-85538352D01*
X111368717Y-85419481D01*
X111368716Y-85419480D01*
X111281904Y-85369360D01*
X111281904Y-85369359D01*
X111281900Y-85369358D01*
X111231785Y-85340423D01*
X111079057Y-85299499D01*
X110920943Y-85299499D01*
X110913347Y-85299499D01*
X110913331Y-85299500D01*
X95130530Y-85299500D01*
X94972416Y-85299500D01*
X94819688Y-85340423D01*
X94819687Y-85340423D01*
X94819685Y-85340424D01*
X94819682Y-85340425D01*
X94769569Y-85369359D01*
X94769568Y-85369360D01*
X94726162Y-85394420D01*
X94682758Y-85419479D01*
X94682755Y-85419481D01*
X94012181Y-86090056D01*
X93950858Y-86123541D01*
X93881166Y-86118557D01*
X93825233Y-86076685D01*
X93800816Y-86011221D01*
X93800500Y-86002375D01*
X93800500Y-81900097D01*
X93820185Y-81833058D01*
X93836819Y-81812416D01*
X96412417Y-79236819D01*
X96473740Y-79203334D01*
X96500098Y-79200500D01*
X113213331Y-79200500D01*
X113213347Y-79200501D01*
X113220943Y-79200501D01*
X113379054Y-79200501D01*
X113379057Y-79200501D01*
X113531785Y-79159577D01*
X113581904Y-79130639D01*
X113668716Y-79080520D01*
X113780520Y-78968716D01*
X113780520Y-78968714D01*
X113790728Y-78958507D01*
X113790729Y-78958504D01*
X115380520Y-77368716D01*
X115459577Y-77231784D01*
X115500501Y-77079057D01*
X115500501Y-77079054D01*
X115501562Y-77070998D01*
X115503018Y-77071189D01*
X115520186Y-77012725D01*
X115521399Y-77010873D01*
X115609390Y-76879185D01*
X115609390Y-76879184D01*
X115609394Y-76879179D01*
X115617897Y-76858652D01*
X115637960Y-76810213D01*
X115669737Y-76733497D01*
X115700500Y-76578842D01*
X115700500Y-76421158D01*
X115700500Y-76421155D01*
X115700499Y-76421153D01*
X115686058Y-76348556D01*
X115669737Y-76266503D01*
X115653552Y-76227429D01*
X115609397Y-76120827D01*
X115609390Y-76120814D01*
X115521789Y-75989711D01*
X115521786Y-75989707D01*
X115410292Y-75878213D01*
X115410288Y-75878210D01*
X115279185Y-75790609D01*
X115279172Y-75790602D01*
X115133501Y-75730264D01*
X115133489Y-75730261D01*
X114978845Y-75699500D01*
X114978842Y-75699500D01*
X114821158Y-75699500D01*
X114821155Y-75699500D01*
X114666510Y-75730261D01*
X114666498Y-75730264D01*
X114520827Y-75790602D01*
X114520814Y-75790609D01*
X114389711Y-75878210D01*
X114389707Y-75878213D01*
X114278213Y-75989707D01*
X114278210Y-75989711D01*
X114190609Y-76120814D01*
X114190602Y-76120827D01*
X114130264Y-76266498D01*
X114130261Y-76266510D01*
X114099500Y-76421153D01*
X114099500Y-76578846D01*
X114130260Y-76733488D01*
X114130261Y-76733489D01*
X114130263Y-76733497D01*
X114153329Y-76789185D01*
X114160797Y-76858652D01*
X114129521Y-76921131D01*
X114126448Y-76924315D01*
X113087584Y-77963181D01*
X113026261Y-77996666D01*
X112999903Y-77999500D01*
X107649097Y-77999500D01*
X107582058Y-77979815D01*
X107536303Y-77927011D01*
X107526359Y-77857853D01*
X107555384Y-77794297D01*
X107561416Y-77787819D01*
X107765521Y-77583713D01*
X107958506Y-77390727D01*
X107958511Y-77390724D01*
X107968714Y-77380520D01*
X107968716Y-77380520D01*
X108080520Y-77268716D01*
X108137665Y-77169737D01*
X108159577Y-77131785D01*
X108200501Y-76979057D01*
X108200501Y-76979054D01*
X108201562Y-76970997D01*
X108203018Y-76971188D01*
X108220186Y-76912725D01*
X108221399Y-76910873D01*
X108309390Y-76779185D01*
X108309390Y-76779184D01*
X108309394Y-76779179D01*
X108369737Y-76633497D01*
X108400500Y-76478842D01*
X108400500Y-76321158D01*
X108400500Y-76321155D01*
X108400499Y-76321153D01*
X108397296Y-76305050D01*
X108369737Y-76166503D01*
X108313110Y-76029792D01*
X108309397Y-76020827D01*
X108309390Y-76020814D01*
X108221789Y-75889711D01*
X108221786Y-75889707D01*
X108110292Y-75778213D01*
X108110288Y-75778210D01*
X107979185Y-75690609D01*
X107979172Y-75690602D01*
X107833501Y-75630264D01*
X107833489Y-75630261D01*
X107678845Y-75599500D01*
X107678842Y-75599500D01*
X107521158Y-75599500D01*
X107521155Y-75599500D01*
X107366510Y-75630261D01*
X107366498Y-75630264D01*
X107220827Y-75690602D01*
X107220814Y-75690609D01*
X107089711Y-75778210D01*
X107089707Y-75778213D01*
X106978213Y-75889707D01*
X106978210Y-75889711D01*
X106890609Y-76020814D01*
X106890602Y-76020827D01*
X106830264Y-76166498D01*
X106830261Y-76166510D01*
X106799500Y-76321153D01*
X106799500Y-76478846D01*
X106830261Y-76633489D01*
X106830264Y-76633501D01*
X106853328Y-76689182D01*
X106860797Y-76758651D01*
X106829522Y-76821130D01*
X106826449Y-76824315D01*
X106587582Y-77063182D01*
X106526262Y-77096666D01*
X106499903Y-77099500D01*
X97549097Y-77099500D01*
X97482058Y-77079815D01*
X97436303Y-77027011D01*
X97426359Y-76957853D01*
X97455384Y-76894297D01*
X97461416Y-76887819D01*
X97712416Y-76636819D01*
X97773739Y-76603334D01*
X97800097Y-76600500D01*
X99120234Y-76600500D01*
X99187273Y-76620185D01*
X99189125Y-76621398D01*
X99320814Y-76709390D01*
X99320827Y-76709397D01*
X99456827Y-76765729D01*
X99466503Y-76769737D01*
X99621153Y-76800499D01*
X99621156Y-76800500D01*
X99621158Y-76800500D01*
X99778844Y-76800500D01*
X99778845Y-76800499D01*
X99933497Y-76769737D01*
X100079179Y-76709394D01*
X100210289Y-76621789D01*
X100321789Y-76510289D01*
X100409394Y-76379179D01*
X100469737Y-76233497D01*
X100500500Y-76078842D01*
X100500500Y-75921158D01*
X100500500Y-75921155D01*
X100500499Y-75921153D01*
X100477195Y-75803999D01*
X100469737Y-75766503D01*
X100469735Y-75766498D01*
X100409397Y-75620827D01*
X100409390Y-75620814D01*
X100321789Y-75489711D01*
X100321786Y-75489707D01*
X100210292Y-75378213D01*
X100210288Y-75378210D01*
X100079185Y-75290609D01*
X100079172Y-75290602D01*
X99933501Y-75230264D01*
X99933489Y-75230261D01*
X99778845Y-75199500D01*
X99778842Y-75199500D01*
X99621158Y-75199500D01*
X99621155Y-75199500D01*
X99466510Y-75230261D01*
X99466498Y-75230264D01*
X99320827Y-75290602D01*
X99320814Y-75290609D01*
X99189125Y-75378602D01*
X99122447Y-75399480D01*
X99120234Y-75399500D01*
X97586669Y-75399500D01*
X97586653Y-75399499D01*
X97579057Y-75399499D01*
X97420943Y-75399499D01*
X97306397Y-75430192D01*
X97268214Y-75440423D01*
X97223494Y-75466243D01*
X97223493Y-75466243D01*
X97131287Y-75519477D01*
X97131282Y-75519481D01*
X91119482Y-81531281D01*
X91119478Y-81531287D01*
X91071176Y-81614949D01*
X91040424Y-81668212D01*
X91040423Y-81668213D01*
X91021217Y-81739890D01*
X90999499Y-81820943D01*
X90999499Y-81820945D01*
X90999499Y-81989046D01*
X90999500Y-81989059D01*
X90999500Y-86082152D01*
X90979815Y-86149191D01*
X90927011Y-86194946D01*
X90899692Y-86203769D01*
X90766508Y-86230261D01*
X90766498Y-86230264D01*
X90620827Y-86290602D01*
X90620814Y-86290609D01*
X90489711Y-86378210D01*
X90489707Y-86378213D01*
X90378213Y-86489707D01*
X90378210Y-86489711D01*
X90290609Y-86620814D01*
X90290602Y-86620827D01*
X90230264Y-86766498D01*
X90230261Y-86766510D01*
X90199500Y-86921153D01*
X90199500Y-87078846D01*
X90230261Y-87233489D01*
X90230264Y-87233501D01*
X90290602Y-87379172D01*
X90290609Y-87379185D01*
X90378602Y-87510874D01*
X90399480Y-87577551D01*
X90399500Y-87579765D01*
X90399500Y-95499902D01*
X90379815Y-95566941D01*
X90363181Y-95587583D01*
X88345035Y-97605728D01*
X88283712Y-97639213D01*
X88214020Y-97634229D01*
X88169673Y-97605728D01*
X88042466Y-97478521D01*
X88042464Y-97478519D01*
X87881694Y-97361713D01*
X87725218Y-97281984D01*
X87674423Y-97234010D01*
X87657628Y-97166189D01*
X87680165Y-97100054D01*
X87725218Y-97061015D01*
X87881694Y-96981287D01*
X88042464Y-96864481D01*
X88182981Y-96723964D01*
X88299787Y-96563194D01*
X88390005Y-96386132D01*
X88451413Y-96197136D01*
X88482500Y-96000861D01*
X88482500Y-95802139D01*
X88451413Y-95605864D01*
X88390005Y-95416868D01*
X88390005Y-95416867D01*
X88336961Y-95312764D01*
X88299787Y-95239806D01*
X88182981Y-95079036D01*
X88042464Y-94938519D01*
X87881694Y-94821713D01*
X87725218Y-94741984D01*
X87674423Y-94694010D01*
X87657628Y-94626189D01*
X87680165Y-94560054D01*
X87725218Y-94521015D01*
X87881694Y-94441287D01*
X88042464Y-94324481D01*
X88182981Y-94183964D01*
X88299787Y-94023194D01*
X88390005Y-93846132D01*
X88451413Y-93657136D01*
X88482500Y-93460861D01*
X88482500Y-93262139D01*
X88451413Y-93065864D01*
X88407924Y-92932016D01*
X88390006Y-92876870D01*
X88390005Y-92876867D01*
X88299786Y-92699805D01*
X88182981Y-92539036D01*
X88042464Y-92398519D01*
X87881694Y-92281713D01*
X87881690Y-92281710D01*
X87879715Y-92280500D01*
X87879121Y-92279843D01*
X87877752Y-92278849D01*
X87877960Y-92278561D01*
X87832837Y-92228690D01*
X87820500Y-92174770D01*
X87820500Y-90609059D01*
X87820501Y-90609046D01*
X87820501Y-90440945D01*
X87820501Y-90440943D01*
X87779577Y-90288215D01*
X87740667Y-90220821D01*
X87700520Y-90151284D01*
X87588716Y-90039480D01*
X87588715Y-90039479D01*
X87584385Y-90035149D01*
X87584374Y-90035139D01*
X86734574Y-89185339D01*
X86701089Y-89124016D01*
X86700638Y-89121849D01*
X86669738Y-88966510D01*
X86669737Y-88966503D01*
X86621815Y-88850808D01*
X86609397Y-88820827D01*
X86609390Y-88820814D01*
X86521789Y-88689711D01*
X86521786Y-88689707D01*
X86410292Y-88578213D01*
X86410288Y-88578210D01*
X86279185Y-88490609D01*
X86279172Y-88490602D01*
X86133501Y-88430264D01*
X86133489Y-88430261D01*
X85978845Y-88399500D01*
X85978842Y-88399500D01*
X85821158Y-88399500D01*
X85821155Y-88399500D01*
X85666510Y-88430261D01*
X85666507Y-88430261D01*
X85571952Y-88469427D01*
X85502482Y-88476895D01*
X85440003Y-88445619D01*
X85404351Y-88385530D01*
X85400500Y-88354865D01*
X85400500Y-84600096D01*
X85420185Y-84533057D01*
X85436814Y-84512420D01*
X92758506Y-77190727D01*
X92758511Y-77190724D01*
X92768714Y-77180520D01*
X92768716Y-77180520D01*
X92880520Y-77068716D01*
X92933781Y-76976465D01*
X92959577Y-76931785D01*
X93000500Y-76779057D01*
X93000500Y-76728350D01*
X93020185Y-76661311D01*
X93021398Y-76659459D01*
X93109390Y-76527770D01*
X93109390Y-76527769D01*
X93109394Y-76527764D01*
X93169737Y-76382082D01*
X93200500Y-76227427D01*
X93200500Y-76069743D01*
X93200500Y-76069740D01*
X93200499Y-76069738D01*
X93190767Y-76020814D01*
X93169737Y-75915088D01*
X93146016Y-75857820D01*
X93109397Y-75769412D01*
X93109390Y-75769399D01*
X93021789Y-75638296D01*
X93021786Y-75638292D01*
X92910292Y-75526798D01*
X92910288Y-75526795D01*
X92779185Y-75439194D01*
X92779172Y-75439187D01*
X92633501Y-75378849D01*
X92633489Y-75378846D01*
X92478845Y-75348085D01*
X92478842Y-75348085D01*
X92321158Y-75348085D01*
X92321155Y-75348085D01*
X92166510Y-75378846D01*
X92166498Y-75378849D01*
X92020827Y-75439187D01*
X92020814Y-75439194D01*
X91889711Y-75526795D01*
X91889707Y-75526798D01*
X91778213Y-75638292D01*
X91778210Y-75638296D01*
X91690609Y-75769399D01*
X91690602Y-75769412D01*
X91630264Y-75915083D01*
X91630261Y-75915095D01*
X91599500Y-76069738D01*
X91599500Y-76227431D01*
X91630261Y-76382074D01*
X91630264Y-76382086D01*
X91668387Y-76474123D01*
X91675856Y-76543592D01*
X91644581Y-76606071D01*
X91641507Y-76609256D01*
X84433788Y-83816975D01*
X84433779Y-83816984D01*
X84431286Y-83819478D01*
X84431284Y-83819480D01*
X84319480Y-83931284D01*
X84303190Y-83959500D01*
X84296821Y-83970530D01*
X84296821Y-83970531D01*
X84256713Y-84040000D01*
X84240423Y-84068215D01*
X84199499Y-84220943D01*
X84199499Y-84220945D01*
X84199499Y-84389046D01*
X84199500Y-84389059D01*
X84199500Y-84750903D01*
X84179815Y-84817942D01*
X84127011Y-84863697D01*
X84057853Y-84873641D01*
X83994297Y-84844616D01*
X83987819Y-84838584D01*
X76498497Y-77349262D01*
X76468247Y-77299898D01*
X76426559Y-77171593D01*
X76426557Y-77171587D01*
X76360397Y-77041742D01*
X76330051Y-76982184D01*
X76330049Y-76982181D01*
X76330048Y-76982179D01*
X76205109Y-76810213D01*
X76054786Y-76659890D01*
X75882820Y-76534951D01*
X75882115Y-76534591D01*
X75874054Y-76530485D01*
X75823259Y-76482512D01*
X75806463Y-76414692D01*
X75828999Y-76348556D01*
X75874054Y-76309515D01*
X75882816Y-76305051D01*
X75981297Y-76233501D01*
X76054786Y-76180109D01*
X76054788Y-76180106D01*
X76054792Y-76180104D01*
X76205104Y-76029792D01*
X76205106Y-76029788D01*
X76205109Y-76029786D01*
X76330048Y-75857820D01*
X76330047Y-75857820D01*
X76330051Y-75857816D01*
X76426557Y-75668412D01*
X76492246Y-75466243D01*
X76525500Y-75256287D01*
X76525500Y-75043713D01*
X76492246Y-74833757D01*
X76426557Y-74631588D01*
X76330051Y-74442184D01*
X76330049Y-74442181D01*
X76330048Y-74442179D01*
X76205109Y-74270213D01*
X76054786Y-74119890D01*
X75882815Y-73994948D01*
X75882814Y-73994947D01*
X75843205Y-73974765D01*
X75832142Y-73964316D01*
X75818297Y-73957994D01*
X75807255Y-73940812D01*
X75792409Y-73926791D01*
X75788167Y-73911111D01*
X75780523Y-73899216D01*
X75775500Y-73864281D01*
X75775500Y-73764060D01*
X75775501Y-73764047D01*
X75775501Y-73595945D01*
X75775501Y-73595943D01*
X75734577Y-73443215D01*
X75664105Y-73321153D01*
X91099500Y-73321153D01*
X91099500Y-73478846D01*
X91130261Y-73633489D01*
X91130264Y-73633501D01*
X91190602Y-73779172D01*
X91190609Y-73779185D01*
X91278210Y-73910288D01*
X91278213Y-73910292D01*
X91389707Y-74021786D01*
X91389711Y-74021789D01*
X91520814Y-74109390D01*
X91520827Y-74109397D01*
X91666498Y-74169735D01*
X91666503Y-74169737D01*
X91821153Y-74200499D01*
X91821156Y-74200500D01*
X91821158Y-74200500D01*
X91978844Y-74200500D01*
X91978845Y-74200499D01*
X92133497Y-74169737D01*
X92279179Y-74109394D01*
X92410289Y-74021789D01*
X92495260Y-73936817D01*
X92556581Y-73903334D01*
X92582940Y-73900500D01*
X95620234Y-73900500D01*
X95687273Y-73920185D01*
X95689125Y-73921398D01*
X95820814Y-74009390D01*
X95820827Y-74009397D01*
X95966498Y-74069735D01*
X95966503Y-74069737D01*
X96121153Y-74100499D01*
X96121156Y-74100500D01*
X96121158Y-74100500D01*
X96278844Y-74100500D01*
X96278845Y-74100499D01*
X96433497Y-74069737D01*
X96579179Y-74009394D01*
X96592491Y-74000499D01*
X96710875Y-73921398D01*
X96777553Y-73900520D01*
X96779766Y-73900500D01*
X98220234Y-73900500D01*
X98287273Y-73920185D01*
X98289125Y-73921398D01*
X98420814Y-74009390D01*
X98420827Y-74009397D01*
X98566498Y-74069735D01*
X98566503Y-74069737D01*
X98721153Y-74100499D01*
X98721156Y-74100500D01*
X98721158Y-74100500D01*
X98878844Y-74100500D01*
X98878845Y-74100499D01*
X99033497Y-74069737D01*
X99179179Y-74009394D01*
X99192491Y-74000499D01*
X99310875Y-73921398D01*
X99377553Y-73900520D01*
X99379766Y-73900500D01*
X102920234Y-73900500D01*
X102987273Y-73920185D01*
X102989125Y-73921398D01*
X103120814Y-74009390D01*
X103120827Y-74009397D01*
X103266498Y-74069735D01*
X103266503Y-74069737D01*
X103421153Y-74100499D01*
X103421156Y-74100500D01*
X103421158Y-74100500D01*
X103578844Y-74100500D01*
X103578845Y-74100499D01*
X103733497Y-74069737D01*
X103879179Y-74009394D01*
X104010289Y-73921789D01*
X104095260Y-73836817D01*
X104156581Y-73803334D01*
X104182940Y-73800500D01*
X105620234Y-73800500D01*
X105687273Y-73820185D01*
X105689125Y-73821398D01*
X105820814Y-73909390D01*
X105820827Y-73909397D01*
X105953415Y-73964316D01*
X105966503Y-73969737D01*
X106121153Y-74000499D01*
X106121156Y-74000500D01*
X106121158Y-74000500D01*
X106278844Y-74000500D01*
X106278845Y-74000499D01*
X106433497Y-73969737D01*
X106579179Y-73909394D01*
X106592490Y-73900500D01*
X106710875Y-73821398D01*
X106777553Y-73800520D01*
X106779766Y-73800500D01*
X110820234Y-73800500D01*
X110887273Y-73820185D01*
X110889125Y-73821398D01*
X111020814Y-73909390D01*
X111020827Y-73909397D01*
X111153415Y-73964316D01*
X111166503Y-73969737D01*
X111321153Y-74000499D01*
X111321156Y-74000500D01*
X111321158Y-74000500D01*
X111478844Y-74000500D01*
X111478845Y-74000499D01*
X111633497Y-73969737D01*
X111779179Y-73909394D01*
X111792490Y-73900500D01*
X111910875Y-73821398D01*
X111977553Y-73800520D01*
X111979766Y-73800500D01*
X112820234Y-73800500D01*
X112887273Y-73820185D01*
X112889125Y-73821398D01*
X113020814Y-73909390D01*
X113020827Y-73909397D01*
X113153415Y-73964316D01*
X113166503Y-73969737D01*
X113321153Y-74000499D01*
X113321156Y-74000500D01*
X113321158Y-74000500D01*
X113478844Y-74000500D01*
X113478845Y-74000499D01*
X113633497Y-73969737D01*
X113779179Y-73909394D01*
X113792490Y-73900500D01*
X113910875Y-73821398D01*
X113977553Y-73800520D01*
X113979766Y-73800500D01*
X117933741Y-73800500D01*
X118000780Y-73820185D01*
X118046535Y-73872989D01*
X118048302Y-73877048D01*
X118090602Y-73979172D01*
X118090609Y-73979185D01*
X118178210Y-74110288D01*
X118178213Y-74110292D01*
X118289707Y-74221786D01*
X118289711Y-74221789D01*
X118420814Y-74309390D01*
X118420827Y-74309397D01*
X118566498Y-74369735D01*
X118566503Y-74369737D01*
X118721153Y-74400499D01*
X118721156Y-74400500D01*
X118721158Y-74400500D01*
X118878844Y-74400500D01*
X118878845Y-74400499D01*
X119033497Y-74369737D01*
X119179179Y-74309394D01*
X119310289Y-74221789D01*
X119421789Y-74110289D01*
X119509394Y-73979179D01*
X119569737Y-73833497D01*
X119600500Y-73678842D01*
X119600500Y-73521158D01*
X119600500Y-73521155D01*
X119600499Y-73521153D01*
X119569737Y-73366503D01*
X119544794Y-73306284D01*
X119509397Y-73220827D01*
X119509390Y-73220814D01*
X119421789Y-73089711D01*
X119421786Y-73089707D01*
X119310292Y-72978213D01*
X119310288Y-72978210D01*
X119229708Y-72924368D01*
X119184903Y-72870756D01*
X119176196Y-72801431D01*
X119176982Y-72797074D01*
X119200500Y-72678844D01*
X119200500Y-72521155D01*
X119200499Y-72521153D01*
X119196061Y-72498843D01*
X119169737Y-72366503D01*
X119154465Y-72329633D01*
X119109397Y-72220827D01*
X119109390Y-72220814D01*
X119021789Y-72089711D01*
X119021786Y-72089707D01*
X118910292Y-71978213D01*
X118910288Y-71978210D01*
X118779185Y-71890609D01*
X118779172Y-71890602D01*
X118633501Y-71830264D01*
X118633492Y-71830261D01*
X118578166Y-71819256D01*
X118516256Y-71786870D01*
X118481682Y-71726154D01*
X118480750Y-71721874D01*
X118469737Y-71666503D01*
X118437941Y-71589740D01*
X118409397Y-71520827D01*
X118409390Y-71520814D01*
X118321789Y-71389711D01*
X118321786Y-71389707D01*
X118210292Y-71278213D01*
X118210288Y-71278210D01*
X118079185Y-71190609D01*
X118079172Y-71190602D01*
X117933501Y-71130264D01*
X117933489Y-71130261D01*
X117778845Y-71099500D01*
X117778842Y-71099500D01*
X117621158Y-71099500D01*
X117621155Y-71099500D01*
X117466510Y-71130261D01*
X117466498Y-71130264D01*
X117320827Y-71190602D01*
X117320814Y-71190609D01*
X117189125Y-71278602D01*
X117122447Y-71299480D01*
X117120234Y-71299500D01*
X116517848Y-71299500D01*
X116450809Y-71279815D01*
X116405054Y-71227011D01*
X116396231Y-71199692D01*
X116369738Y-71066508D01*
X116369737Y-71066507D01*
X116369737Y-71066503D01*
X116369735Y-71066498D01*
X116309397Y-70920827D01*
X116309390Y-70920814D01*
X116221789Y-70789711D01*
X116221786Y-70789707D01*
X116110292Y-70678213D01*
X116110288Y-70678210D01*
X115979185Y-70590609D01*
X115979172Y-70590602D01*
X115833501Y-70530264D01*
X115833489Y-70530261D01*
X115678845Y-70499500D01*
X115678842Y-70499500D01*
X115521158Y-70499500D01*
X115521157Y-70499500D01*
X115515095Y-70500097D01*
X115515058Y-70499725D01*
X115499137Y-70501218D01*
X115484985Y-70501087D01*
X115479057Y-70499499D01*
X115320943Y-70499499D01*
X115320939Y-70499500D01*
X108479766Y-70499500D01*
X108412727Y-70479815D01*
X108410875Y-70478602D01*
X108279185Y-70390609D01*
X108279172Y-70390602D01*
X108133501Y-70330264D01*
X108133489Y-70330261D01*
X107978845Y-70299500D01*
X107978842Y-70299500D01*
X107821158Y-70299500D01*
X107821155Y-70299500D01*
X107666510Y-70330261D01*
X107666498Y-70330264D01*
X107520827Y-70390602D01*
X107520814Y-70390609D01*
X107389125Y-70478602D01*
X107322447Y-70499480D01*
X107320234Y-70499500D01*
X100179057Y-70499500D01*
X100020943Y-70499500D01*
X99868215Y-70540423D01*
X99868214Y-70540423D01*
X99868212Y-70540424D01*
X99868209Y-70540425D01*
X99818100Y-70569356D01*
X99818097Y-70569358D01*
X99818095Y-70569360D01*
X99794664Y-70582887D01*
X99732666Y-70599500D01*
X99721157Y-70599500D01*
X99715095Y-70600097D01*
X99715002Y-70599153D01*
X99684095Y-70600162D01*
X99679059Y-70599499D01*
X99679057Y-70599499D01*
X99520943Y-70599499D01*
X99513347Y-70599499D01*
X99513331Y-70599500D01*
X93523900Y-70599500D01*
X93476448Y-70590061D01*
X93467859Y-70586503D01*
X93467847Y-70586500D01*
X93313203Y-70555739D01*
X93313200Y-70555739D01*
X93155516Y-70555739D01*
X93155513Y-70555739D01*
X93000868Y-70586500D01*
X93000856Y-70586503D01*
X92855185Y-70646841D01*
X92855172Y-70646848D01*
X92724069Y-70734449D01*
X92724065Y-70734452D01*
X92612571Y-70845946D01*
X92612568Y-70845950D01*
X92524967Y-70977053D01*
X92524960Y-70977066D01*
X92464622Y-71122737D01*
X92464619Y-71122749D01*
X92433858Y-71277392D01*
X92433858Y-71435085D01*
X92464619Y-71589728D01*
X92464622Y-71589740D01*
X92524960Y-71735411D01*
X92524967Y-71735424D01*
X92612568Y-71866527D01*
X92612571Y-71866531D01*
X92724065Y-71978025D01*
X92724069Y-71978028D01*
X92855172Y-72065629D01*
X92855185Y-72065636D01*
X93000856Y-72125974D01*
X93000861Y-72125976D01*
X93155511Y-72156738D01*
X93155514Y-72156739D01*
X93155516Y-72156739D01*
X93313202Y-72156739D01*
X93313203Y-72156738D01*
X93467855Y-72125976D01*
X93613537Y-72065633D01*
X93744647Y-71978028D01*
X93856147Y-71866528D01*
X93863442Y-71855609D01*
X93869533Y-71850518D01*
X93872832Y-71843297D01*
X93895960Y-71828433D01*
X93917054Y-71810805D01*
X93926428Y-71808853D01*
X93931610Y-71805523D01*
X93966545Y-71800500D01*
X93975500Y-71800500D01*
X94042539Y-71820185D01*
X94088294Y-71872989D01*
X94099500Y-71924500D01*
X94099500Y-72078846D01*
X94130261Y-72233489D01*
X94130264Y-72233501D01*
X94190602Y-72379172D01*
X94190609Y-72379185D01*
X94275752Y-72506609D01*
X94296630Y-72573286D01*
X94278146Y-72640666D01*
X94226167Y-72687357D01*
X94172650Y-72699500D01*
X92325316Y-72699500D01*
X92277864Y-72690061D01*
X92133501Y-72630264D01*
X92133489Y-72630261D01*
X91978845Y-72599500D01*
X91978842Y-72599500D01*
X91821158Y-72599500D01*
X91821155Y-72599500D01*
X91666510Y-72630261D01*
X91666498Y-72630264D01*
X91520827Y-72690602D01*
X91520814Y-72690609D01*
X91389711Y-72778210D01*
X91389707Y-72778213D01*
X91278213Y-72889707D01*
X91278210Y-72889711D01*
X91190609Y-73020814D01*
X91190602Y-73020827D01*
X91130264Y-73166498D01*
X91130261Y-73166510D01*
X91099500Y-73321153D01*
X75664105Y-73321153D01*
X75655520Y-73306284D01*
X75080521Y-72731285D01*
X75080520Y-72731284D01*
X74968716Y-72619480D01*
X74881904Y-72569360D01*
X74881904Y-72569359D01*
X74881900Y-72569358D01*
X74831785Y-72540423D01*
X74679057Y-72499499D01*
X74520943Y-72499499D01*
X74513347Y-72499499D01*
X74513331Y-72499500D01*
X70120943Y-72499500D01*
X69968216Y-72540423D01*
X69968209Y-72540426D01*
X69831290Y-72619475D01*
X69831282Y-72619481D01*
X69719481Y-72731282D01*
X69719475Y-72731290D01*
X69640426Y-72868209D01*
X69640423Y-72868216D01*
X69599500Y-73020943D01*
X69599500Y-91494830D01*
X69599499Y-91494848D01*
X69599499Y-91660554D01*
X69599498Y-91660554D01*
X66500500Y-91660554D01*
X66500500Y-72622413D01*
X66520185Y-72555374D01*
X66572989Y-72509619D01*
X66642147Y-72499675D01*
X66699984Y-72524036D01*
X66798329Y-72599500D01*
X66886196Y-72666924D01*
X67113299Y-72798041D01*
X67113309Y-72798046D01*
X67336769Y-72890606D01*
X67355581Y-72898398D01*
X67608884Y-72966270D01*
X67868880Y-73000500D01*
X67868887Y-73000500D01*
X68131113Y-73000500D01*
X68131120Y-73000500D01*
X68391116Y-72966270D01*
X68644419Y-72898398D01*
X68886697Y-72798043D01*
X69113803Y-72666924D01*
X69321851Y-72507282D01*
X69321855Y-72507277D01*
X69321860Y-72507274D01*
X69507274Y-72321860D01*
X69507277Y-72321855D01*
X69507282Y-72321851D01*
X69666924Y-72113803D01*
X69798043Y-71886697D01*
X69806397Y-71866530D01*
X69898394Y-71644428D01*
X69898398Y-71644419D01*
X69966270Y-71391116D01*
X70000500Y-71131120D01*
X70000500Y-70868880D01*
X69966270Y-70608884D01*
X69898398Y-70355581D01*
X69898394Y-70355571D01*
X69798046Y-70113309D01*
X69798041Y-70113299D01*
X69666924Y-69886196D01*
X69524039Y-69699987D01*
X69498844Y-69634818D01*
X69512882Y-69566373D01*
X69561696Y-69516383D01*
X69622414Y-69500500D01*
X121377586Y-69500500D01*
X121391209Y-69504500D01*
G37*
%TD.AperFunction*%
%TD*%
M02*
