%TF.GenerationSoftware,KiCad,Pcbnew,9.0.2*%
%TF.CreationDate,2025-08-25T15:59:26+09:00*%
%TF.ProjectId,imu_controller_board,696d755f-636f-46e7-9472-6f6c6c65725f,rev?*%
%TF.SameCoordinates,Original*%
%TF.FileFunction,Legend,Top*%
%TF.FilePolarity,Positive*%
%FSLAX46Y46*%
G04 Gerber Fmt 4.6, Leading zero omitted, Abs format (unit mm)*
G04 Created by KiCad (PCBNEW 9.0.2) date 2025-08-25 15:59:26*
%MOMM*%
%LPD*%
G01*
G04 APERTURE LIST*
G04 Aperture macros list*
%AMRoundRect*
0 Rectangle with rounded corners*
0 $1 Rounding radius*
0 $2 $3 $4 $5 $6 $7 $8 $9 X,Y pos of 4 corners*
0 Add a 4 corners polygon primitive as box body*
4,1,4,$2,$3,$4,$5,$6,$7,$8,$9,$2,$3,0*
0 Add four circle primitives for the rounded corners*
1,1,$1+$1,$2,$3*
1,1,$1+$1,$4,$5*
1,1,$1+$1,$6,$7*
1,1,$1+$1,$8,$9*
0 Add four rect primitives between the rounded corners*
20,1,$1+$1,$2,$3,$4,$5,0*
20,1,$1+$1,$4,$5,$6,$7,0*
20,1,$1+$1,$6,$7,$8,$9,0*
20,1,$1+$1,$8,$9,$2,$3,0*%
G04 Aperture macros list end*
%ADD10C,0.200000*%
%ADD11C,0.150000*%
%ADD12C,0.101600*%
%ADD13C,0.254000*%
%ADD14C,0.120000*%
%ADD15C,0.127000*%
%ADD16C,0.100000*%
%ADD17C,0.504000*%
%ADD18R,0.350000X1.500000*%
%ADD19R,2.000000X1.700000*%
%ADD20R,0.500000X1.500000*%
%ADD21R,1.700000X1.700000*%
%ADD22C,1.700000*%
%ADD23R,1.500000X0.500000*%
%ADD24R,1.700000X2.000000*%
%ADD25RoundRect,0.152400X-0.609600X1.063600X-0.609600X-1.063600X0.609600X-1.063600X0.609600X1.063600X0*%
%ADD26C,1.524000*%
%ADD27RoundRect,0.152400X0.609600X-1.063600X0.609600X1.063600X-0.609600X1.063600X-0.609600X-1.063600X0*%
G04 APERTURE END LIST*
D10*
X90869673Y-102643409D02*
X91203006Y-102643409D01*
X91345863Y-103167219D02*
X90869673Y-103167219D01*
X90869673Y-103167219D02*
X90869673Y-102167219D01*
X90869673Y-102167219D02*
X91345863Y-102167219D01*
X91726816Y-103119600D02*
X91869673Y-103167219D01*
X91869673Y-103167219D02*
X92107768Y-103167219D01*
X92107768Y-103167219D02*
X92203006Y-103119600D01*
X92203006Y-103119600D02*
X92250625Y-103071980D01*
X92250625Y-103071980D02*
X92298244Y-102976742D01*
X92298244Y-102976742D02*
X92298244Y-102881504D01*
X92298244Y-102881504D02*
X92250625Y-102786266D01*
X92250625Y-102786266D02*
X92203006Y-102738647D01*
X92203006Y-102738647D02*
X92107768Y-102691028D01*
X92107768Y-102691028D02*
X91917292Y-102643409D01*
X91917292Y-102643409D02*
X91822054Y-102595790D01*
X91822054Y-102595790D02*
X91774435Y-102548171D01*
X91774435Y-102548171D02*
X91726816Y-102452933D01*
X91726816Y-102452933D02*
X91726816Y-102357695D01*
X91726816Y-102357695D02*
X91774435Y-102262457D01*
X91774435Y-102262457D02*
X91822054Y-102214838D01*
X91822054Y-102214838D02*
X91917292Y-102167219D01*
X91917292Y-102167219D02*
X92155387Y-102167219D01*
X92155387Y-102167219D02*
X92298244Y-102214838D01*
X92726816Y-103167219D02*
X92726816Y-102167219D01*
X92726816Y-102167219D02*
X93107768Y-102167219D01*
X93107768Y-102167219D02*
X93203006Y-102214838D01*
X93203006Y-102214838D02*
X93250625Y-102262457D01*
X93250625Y-102262457D02*
X93298244Y-102357695D01*
X93298244Y-102357695D02*
X93298244Y-102500552D01*
X93298244Y-102500552D02*
X93250625Y-102595790D01*
X93250625Y-102595790D02*
X93203006Y-102643409D01*
X93203006Y-102643409D02*
X93107768Y-102691028D01*
X93107768Y-102691028D02*
X92726816Y-102691028D01*
X93631578Y-102167219D02*
X94250625Y-102167219D01*
X94250625Y-102167219D02*
X93917292Y-102548171D01*
X93917292Y-102548171D02*
X94060149Y-102548171D01*
X94060149Y-102548171D02*
X94155387Y-102595790D01*
X94155387Y-102595790D02*
X94203006Y-102643409D01*
X94203006Y-102643409D02*
X94250625Y-102738647D01*
X94250625Y-102738647D02*
X94250625Y-102976742D01*
X94250625Y-102976742D02*
X94203006Y-103071980D01*
X94203006Y-103071980D02*
X94155387Y-103119600D01*
X94155387Y-103119600D02*
X94060149Y-103167219D01*
X94060149Y-103167219D02*
X93774435Y-103167219D01*
X93774435Y-103167219D02*
X93679197Y-103119600D01*
X93679197Y-103119600D02*
X93631578Y-103071980D01*
X94631578Y-102262457D02*
X94679197Y-102214838D01*
X94679197Y-102214838D02*
X94774435Y-102167219D01*
X94774435Y-102167219D02*
X95012530Y-102167219D01*
X95012530Y-102167219D02*
X95107768Y-102214838D01*
X95107768Y-102214838D02*
X95155387Y-102262457D01*
X95155387Y-102262457D02*
X95203006Y-102357695D01*
X95203006Y-102357695D02*
X95203006Y-102452933D01*
X95203006Y-102452933D02*
X95155387Y-102595790D01*
X95155387Y-102595790D02*
X94583959Y-103167219D01*
X94583959Y-103167219D02*
X95203006Y-103167219D01*
X95631578Y-102786266D02*
X96393483Y-102786266D01*
X97441101Y-103071980D02*
X97393482Y-103119600D01*
X97393482Y-103119600D02*
X97250625Y-103167219D01*
X97250625Y-103167219D02*
X97155387Y-103167219D01*
X97155387Y-103167219D02*
X97012530Y-103119600D01*
X97012530Y-103119600D02*
X96917292Y-103024361D01*
X96917292Y-103024361D02*
X96869673Y-102929123D01*
X96869673Y-102929123D02*
X96822054Y-102738647D01*
X96822054Y-102738647D02*
X96822054Y-102595790D01*
X96822054Y-102595790D02*
X96869673Y-102405314D01*
X96869673Y-102405314D02*
X96917292Y-102310076D01*
X96917292Y-102310076D02*
X97012530Y-102214838D01*
X97012530Y-102214838D02*
X97155387Y-102167219D01*
X97155387Y-102167219D02*
X97250625Y-102167219D01*
X97250625Y-102167219D02*
X97393482Y-102214838D01*
X97393482Y-102214838D02*
X97441101Y-102262457D01*
X98298244Y-102167219D02*
X98107768Y-102167219D01*
X98107768Y-102167219D02*
X98012530Y-102214838D01*
X98012530Y-102214838D02*
X97964911Y-102262457D01*
X97964911Y-102262457D02*
X97869673Y-102405314D01*
X97869673Y-102405314D02*
X97822054Y-102595790D01*
X97822054Y-102595790D02*
X97822054Y-102976742D01*
X97822054Y-102976742D02*
X97869673Y-103071980D01*
X97869673Y-103071980D02*
X97917292Y-103119600D01*
X97917292Y-103119600D02*
X98012530Y-103167219D01*
X98012530Y-103167219D02*
X98203006Y-103167219D01*
X98203006Y-103167219D02*
X98298244Y-103119600D01*
X98298244Y-103119600D02*
X98345863Y-103071980D01*
X98345863Y-103071980D02*
X98393482Y-102976742D01*
X98393482Y-102976742D02*
X98393482Y-102738647D01*
X98393482Y-102738647D02*
X98345863Y-102643409D01*
X98345863Y-102643409D02*
X98298244Y-102595790D01*
X98298244Y-102595790D02*
X98203006Y-102548171D01*
X98203006Y-102548171D02*
X98012530Y-102548171D01*
X98012530Y-102548171D02*
X97917292Y-102595790D01*
X97917292Y-102595790D02*
X97869673Y-102643409D01*
X97869673Y-102643409D02*
X97822054Y-102738647D01*
X98822054Y-102786266D02*
X99583959Y-102786266D01*
X99964911Y-102167219D02*
X100631577Y-103167219D01*
X100631577Y-102167219D02*
X99964911Y-103167219D01*
X101012530Y-103167219D02*
X101012530Y-102167219D01*
X101441101Y-102881504D02*
X101917291Y-102881504D01*
X101345863Y-103167219D02*
X101679196Y-102167219D01*
X101679196Y-102167219D02*
X102012529Y-103167219D01*
X102536339Y-102167219D02*
X102726815Y-102167219D01*
X102726815Y-102167219D02*
X102822053Y-102214838D01*
X102822053Y-102214838D02*
X102917291Y-102310076D01*
X102917291Y-102310076D02*
X102964910Y-102500552D01*
X102964910Y-102500552D02*
X102964910Y-102833885D01*
X102964910Y-102833885D02*
X102917291Y-103024361D01*
X102917291Y-103024361D02*
X102822053Y-103119600D01*
X102822053Y-103119600D02*
X102726815Y-103167219D01*
X102726815Y-103167219D02*
X102536339Y-103167219D01*
X102536339Y-103167219D02*
X102441101Y-103119600D01*
X102441101Y-103119600D02*
X102345863Y-103024361D01*
X102345863Y-103024361D02*
X102298244Y-102833885D01*
X102298244Y-102833885D02*
X102298244Y-102500552D01*
X102298244Y-102500552D02*
X102345863Y-102310076D01*
X102345863Y-102310076D02*
X102441101Y-102214838D01*
X102441101Y-102214838D02*
X102536339Y-102167219D01*
X104107768Y-103119600D02*
X104250625Y-103167219D01*
X104250625Y-103167219D02*
X104488720Y-103167219D01*
X104488720Y-103167219D02*
X104583958Y-103119600D01*
X104583958Y-103119600D02*
X104631577Y-103071980D01*
X104631577Y-103071980D02*
X104679196Y-102976742D01*
X104679196Y-102976742D02*
X104679196Y-102881504D01*
X104679196Y-102881504D02*
X104631577Y-102786266D01*
X104631577Y-102786266D02*
X104583958Y-102738647D01*
X104583958Y-102738647D02*
X104488720Y-102691028D01*
X104488720Y-102691028D02*
X104298244Y-102643409D01*
X104298244Y-102643409D02*
X104203006Y-102595790D01*
X104203006Y-102595790D02*
X104155387Y-102548171D01*
X104155387Y-102548171D02*
X104107768Y-102452933D01*
X104107768Y-102452933D02*
X104107768Y-102357695D01*
X104107768Y-102357695D02*
X104155387Y-102262457D01*
X104155387Y-102262457D02*
X104203006Y-102214838D01*
X104203006Y-102214838D02*
X104298244Y-102167219D01*
X104298244Y-102167219D02*
X104536339Y-102167219D01*
X104536339Y-102167219D02*
X104679196Y-102214838D01*
X105107768Y-103167219D02*
X105107768Y-102167219D01*
X105107768Y-102167219D02*
X105488720Y-102167219D01*
X105488720Y-102167219D02*
X105583958Y-102214838D01*
X105583958Y-102214838D02*
X105631577Y-102262457D01*
X105631577Y-102262457D02*
X105679196Y-102357695D01*
X105679196Y-102357695D02*
X105679196Y-102500552D01*
X105679196Y-102500552D02*
X105631577Y-102595790D01*
X105631577Y-102595790D02*
X105583958Y-102643409D01*
X105583958Y-102643409D02*
X105488720Y-102691028D01*
X105488720Y-102691028D02*
X105107768Y-102691028D01*
X106107768Y-103167219D02*
X106107768Y-102167219D01*
X107774434Y-103119600D02*
X107679196Y-103167219D01*
X107679196Y-103167219D02*
X107488720Y-103167219D01*
X107488720Y-103167219D02*
X107393482Y-103119600D01*
X107393482Y-103119600D02*
X107345863Y-103071980D01*
X107345863Y-103071980D02*
X107298244Y-102976742D01*
X107298244Y-102976742D02*
X107298244Y-102691028D01*
X107298244Y-102691028D02*
X107345863Y-102595790D01*
X107345863Y-102595790D02*
X107393482Y-102548171D01*
X107393482Y-102548171D02*
X107488720Y-102500552D01*
X107488720Y-102500552D02*
X107679196Y-102500552D01*
X107679196Y-102500552D02*
X107774434Y-102548171D01*
X108345863Y-103167219D02*
X108250625Y-103119600D01*
X108250625Y-103119600D02*
X108203006Y-103071980D01*
X108203006Y-103071980D02*
X108155387Y-102976742D01*
X108155387Y-102976742D02*
X108155387Y-102691028D01*
X108155387Y-102691028D02*
X108203006Y-102595790D01*
X108203006Y-102595790D02*
X108250625Y-102548171D01*
X108250625Y-102548171D02*
X108345863Y-102500552D01*
X108345863Y-102500552D02*
X108488720Y-102500552D01*
X108488720Y-102500552D02*
X108583958Y-102548171D01*
X108583958Y-102548171D02*
X108631577Y-102595790D01*
X108631577Y-102595790D02*
X108679196Y-102691028D01*
X108679196Y-102691028D02*
X108679196Y-102976742D01*
X108679196Y-102976742D02*
X108631577Y-103071980D01*
X108631577Y-103071980D02*
X108583958Y-103119600D01*
X108583958Y-103119600D02*
X108488720Y-103167219D01*
X108488720Y-103167219D02*
X108345863Y-103167219D01*
X109107768Y-102500552D02*
X109107768Y-103167219D01*
X109107768Y-102595790D02*
X109155387Y-102548171D01*
X109155387Y-102548171D02*
X109250625Y-102500552D01*
X109250625Y-102500552D02*
X109393482Y-102500552D01*
X109393482Y-102500552D02*
X109488720Y-102548171D01*
X109488720Y-102548171D02*
X109536339Y-102643409D01*
X109536339Y-102643409D02*
X109536339Y-103167219D01*
X109869673Y-102500552D02*
X110250625Y-102500552D01*
X110012530Y-102167219D02*
X110012530Y-103024361D01*
X110012530Y-103024361D02*
X110060149Y-103119600D01*
X110060149Y-103119600D02*
X110155387Y-103167219D01*
X110155387Y-103167219D02*
X110250625Y-103167219D01*
X110583959Y-103167219D02*
X110583959Y-102500552D01*
X110583959Y-102691028D02*
X110631578Y-102595790D01*
X110631578Y-102595790D02*
X110679197Y-102548171D01*
X110679197Y-102548171D02*
X110774435Y-102500552D01*
X110774435Y-102500552D02*
X110869673Y-102500552D01*
X111345864Y-103167219D02*
X111250626Y-103119600D01*
X111250626Y-103119600D02*
X111203007Y-103071980D01*
X111203007Y-103071980D02*
X111155388Y-102976742D01*
X111155388Y-102976742D02*
X111155388Y-102691028D01*
X111155388Y-102691028D02*
X111203007Y-102595790D01*
X111203007Y-102595790D02*
X111250626Y-102548171D01*
X111250626Y-102548171D02*
X111345864Y-102500552D01*
X111345864Y-102500552D02*
X111488721Y-102500552D01*
X111488721Y-102500552D02*
X111583959Y-102548171D01*
X111583959Y-102548171D02*
X111631578Y-102595790D01*
X111631578Y-102595790D02*
X111679197Y-102691028D01*
X111679197Y-102691028D02*
X111679197Y-102976742D01*
X111679197Y-102976742D02*
X111631578Y-103071980D01*
X111631578Y-103071980D02*
X111583959Y-103119600D01*
X111583959Y-103119600D02*
X111488721Y-103167219D01*
X111488721Y-103167219D02*
X111345864Y-103167219D01*
X112250626Y-103167219D02*
X112155388Y-103119600D01*
X112155388Y-103119600D02*
X112107769Y-103024361D01*
X112107769Y-103024361D02*
X112107769Y-102167219D01*
X112774436Y-103167219D02*
X112679198Y-103119600D01*
X112679198Y-103119600D02*
X112631579Y-103024361D01*
X112631579Y-103024361D02*
X112631579Y-102167219D01*
X113536341Y-103119600D02*
X113441103Y-103167219D01*
X113441103Y-103167219D02*
X113250627Y-103167219D01*
X113250627Y-103167219D02*
X113155389Y-103119600D01*
X113155389Y-103119600D02*
X113107770Y-103024361D01*
X113107770Y-103024361D02*
X113107770Y-102643409D01*
X113107770Y-102643409D02*
X113155389Y-102548171D01*
X113155389Y-102548171D02*
X113250627Y-102500552D01*
X113250627Y-102500552D02*
X113441103Y-102500552D01*
X113441103Y-102500552D02*
X113536341Y-102548171D01*
X113536341Y-102548171D02*
X113583960Y-102643409D01*
X113583960Y-102643409D02*
X113583960Y-102738647D01*
X113583960Y-102738647D02*
X113107770Y-102833885D01*
X114012532Y-103167219D02*
X114012532Y-102500552D01*
X114012532Y-102691028D02*
X114060151Y-102595790D01*
X114060151Y-102595790D02*
X114107770Y-102548171D01*
X114107770Y-102548171D02*
X114203008Y-102500552D01*
X114203008Y-102500552D02*
X114298246Y-102500552D01*
D11*
X119542857Y-77248080D02*
X119495238Y-77295700D01*
X119495238Y-77295700D02*
X119352381Y-77343319D01*
X119352381Y-77343319D02*
X119257143Y-77343319D01*
X119257143Y-77343319D02*
X119114286Y-77295700D01*
X119114286Y-77295700D02*
X119019048Y-77200461D01*
X119019048Y-77200461D02*
X118971429Y-77105223D01*
X118971429Y-77105223D02*
X118923810Y-76914747D01*
X118923810Y-76914747D02*
X118923810Y-76771890D01*
X118923810Y-76771890D02*
X118971429Y-76581414D01*
X118971429Y-76581414D02*
X119019048Y-76486176D01*
X119019048Y-76486176D02*
X119114286Y-76390938D01*
X119114286Y-76390938D02*
X119257143Y-76343319D01*
X119257143Y-76343319D02*
X119352381Y-76343319D01*
X119352381Y-76343319D02*
X119495238Y-76390938D01*
X119495238Y-76390938D02*
X119542857Y-76438557D01*
X119923810Y-77295700D02*
X120066667Y-77343319D01*
X120066667Y-77343319D02*
X120304762Y-77343319D01*
X120304762Y-77343319D02*
X120400000Y-77295700D01*
X120400000Y-77295700D02*
X120447619Y-77248080D01*
X120447619Y-77248080D02*
X120495238Y-77152842D01*
X120495238Y-77152842D02*
X120495238Y-77057604D01*
X120495238Y-77057604D02*
X120447619Y-76962366D01*
X120447619Y-76962366D02*
X120400000Y-76914747D01*
X120400000Y-76914747D02*
X120304762Y-76867128D01*
X120304762Y-76867128D02*
X120114286Y-76819509D01*
X120114286Y-76819509D02*
X120019048Y-76771890D01*
X120019048Y-76771890D02*
X119971429Y-76724271D01*
X119971429Y-76724271D02*
X119923810Y-76629033D01*
X119923810Y-76629033D02*
X119923810Y-76533795D01*
X119923810Y-76533795D02*
X119971429Y-76438557D01*
X119971429Y-76438557D02*
X120019048Y-76390938D01*
X120019048Y-76390938D02*
X120114286Y-76343319D01*
X120114286Y-76343319D02*
X120352381Y-76343319D01*
X120352381Y-76343319D02*
X120495238Y-76390938D01*
X121352381Y-76343319D02*
X121161905Y-76343319D01*
X121161905Y-76343319D02*
X121066667Y-76390938D01*
X121066667Y-76390938D02*
X121019048Y-76438557D01*
X121019048Y-76438557D02*
X120923810Y-76581414D01*
X120923810Y-76581414D02*
X120876191Y-76771890D01*
X120876191Y-76771890D02*
X120876191Y-77152842D01*
X120876191Y-77152842D02*
X120923810Y-77248080D01*
X120923810Y-77248080D02*
X120971429Y-77295700D01*
X120971429Y-77295700D02*
X121066667Y-77343319D01*
X121066667Y-77343319D02*
X121257143Y-77343319D01*
X121257143Y-77343319D02*
X121352381Y-77295700D01*
X121352381Y-77295700D02*
X121400000Y-77248080D01*
X121400000Y-77248080D02*
X121447619Y-77152842D01*
X121447619Y-77152842D02*
X121447619Y-76914747D01*
X121447619Y-76914747D02*
X121400000Y-76819509D01*
X121400000Y-76819509D02*
X121352381Y-76771890D01*
X121352381Y-76771890D02*
X121257143Y-76724271D01*
X121257143Y-76724271D02*
X121066667Y-76724271D01*
X121066667Y-76724271D02*
X120971429Y-76771890D01*
X120971429Y-76771890D02*
X120923810Y-76819509D01*
X120923810Y-76819509D02*
X120876191Y-76914747D01*
X121638096Y-77438557D02*
X122400000Y-77438557D01*
X122828572Y-76343319D02*
X122923810Y-76343319D01*
X122923810Y-76343319D02*
X123019048Y-76390938D01*
X123019048Y-76390938D02*
X123066667Y-76438557D01*
X123066667Y-76438557D02*
X123114286Y-76533795D01*
X123114286Y-76533795D02*
X123161905Y-76724271D01*
X123161905Y-76724271D02*
X123161905Y-76962366D01*
X123161905Y-76962366D02*
X123114286Y-77152842D01*
X123114286Y-77152842D02*
X123066667Y-77248080D01*
X123066667Y-77248080D02*
X123019048Y-77295700D01*
X123019048Y-77295700D02*
X122923810Y-77343319D01*
X122923810Y-77343319D02*
X122828572Y-77343319D01*
X122828572Y-77343319D02*
X122733334Y-77295700D01*
X122733334Y-77295700D02*
X122685715Y-77248080D01*
X122685715Y-77248080D02*
X122638096Y-77152842D01*
X122638096Y-77152842D02*
X122590477Y-76962366D01*
X122590477Y-76962366D02*
X122590477Y-76724271D01*
X122590477Y-76724271D02*
X122638096Y-76533795D01*
X122638096Y-76533795D02*
X122685715Y-76438557D01*
X122685715Y-76438557D02*
X122733334Y-76390938D01*
X122733334Y-76390938D02*
X122828572Y-76343319D01*
X123590477Y-77248080D02*
X123638096Y-77295700D01*
X123638096Y-77295700D02*
X123590477Y-77343319D01*
X123590477Y-77343319D02*
X123542858Y-77295700D01*
X123542858Y-77295700D02*
X123590477Y-77248080D01*
X123590477Y-77248080D02*
X123590477Y-77343319D01*
X124542857Y-76343319D02*
X124066667Y-76343319D01*
X124066667Y-76343319D02*
X124019048Y-76819509D01*
X124019048Y-76819509D02*
X124066667Y-76771890D01*
X124066667Y-76771890D02*
X124161905Y-76724271D01*
X124161905Y-76724271D02*
X124400000Y-76724271D01*
X124400000Y-76724271D02*
X124495238Y-76771890D01*
X124495238Y-76771890D02*
X124542857Y-76819509D01*
X124542857Y-76819509D02*
X124590476Y-76914747D01*
X124590476Y-76914747D02*
X124590476Y-77152842D01*
X124590476Y-77152842D02*
X124542857Y-77248080D01*
X124542857Y-77248080D02*
X124495238Y-77295700D01*
X124495238Y-77295700D02*
X124400000Y-77343319D01*
X124400000Y-77343319D02*
X124161905Y-77343319D01*
X124161905Y-77343319D02*
X124066667Y-77295700D01*
X124066667Y-77295700D02*
X124019048Y-77248080D01*
X92210714Y-108359580D02*
X92163095Y-108407200D01*
X92163095Y-108407200D02*
X92020238Y-108454819D01*
X92020238Y-108454819D02*
X91925000Y-108454819D01*
X91925000Y-108454819D02*
X91782143Y-108407200D01*
X91782143Y-108407200D02*
X91686905Y-108311961D01*
X91686905Y-108311961D02*
X91639286Y-108216723D01*
X91639286Y-108216723D02*
X91591667Y-108026247D01*
X91591667Y-108026247D02*
X91591667Y-107883390D01*
X91591667Y-107883390D02*
X91639286Y-107692914D01*
X91639286Y-107692914D02*
X91686905Y-107597676D01*
X91686905Y-107597676D02*
X91782143Y-107502438D01*
X91782143Y-107502438D02*
X91925000Y-107454819D01*
X91925000Y-107454819D02*
X92020238Y-107454819D01*
X92020238Y-107454819D02*
X92163095Y-107502438D01*
X92163095Y-107502438D02*
X92210714Y-107550057D01*
X92591667Y-108407200D02*
X92734524Y-108454819D01*
X92734524Y-108454819D02*
X92972619Y-108454819D01*
X92972619Y-108454819D02*
X93067857Y-108407200D01*
X93067857Y-108407200D02*
X93115476Y-108359580D01*
X93115476Y-108359580D02*
X93163095Y-108264342D01*
X93163095Y-108264342D02*
X93163095Y-108169104D01*
X93163095Y-108169104D02*
X93115476Y-108073866D01*
X93115476Y-108073866D02*
X93067857Y-108026247D01*
X93067857Y-108026247D02*
X92972619Y-107978628D01*
X92972619Y-107978628D02*
X92782143Y-107931009D01*
X92782143Y-107931009D02*
X92686905Y-107883390D01*
X92686905Y-107883390D02*
X92639286Y-107835771D01*
X92639286Y-107835771D02*
X92591667Y-107740533D01*
X92591667Y-107740533D02*
X92591667Y-107645295D01*
X92591667Y-107645295D02*
X92639286Y-107550057D01*
X92639286Y-107550057D02*
X92686905Y-107502438D01*
X92686905Y-107502438D02*
X92782143Y-107454819D01*
X92782143Y-107454819D02*
X93020238Y-107454819D01*
X93020238Y-107454819D02*
X93163095Y-107502438D01*
X93496429Y-107454819D02*
X94115476Y-107454819D01*
X94115476Y-107454819D02*
X93782143Y-107835771D01*
X93782143Y-107835771D02*
X93925000Y-107835771D01*
X93925000Y-107835771D02*
X94020238Y-107883390D01*
X94020238Y-107883390D02*
X94067857Y-107931009D01*
X94067857Y-107931009D02*
X94115476Y-108026247D01*
X94115476Y-108026247D02*
X94115476Y-108264342D01*
X94115476Y-108264342D02*
X94067857Y-108359580D01*
X94067857Y-108359580D02*
X94020238Y-108407200D01*
X94020238Y-108407200D02*
X93925000Y-108454819D01*
X93925000Y-108454819D02*
X93639286Y-108454819D01*
X93639286Y-108454819D02*
X93544048Y-108407200D01*
X93544048Y-108407200D02*
X93496429Y-108359580D01*
X94305953Y-108550057D02*
X95067857Y-108550057D01*
X95829762Y-108454819D02*
X95258334Y-108454819D01*
X95544048Y-108454819D02*
X95544048Y-107454819D01*
X95544048Y-107454819D02*
X95448810Y-107597676D01*
X95448810Y-107597676D02*
X95353572Y-107692914D01*
X95353572Y-107692914D02*
X95258334Y-107740533D01*
X96258334Y-108359580D02*
X96305953Y-108407200D01*
X96305953Y-108407200D02*
X96258334Y-108454819D01*
X96258334Y-108454819D02*
X96210715Y-108407200D01*
X96210715Y-108407200D02*
X96258334Y-108359580D01*
X96258334Y-108359580D02*
X96258334Y-108454819D01*
X96925000Y-107454819D02*
X97020238Y-107454819D01*
X97020238Y-107454819D02*
X97115476Y-107502438D01*
X97115476Y-107502438D02*
X97163095Y-107550057D01*
X97163095Y-107550057D02*
X97210714Y-107645295D01*
X97210714Y-107645295D02*
X97258333Y-107835771D01*
X97258333Y-107835771D02*
X97258333Y-108073866D01*
X97258333Y-108073866D02*
X97210714Y-108264342D01*
X97210714Y-108264342D02*
X97163095Y-108359580D01*
X97163095Y-108359580D02*
X97115476Y-108407200D01*
X97115476Y-108407200D02*
X97020238Y-108454819D01*
X97020238Y-108454819D02*
X96925000Y-108454819D01*
X96925000Y-108454819D02*
X96829762Y-108407200D01*
X96829762Y-108407200D02*
X96782143Y-108359580D01*
X96782143Y-108359580D02*
X96734524Y-108264342D01*
X96734524Y-108264342D02*
X96686905Y-108073866D01*
X96686905Y-108073866D02*
X96686905Y-107835771D01*
X96686905Y-107835771D02*
X96734524Y-107645295D01*
X96734524Y-107645295D02*
X96782143Y-107550057D01*
X96782143Y-107550057D02*
X96829762Y-107502438D01*
X96829762Y-107502438D02*
X96925000Y-107454819D01*
X92966666Y-82254819D02*
X92966666Y-82969104D01*
X92966666Y-82969104D02*
X92919047Y-83111961D01*
X92919047Y-83111961D02*
X92823809Y-83207200D01*
X92823809Y-83207200D02*
X92680952Y-83254819D01*
X92680952Y-83254819D02*
X92585714Y-83254819D01*
X93966666Y-83254819D02*
X93395238Y-83254819D01*
X93680952Y-83254819D02*
X93680952Y-82254819D01*
X93680952Y-82254819D02*
X93585714Y-82397676D01*
X93585714Y-82397676D02*
X93490476Y-82492914D01*
X93490476Y-82492914D02*
X93395238Y-82540533D01*
X99052380Y-82254819D02*
X99052380Y-82969104D01*
X99052380Y-82969104D02*
X99004761Y-83111961D01*
X99004761Y-83111961D02*
X98909523Y-83207200D01*
X98909523Y-83207200D02*
X98766666Y-83254819D01*
X98766666Y-83254819D02*
X98671428Y-83254819D01*
X99480952Y-82350057D02*
X99528571Y-82302438D01*
X99528571Y-82302438D02*
X99623809Y-82254819D01*
X99623809Y-82254819D02*
X99861904Y-82254819D01*
X99861904Y-82254819D02*
X99957142Y-82302438D01*
X99957142Y-82302438D02*
X100004761Y-82350057D01*
X100004761Y-82350057D02*
X100052380Y-82445295D01*
X100052380Y-82445295D02*
X100052380Y-82540533D01*
X100052380Y-82540533D02*
X100004761Y-82683390D01*
X100004761Y-82683390D02*
X99433333Y-83254819D01*
X99433333Y-83254819D02*
X100052380Y-83254819D01*
X105138095Y-82254819D02*
X105138095Y-82969104D01*
X105138095Y-82969104D02*
X105090476Y-83111961D01*
X105090476Y-83111961D02*
X104995238Y-83207200D01*
X104995238Y-83207200D02*
X104852381Y-83254819D01*
X104852381Y-83254819D02*
X104757143Y-83254819D01*
X105519048Y-82254819D02*
X106138095Y-82254819D01*
X106138095Y-82254819D02*
X105804762Y-82635771D01*
X105804762Y-82635771D02*
X105947619Y-82635771D01*
X105947619Y-82635771D02*
X106042857Y-82683390D01*
X106042857Y-82683390D02*
X106090476Y-82731009D01*
X106090476Y-82731009D02*
X106138095Y-82826247D01*
X106138095Y-82826247D02*
X106138095Y-83064342D01*
X106138095Y-83064342D02*
X106090476Y-83159580D01*
X106090476Y-83159580D02*
X106042857Y-83207200D01*
X106042857Y-83207200D02*
X105947619Y-83254819D01*
X105947619Y-83254819D02*
X105661905Y-83254819D01*
X105661905Y-83254819D02*
X105566667Y-83207200D01*
X105566667Y-83207200D02*
X105519048Y-83159580D01*
X135566666Y-82254819D02*
X135566666Y-82969104D01*
X135566666Y-82969104D02*
X135519047Y-83111961D01*
X135519047Y-83111961D02*
X135423809Y-83207200D01*
X135423809Y-83207200D02*
X135280952Y-83254819D01*
X135280952Y-83254819D02*
X135185714Y-83254819D01*
X136185714Y-82683390D02*
X136090476Y-82635771D01*
X136090476Y-82635771D02*
X136042857Y-82588152D01*
X136042857Y-82588152D02*
X135995238Y-82492914D01*
X135995238Y-82492914D02*
X135995238Y-82445295D01*
X135995238Y-82445295D02*
X136042857Y-82350057D01*
X136042857Y-82350057D02*
X136090476Y-82302438D01*
X136090476Y-82302438D02*
X136185714Y-82254819D01*
X136185714Y-82254819D02*
X136376190Y-82254819D01*
X136376190Y-82254819D02*
X136471428Y-82302438D01*
X136471428Y-82302438D02*
X136519047Y-82350057D01*
X136519047Y-82350057D02*
X136566666Y-82445295D01*
X136566666Y-82445295D02*
X136566666Y-82492914D01*
X136566666Y-82492914D02*
X136519047Y-82588152D01*
X136519047Y-82588152D02*
X136471428Y-82635771D01*
X136471428Y-82635771D02*
X136376190Y-82683390D01*
X136376190Y-82683390D02*
X136185714Y-82683390D01*
X136185714Y-82683390D02*
X136090476Y-82731009D01*
X136090476Y-82731009D02*
X136042857Y-82778628D01*
X136042857Y-82778628D02*
X135995238Y-82873866D01*
X135995238Y-82873866D02*
X135995238Y-83064342D01*
X135995238Y-83064342D02*
X136042857Y-83159580D01*
X136042857Y-83159580D02*
X136090476Y-83207200D01*
X136090476Y-83207200D02*
X136185714Y-83254819D01*
X136185714Y-83254819D02*
X136376190Y-83254819D01*
X136376190Y-83254819D02*
X136471428Y-83207200D01*
X136471428Y-83207200D02*
X136519047Y-83159580D01*
X136519047Y-83159580D02*
X136566666Y-83064342D01*
X136566666Y-83064342D02*
X136566666Y-82873866D01*
X136566666Y-82873866D02*
X136519047Y-82778628D01*
X136519047Y-82778628D02*
X136471428Y-82731009D01*
X136471428Y-82731009D02*
X136376190Y-82683390D01*
X129480952Y-82254819D02*
X129480952Y-82969104D01*
X129480952Y-82969104D02*
X129433333Y-83111961D01*
X129433333Y-83111961D02*
X129338095Y-83207200D01*
X129338095Y-83207200D02*
X129195238Y-83254819D01*
X129195238Y-83254819D02*
X129100000Y-83254819D01*
X129861905Y-82254819D02*
X130528571Y-82254819D01*
X130528571Y-82254819D02*
X130100000Y-83254819D01*
X123395237Y-82254819D02*
X123395237Y-82969104D01*
X123395237Y-82969104D02*
X123347618Y-83111961D01*
X123347618Y-83111961D02*
X123252380Y-83207200D01*
X123252380Y-83207200D02*
X123109523Y-83254819D01*
X123109523Y-83254819D02*
X123014285Y-83254819D01*
X124299999Y-82254819D02*
X124109523Y-82254819D01*
X124109523Y-82254819D02*
X124014285Y-82302438D01*
X124014285Y-82302438D02*
X123966666Y-82350057D01*
X123966666Y-82350057D02*
X123871428Y-82492914D01*
X123871428Y-82492914D02*
X123823809Y-82683390D01*
X123823809Y-82683390D02*
X123823809Y-83064342D01*
X123823809Y-83064342D02*
X123871428Y-83159580D01*
X123871428Y-83159580D02*
X123919047Y-83207200D01*
X123919047Y-83207200D02*
X124014285Y-83254819D01*
X124014285Y-83254819D02*
X124204761Y-83254819D01*
X124204761Y-83254819D02*
X124299999Y-83207200D01*
X124299999Y-83207200D02*
X124347618Y-83159580D01*
X124347618Y-83159580D02*
X124395237Y-83064342D01*
X124395237Y-83064342D02*
X124395237Y-82826247D01*
X124395237Y-82826247D02*
X124347618Y-82731009D01*
X124347618Y-82731009D02*
X124299999Y-82683390D01*
X124299999Y-82683390D02*
X124204761Y-82635771D01*
X124204761Y-82635771D02*
X124014285Y-82635771D01*
X124014285Y-82635771D02*
X123919047Y-82683390D01*
X123919047Y-82683390D02*
X123871428Y-82731009D01*
X123871428Y-82731009D02*
X123823809Y-82826247D01*
X117309523Y-82254819D02*
X117309523Y-82969104D01*
X117309523Y-82969104D02*
X117261904Y-83111961D01*
X117261904Y-83111961D02*
X117166666Y-83207200D01*
X117166666Y-83207200D02*
X117023809Y-83254819D01*
X117023809Y-83254819D02*
X116928571Y-83254819D01*
X118261904Y-82254819D02*
X117785714Y-82254819D01*
X117785714Y-82254819D02*
X117738095Y-82731009D01*
X117738095Y-82731009D02*
X117785714Y-82683390D01*
X117785714Y-82683390D02*
X117880952Y-82635771D01*
X117880952Y-82635771D02*
X118119047Y-82635771D01*
X118119047Y-82635771D02*
X118214285Y-82683390D01*
X118214285Y-82683390D02*
X118261904Y-82731009D01*
X118261904Y-82731009D02*
X118309523Y-82826247D01*
X118309523Y-82826247D02*
X118309523Y-83064342D01*
X118309523Y-83064342D02*
X118261904Y-83159580D01*
X118261904Y-83159580D02*
X118214285Y-83207200D01*
X118214285Y-83207200D02*
X118119047Y-83254819D01*
X118119047Y-83254819D02*
X117880952Y-83254819D01*
X117880952Y-83254819D02*
X117785714Y-83207200D01*
X117785714Y-83207200D02*
X117738095Y-83159580D01*
X111223809Y-82254819D02*
X111223809Y-82969104D01*
X111223809Y-82969104D02*
X111176190Y-83111961D01*
X111176190Y-83111961D02*
X111080952Y-83207200D01*
X111080952Y-83207200D02*
X110938095Y-83254819D01*
X110938095Y-83254819D02*
X110842857Y-83254819D01*
X112128571Y-82588152D02*
X112128571Y-83254819D01*
X111890476Y-82207200D02*
X111652381Y-82921485D01*
X111652381Y-82921485D02*
X112271428Y-82921485D01*
X128514285Y-77248080D02*
X128466666Y-77295700D01*
X128466666Y-77295700D02*
X128323809Y-77343319D01*
X128323809Y-77343319D02*
X128228571Y-77343319D01*
X128228571Y-77343319D02*
X128085714Y-77295700D01*
X128085714Y-77295700D02*
X127990476Y-77200461D01*
X127990476Y-77200461D02*
X127942857Y-77105223D01*
X127942857Y-77105223D02*
X127895238Y-76914747D01*
X127895238Y-76914747D02*
X127895238Y-76771890D01*
X127895238Y-76771890D02*
X127942857Y-76581414D01*
X127942857Y-76581414D02*
X127990476Y-76486176D01*
X127990476Y-76486176D02*
X128085714Y-76390938D01*
X128085714Y-76390938D02*
X128228571Y-76343319D01*
X128228571Y-76343319D02*
X128323809Y-76343319D01*
X128323809Y-76343319D02*
X128466666Y-76390938D01*
X128466666Y-76390938D02*
X128514285Y-76438557D01*
X128895238Y-77295700D02*
X129038095Y-77343319D01*
X129038095Y-77343319D02*
X129276190Y-77343319D01*
X129276190Y-77343319D02*
X129371428Y-77295700D01*
X129371428Y-77295700D02*
X129419047Y-77248080D01*
X129419047Y-77248080D02*
X129466666Y-77152842D01*
X129466666Y-77152842D02*
X129466666Y-77057604D01*
X129466666Y-77057604D02*
X129419047Y-76962366D01*
X129419047Y-76962366D02*
X129371428Y-76914747D01*
X129371428Y-76914747D02*
X129276190Y-76867128D01*
X129276190Y-76867128D02*
X129085714Y-76819509D01*
X129085714Y-76819509D02*
X128990476Y-76771890D01*
X128990476Y-76771890D02*
X128942857Y-76724271D01*
X128942857Y-76724271D02*
X128895238Y-76629033D01*
X128895238Y-76629033D02*
X128895238Y-76533795D01*
X128895238Y-76533795D02*
X128942857Y-76438557D01*
X128942857Y-76438557D02*
X128990476Y-76390938D01*
X128990476Y-76390938D02*
X129085714Y-76343319D01*
X129085714Y-76343319D02*
X129323809Y-76343319D01*
X129323809Y-76343319D02*
X129466666Y-76390938D01*
X129800000Y-76343319D02*
X130466666Y-76343319D01*
X130466666Y-76343319D02*
X130038095Y-77343319D01*
X130609524Y-77438557D02*
X131371428Y-77438557D01*
X131800000Y-76343319D02*
X131895238Y-76343319D01*
X131895238Y-76343319D02*
X131990476Y-76390938D01*
X131990476Y-76390938D02*
X132038095Y-76438557D01*
X132038095Y-76438557D02*
X132085714Y-76533795D01*
X132085714Y-76533795D02*
X132133333Y-76724271D01*
X132133333Y-76724271D02*
X132133333Y-76962366D01*
X132133333Y-76962366D02*
X132085714Y-77152842D01*
X132085714Y-77152842D02*
X132038095Y-77248080D01*
X132038095Y-77248080D02*
X131990476Y-77295700D01*
X131990476Y-77295700D02*
X131895238Y-77343319D01*
X131895238Y-77343319D02*
X131800000Y-77343319D01*
X131800000Y-77343319D02*
X131704762Y-77295700D01*
X131704762Y-77295700D02*
X131657143Y-77248080D01*
X131657143Y-77248080D02*
X131609524Y-77152842D01*
X131609524Y-77152842D02*
X131561905Y-76962366D01*
X131561905Y-76962366D02*
X131561905Y-76724271D01*
X131561905Y-76724271D02*
X131609524Y-76533795D01*
X131609524Y-76533795D02*
X131657143Y-76438557D01*
X131657143Y-76438557D02*
X131704762Y-76390938D01*
X131704762Y-76390938D02*
X131800000Y-76343319D01*
X132561905Y-77248080D02*
X132609524Y-77295700D01*
X132609524Y-77295700D02*
X132561905Y-77343319D01*
X132561905Y-77343319D02*
X132514286Y-77295700D01*
X132514286Y-77295700D02*
X132561905Y-77248080D01*
X132561905Y-77248080D02*
X132561905Y-77343319D01*
X133514285Y-76343319D02*
X133038095Y-76343319D01*
X133038095Y-76343319D02*
X132990476Y-76819509D01*
X132990476Y-76819509D02*
X133038095Y-76771890D01*
X133038095Y-76771890D02*
X133133333Y-76724271D01*
X133133333Y-76724271D02*
X133371428Y-76724271D01*
X133371428Y-76724271D02*
X133466666Y-76771890D01*
X133466666Y-76771890D02*
X133514285Y-76819509D01*
X133514285Y-76819509D02*
X133561904Y-76914747D01*
X133561904Y-76914747D02*
X133561904Y-77152842D01*
X133561904Y-77152842D02*
X133514285Y-77248080D01*
X133514285Y-77248080D02*
X133466666Y-77295700D01*
X133466666Y-77295700D02*
X133371428Y-77343319D01*
X133371428Y-77343319D02*
X133133333Y-77343319D01*
X133133333Y-77343319D02*
X133038095Y-77295700D01*
X133038095Y-77295700D02*
X132990476Y-77248080D01*
X141359580Y-105414285D02*
X141407200Y-105461904D01*
X141407200Y-105461904D02*
X141454819Y-105604761D01*
X141454819Y-105604761D02*
X141454819Y-105699999D01*
X141454819Y-105699999D02*
X141407200Y-105842856D01*
X141407200Y-105842856D02*
X141311961Y-105938094D01*
X141311961Y-105938094D02*
X141216723Y-105985713D01*
X141216723Y-105985713D02*
X141026247Y-106033332D01*
X141026247Y-106033332D02*
X140883390Y-106033332D01*
X140883390Y-106033332D02*
X140692914Y-105985713D01*
X140692914Y-105985713D02*
X140597676Y-105938094D01*
X140597676Y-105938094D02*
X140502438Y-105842856D01*
X140502438Y-105842856D02*
X140454819Y-105699999D01*
X140454819Y-105699999D02*
X140454819Y-105604761D01*
X140454819Y-105604761D02*
X140502438Y-105461904D01*
X140502438Y-105461904D02*
X140550057Y-105414285D01*
X141407200Y-105033332D02*
X141454819Y-104890475D01*
X141454819Y-104890475D02*
X141454819Y-104652380D01*
X141454819Y-104652380D02*
X141407200Y-104557142D01*
X141407200Y-104557142D02*
X141359580Y-104509523D01*
X141359580Y-104509523D02*
X141264342Y-104461904D01*
X141264342Y-104461904D02*
X141169104Y-104461904D01*
X141169104Y-104461904D02*
X141073866Y-104509523D01*
X141073866Y-104509523D02*
X141026247Y-104557142D01*
X141026247Y-104557142D02*
X140978628Y-104652380D01*
X140978628Y-104652380D02*
X140931009Y-104842856D01*
X140931009Y-104842856D02*
X140883390Y-104938094D01*
X140883390Y-104938094D02*
X140835771Y-104985713D01*
X140835771Y-104985713D02*
X140740533Y-105033332D01*
X140740533Y-105033332D02*
X140645295Y-105033332D01*
X140645295Y-105033332D02*
X140550057Y-104985713D01*
X140550057Y-104985713D02*
X140502438Y-104938094D01*
X140502438Y-104938094D02*
X140454819Y-104842856D01*
X140454819Y-104842856D02*
X140454819Y-104604761D01*
X140454819Y-104604761D02*
X140502438Y-104461904D01*
X140454819Y-104128570D02*
X140454819Y-103461904D01*
X140454819Y-103461904D02*
X141454819Y-103890475D01*
X141550057Y-103319047D02*
X141550057Y-102557142D01*
X141454819Y-101795237D02*
X141454819Y-102366665D01*
X141454819Y-102080951D02*
X140454819Y-102080951D01*
X140454819Y-102080951D02*
X140597676Y-102176189D01*
X140597676Y-102176189D02*
X140692914Y-102271427D01*
X140692914Y-102271427D02*
X140740533Y-102366665D01*
X141359580Y-101366665D02*
X141407200Y-101319046D01*
X141407200Y-101319046D02*
X141454819Y-101366665D01*
X141454819Y-101366665D02*
X141407200Y-101414284D01*
X141407200Y-101414284D02*
X141359580Y-101366665D01*
X141359580Y-101366665D02*
X141454819Y-101366665D01*
X140454819Y-100699999D02*
X140454819Y-100604761D01*
X140454819Y-100604761D02*
X140502438Y-100509523D01*
X140502438Y-100509523D02*
X140550057Y-100461904D01*
X140550057Y-100461904D02*
X140645295Y-100414285D01*
X140645295Y-100414285D02*
X140835771Y-100366666D01*
X140835771Y-100366666D02*
X141073866Y-100366666D01*
X141073866Y-100366666D02*
X141264342Y-100414285D01*
X141264342Y-100414285D02*
X141359580Y-100461904D01*
X141359580Y-100461904D02*
X141407200Y-100509523D01*
X141407200Y-100509523D02*
X141454819Y-100604761D01*
X141454819Y-100604761D02*
X141454819Y-100699999D01*
X141454819Y-100699999D02*
X141407200Y-100795237D01*
X141407200Y-100795237D02*
X141359580Y-100842856D01*
X141359580Y-100842856D02*
X141264342Y-100890475D01*
X141264342Y-100890475D02*
X141073866Y-100938094D01*
X141073866Y-100938094D02*
X140835771Y-100938094D01*
X140835771Y-100938094D02*
X140645295Y-100890475D01*
X140645295Y-100890475D02*
X140550057Y-100842856D01*
X140550057Y-100842856D02*
X140502438Y-100795237D01*
X140502438Y-100795237D02*
X140454819Y-100699999D01*
X119060714Y-108559580D02*
X119013095Y-108607200D01*
X119013095Y-108607200D02*
X118870238Y-108654819D01*
X118870238Y-108654819D02*
X118775000Y-108654819D01*
X118775000Y-108654819D02*
X118632143Y-108607200D01*
X118632143Y-108607200D02*
X118536905Y-108511961D01*
X118536905Y-108511961D02*
X118489286Y-108416723D01*
X118489286Y-108416723D02*
X118441667Y-108226247D01*
X118441667Y-108226247D02*
X118441667Y-108083390D01*
X118441667Y-108083390D02*
X118489286Y-107892914D01*
X118489286Y-107892914D02*
X118536905Y-107797676D01*
X118536905Y-107797676D02*
X118632143Y-107702438D01*
X118632143Y-107702438D02*
X118775000Y-107654819D01*
X118775000Y-107654819D02*
X118870238Y-107654819D01*
X118870238Y-107654819D02*
X119013095Y-107702438D01*
X119013095Y-107702438D02*
X119060714Y-107750057D01*
X119441667Y-108607200D02*
X119584524Y-108654819D01*
X119584524Y-108654819D02*
X119822619Y-108654819D01*
X119822619Y-108654819D02*
X119917857Y-108607200D01*
X119917857Y-108607200D02*
X119965476Y-108559580D01*
X119965476Y-108559580D02*
X120013095Y-108464342D01*
X120013095Y-108464342D02*
X120013095Y-108369104D01*
X120013095Y-108369104D02*
X119965476Y-108273866D01*
X119965476Y-108273866D02*
X119917857Y-108226247D01*
X119917857Y-108226247D02*
X119822619Y-108178628D01*
X119822619Y-108178628D02*
X119632143Y-108131009D01*
X119632143Y-108131009D02*
X119536905Y-108083390D01*
X119536905Y-108083390D02*
X119489286Y-108035771D01*
X119489286Y-108035771D02*
X119441667Y-107940533D01*
X119441667Y-107940533D02*
X119441667Y-107845295D01*
X119441667Y-107845295D02*
X119489286Y-107750057D01*
X119489286Y-107750057D02*
X119536905Y-107702438D01*
X119536905Y-107702438D02*
X119632143Y-107654819D01*
X119632143Y-107654819D02*
X119870238Y-107654819D01*
X119870238Y-107654819D02*
X120013095Y-107702438D01*
X120917857Y-107654819D02*
X120441667Y-107654819D01*
X120441667Y-107654819D02*
X120394048Y-108131009D01*
X120394048Y-108131009D02*
X120441667Y-108083390D01*
X120441667Y-108083390D02*
X120536905Y-108035771D01*
X120536905Y-108035771D02*
X120775000Y-108035771D01*
X120775000Y-108035771D02*
X120870238Y-108083390D01*
X120870238Y-108083390D02*
X120917857Y-108131009D01*
X120917857Y-108131009D02*
X120965476Y-108226247D01*
X120965476Y-108226247D02*
X120965476Y-108464342D01*
X120965476Y-108464342D02*
X120917857Y-108559580D01*
X120917857Y-108559580D02*
X120870238Y-108607200D01*
X120870238Y-108607200D02*
X120775000Y-108654819D01*
X120775000Y-108654819D02*
X120536905Y-108654819D01*
X120536905Y-108654819D02*
X120441667Y-108607200D01*
X120441667Y-108607200D02*
X120394048Y-108559580D01*
X121155953Y-108750057D02*
X121917857Y-108750057D01*
X122679762Y-108654819D02*
X122108334Y-108654819D01*
X122394048Y-108654819D02*
X122394048Y-107654819D01*
X122394048Y-107654819D02*
X122298810Y-107797676D01*
X122298810Y-107797676D02*
X122203572Y-107892914D01*
X122203572Y-107892914D02*
X122108334Y-107940533D01*
X123108334Y-108559580D02*
X123155953Y-108607200D01*
X123155953Y-108607200D02*
X123108334Y-108654819D01*
X123108334Y-108654819D02*
X123060715Y-108607200D01*
X123060715Y-108607200D02*
X123108334Y-108559580D01*
X123108334Y-108559580D02*
X123108334Y-108654819D01*
X123775000Y-107654819D02*
X123870238Y-107654819D01*
X123870238Y-107654819D02*
X123965476Y-107702438D01*
X123965476Y-107702438D02*
X124013095Y-107750057D01*
X124013095Y-107750057D02*
X124060714Y-107845295D01*
X124060714Y-107845295D02*
X124108333Y-108035771D01*
X124108333Y-108035771D02*
X124108333Y-108273866D01*
X124108333Y-108273866D02*
X124060714Y-108464342D01*
X124060714Y-108464342D02*
X124013095Y-108559580D01*
X124013095Y-108559580D02*
X123965476Y-108607200D01*
X123965476Y-108607200D02*
X123870238Y-108654819D01*
X123870238Y-108654819D02*
X123775000Y-108654819D01*
X123775000Y-108654819D02*
X123679762Y-108607200D01*
X123679762Y-108607200D02*
X123632143Y-108559580D01*
X123632143Y-108559580D02*
X123584524Y-108464342D01*
X123584524Y-108464342D02*
X123536905Y-108273866D01*
X123536905Y-108273866D02*
X123536905Y-108035771D01*
X123536905Y-108035771D02*
X123584524Y-107845295D01*
X123584524Y-107845295D02*
X123632143Y-107750057D01*
X123632143Y-107750057D02*
X123679762Y-107702438D01*
X123679762Y-107702438D02*
X123775000Y-107654819D01*
X92628571Y-77248080D02*
X92580952Y-77295700D01*
X92580952Y-77295700D02*
X92438095Y-77343319D01*
X92438095Y-77343319D02*
X92342857Y-77343319D01*
X92342857Y-77343319D02*
X92200000Y-77295700D01*
X92200000Y-77295700D02*
X92104762Y-77200461D01*
X92104762Y-77200461D02*
X92057143Y-77105223D01*
X92057143Y-77105223D02*
X92009524Y-76914747D01*
X92009524Y-76914747D02*
X92009524Y-76771890D01*
X92009524Y-76771890D02*
X92057143Y-76581414D01*
X92057143Y-76581414D02*
X92104762Y-76486176D01*
X92104762Y-76486176D02*
X92200000Y-76390938D01*
X92200000Y-76390938D02*
X92342857Y-76343319D01*
X92342857Y-76343319D02*
X92438095Y-76343319D01*
X92438095Y-76343319D02*
X92580952Y-76390938D01*
X92580952Y-76390938D02*
X92628571Y-76438557D01*
X93009524Y-77295700D02*
X93152381Y-77343319D01*
X93152381Y-77343319D02*
X93390476Y-77343319D01*
X93390476Y-77343319D02*
X93485714Y-77295700D01*
X93485714Y-77295700D02*
X93533333Y-77248080D01*
X93533333Y-77248080D02*
X93580952Y-77152842D01*
X93580952Y-77152842D02*
X93580952Y-77057604D01*
X93580952Y-77057604D02*
X93533333Y-76962366D01*
X93533333Y-76962366D02*
X93485714Y-76914747D01*
X93485714Y-76914747D02*
X93390476Y-76867128D01*
X93390476Y-76867128D02*
X93200000Y-76819509D01*
X93200000Y-76819509D02*
X93104762Y-76771890D01*
X93104762Y-76771890D02*
X93057143Y-76724271D01*
X93057143Y-76724271D02*
X93009524Y-76629033D01*
X93009524Y-76629033D02*
X93009524Y-76533795D01*
X93009524Y-76533795D02*
X93057143Y-76438557D01*
X93057143Y-76438557D02*
X93104762Y-76390938D01*
X93104762Y-76390938D02*
X93200000Y-76343319D01*
X93200000Y-76343319D02*
X93438095Y-76343319D01*
X93438095Y-76343319D02*
X93580952Y-76390938D01*
X93914286Y-76343319D02*
X94533333Y-76343319D01*
X94533333Y-76343319D02*
X94200000Y-76724271D01*
X94200000Y-76724271D02*
X94342857Y-76724271D01*
X94342857Y-76724271D02*
X94438095Y-76771890D01*
X94438095Y-76771890D02*
X94485714Y-76819509D01*
X94485714Y-76819509D02*
X94533333Y-76914747D01*
X94533333Y-76914747D02*
X94533333Y-77152842D01*
X94533333Y-77152842D02*
X94485714Y-77248080D01*
X94485714Y-77248080D02*
X94438095Y-77295700D01*
X94438095Y-77295700D02*
X94342857Y-77343319D01*
X94342857Y-77343319D02*
X94057143Y-77343319D01*
X94057143Y-77343319D02*
X93961905Y-77295700D01*
X93961905Y-77295700D02*
X93914286Y-77248080D01*
X94723810Y-77438557D02*
X95485714Y-77438557D01*
X95914286Y-76343319D02*
X96009524Y-76343319D01*
X96009524Y-76343319D02*
X96104762Y-76390938D01*
X96104762Y-76390938D02*
X96152381Y-76438557D01*
X96152381Y-76438557D02*
X96200000Y-76533795D01*
X96200000Y-76533795D02*
X96247619Y-76724271D01*
X96247619Y-76724271D02*
X96247619Y-76962366D01*
X96247619Y-76962366D02*
X96200000Y-77152842D01*
X96200000Y-77152842D02*
X96152381Y-77248080D01*
X96152381Y-77248080D02*
X96104762Y-77295700D01*
X96104762Y-77295700D02*
X96009524Y-77343319D01*
X96009524Y-77343319D02*
X95914286Y-77343319D01*
X95914286Y-77343319D02*
X95819048Y-77295700D01*
X95819048Y-77295700D02*
X95771429Y-77248080D01*
X95771429Y-77248080D02*
X95723810Y-77152842D01*
X95723810Y-77152842D02*
X95676191Y-76962366D01*
X95676191Y-76962366D02*
X95676191Y-76724271D01*
X95676191Y-76724271D02*
X95723810Y-76533795D01*
X95723810Y-76533795D02*
X95771429Y-76438557D01*
X95771429Y-76438557D02*
X95819048Y-76390938D01*
X95819048Y-76390938D02*
X95914286Y-76343319D01*
X96676191Y-77248080D02*
X96723810Y-77295700D01*
X96723810Y-77295700D02*
X96676191Y-77343319D01*
X96676191Y-77343319D02*
X96628572Y-77295700D01*
X96628572Y-77295700D02*
X96676191Y-77248080D01*
X96676191Y-77248080D02*
X96676191Y-77343319D01*
X97628571Y-76343319D02*
X97152381Y-76343319D01*
X97152381Y-76343319D02*
X97104762Y-76819509D01*
X97104762Y-76819509D02*
X97152381Y-76771890D01*
X97152381Y-76771890D02*
X97247619Y-76724271D01*
X97247619Y-76724271D02*
X97485714Y-76724271D01*
X97485714Y-76724271D02*
X97580952Y-76771890D01*
X97580952Y-76771890D02*
X97628571Y-76819509D01*
X97628571Y-76819509D02*
X97676190Y-76914747D01*
X97676190Y-76914747D02*
X97676190Y-77152842D01*
X97676190Y-77152842D02*
X97628571Y-77248080D01*
X97628571Y-77248080D02*
X97580952Y-77295700D01*
X97580952Y-77295700D02*
X97485714Y-77343319D01*
X97485714Y-77343319D02*
X97247619Y-77343319D01*
X97247619Y-77343319D02*
X97152381Y-77295700D01*
X97152381Y-77295700D02*
X97104762Y-77248080D01*
X101600000Y-77248080D02*
X101552381Y-77295700D01*
X101552381Y-77295700D02*
X101409524Y-77343319D01*
X101409524Y-77343319D02*
X101314286Y-77343319D01*
X101314286Y-77343319D02*
X101171429Y-77295700D01*
X101171429Y-77295700D02*
X101076191Y-77200461D01*
X101076191Y-77200461D02*
X101028572Y-77105223D01*
X101028572Y-77105223D02*
X100980953Y-76914747D01*
X100980953Y-76914747D02*
X100980953Y-76771890D01*
X100980953Y-76771890D02*
X101028572Y-76581414D01*
X101028572Y-76581414D02*
X101076191Y-76486176D01*
X101076191Y-76486176D02*
X101171429Y-76390938D01*
X101171429Y-76390938D02*
X101314286Y-76343319D01*
X101314286Y-76343319D02*
X101409524Y-76343319D01*
X101409524Y-76343319D02*
X101552381Y-76390938D01*
X101552381Y-76390938D02*
X101600000Y-76438557D01*
X101980953Y-77295700D02*
X102123810Y-77343319D01*
X102123810Y-77343319D02*
X102361905Y-77343319D01*
X102361905Y-77343319D02*
X102457143Y-77295700D01*
X102457143Y-77295700D02*
X102504762Y-77248080D01*
X102504762Y-77248080D02*
X102552381Y-77152842D01*
X102552381Y-77152842D02*
X102552381Y-77057604D01*
X102552381Y-77057604D02*
X102504762Y-76962366D01*
X102504762Y-76962366D02*
X102457143Y-76914747D01*
X102457143Y-76914747D02*
X102361905Y-76867128D01*
X102361905Y-76867128D02*
X102171429Y-76819509D01*
X102171429Y-76819509D02*
X102076191Y-76771890D01*
X102076191Y-76771890D02*
X102028572Y-76724271D01*
X102028572Y-76724271D02*
X101980953Y-76629033D01*
X101980953Y-76629033D02*
X101980953Y-76533795D01*
X101980953Y-76533795D02*
X102028572Y-76438557D01*
X102028572Y-76438557D02*
X102076191Y-76390938D01*
X102076191Y-76390938D02*
X102171429Y-76343319D01*
X102171429Y-76343319D02*
X102409524Y-76343319D01*
X102409524Y-76343319D02*
X102552381Y-76390938D01*
X103409524Y-76676652D02*
X103409524Y-77343319D01*
X103171429Y-76295700D02*
X102933334Y-77009985D01*
X102933334Y-77009985D02*
X103552381Y-77009985D01*
X103695239Y-77438557D02*
X104457143Y-77438557D01*
X104885715Y-76343319D02*
X104980953Y-76343319D01*
X104980953Y-76343319D02*
X105076191Y-76390938D01*
X105076191Y-76390938D02*
X105123810Y-76438557D01*
X105123810Y-76438557D02*
X105171429Y-76533795D01*
X105171429Y-76533795D02*
X105219048Y-76724271D01*
X105219048Y-76724271D02*
X105219048Y-76962366D01*
X105219048Y-76962366D02*
X105171429Y-77152842D01*
X105171429Y-77152842D02*
X105123810Y-77248080D01*
X105123810Y-77248080D02*
X105076191Y-77295700D01*
X105076191Y-77295700D02*
X104980953Y-77343319D01*
X104980953Y-77343319D02*
X104885715Y-77343319D01*
X104885715Y-77343319D02*
X104790477Y-77295700D01*
X104790477Y-77295700D02*
X104742858Y-77248080D01*
X104742858Y-77248080D02*
X104695239Y-77152842D01*
X104695239Y-77152842D02*
X104647620Y-76962366D01*
X104647620Y-76962366D02*
X104647620Y-76724271D01*
X104647620Y-76724271D02*
X104695239Y-76533795D01*
X104695239Y-76533795D02*
X104742858Y-76438557D01*
X104742858Y-76438557D02*
X104790477Y-76390938D01*
X104790477Y-76390938D02*
X104885715Y-76343319D01*
X105647620Y-77248080D02*
X105695239Y-77295700D01*
X105695239Y-77295700D02*
X105647620Y-77343319D01*
X105647620Y-77343319D02*
X105600001Y-77295700D01*
X105600001Y-77295700D02*
X105647620Y-77248080D01*
X105647620Y-77248080D02*
X105647620Y-77343319D01*
X106600000Y-76343319D02*
X106123810Y-76343319D01*
X106123810Y-76343319D02*
X106076191Y-76819509D01*
X106076191Y-76819509D02*
X106123810Y-76771890D01*
X106123810Y-76771890D02*
X106219048Y-76724271D01*
X106219048Y-76724271D02*
X106457143Y-76724271D01*
X106457143Y-76724271D02*
X106552381Y-76771890D01*
X106552381Y-76771890D02*
X106600000Y-76819509D01*
X106600000Y-76819509D02*
X106647619Y-76914747D01*
X106647619Y-76914747D02*
X106647619Y-77152842D01*
X106647619Y-77152842D02*
X106600000Y-77248080D01*
X106600000Y-77248080D02*
X106552381Y-77295700D01*
X106552381Y-77295700D02*
X106457143Y-77343319D01*
X106457143Y-77343319D02*
X106219048Y-77343319D01*
X106219048Y-77343319D02*
X106123810Y-77295700D01*
X106123810Y-77295700D02*
X106076191Y-77248080D01*
D12*
X64273479Y-96718809D02*
X64787526Y-96718809D01*
X64787526Y-96718809D02*
X64848002Y-96688571D01*
X64848002Y-96688571D02*
X64878241Y-96658333D01*
X64878241Y-96658333D02*
X64908479Y-96597857D01*
X64908479Y-96597857D02*
X64908479Y-96476904D01*
X64908479Y-96476904D02*
X64878241Y-96416428D01*
X64878241Y-96416428D02*
X64848002Y-96386190D01*
X64848002Y-96386190D02*
X64787526Y-96355952D01*
X64787526Y-96355952D02*
X64273479Y-96355952D01*
X64908479Y-95720952D02*
X64908479Y-96083809D01*
X64908479Y-95902381D02*
X64273479Y-95902381D01*
X64273479Y-95902381D02*
X64364193Y-95962857D01*
X64364193Y-95962857D02*
X64424669Y-96023333D01*
X64424669Y-96023333D02*
X64454907Y-96083809D01*
D11*
X78985714Y-108459580D02*
X78938095Y-108507200D01*
X78938095Y-108507200D02*
X78795238Y-108554819D01*
X78795238Y-108554819D02*
X78700000Y-108554819D01*
X78700000Y-108554819D02*
X78557143Y-108507200D01*
X78557143Y-108507200D02*
X78461905Y-108411961D01*
X78461905Y-108411961D02*
X78414286Y-108316723D01*
X78414286Y-108316723D02*
X78366667Y-108126247D01*
X78366667Y-108126247D02*
X78366667Y-107983390D01*
X78366667Y-107983390D02*
X78414286Y-107792914D01*
X78414286Y-107792914D02*
X78461905Y-107697676D01*
X78461905Y-107697676D02*
X78557143Y-107602438D01*
X78557143Y-107602438D02*
X78700000Y-107554819D01*
X78700000Y-107554819D02*
X78795238Y-107554819D01*
X78795238Y-107554819D02*
X78938095Y-107602438D01*
X78938095Y-107602438D02*
X78985714Y-107650057D01*
X79366667Y-108507200D02*
X79509524Y-108554819D01*
X79509524Y-108554819D02*
X79747619Y-108554819D01*
X79747619Y-108554819D02*
X79842857Y-108507200D01*
X79842857Y-108507200D02*
X79890476Y-108459580D01*
X79890476Y-108459580D02*
X79938095Y-108364342D01*
X79938095Y-108364342D02*
X79938095Y-108269104D01*
X79938095Y-108269104D02*
X79890476Y-108173866D01*
X79890476Y-108173866D02*
X79842857Y-108126247D01*
X79842857Y-108126247D02*
X79747619Y-108078628D01*
X79747619Y-108078628D02*
X79557143Y-108031009D01*
X79557143Y-108031009D02*
X79461905Y-107983390D01*
X79461905Y-107983390D02*
X79414286Y-107935771D01*
X79414286Y-107935771D02*
X79366667Y-107840533D01*
X79366667Y-107840533D02*
X79366667Y-107745295D01*
X79366667Y-107745295D02*
X79414286Y-107650057D01*
X79414286Y-107650057D02*
X79461905Y-107602438D01*
X79461905Y-107602438D02*
X79557143Y-107554819D01*
X79557143Y-107554819D02*
X79795238Y-107554819D01*
X79795238Y-107554819D02*
X79938095Y-107602438D01*
X80319048Y-107650057D02*
X80366667Y-107602438D01*
X80366667Y-107602438D02*
X80461905Y-107554819D01*
X80461905Y-107554819D02*
X80700000Y-107554819D01*
X80700000Y-107554819D02*
X80795238Y-107602438D01*
X80795238Y-107602438D02*
X80842857Y-107650057D01*
X80842857Y-107650057D02*
X80890476Y-107745295D01*
X80890476Y-107745295D02*
X80890476Y-107840533D01*
X80890476Y-107840533D02*
X80842857Y-107983390D01*
X80842857Y-107983390D02*
X80271429Y-108554819D01*
X80271429Y-108554819D02*
X80890476Y-108554819D01*
X81080953Y-108650057D02*
X81842857Y-108650057D01*
X82604762Y-108554819D02*
X82033334Y-108554819D01*
X82319048Y-108554819D02*
X82319048Y-107554819D01*
X82319048Y-107554819D02*
X82223810Y-107697676D01*
X82223810Y-107697676D02*
X82128572Y-107792914D01*
X82128572Y-107792914D02*
X82033334Y-107840533D01*
X83033334Y-108459580D02*
X83080953Y-108507200D01*
X83080953Y-108507200D02*
X83033334Y-108554819D01*
X83033334Y-108554819D02*
X82985715Y-108507200D01*
X82985715Y-108507200D02*
X83033334Y-108459580D01*
X83033334Y-108459580D02*
X83033334Y-108554819D01*
X83700000Y-107554819D02*
X83795238Y-107554819D01*
X83795238Y-107554819D02*
X83890476Y-107602438D01*
X83890476Y-107602438D02*
X83938095Y-107650057D01*
X83938095Y-107650057D02*
X83985714Y-107745295D01*
X83985714Y-107745295D02*
X84033333Y-107935771D01*
X84033333Y-107935771D02*
X84033333Y-108173866D01*
X84033333Y-108173866D02*
X83985714Y-108364342D01*
X83985714Y-108364342D02*
X83938095Y-108459580D01*
X83938095Y-108459580D02*
X83890476Y-108507200D01*
X83890476Y-108507200D02*
X83795238Y-108554819D01*
X83795238Y-108554819D02*
X83700000Y-108554819D01*
X83700000Y-108554819D02*
X83604762Y-108507200D01*
X83604762Y-108507200D02*
X83557143Y-108459580D01*
X83557143Y-108459580D02*
X83509524Y-108364342D01*
X83509524Y-108364342D02*
X83461905Y-108173866D01*
X83461905Y-108173866D02*
X83461905Y-107935771D01*
X83461905Y-107935771D02*
X83509524Y-107745295D01*
X83509524Y-107745295D02*
X83557143Y-107650057D01*
X83557143Y-107650057D02*
X83604762Y-107602438D01*
X83604762Y-107602438D02*
X83700000Y-107554819D01*
X132485714Y-108459580D02*
X132438095Y-108507200D01*
X132438095Y-108507200D02*
X132295238Y-108554819D01*
X132295238Y-108554819D02*
X132200000Y-108554819D01*
X132200000Y-108554819D02*
X132057143Y-108507200D01*
X132057143Y-108507200D02*
X131961905Y-108411961D01*
X131961905Y-108411961D02*
X131914286Y-108316723D01*
X131914286Y-108316723D02*
X131866667Y-108126247D01*
X131866667Y-108126247D02*
X131866667Y-107983390D01*
X131866667Y-107983390D02*
X131914286Y-107792914D01*
X131914286Y-107792914D02*
X131961905Y-107697676D01*
X131961905Y-107697676D02*
X132057143Y-107602438D01*
X132057143Y-107602438D02*
X132200000Y-107554819D01*
X132200000Y-107554819D02*
X132295238Y-107554819D01*
X132295238Y-107554819D02*
X132438095Y-107602438D01*
X132438095Y-107602438D02*
X132485714Y-107650057D01*
X132866667Y-108507200D02*
X133009524Y-108554819D01*
X133009524Y-108554819D02*
X133247619Y-108554819D01*
X133247619Y-108554819D02*
X133342857Y-108507200D01*
X133342857Y-108507200D02*
X133390476Y-108459580D01*
X133390476Y-108459580D02*
X133438095Y-108364342D01*
X133438095Y-108364342D02*
X133438095Y-108269104D01*
X133438095Y-108269104D02*
X133390476Y-108173866D01*
X133390476Y-108173866D02*
X133342857Y-108126247D01*
X133342857Y-108126247D02*
X133247619Y-108078628D01*
X133247619Y-108078628D02*
X133057143Y-108031009D01*
X133057143Y-108031009D02*
X132961905Y-107983390D01*
X132961905Y-107983390D02*
X132914286Y-107935771D01*
X132914286Y-107935771D02*
X132866667Y-107840533D01*
X132866667Y-107840533D02*
X132866667Y-107745295D01*
X132866667Y-107745295D02*
X132914286Y-107650057D01*
X132914286Y-107650057D02*
X132961905Y-107602438D01*
X132961905Y-107602438D02*
X133057143Y-107554819D01*
X133057143Y-107554819D02*
X133295238Y-107554819D01*
X133295238Y-107554819D02*
X133438095Y-107602438D01*
X134295238Y-107554819D02*
X134104762Y-107554819D01*
X134104762Y-107554819D02*
X134009524Y-107602438D01*
X134009524Y-107602438D02*
X133961905Y-107650057D01*
X133961905Y-107650057D02*
X133866667Y-107792914D01*
X133866667Y-107792914D02*
X133819048Y-107983390D01*
X133819048Y-107983390D02*
X133819048Y-108364342D01*
X133819048Y-108364342D02*
X133866667Y-108459580D01*
X133866667Y-108459580D02*
X133914286Y-108507200D01*
X133914286Y-108507200D02*
X134009524Y-108554819D01*
X134009524Y-108554819D02*
X134200000Y-108554819D01*
X134200000Y-108554819D02*
X134295238Y-108507200D01*
X134295238Y-108507200D02*
X134342857Y-108459580D01*
X134342857Y-108459580D02*
X134390476Y-108364342D01*
X134390476Y-108364342D02*
X134390476Y-108126247D01*
X134390476Y-108126247D02*
X134342857Y-108031009D01*
X134342857Y-108031009D02*
X134295238Y-107983390D01*
X134295238Y-107983390D02*
X134200000Y-107935771D01*
X134200000Y-107935771D02*
X134009524Y-107935771D01*
X134009524Y-107935771D02*
X133914286Y-107983390D01*
X133914286Y-107983390D02*
X133866667Y-108031009D01*
X133866667Y-108031009D02*
X133819048Y-108126247D01*
X134580953Y-108650057D02*
X135342857Y-108650057D01*
X136104762Y-108554819D02*
X135533334Y-108554819D01*
X135819048Y-108554819D02*
X135819048Y-107554819D01*
X135819048Y-107554819D02*
X135723810Y-107697676D01*
X135723810Y-107697676D02*
X135628572Y-107792914D01*
X135628572Y-107792914D02*
X135533334Y-107840533D01*
X136533334Y-108459580D02*
X136580953Y-108507200D01*
X136580953Y-108507200D02*
X136533334Y-108554819D01*
X136533334Y-108554819D02*
X136485715Y-108507200D01*
X136485715Y-108507200D02*
X136533334Y-108459580D01*
X136533334Y-108459580D02*
X136533334Y-108554819D01*
X137200000Y-107554819D02*
X137295238Y-107554819D01*
X137295238Y-107554819D02*
X137390476Y-107602438D01*
X137390476Y-107602438D02*
X137438095Y-107650057D01*
X137438095Y-107650057D02*
X137485714Y-107745295D01*
X137485714Y-107745295D02*
X137533333Y-107935771D01*
X137533333Y-107935771D02*
X137533333Y-108173866D01*
X137533333Y-108173866D02*
X137485714Y-108364342D01*
X137485714Y-108364342D02*
X137438095Y-108459580D01*
X137438095Y-108459580D02*
X137390476Y-108507200D01*
X137390476Y-108507200D02*
X137295238Y-108554819D01*
X137295238Y-108554819D02*
X137200000Y-108554819D01*
X137200000Y-108554819D02*
X137104762Y-108507200D01*
X137104762Y-108507200D02*
X137057143Y-108459580D01*
X137057143Y-108459580D02*
X137009524Y-108364342D01*
X137009524Y-108364342D02*
X136961905Y-108173866D01*
X136961905Y-108173866D02*
X136961905Y-107935771D01*
X136961905Y-107935771D02*
X137009524Y-107745295D01*
X137009524Y-107745295D02*
X137057143Y-107650057D01*
X137057143Y-107650057D02*
X137104762Y-107602438D01*
X137104762Y-107602438D02*
X137200000Y-107554819D01*
X137485714Y-77248080D02*
X137438095Y-77295700D01*
X137438095Y-77295700D02*
X137295238Y-77343319D01*
X137295238Y-77343319D02*
X137200000Y-77343319D01*
X137200000Y-77343319D02*
X137057143Y-77295700D01*
X137057143Y-77295700D02*
X136961905Y-77200461D01*
X136961905Y-77200461D02*
X136914286Y-77105223D01*
X136914286Y-77105223D02*
X136866667Y-76914747D01*
X136866667Y-76914747D02*
X136866667Y-76771890D01*
X136866667Y-76771890D02*
X136914286Y-76581414D01*
X136914286Y-76581414D02*
X136961905Y-76486176D01*
X136961905Y-76486176D02*
X137057143Y-76390938D01*
X137057143Y-76390938D02*
X137200000Y-76343319D01*
X137200000Y-76343319D02*
X137295238Y-76343319D01*
X137295238Y-76343319D02*
X137438095Y-76390938D01*
X137438095Y-76390938D02*
X137485714Y-76438557D01*
X137866667Y-77295700D02*
X138009524Y-77343319D01*
X138009524Y-77343319D02*
X138247619Y-77343319D01*
X138247619Y-77343319D02*
X138342857Y-77295700D01*
X138342857Y-77295700D02*
X138390476Y-77248080D01*
X138390476Y-77248080D02*
X138438095Y-77152842D01*
X138438095Y-77152842D02*
X138438095Y-77057604D01*
X138438095Y-77057604D02*
X138390476Y-76962366D01*
X138390476Y-76962366D02*
X138342857Y-76914747D01*
X138342857Y-76914747D02*
X138247619Y-76867128D01*
X138247619Y-76867128D02*
X138057143Y-76819509D01*
X138057143Y-76819509D02*
X137961905Y-76771890D01*
X137961905Y-76771890D02*
X137914286Y-76724271D01*
X137914286Y-76724271D02*
X137866667Y-76629033D01*
X137866667Y-76629033D02*
X137866667Y-76533795D01*
X137866667Y-76533795D02*
X137914286Y-76438557D01*
X137914286Y-76438557D02*
X137961905Y-76390938D01*
X137961905Y-76390938D02*
X138057143Y-76343319D01*
X138057143Y-76343319D02*
X138295238Y-76343319D01*
X138295238Y-76343319D02*
X138438095Y-76390938D01*
X139009524Y-76771890D02*
X138914286Y-76724271D01*
X138914286Y-76724271D02*
X138866667Y-76676652D01*
X138866667Y-76676652D02*
X138819048Y-76581414D01*
X138819048Y-76581414D02*
X138819048Y-76533795D01*
X138819048Y-76533795D02*
X138866667Y-76438557D01*
X138866667Y-76438557D02*
X138914286Y-76390938D01*
X138914286Y-76390938D02*
X139009524Y-76343319D01*
X139009524Y-76343319D02*
X139200000Y-76343319D01*
X139200000Y-76343319D02*
X139295238Y-76390938D01*
X139295238Y-76390938D02*
X139342857Y-76438557D01*
X139342857Y-76438557D02*
X139390476Y-76533795D01*
X139390476Y-76533795D02*
X139390476Y-76581414D01*
X139390476Y-76581414D02*
X139342857Y-76676652D01*
X139342857Y-76676652D02*
X139295238Y-76724271D01*
X139295238Y-76724271D02*
X139200000Y-76771890D01*
X139200000Y-76771890D02*
X139009524Y-76771890D01*
X139009524Y-76771890D02*
X138914286Y-76819509D01*
X138914286Y-76819509D02*
X138866667Y-76867128D01*
X138866667Y-76867128D02*
X138819048Y-76962366D01*
X138819048Y-76962366D02*
X138819048Y-77152842D01*
X138819048Y-77152842D02*
X138866667Y-77248080D01*
X138866667Y-77248080D02*
X138914286Y-77295700D01*
X138914286Y-77295700D02*
X139009524Y-77343319D01*
X139009524Y-77343319D02*
X139200000Y-77343319D01*
X139200000Y-77343319D02*
X139295238Y-77295700D01*
X139295238Y-77295700D02*
X139342857Y-77248080D01*
X139342857Y-77248080D02*
X139390476Y-77152842D01*
X139390476Y-77152842D02*
X139390476Y-76962366D01*
X139390476Y-76962366D02*
X139342857Y-76867128D01*
X139342857Y-76867128D02*
X139295238Y-76819509D01*
X139295238Y-76819509D02*
X139200000Y-76771890D01*
X139580953Y-77438557D02*
X140342857Y-77438557D01*
X140771429Y-76343319D02*
X140866667Y-76343319D01*
X140866667Y-76343319D02*
X140961905Y-76390938D01*
X140961905Y-76390938D02*
X141009524Y-76438557D01*
X141009524Y-76438557D02*
X141057143Y-76533795D01*
X141057143Y-76533795D02*
X141104762Y-76724271D01*
X141104762Y-76724271D02*
X141104762Y-76962366D01*
X141104762Y-76962366D02*
X141057143Y-77152842D01*
X141057143Y-77152842D02*
X141009524Y-77248080D01*
X141009524Y-77248080D02*
X140961905Y-77295700D01*
X140961905Y-77295700D02*
X140866667Y-77343319D01*
X140866667Y-77343319D02*
X140771429Y-77343319D01*
X140771429Y-77343319D02*
X140676191Y-77295700D01*
X140676191Y-77295700D02*
X140628572Y-77248080D01*
X140628572Y-77248080D02*
X140580953Y-77152842D01*
X140580953Y-77152842D02*
X140533334Y-76962366D01*
X140533334Y-76962366D02*
X140533334Y-76724271D01*
X140533334Y-76724271D02*
X140580953Y-76533795D01*
X140580953Y-76533795D02*
X140628572Y-76438557D01*
X140628572Y-76438557D02*
X140676191Y-76390938D01*
X140676191Y-76390938D02*
X140771429Y-76343319D01*
X141533334Y-77248080D02*
X141580953Y-77295700D01*
X141580953Y-77295700D02*
X141533334Y-77343319D01*
X141533334Y-77343319D02*
X141485715Y-77295700D01*
X141485715Y-77295700D02*
X141533334Y-77248080D01*
X141533334Y-77248080D02*
X141533334Y-77343319D01*
X142485714Y-76343319D02*
X142009524Y-76343319D01*
X142009524Y-76343319D02*
X141961905Y-76819509D01*
X141961905Y-76819509D02*
X142009524Y-76771890D01*
X142009524Y-76771890D02*
X142104762Y-76724271D01*
X142104762Y-76724271D02*
X142342857Y-76724271D01*
X142342857Y-76724271D02*
X142438095Y-76771890D01*
X142438095Y-76771890D02*
X142485714Y-76819509D01*
X142485714Y-76819509D02*
X142533333Y-76914747D01*
X142533333Y-76914747D02*
X142533333Y-77152842D01*
X142533333Y-77152842D02*
X142485714Y-77248080D01*
X142485714Y-77248080D02*
X142438095Y-77295700D01*
X142438095Y-77295700D02*
X142342857Y-77343319D01*
X142342857Y-77343319D02*
X142104762Y-77343319D01*
X142104762Y-77343319D02*
X142009524Y-77295700D01*
X142009524Y-77295700D02*
X141961905Y-77248080D01*
X75059580Y-107114285D02*
X75107200Y-107161904D01*
X75107200Y-107161904D02*
X75154819Y-107304761D01*
X75154819Y-107304761D02*
X75154819Y-107399999D01*
X75154819Y-107399999D02*
X75107200Y-107542856D01*
X75107200Y-107542856D02*
X75011961Y-107638094D01*
X75011961Y-107638094D02*
X74916723Y-107685713D01*
X74916723Y-107685713D02*
X74726247Y-107733332D01*
X74726247Y-107733332D02*
X74583390Y-107733332D01*
X74583390Y-107733332D02*
X74392914Y-107685713D01*
X74392914Y-107685713D02*
X74297676Y-107638094D01*
X74297676Y-107638094D02*
X74202438Y-107542856D01*
X74202438Y-107542856D02*
X74154819Y-107399999D01*
X74154819Y-107399999D02*
X74154819Y-107304761D01*
X74154819Y-107304761D02*
X74202438Y-107161904D01*
X74202438Y-107161904D02*
X74250057Y-107114285D01*
X75107200Y-106733332D02*
X75154819Y-106590475D01*
X75154819Y-106590475D02*
X75154819Y-106352380D01*
X75154819Y-106352380D02*
X75107200Y-106257142D01*
X75107200Y-106257142D02*
X75059580Y-106209523D01*
X75059580Y-106209523D02*
X74964342Y-106161904D01*
X74964342Y-106161904D02*
X74869104Y-106161904D01*
X74869104Y-106161904D02*
X74773866Y-106209523D01*
X74773866Y-106209523D02*
X74726247Y-106257142D01*
X74726247Y-106257142D02*
X74678628Y-106352380D01*
X74678628Y-106352380D02*
X74631009Y-106542856D01*
X74631009Y-106542856D02*
X74583390Y-106638094D01*
X74583390Y-106638094D02*
X74535771Y-106685713D01*
X74535771Y-106685713D02*
X74440533Y-106733332D01*
X74440533Y-106733332D02*
X74345295Y-106733332D01*
X74345295Y-106733332D02*
X74250057Y-106685713D01*
X74250057Y-106685713D02*
X74202438Y-106638094D01*
X74202438Y-106638094D02*
X74154819Y-106542856D01*
X74154819Y-106542856D02*
X74154819Y-106304761D01*
X74154819Y-106304761D02*
X74202438Y-106161904D01*
X75154819Y-105209523D02*
X75154819Y-105780951D01*
X75154819Y-105495237D02*
X74154819Y-105495237D01*
X74154819Y-105495237D02*
X74297676Y-105590475D01*
X74297676Y-105590475D02*
X74392914Y-105685713D01*
X74392914Y-105685713D02*
X74440533Y-105780951D01*
X75250057Y-105019047D02*
X75250057Y-104257142D01*
X75154819Y-103495237D02*
X75154819Y-104066665D01*
X75154819Y-103780951D02*
X74154819Y-103780951D01*
X74154819Y-103780951D02*
X74297676Y-103876189D01*
X74297676Y-103876189D02*
X74392914Y-103971427D01*
X74392914Y-103971427D02*
X74440533Y-104066665D01*
X75059580Y-103066665D02*
X75107200Y-103019046D01*
X75107200Y-103019046D02*
X75154819Y-103066665D01*
X75154819Y-103066665D02*
X75107200Y-103114284D01*
X75107200Y-103114284D02*
X75059580Y-103066665D01*
X75059580Y-103066665D02*
X75154819Y-103066665D01*
X74154819Y-102399999D02*
X74154819Y-102304761D01*
X74154819Y-102304761D02*
X74202438Y-102209523D01*
X74202438Y-102209523D02*
X74250057Y-102161904D01*
X74250057Y-102161904D02*
X74345295Y-102114285D01*
X74345295Y-102114285D02*
X74535771Y-102066666D01*
X74535771Y-102066666D02*
X74773866Y-102066666D01*
X74773866Y-102066666D02*
X74964342Y-102114285D01*
X74964342Y-102114285D02*
X75059580Y-102161904D01*
X75059580Y-102161904D02*
X75107200Y-102209523D01*
X75107200Y-102209523D02*
X75154819Y-102304761D01*
X75154819Y-102304761D02*
X75154819Y-102399999D01*
X75154819Y-102399999D02*
X75107200Y-102495237D01*
X75107200Y-102495237D02*
X75059580Y-102542856D01*
X75059580Y-102542856D02*
X74964342Y-102590475D01*
X74964342Y-102590475D02*
X74773866Y-102638094D01*
X74773866Y-102638094D02*
X74535771Y-102638094D01*
X74535771Y-102638094D02*
X74345295Y-102590475D01*
X74345295Y-102590475D02*
X74250057Y-102542856D01*
X74250057Y-102542856D02*
X74202438Y-102495237D01*
X74202438Y-102495237D02*
X74154819Y-102399999D01*
X83657143Y-77248080D02*
X83609524Y-77295700D01*
X83609524Y-77295700D02*
X83466667Y-77343319D01*
X83466667Y-77343319D02*
X83371429Y-77343319D01*
X83371429Y-77343319D02*
X83228572Y-77295700D01*
X83228572Y-77295700D02*
X83133334Y-77200461D01*
X83133334Y-77200461D02*
X83085715Y-77105223D01*
X83085715Y-77105223D02*
X83038096Y-76914747D01*
X83038096Y-76914747D02*
X83038096Y-76771890D01*
X83038096Y-76771890D02*
X83085715Y-76581414D01*
X83085715Y-76581414D02*
X83133334Y-76486176D01*
X83133334Y-76486176D02*
X83228572Y-76390938D01*
X83228572Y-76390938D02*
X83371429Y-76343319D01*
X83371429Y-76343319D02*
X83466667Y-76343319D01*
X83466667Y-76343319D02*
X83609524Y-76390938D01*
X83609524Y-76390938D02*
X83657143Y-76438557D01*
X84038096Y-77295700D02*
X84180953Y-77343319D01*
X84180953Y-77343319D02*
X84419048Y-77343319D01*
X84419048Y-77343319D02*
X84514286Y-77295700D01*
X84514286Y-77295700D02*
X84561905Y-77248080D01*
X84561905Y-77248080D02*
X84609524Y-77152842D01*
X84609524Y-77152842D02*
X84609524Y-77057604D01*
X84609524Y-77057604D02*
X84561905Y-76962366D01*
X84561905Y-76962366D02*
X84514286Y-76914747D01*
X84514286Y-76914747D02*
X84419048Y-76867128D01*
X84419048Y-76867128D02*
X84228572Y-76819509D01*
X84228572Y-76819509D02*
X84133334Y-76771890D01*
X84133334Y-76771890D02*
X84085715Y-76724271D01*
X84085715Y-76724271D02*
X84038096Y-76629033D01*
X84038096Y-76629033D02*
X84038096Y-76533795D01*
X84038096Y-76533795D02*
X84085715Y-76438557D01*
X84085715Y-76438557D02*
X84133334Y-76390938D01*
X84133334Y-76390938D02*
X84228572Y-76343319D01*
X84228572Y-76343319D02*
X84466667Y-76343319D01*
X84466667Y-76343319D02*
X84609524Y-76390938D01*
X84990477Y-76438557D02*
X85038096Y-76390938D01*
X85038096Y-76390938D02*
X85133334Y-76343319D01*
X85133334Y-76343319D02*
X85371429Y-76343319D01*
X85371429Y-76343319D02*
X85466667Y-76390938D01*
X85466667Y-76390938D02*
X85514286Y-76438557D01*
X85514286Y-76438557D02*
X85561905Y-76533795D01*
X85561905Y-76533795D02*
X85561905Y-76629033D01*
X85561905Y-76629033D02*
X85514286Y-76771890D01*
X85514286Y-76771890D02*
X84942858Y-77343319D01*
X84942858Y-77343319D02*
X85561905Y-77343319D01*
X85752382Y-77438557D02*
X86514286Y-77438557D01*
X86942858Y-76343319D02*
X87038096Y-76343319D01*
X87038096Y-76343319D02*
X87133334Y-76390938D01*
X87133334Y-76390938D02*
X87180953Y-76438557D01*
X87180953Y-76438557D02*
X87228572Y-76533795D01*
X87228572Y-76533795D02*
X87276191Y-76724271D01*
X87276191Y-76724271D02*
X87276191Y-76962366D01*
X87276191Y-76962366D02*
X87228572Y-77152842D01*
X87228572Y-77152842D02*
X87180953Y-77248080D01*
X87180953Y-77248080D02*
X87133334Y-77295700D01*
X87133334Y-77295700D02*
X87038096Y-77343319D01*
X87038096Y-77343319D02*
X86942858Y-77343319D01*
X86942858Y-77343319D02*
X86847620Y-77295700D01*
X86847620Y-77295700D02*
X86800001Y-77248080D01*
X86800001Y-77248080D02*
X86752382Y-77152842D01*
X86752382Y-77152842D02*
X86704763Y-76962366D01*
X86704763Y-76962366D02*
X86704763Y-76724271D01*
X86704763Y-76724271D02*
X86752382Y-76533795D01*
X86752382Y-76533795D02*
X86800001Y-76438557D01*
X86800001Y-76438557D02*
X86847620Y-76390938D01*
X86847620Y-76390938D02*
X86942858Y-76343319D01*
X87704763Y-77248080D02*
X87752382Y-77295700D01*
X87752382Y-77295700D02*
X87704763Y-77343319D01*
X87704763Y-77343319D02*
X87657144Y-77295700D01*
X87657144Y-77295700D02*
X87704763Y-77248080D01*
X87704763Y-77248080D02*
X87704763Y-77343319D01*
X88657143Y-76343319D02*
X88180953Y-76343319D01*
X88180953Y-76343319D02*
X88133334Y-76819509D01*
X88133334Y-76819509D02*
X88180953Y-76771890D01*
X88180953Y-76771890D02*
X88276191Y-76724271D01*
X88276191Y-76724271D02*
X88514286Y-76724271D01*
X88514286Y-76724271D02*
X88609524Y-76771890D01*
X88609524Y-76771890D02*
X88657143Y-76819509D01*
X88657143Y-76819509D02*
X88704762Y-76914747D01*
X88704762Y-76914747D02*
X88704762Y-77152842D01*
X88704762Y-77152842D02*
X88657143Y-77248080D01*
X88657143Y-77248080D02*
X88609524Y-77295700D01*
X88609524Y-77295700D02*
X88514286Y-77343319D01*
X88514286Y-77343319D02*
X88276191Y-77343319D01*
X88276191Y-77343319D02*
X88180953Y-77295700D01*
X88180953Y-77295700D02*
X88133334Y-77248080D01*
X74685714Y-77248080D02*
X74638095Y-77295700D01*
X74638095Y-77295700D02*
X74495238Y-77343319D01*
X74495238Y-77343319D02*
X74400000Y-77343319D01*
X74400000Y-77343319D02*
X74257143Y-77295700D01*
X74257143Y-77295700D02*
X74161905Y-77200461D01*
X74161905Y-77200461D02*
X74114286Y-77105223D01*
X74114286Y-77105223D02*
X74066667Y-76914747D01*
X74066667Y-76914747D02*
X74066667Y-76771890D01*
X74066667Y-76771890D02*
X74114286Y-76581414D01*
X74114286Y-76581414D02*
X74161905Y-76486176D01*
X74161905Y-76486176D02*
X74257143Y-76390938D01*
X74257143Y-76390938D02*
X74400000Y-76343319D01*
X74400000Y-76343319D02*
X74495238Y-76343319D01*
X74495238Y-76343319D02*
X74638095Y-76390938D01*
X74638095Y-76390938D02*
X74685714Y-76438557D01*
X75066667Y-77295700D02*
X75209524Y-77343319D01*
X75209524Y-77343319D02*
X75447619Y-77343319D01*
X75447619Y-77343319D02*
X75542857Y-77295700D01*
X75542857Y-77295700D02*
X75590476Y-77248080D01*
X75590476Y-77248080D02*
X75638095Y-77152842D01*
X75638095Y-77152842D02*
X75638095Y-77057604D01*
X75638095Y-77057604D02*
X75590476Y-76962366D01*
X75590476Y-76962366D02*
X75542857Y-76914747D01*
X75542857Y-76914747D02*
X75447619Y-76867128D01*
X75447619Y-76867128D02*
X75257143Y-76819509D01*
X75257143Y-76819509D02*
X75161905Y-76771890D01*
X75161905Y-76771890D02*
X75114286Y-76724271D01*
X75114286Y-76724271D02*
X75066667Y-76629033D01*
X75066667Y-76629033D02*
X75066667Y-76533795D01*
X75066667Y-76533795D02*
X75114286Y-76438557D01*
X75114286Y-76438557D02*
X75161905Y-76390938D01*
X75161905Y-76390938D02*
X75257143Y-76343319D01*
X75257143Y-76343319D02*
X75495238Y-76343319D01*
X75495238Y-76343319D02*
X75638095Y-76390938D01*
X76590476Y-77343319D02*
X76019048Y-77343319D01*
X76304762Y-77343319D02*
X76304762Y-76343319D01*
X76304762Y-76343319D02*
X76209524Y-76486176D01*
X76209524Y-76486176D02*
X76114286Y-76581414D01*
X76114286Y-76581414D02*
X76019048Y-76629033D01*
X76780953Y-77438557D02*
X77542857Y-77438557D01*
X77971429Y-76343319D02*
X78066667Y-76343319D01*
X78066667Y-76343319D02*
X78161905Y-76390938D01*
X78161905Y-76390938D02*
X78209524Y-76438557D01*
X78209524Y-76438557D02*
X78257143Y-76533795D01*
X78257143Y-76533795D02*
X78304762Y-76724271D01*
X78304762Y-76724271D02*
X78304762Y-76962366D01*
X78304762Y-76962366D02*
X78257143Y-77152842D01*
X78257143Y-77152842D02*
X78209524Y-77248080D01*
X78209524Y-77248080D02*
X78161905Y-77295700D01*
X78161905Y-77295700D02*
X78066667Y-77343319D01*
X78066667Y-77343319D02*
X77971429Y-77343319D01*
X77971429Y-77343319D02*
X77876191Y-77295700D01*
X77876191Y-77295700D02*
X77828572Y-77248080D01*
X77828572Y-77248080D02*
X77780953Y-77152842D01*
X77780953Y-77152842D02*
X77733334Y-76962366D01*
X77733334Y-76962366D02*
X77733334Y-76724271D01*
X77733334Y-76724271D02*
X77780953Y-76533795D01*
X77780953Y-76533795D02*
X77828572Y-76438557D01*
X77828572Y-76438557D02*
X77876191Y-76390938D01*
X77876191Y-76390938D02*
X77971429Y-76343319D01*
X78733334Y-77248080D02*
X78780953Y-77295700D01*
X78780953Y-77295700D02*
X78733334Y-77343319D01*
X78733334Y-77343319D02*
X78685715Y-77295700D01*
X78685715Y-77295700D02*
X78733334Y-77248080D01*
X78733334Y-77248080D02*
X78733334Y-77343319D01*
X79685714Y-76343319D02*
X79209524Y-76343319D01*
X79209524Y-76343319D02*
X79161905Y-76819509D01*
X79161905Y-76819509D02*
X79209524Y-76771890D01*
X79209524Y-76771890D02*
X79304762Y-76724271D01*
X79304762Y-76724271D02*
X79542857Y-76724271D01*
X79542857Y-76724271D02*
X79638095Y-76771890D01*
X79638095Y-76771890D02*
X79685714Y-76819509D01*
X79685714Y-76819509D02*
X79733333Y-76914747D01*
X79733333Y-76914747D02*
X79733333Y-77152842D01*
X79733333Y-77152842D02*
X79685714Y-77248080D01*
X79685714Y-77248080D02*
X79638095Y-77295700D01*
X79638095Y-77295700D02*
X79542857Y-77343319D01*
X79542857Y-77343319D02*
X79304762Y-77343319D01*
X79304762Y-77343319D02*
X79209524Y-77295700D01*
X79209524Y-77295700D02*
X79161905Y-77248080D01*
X142159580Y-91714285D02*
X142207200Y-91761904D01*
X142207200Y-91761904D02*
X142254819Y-91904761D01*
X142254819Y-91904761D02*
X142254819Y-91999999D01*
X142254819Y-91999999D02*
X142207200Y-92142856D01*
X142207200Y-92142856D02*
X142111961Y-92238094D01*
X142111961Y-92238094D02*
X142016723Y-92285713D01*
X142016723Y-92285713D02*
X141826247Y-92333332D01*
X141826247Y-92333332D02*
X141683390Y-92333332D01*
X141683390Y-92333332D02*
X141492914Y-92285713D01*
X141492914Y-92285713D02*
X141397676Y-92238094D01*
X141397676Y-92238094D02*
X141302438Y-92142856D01*
X141302438Y-92142856D02*
X141254819Y-91999999D01*
X141254819Y-91999999D02*
X141254819Y-91904761D01*
X141254819Y-91904761D02*
X141302438Y-91761904D01*
X141302438Y-91761904D02*
X141350057Y-91714285D01*
X142207200Y-91333332D02*
X142254819Y-91190475D01*
X142254819Y-91190475D02*
X142254819Y-90952380D01*
X142254819Y-90952380D02*
X142207200Y-90857142D01*
X142207200Y-90857142D02*
X142159580Y-90809523D01*
X142159580Y-90809523D02*
X142064342Y-90761904D01*
X142064342Y-90761904D02*
X141969104Y-90761904D01*
X141969104Y-90761904D02*
X141873866Y-90809523D01*
X141873866Y-90809523D02*
X141826247Y-90857142D01*
X141826247Y-90857142D02*
X141778628Y-90952380D01*
X141778628Y-90952380D02*
X141731009Y-91142856D01*
X141731009Y-91142856D02*
X141683390Y-91238094D01*
X141683390Y-91238094D02*
X141635771Y-91285713D01*
X141635771Y-91285713D02*
X141540533Y-91333332D01*
X141540533Y-91333332D02*
X141445295Y-91333332D01*
X141445295Y-91333332D02*
X141350057Y-91285713D01*
X141350057Y-91285713D02*
X141302438Y-91238094D01*
X141302438Y-91238094D02*
X141254819Y-91142856D01*
X141254819Y-91142856D02*
X141254819Y-90904761D01*
X141254819Y-90904761D02*
X141302438Y-90761904D01*
X141683390Y-90190475D02*
X141635771Y-90285713D01*
X141635771Y-90285713D02*
X141588152Y-90333332D01*
X141588152Y-90333332D02*
X141492914Y-90380951D01*
X141492914Y-90380951D02*
X141445295Y-90380951D01*
X141445295Y-90380951D02*
X141350057Y-90333332D01*
X141350057Y-90333332D02*
X141302438Y-90285713D01*
X141302438Y-90285713D02*
X141254819Y-90190475D01*
X141254819Y-90190475D02*
X141254819Y-89999999D01*
X141254819Y-89999999D02*
X141302438Y-89904761D01*
X141302438Y-89904761D02*
X141350057Y-89857142D01*
X141350057Y-89857142D02*
X141445295Y-89809523D01*
X141445295Y-89809523D02*
X141492914Y-89809523D01*
X141492914Y-89809523D02*
X141588152Y-89857142D01*
X141588152Y-89857142D02*
X141635771Y-89904761D01*
X141635771Y-89904761D02*
X141683390Y-89999999D01*
X141683390Y-89999999D02*
X141683390Y-90190475D01*
X141683390Y-90190475D02*
X141731009Y-90285713D01*
X141731009Y-90285713D02*
X141778628Y-90333332D01*
X141778628Y-90333332D02*
X141873866Y-90380951D01*
X141873866Y-90380951D02*
X142064342Y-90380951D01*
X142064342Y-90380951D02*
X142159580Y-90333332D01*
X142159580Y-90333332D02*
X142207200Y-90285713D01*
X142207200Y-90285713D02*
X142254819Y-90190475D01*
X142254819Y-90190475D02*
X142254819Y-89999999D01*
X142254819Y-89999999D02*
X142207200Y-89904761D01*
X142207200Y-89904761D02*
X142159580Y-89857142D01*
X142159580Y-89857142D02*
X142064342Y-89809523D01*
X142064342Y-89809523D02*
X141873866Y-89809523D01*
X141873866Y-89809523D02*
X141778628Y-89857142D01*
X141778628Y-89857142D02*
X141731009Y-89904761D01*
X141731009Y-89904761D02*
X141683390Y-89999999D01*
X142350057Y-89619047D02*
X142350057Y-88857142D01*
X142254819Y-88095237D02*
X142254819Y-88666665D01*
X142254819Y-88380951D02*
X141254819Y-88380951D01*
X141254819Y-88380951D02*
X141397676Y-88476189D01*
X141397676Y-88476189D02*
X141492914Y-88571427D01*
X141492914Y-88571427D02*
X141540533Y-88666665D01*
X142159580Y-87666665D02*
X142207200Y-87619046D01*
X142207200Y-87619046D02*
X142254819Y-87666665D01*
X142254819Y-87666665D02*
X142207200Y-87714284D01*
X142207200Y-87714284D02*
X142159580Y-87666665D01*
X142159580Y-87666665D02*
X142254819Y-87666665D01*
X141254819Y-86999999D02*
X141254819Y-86904761D01*
X141254819Y-86904761D02*
X141302438Y-86809523D01*
X141302438Y-86809523D02*
X141350057Y-86761904D01*
X141350057Y-86761904D02*
X141445295Y-86714285D01*
X141445295Y-86714285D02*
X141635771Y-86666666D01*
X141635771Y-86666666D02*
X141873866Y-86666666D01*
X141873866Y-86666666D02*
X142064342Y-86714285D01*
X142064342Y-86714285D02*
X142159580Y-86761904D01*
X142159580Y-86761904D02*
X142207200Y-86809523D01*
X142207200Y-86809523D02*
X142254819Y-86904761D01*
X142254819Y-86904761D02*
X142254819Y-86999999D01*
X142254819Y-86999999D02*
X142207200Y-87095237D01*
X142207200Y-87095237D02*
X142159580Y-87142856D01*
X142159580Y-87142856D02*
X142064342Y-87190475D01*
X142064342Y-87190475D02*
X141873866Y-87238094D01*
X141873866Y-87238094D02*
X141635771Y-87238094D01*
X141635771Y-87238094D02*
X141445295Y-87190475D01*
X141445295Y-87190475D02*
X141350057Y-87142856D01*
X141350057Y-87142856D02*
X141302438Y-87095237D01*
X141302438Y-87095237D02*
X141254819Y-86999999D01*
X110571428Y-77248080D02*
X110523809Y-77295700D01*
X110523809Y-77295700D02*
X110380952Y-77343319D01*
X110380952Y-77343319D02*
X110285714Y-77343319D01*
X110285714Y-77343319D02*
X110142857Y-77295700D01*
X110142857Y-77295700D02*
X110047619Y-77200461D01*
X110047619Y-77200461D02*
X110000000Y-77105223D01*
X110000000Y-77105223D02*
X109952381Y-76914747D01*
X109952381Y-76914747D02*
X109952381Y-76771890D01*
X109952381Y-76771890D02*
X110000000Y-76581414D01*
X110000000Y-76581414D02*
X110047619Y-76486176D01*
X110047619Y-76486176D02*
X110142857Y-76390938D01*
X110142857Y-76390938D02*
X110285714Y-76343319D01*
X110285714Y-76343319D02*
X110380952Y-76343319D01*
X110380952Y-76343319D02*
X110523809Y-76390938D01*
X110523809Y-76390938D02*
X110571428Y-76438557D01*
X110952381Y-77295700D02*
X111095238Y-77343319D01*
X111095238Y-77343319D02*
X111333333Y-77343319D01*
X111333333Y-77343319D02*
X111428571Y-77295700D01*
X111428571Y-77295700D02*
X111476190Y-77248080D01*
X111476190Y-77248080D02*
X111523809Y-77152842D01*
X111523809Y-77152842D02*
X111523809Y-77057604D01*
X111523809Y-77057604D02*
X111476190Y-76962366D01*
X111476190Y-76962366D02*
X111428571Y-76914747D01*
X111428571Y-76914747D02*
X111333333Y-76867128D01*
X111333333Y-76867128D02*
X111142857Y-76819509D01*
X111142857Y-76819509D02*
X111047619Y-76771890D01*
X111047619Y-76771890D02*
X111000000Y-76724271D01*
X111000000Y-76724271D02*
X110952381Y-76629033D01*
X110952381Y-76629033D02*
X110952381Y-76533795D01*
X110952381Y-76533795D02*
X111000000Y-76438557D01*
X111000000Y-76438557D02*
X111047619Y-76390938D01*
X111047619Y-76390938D02*
X111142857Y-76343319D01*
X111142857Y-76343319D02*
X111380952Y-76343319D01*
X111380952Y-76343319D02*
X111523809Y-76390938D01*
X112428571Y-76343319D02*
X111952381Y-76343319D01*
X111952381Y-76343319D02*
X111904762Y-76819509D01*
X111904762Y-76819509D02*
X111952381Y-76771890D01*
X111952381Y-76771890D02*
X112047619Y-76724271D01*
X112047619Y-76724271D02*
X112285714Y-76724271D01*
X112285714Y-76724271D02*
X112380952Y-76771890D01*
X112380952Y-76771890D02*
X112428571Y-76819509D01*
X112428571Y-76819509D02*
X112476190Y-76914747D01*
X112476190Y-76914747D02*
X112476190Y-77152842D01*
X112476190Y-77152842D02*
X112428571Y-77248080D01*
X112428571Y-77248080D02*
X112380952Y-77295700D01*
X112380952Y-77295700D02*
X112285714Y-77343319D01*
X112285714Y-77343319D02*
X112047619Y-77343319D01*
X112047619Y-77343319D02*
X111952381Y-77295700D01*
X111952381Y-77295700D02*
X111904762Y-77248080D01*
X112666667Y-77438557D02*
X113428571Y-77438557D01*
X113857143Y-76343319D02*
X113952381Y-76343319D01*
X113952381Y-76343319D02*
X114047619Y-76390938D01*
X114047619Y-76390938D02*
X114095238Y-76438557D01*
X114095238Y-76438557D02*
X114142857Y-76533795D01*
X114142857Y-76533795D02*
X114190476Y-76724271D01*
X114190476Y-76724271D02*
X114190476Y-76962366D01*
X114190476Y-76962366D02*
X114142857Y-77152842D01*
X114142857Y-77152842D02*
X114095238Y-77248080D01*
X114095238Y-77248080D02*
X114047619Y-77295700D01*
X114047619Y-77295700D02*
X113952381Y-77343319D01*
X113952381Y-77343319D02*
X113857143Y-77343319D01*
X113857143Y-77343319D02*
X113761905Y-77295700D01*
X113761905Y-77295700D02*
X113714286Y-77248080D01*
X113714286Y-77248080D02*
X113666667Y-77152842D01*
X113666667Y-77152842D02*
X113619048Y-76962366D01*
X113619048Y-76962366D02*
X113619048Y-76724271D01*
X113619048Y-76724271D02*
X113666667Y-76533795D01*
X113666667Y-76533795D02*
X113714286Y-76438557D01*
X113714286Y-76438557D02*
X113761905Y-76390938D01*
X113761905Y-76390938D02*
X113857143Y-76343319D01*
X114619048Y-77248080D02*
X114666667Y-77295700D01*
X114666667Y-77295700D02*
X114619048Y-77343319D01*
X114619048Y-77343319D02*
X114571429Y-77295700D01*
X114571429Y-77295700D02*
X114619048Y-77248080D01*
X114619048Y-77248080D02*
X114619048Y-77343319D01*
X115571428Y-76343319D02*
X115095238Y-76343319D01*
X115095238Y-76343319D02*
X115047619Y-76819509D01*
X115047619Y-76819509D02*
X115095238Y-76771890D01*
X115095238Y-76771890D02*
X115190476Y-76724271D01*
X115190476Y-76724271D02*
X115428571Y-76724271D01*
X115428571Y-76724271D02*
X115523809Y-76771890D01*
X115523809Y-76771890D02*
X115571428Y-76819509D01*
X115571428Y-76819509D02*
X115619047Y-76914747D01*
X115619047Y-76914747D02*
X115619047Y-77152842D01*
X115619047Y-77152842D02*
X115571428Y-77248080D01*
X115571428Y-77248080D02*
X115523809Y-77295700D01*
X115523809Y-77295700D02*
X115428571Y-77343319D01*
X115428571Y-77343319D02*
X115190476Y-77343319D01*
X115190476Y-77343319D02*
X115095238Y-77295700D01*
X115095238Y-77295700D02*
X115047619Y-77248080D01*
X105635714Y-108459580D02*
X105588095Y-108507200D01*
X105588095Y-108507200D02*
X105445238Y-108554819D01*
X105445238Y-108554819D02*
X105350000Y-108554819D01*
X105350000Y-108554819D02*
X105207143Y-108507200D01*
X105207143Y-108507200D02*
X105111905Y-108411961D01*
X105111905Y-108411961D02*
X105064286Y-108316723D01*
X105064286Y-108316723D02*
X105016667Y-108126247D01*
X105016667Y-108126247D02*
X105016667Y-107983390D01*
X105016667Y-107983390D02*
X105064286Y-107792914D01*
X105064286Y-107792914D02*
X105111905Y-107697676D01*
X105111905Y-107697676D02*
X105207143Y-107602438D01*
X105207143Y-107602438D02*
X105350000Y-107554819D01*
X105350000Y-107554819D02*
X105445238Y-107554819D01*
X105445238Y-107554819D02*
X105588095Y-107602438D01*
X105588095Y-107602438D02*
X105635714Y-107650057D01*
X106016667Y-108507200D02*
X106159524Y-108554819D01*
X106159524Y-108554819D02*
X106397619Y-108554819D01*
X106397619Y-108554819D02*
X106492857Y-108507200D01*
X106492857Y-108507200D02*
X106540476Y-108459580D01*
X106540476Y-108459580D02*
X106588095Y-108364342D01*
X106588095Y-108364342D02*
X106588095Y-108269104D01*
X106588095Y-108269104D02*
X106540476Y-108173866D01*
X106540476Y-108173866D02*
X106492857Y-108126247D01*
X106492857Y-108126247D02*
X106397619Y-108078628D01*
X106397619Y-108078628D02*
X106207143Y-108031009D01*
X106207143Y-108031009D02*
X106111905Y-107983390D01*
X106111905Y-107983390D02*
X106064286Y-107935771D01*
X106064286Y-107935771D02*
X106016667Y-107840533D01*
X106016667Y-107840533D02*
X106016667Y-107745295D01*
X106016667Y-107745295D02*
X106064286Y-107650057D01*
X106064286Y-107650057D02*
X106111905Y-107602438D01*
X106111905Y-107602438D02*
X106207143Y-107554819D01*
X106207143Y-107554819D02*
X106445238Y-107554819D01*
X106445238Y-107554819D02*
X106588095Y-107602438D01*
X107445238Y-107888152D02*
X107445238Y-108554819D01*
X107207143Y-107507200D02*
X106969048Y-108221485D01*
X106969048Y-108221485D02*
X107588095Y-108221485D01*
X107730953Y-108650057D02*
X108492857Y-108650057D01*
X109254762Y-108554819D02*
X108683334Y-108554819D01*
X108969048Y-108554819D02*
X108969048Y-107554819D01*
X108969048Y-107554819D02*
X108873810Y-107697676D01*
X108873810Y-107697676D02*
X108778572Y-107792914D01*
X108778572Y-107792914D02*
X108683334Y-107840533D01*
X109683334Y-108459580D02*
X109730953Y-108507200D01*
X109730953Y-108507200D02*
X109683334Y-108554819D01*
X109683334Y-108554819D02*
X109635715Y-108507200D01*
X109635715Y-108507200D02*
X109683334Y-108459580D01*
X109683334Y-108459580D02*
X109683334Y-108554819D01*
X110350000Y-107554819D02*
X110445238Y-107554819D01*
X110445238Y-107554819D02*
X110540476Y-107602438D01*
X110540476Y-107602438D02*
X110588095Y-107650057D01*
X110588095Y-107650057D02*
X110635714Y-107745295D01*
X110635714Y-107745295D02*
X110683333Y-107935771D01*
X110683333Y-107935771D02*
X110683333Y-108173866D01*
X110683333Y-108173866D02*
X110635714Y-108364342D01*
X110635714Y-108364342D02*
X110588095Y-108459580D01*
X110588095Y-108459580D02*
X110540476Y-108507200D01*
X110540476Y-108507200D02*
X110445238Y-108554819D01*
X110445238Y-108554819D02*
X110350000Y-108554819D01*
X110350000Y-108554819D02*
X110254762Y-108507200D01*
X110254762Y-108507200D02*
X110207143Y-108459580D01*
X110207143Y-108459580D02*
X110159524Y-108364342D01*
X110159524Y-108364342D02*
X110111905Y-108173866D01*
X110111905Y-108173866D02*
X110111905Y-107935771D01*
X110111905Y-107935771D02*
X110159524Y-107745295D01*
X110159524Y-107745295D02*
X110207143Y-107650057D01*
X110207143Y-107650057D02*
X110254762Y-107602438D01*
X110254762Y-107602438D02*
X110350000Y-107554819D01*
D13*
%TO.C,CS6_0.5*%
X125707143Y-75078500D02*
X125707143Y-73919500D01*
X125707143Y-69938500D02*
X125707143Y-71757500D01*
X123663143Y-75078500D02*
X125707143Y-75078500D01*
X119307143Y-69938500D02*
X125707143Y-69938500D01*
X119307143Y-69938500D02*
X117807143Y-69938500D01*
X117807143Y-75078500D02*
X119851143Y-75078500D01*
X117807143Y-75078500D02*
X117807143Y-73919500D01*
X117807143Y-71757500D02*
X117807143Y-69938500D01*
X119701143Y-75535500D02*
G75*
G02*
X119447143Y-75535500I-127000J0D01*
G01*
X119447143Y-75535500D02*
G75*
G02*
X119701143Y-75535500I127000J0D01*
G01*
%TO.C,CS3_1.0*%
X100375000Y-115750000D02*
X100375000Y-113781000D01*
X100375000Y-111619000D02*
X100375000Y-110550000D01*
X97906000Y-110550000D02*
X100375000Y-110550000D01*
X96906000Y-110550000D02*
X96943500Y-110550000D01*
X95906000Y-110550000D02*
X95943500Y-110550000D01*
X94906000Y-110550000D02*
X94943500Y-110550000D01*
X93906000Y-110550000D02*
X93943500Y-110550000D01*
X93906000Y-110550000D02*
X93943500Y-110550000D01*
X92906000Y-110550000D02*
X92943500Y-110550000D01*
X91906000Y-110550000D02*
X91943500Y-110550000D01*
X88475000Y-115750000D02*
X100375000Y-115750000D01*
X88475000Y-115750000D02*
X88475000Y-113781000D01*
X88475000Y-111619000D02*
X88475000Y-110550000D01*
X88475000Y-110550000D02*
X90943500Y-110550000D01*
X91525000Y-108900000D02*
G75*
G02*
X91325000Y-108900000I-100000J0D01*
G01*
X91325000Y-108900000D02*
G75*
G02*
X91525000Y-108900000I100000J0D01*
G01*
D14*
%TO.C,J1*%
X91920000Y-83800000D02*
X93300000Y-83800000D01*
X91920000Y-85180000D02*
X91920000Y-83800000D01*
X91920000Y-86450000D02*
X91920000Y-99260000D01*
X91920000Y-86450000D02*
X94680000Y-86450000D01*
X91920000Y-99260000D02*
X94680000Y-99260000D01*
X94680000Y-86450000D02*
X94680000Y-99260000D01*
%TO.C,J2*%
X98005714Y-83800000D02*
X99385714Y-83800000D01*
X98005714Y-85180000D02*
X98005714Y-83800000D01*
X98005714Y-86450000D02*
X98005714Y-99260000D01*
X98005714Y-86450000D02*
X100765714Y-86450000D01*
X98005714Y-99260000D02*
X100765714Y-99260000D01*
X100765714Y-86450000D02*
X100765714Y-99260000D01*
%TO.C,J3*%
X104091429Y-83800000D02*
X105471429Y-83800000D01*
X104091429Y-85180000D02*
X104091429Y-83800000D01*
X104091429Y-86450000D02*
X104091429Y-99260000D01*
X104091429Y-86450000D02*
X106851429Y-86450000D01*
X104091429Y-99260000D02*
X106851429Y-99260000D01*
X106851429Y-86450000D02*
X106851429Y-99260000D01*
%TO.C,J8*%
X134520000Y-83800000D02*
X135900000Y-83800000D01*
X134520000Y-85180000D02*
X134520000Y-83800000D01*
X134520000Y-86450000D02*
X134520000Y-99260000D01*
X134520000Y-86450000D02*
X137280000Y-86450000D01*
X134520000Y-99260000D02*
X137280000Y-99260000D01*
X137280000Y-86450000D02*
X137280000Y-99260000D01*
%TO.C,J7*%
X128434286Y-83800000D02*
X129814286Y-83800000D01*
X128434286Y-85180000D02*
X128434286Y-83800000D01*
X128434286Y-86450000D02*
X128434286Y-99260000D01*
X128434286Y-86450000D02*
X131194286Y-86450000D01*
X128434286Y-99260000D02*
X131194286Y-99260000D01*
X131194286Y-86450000D02*
X131194286Y-99260000D01*
%TO.C,J6*%
X122348571Y-83800000D02*
X123728571Y-83800000D01*
X122348571Y-85180000D02*
X122348571Y-83800000D01*
X122348571Y-86450000D02*
X122348571Y-99260000D01*
X122348571Y-86450000D02*
X125108571Y-86450000D01*
X122348571Y-99260000D02*
X125108571Y-99260000D01*
X125108571Y-86450000D02*
X125108571Y-99260000D01*
%TO.C,J5*%
X116262857Y-83800000D02*
X117642857Y-83800000D01*
X116262857Y-85180000D02*
X116262857Y-83800000D01*
X116262857Y-86450000D02*
X116262857Y-99260000D01*
X116262857Y-86450000D02*
X119022857Y-86450000D01*
X116262857Y-99260000D02*
X119022857Y-99260000D01*
X119022857Y-86450000D02*
X119022857Y-99260000D01*
%TO.C,J4*%
X110177143Y-83800000D02*
X111557143Y-83800000D01*
X110177143Y-85180000D02*
X110177143Y-83800000D01*
X110177143Y-86450000D02*
X110177143Y-99260000D01*
X110177143Y-86450000D02*
X112937143Y-86450000D01*
X110177143Y-99260000D02*
X112937143Y-99260000D01*
X112937143Y-86450000D02*
X112937143Y-99260000D01*
D13*
%TO.C,CS7_0.5*%
X134678571Y-75078500D02*
X134678571Y-73919500D01*
X134678571Y-69938500D02*
X134678571Y-71757500D01*
X132634571Y-75078500D02*
X134678571Y-75078500D01*
X128278571Y-69938500D02*
X134678571Y-69938500D01*
X128278571Y-69938500D02*
X126778571Y-69938500D01*
X126778571Y-75078500D02*
X128822571Y-75078500D01*
X126778571Y-75078500D02*
X126778571Y-73919500D01*
X126778571Y-71757500D02*
X126778571Y-69938500D01*
X128672571Y-75535500D02*
G75*
G02*
X128418571Y-75535500I-127000J0D01*
G01*
X128418571Y-75535500D02*
G75*
G02*
X128672571Y-75535500I127000J0D01*
G01*
%TO.C,CS7_1.0*%
X149675000Y-96550000D02*
X147706000Y-96550000D01*
X145544000Y-96550000D02*
X144475000Y-96550000D01*
X144475000Y-99019000D02*
X144475000Y-96550000D01*
X144475000Y-100019000D02*
X144475000Y-99981500D01*
X144475000Y-101019000D02*
X144475000Y-100981500D01*
X144475000Y-102019000D02*
X144475000Y-101981500D01*
X144475000Y-103019000D02*
X144475000Y-102981500D01*
X144475000Y-103019000D02*
X144475000Y-102981500D01*
X144475000Y-104019000D02*
X144475000Y-103981500D01*
X144475000Y-105019000D02*
X144475000Y-104981500D01*
X149675000Y-108450000D02*
X149675000Y-96550000D01*
X149675000Y-108450000D02*
X147706000Y-108450000D01*
X145544000Y-108450000D02*
X144475000Y-108450000D01*
X144475000Y-108450000D02*
X144475000Y-105981500D01*
X142925000Y-105500000D02*
G75*
G02*
X142725000Y-105500000I-100000J0D01*
G01*
X142725000Y-105500000D02*
G75*
G02*
X142925000Y-105500000I100000J0D01*
G01*
%TO.C,CS5_1.0*%
X127225000Y-115750000D02*
X127225000Y-113781000D01*
X127225000Y-111619000D02*
X127225000Y-110550000D01*
X124756000Y-110550000D02*
X127225000Y-110550000D01*
X123756000Y-110550000D02*
X123793500Y-110550000D01*
X122756000Y-110550000D02*
X122793500Y-110550000D01*
X121756000Y-110550000D02*
X121793500Y-110550000D01*
X120756000Y-110550000D02*
X120793500Y-110550000D01*
X120756000Y-110550000D02*
X120793500Y-110550000D01*
X119756000Y-110550000D02*
X119793500Y-110550000D01*
X118756000Y-110550000D02*
X118793500Y-110550000D01*
X115325000Y-115750000D02*
X127225000Y-115750000D01*
X115325000Y-115750000D02*
X115325000Y-113781000D01*
X115325000Y-111619000D02*
X115325000Y-110550000D01*
X115325000Y-110550000D02*
X117793500Y-110550000D01*
X118375000Y-108900000D02*
G75*
G02*
X118175000Y-108900000I-100000J0D01*
G01*
X118175000Y-108900000D02*
G75*
G02*
X118375000Y-108900000I100000J0D01*
G01*
%TO.C,CS3_0.5*%
X98792857Y-75078500D02*
X98792857Y-73919500D01*
X98792857Y-69938500D02*
X98792857Y-71757500D01*
X96748857Y-75078500D02*
X98792857Y-75078500D01*
X92392857Y-69938500D02*
X98792857Y-69938500D01*
X92392857Y-69938500D02*
X90892857Y-69938500D01*
X90892857Y-75078500D02*
X92936857Y-75078500D01*
X90892857Y-75078500D02*
X90892857Y-73919500D01*
X90892857Y-71757500D02*
X90892857Y-69938500D01*
X92786857Y-75535500D02*
G75*
G02*
X92532857Y-75535500I-127000J0D01*
G01*
X92532857Y-75535500D02*
G75*
G02*
X92786857Y-75535500I127000J0D01*
G01*
%TO.C,CS4_0.5*%
X107764286Y-75078500D02*
X107764286Y-73919500D01*
X107764286Y-69938500D02*
X107764286Y-71757500D01*
X105720286Y-75078500D02*
X107764286Y-75078500D01*
X101364286Y-69938500D02*
X107764286Y-69938500D01*
X101364286Y-69938500D02*
X99864286Y-69938500D01*
X99864286Y-75078500D02*
X101908286Y-75078500D01*
X99864286Y-75078500D02*
X99864286Y-73919500D01*
X99864286Y-71757500D02*
X99864286Y-69938500D01*
X101758286Y-75535500D02*
G75*
G02*
X101504286Y-75535500I-127000J0D01*
G01*
X101504286Y-75535500D02*
G75*
G02*
X101758286Y-75535500I127000J0D01*
G01*
D15*
%TO.C,U1*%
X85129000Y-97170000D02*
X67984000Y-97170000D01*
X87034000Y-95265000D02*
X87034000Y-81295000D01*
X66079000Y-92775000D02*
X65068728Y-92771272D01*
X64569000Y-92271272D02*
X64569000Y-84276000D01*
X65069000Y-83776000D02*
X66079000Y-83776000D01*
D16*
X66079000Y-81295000D02*
X66079000Y-95265000D01*
D15*
X66079000Y-81295000D02*
X66079000Y-95265000D01*
X85129000Y-79390000D02*
X67984000Y-79390000D01*
X67984000Y-97170000D02*
G75*
G02*
X66079000Y-95265000I1J1905001D01*
G01*
X87034000Y-95265000D02*
G75*
G02*
X85129000Y-97170000I-1905001J1D01*
G01*
X65068728Y-92771272D02*
G75*
G02*
X64569001Y-92271272I291J500018D01*
G01*
X64569000Y-84276000D02*
G75*
G02*
X65069000Y-83776000I500000J0D01*
G01*
X66079000Y-81295000D02*
G75*
G02*
X67984000Y-79390000I1905000J0D01*
G01*
X85129000Y-79390000D02*
G75*
G02*
X87034000Y-81295000I0J-1905000D01*
G01*
D17*
X66572000Y-97230000D02*
G75*
G02*
X66068000Y-97230000I-252000J0D01*
G01*
X66068000Y-97230000D02*
G75*
G02*
X66572000Y-97230000I252000J0D01*
G01*
X67452000Y-96087000D02*
G75*
G02*
X66948000Y-96087000I-252000J0D01*
G01*
X66948000Y-96087000D02*
G75*
G02*
X67452000Y-96087000I252000J0D01*
G01*
D13*
%TO.C,CS2_1.0*%
X86950000Y-115750000D02*
X86950000Y-113781000D01*
X86950000Y-111619000D02*
X86950000Y-110550000D01*
X84481000Y-110550000D02*
X86950000Y-110550000D01*
X83481000Y-110550000D02*
X83518500Y-110550000D01*
X82481000Y-110550000D02*
X82518500Y-110550000D01*
X81481000Y-110550000D02*
X81518500Y-110550000D01*
X80481000Y-110550000D02*
X80518500Y-110550000D01*
X80481000Y-110550000D02*
X80518500Y-110550000D01*
X79481000Y-110550000D02*
X79518500Y-110550000D01*
X78481000Y-110550000D02*
X78518500Y-110550000D01*
X75050000Y-115750000D02*
X86950000Y-115750000D01*
X75050000Y-115750000D02*
X75050000Y-113781000D01*
X75050000Y-111619000D02*
X75050000Y-110550000D01*
X75050000Y-110550000D02*
X77518500Y-110550000D01*
X78100000Y-108900000D02*
G75*
G02*
X77900000Y-108900000I-100000J0D01*
G01*
X77900000Y-108900000D02*
G75*
G02*
X78100000Y-108900000I100000J0D01*
G01*
%TO.C,CS6_1.0*%
X140650000Y-115750000D02*
X140650000Y-113781000D01*
X140650000Y-111619000D02*
X140650000Y-110550000D01*
X138181000Y-110550000D02*
X140650000Y-110550000D01*
X137181000Y-110550000D02*
X137218500Y-110550000D01*
X136181000Y-110550000D02*
X136218500Y-110550000D01*
X135181000Y-110550000D02*
X135218500Y-110550000D01*
X134181000Y-110550000D02*
X134218500Y-110550000D01*
X134181000Y-110550000D02*
X134218500Y-110550000D01*
X133181000Y-110550000D02*
X133218500Y-110550000D01*
X132181000Y-110550000D02*
X132218500Y-110550000D01*
X128750000Y-115750000D02*
X140650000Y-115750000D01*
X128750000Y-115750000D02*
X128750000Y-113781000D01*
X128750000Y-111619000D02*
X128750000Y-110550000D01*
X128750000Y-110550000D02*
X131218500Y-110550000D01*
X131800000Y-108900000D02*
G75*
G02*
X131600000Y-108900000I-100000J0D01*
G01*
X131600000Y-108900000D02*
G75*
G02*
X131800000Y-108900000I100000J0D01*
G01*
%TO.C,CS8_0.5*%
X143650000Y-75078500D02*
X143650000Y-73919500D01*
X143650000Y-69938500D02*
X143650000Y-71757500D01*
X141606000Y-75078500D02*
X143650000Y-75078500D01*
X137250000Y-69938500D02*
X143650000Y-69938500D01*
X137250000Y-69938500D02*
X135750000Y-69938500D01*
X135750000Y-75078500D02*
X137794000Y-75078500D01*
X135750000Y-75078500D02*
X135750000Y-73919500D01*
X135750000Y-71757500D02*
X135750000Y-69938500D01*
X137644000Y-75535500D02*
G75*
G02*
X137390000Y-75535500I-127000J0D01*
G01*
X137390000Y-75535500D02*
G75*
G02*
X137644000Y-75535500I127000J0D01*
G01*
%TO.C,CS1_1.0*%
X67050000Y-111150000D02*
X69019000Y-111150000D01*
X71181000Y-111150000D02*
X72250000Y-111150000D01*
X72250000Y-108681000D02*
X72250000Y-111150000D01*
X72250000Y-107681000D02*
X72250000Y-107718500D01*
X72250000Y-106681000D02*
X72250000Y-106718500D01*
X72250000Y-105681000D02*
X72250000Y-105718500D01*
X72250000Y-104681000D02*
X72250000Y-104718500D01*
X72250000Y-104681000D02*
X72250000Y-104718500D01*
X72250000Y-103681000D02*
X72250000Y-103718500D01*
X72250000Y-102681000D02*
X72250000Y-102718500D01*
X67050000Y-99250000D02*
X67050000Y-111150000D01*
X67050000Y-99250000D02*
X69019000Y-99250000D01*
X71181000Y-99250000D02*
X72250000Y-99250000D01*
X72250000Y-99250000D02*
X72250000Y-101718500D01*
X74000000Y-102200000D02*
G75*
G02*
X73800000Y-102200000I-100000J0D01*
G01*
X73800000Y-102200000D02*
G75*
G02*
X74000000Y-102200000I100000J0D01*
G01*
%TO.C,CS2_0.5*%
X89821429Y-75078500D02*
X89821429Y-73919500D01*
X89821429Y-69938500D02*
X89821429Y-71757500D01*
X87777429Y-75078500D02*
X89821429Y-75078500D01*
X83421429Y-69938500D02*
X89821429Y-69938500D01*
X83421429Y-69938500D02*
X81921429Y-69938500D01*
X81921429Y-75078500D02*
X83965429Y-75078500D01*
X81921429Y-75078500D02*
X81921429Y-73919500D01*
X81921429Y-71757500D02*
X81921429Y-69938500D01*
X83815429Y-75535500D02*
G75*
G02*
X83561429Y-75535500I-127000J0D01*
G01*
X83561429Y-75535500D02*
G75*
G02*
X83815429Y-75535500I127000J0D01*
G01*
%TO.C,CS1_0.5*%
X80850000Y-75078500D02*
X80850000Y-73919500D01*
X80850000Y-69938500D02*
X80850000Y-71757500D01*
X78806000Y-75078500D02*
X80850000Y-75078500D01*
X74450000Y-69938500D02*
X80850000Y-69938500D01*
X74450000Y-69938500D02*
X72950000Y-69938500D01*
X72950000Y-75078500D02*
X74994000Y-75078500D01*
X72950000Y-75078500D02*
X72950000Y-73919500D01*
X72950000Y-71757500D02*
X72950000Y-69938500D01*
X74844000Y-75535500D02*
G75*
G02*
X74590000Y-75535500I-127000J0D01*
G01*
X74590000Y-75535500D02*
G75*
G02*
X74844000Y-75535500I127000J0D01*
G01*
%TO.C,CS8_1.0*%
X149575000Y-83350000D02*
X147606000Y-83350000D01*
X145444000Y-83350000D02*
X144375000Y-83350000D01*
X144375000Y-85819000D02*
X144375000Y-83350000D01*
X144375000Y-86819000D02*
X144375000Y-86781500D01*
X144375000Y-87819000D02*
X144375000Y-87781500D01*
X144375000Y-88819000D02*
X144375000Y-88781500D01*
X144375000Y-89819000D02*
X144375000Y-89781500D01*
X144375000Y-89819000D02*
X144375000Y-89781500D01*
X144375000Y-90819000D02*
X144375000Y-90781500D01*
X144375000Y-91819000D02*
X144375000Y-91781500D01*
X149575000Y-95250000D02*
X149575000Y-83350000D01*
X149575000Y-95250000D02*
X147606000Y-95250000D01*
X145444000Y-95250000D02*
X144375000Y-95250000D01*
X144375000Y-95250000D02*
X144375000Y-92781500D01*
X142825000Y-92300000D02*
G75*
G02*
X142625000Y-92300000I-100000J0D01*
G01*
X142625000Y-92300000D02*
G75*
G02*
X142825000Y-92300000I100000J0D01*
G01*
%TO.C,CS5_0.5*%
X116735714Y-75078500D02*
X116735714Y-73919500D01*
X116735714Y-69938500D02*
X116735714Y-71757500D01*
X114691714Y-75078500D02*
X116735714Y-75078500D01*
X110335714Y-69938500D02*
X116735714Y-69938500D01*
X110335714Y-69938500D02*
X108835714Y-69938500D01*
X108835714Y-75078500D02*
X110879714Y-75078500D01*
X108835714Y-75078500D02*
X108835714Y-73919500D01*
X108835714Y-71757500D02*
X108835714Y-69938500D01*
X110729714Y-75535500D02*
G75*
G02*
X110475714Y-75535500I-127000J0D01*
G01*
X110475714Y-75535500D02*
G75*
G02*
X110729714Y-75535500I127000J0D01*
G01*
%TO.C,CS4_1.0*%
X113800000Y-115750000D02*
X113800000Y-113781000D01*
X113800000Y-111619000D02*
X113800000Y-110550000D01*
X111331000Y-110550000D02*
X113800000Y-110550000D01*
X110331000Y-110550000D02*
X110368500Y-110550000D01*
X109331000Y-110550000D02*
X109368500Y-110550000D01*
X108331000Y-110550000D02*
X108368500Y-110550000D01*
X107331000Y-110550000D02*
X107368500Y-110550000D01*
X107331000Y-110550000D02*
X107368500Y-110550000D01*
X106331000Y-110550000D02*
X106368500Y-110550000D01*
X105331000Y-110550000D02*
X105368500Y-110550000D01*
X101900000Y-115750000D02*
X113800000Y-115750000D01*
X101900000Y-115750000D02*
X101900000Y-113781000D01*
X101900000Y-111619000D02*
X101900000Y-110550000D01*
X101900000Y-110550000D02*
X104368500Y-110550000D01*
X104950000Y-108900000D02*
G75*
G02*
X104750000Y-108900000I-100000J0D01*
G01*
X104750000Y-108900000D02*
G75*
G02*
X104950000Y-108900000I100000J0D01*
G01*
%TD*%
%LPC*%
D18*
%TO.C,CS6_0.5*%
X120257143Y-75438500D03*
X120757143Y-75438500D03*
X121257143Y-75438500D03*
X121757143Y-75438500D03*
X122257143Y-75438500D03*
X122757143Y-75438500D03*
X123257143Y-75438500D03*
D19*
X124957143Y-72838500D03*
X118557143Y-72838500D03*
%TD*%
D20*
%TO.C,CS3_1.0*%
X91425000Y-110100000D03*
X92425000Y-110100000D03*
X93425000Y-110100000D03*
X94425000Y-110100000D03*
X95425000Y-110100000D03*
X96425000Y-110100000D03*
X97425000Y-110100000D03*
D19*
X99625000Y-112700000D03*
X89225000Y-112700000D03*
%TD*%
D21*
%TO.C,J1*%
X93300000Y-85180000D03*
D22*
X93300000Y-87720000D03*
X93300000Y-90260000D03*
X93300000Y-92800000D03*
X93300000Y-95340000D03*
X93300000Y-97880000D03*
%TD*%
D21*
%TO.C,J2*%
X99385714Y-85180000D03*
D22*
X99385714Y-87720000D03*
X99385714Y-90260000D03*
X99385714Y-92800000D03*
X99385714Y-95340000D03*
X99385714Y-97880000D03*
%TD*%
D21*
%TO.C,J3*%
X105471429Y-85180000D03*
D22*
X105471429Y-87720000D03*
X105471429Y-90260000D03*
X105471429Y-92800000D03*
X105471429Y-95340000D03*
X105471429Y-97880000D03*
%TD*%
D21*
%TO.C,J8*%
X135900000Y-85180000D03*
D22*
X135900000Y-87720000D03*
X135900000Y-90260000D03*
X135900000Y-92800000D03*
X135900000Y-95340000D03*
X135900000Y-97880000D03*
%TD*%
D21*
%TO.C,J7*%
X129814286Y-85180000D03*
D22*
X129814286Y-87720000D03*
X129814286Y-90260000D03*
X129814286Y-92800000D03*
X129814286Y-95340000D03*
X129814286Y-97880000D03*
%TD*%
D21*
%TO.C,J6*%
X123728571Y-85180000D03*
D22*
X123728571Y-87720000D03*
X123728571Y-90260000D03*
X123728571Y-92800000D03*
X123728571Y-95340000D03*
X123728571Y-97880000D03*
%TD*%
D21*
%TO.C,J5*%
X117642857Y-85180000D03*
D22*
X117642857Y-87720000D03*
X117642857Y-90260000D03*
X117642857Y-92800000D03*
X117642857Y-95340000D03*
X117642857Y-97880000D03*
%TD*%
D21*
%TO.C,J4*%
X111557143Y-85180000D03*
D22*
X111557143Y-87720000D03*
X111557143Y-90260000D03*
X111557143Y-92800000D03*
X111557143Y-95340000D03*
X111557143Y-97880000D03*
%TD*%
D18*
%TO.C,CS7_0.5*%
X129228571Y-75438500D03*
X129728571Y-75438500D03*
X130228571Y-75438500D03*
X130728571Y-75438500D03*
X131228571Y-75438500D03*
X131728571Y-75438500D03*
X132228571Y-75438500D03*
D19*
X133928571Y-72838500D03*
X127528571Y-72838500D03*
%TD*%
D23*
%TO.C,CS7_1.0*%
X144025000Y-105500000D03*
X144025000Y-104500000D03*
X144025000Y-103500000D03*
X144025000Y-102500000D03*
X144025000Y-101500000D03*
X144025000Y-100500000D03*
X144025000Y-99500000D03*
D24*
X146625000Y-97300000D03*
X146625000Y-107700000D03*
%TD*%
D20*
%TO.C,CS5_1.0*%
X118275000Y-110100000D03*
X119275000Y-110100000D03*
X120275000Y-110100000D03*
X121275000Y-110100000D03*
X122275000Y-110100000D03*
X123275000Y-110100000D03*
X124275000Y-110100000D03*
D19*
X126475000Y-112700000D03*
X116075000Y-112700000D03*
%TD*%
D18*
%TO.C,CS3_0.5*%
X93342857Y-75438500D03*
X93842857Y-75438500D03*
X94342857Y-75438500D03*
X94842857Y-75438500D03*
X95342857Y-75438500D03*
X95842857Y-75438500D03*
X96342857Y-75438500D03*
D19*
X98042857Y-72838500D03*
X91642857Y-72838500D03*
%TD*%
D18*
%TO.C,CS4_0.5*%
X102314286Y-75438500D03*
X102814286Y-75438500D03*
X103314286Y-75438500D03*
X103814286Y-75438500D03*
X104314286Y-75438500D03*
X104814286Y-75438500D03*
X105314286Y-75438500D03*
D19*
X107014286Y-72838500D03*
X100614286Y-72838500D03*
%TD*%
D25*
%TO.C,U1*%
X69000000Y-96735000D03*
D26*
X69000000Y-95900000D03*
D25*
X71540000Y-96735000D03*
D26*
X71540000Y-95900000D03*
D25*
X74080000Y-96735000D03*
D26*
X74080000Y-95900000D03*
D25*
X76620000Y-96735000D03*
D26*
X76620000Y-95900000D03*
D25*
X79160000Y-96735000D03*
D26*
X79160000Y-95900000D03*
D25*
X81700000Y-96735000D03*
D26*
X81700000Y-95900000D03*
D25*
X84240000Y-96735000D03*
D26*
X84240000Y-95900000D03*
X84240000Y-80660000D03*
D27*
X84240000Y-79825000D03*
D26*
X81700000Y-80660000D03*
D27*
X81700000Y-79825000D03*
D26*
X79160000Y-80660000D03*
D27*
X79160000Y-79825000D03*
D26*
X76620000Y-80660000D03*
D27*
X76620000Y-79825000D03*
D26*
X74080000Y-80660000D03*
D27*
X74080000Y-79825000D03*
D26*
X71540000Y-80660000D03*
D27*
X71540000Y-79825000D03*
D26*
X69000000Y-80660000D03*
D27*
X69000000Y-79825000D03*
%TD*%
D20*
%TO.C,CS2_1.0*%
X78000000Y-110100000D03*
X79000000Y-110100000D03*
X80000000Y-110100000D03*
X81000000Y-110100000D03*
X82000000Y-110100000D03*
X83000000Y-110100000D03*
X84000000Y-110100000D03*
D19*
X86200000Y-112700000D03*
X75800000Y-112700000D03*
%TD*%
D20*
%TO.C,CS6_1.0*%
X131700000Y-110100000D03*
X132700000Y-110100000D03*
X133700000Y-110100000D03*
X134700000Y-110100000D03*
X135700000Y-110100000D03*
X136700000Y-110100000D03*
X137700000Y-110100000D03*
D19*
X139900000Y-112700000D03*
X129500000Y-112700000D03*
%TD*%
D18*
%TO.C,CS8_0.5*%
X138200000Y-75438500D03*
X138700000Y-75438500D03*
X139200000Y-75438500D03*
X139700000Y-75438500D03*
X140200000Y-75438500D03*
X140700000Y-75438500D03*
X141200000Y-75438500D03*
D19*
X142900000Y-72838500D03*
X136500000Y-72838500D03*
%TD*%
D23*
%TO.C,CS1_1.0*%
X72700000Y-102200000D03*
X72700000Y-103200000D03*
X72700000Y-104200000D03*
X72700000Y-105200000D03*
X72700000Y-106200000D03*
X72700000Y-107200000D03*
X72700000Y-108200000D03*
D24*
X70100000Y-110400000D03*
X70100000Y-100000000D03*
%TD*%
D18*
%TO.C,CS2_0.5*%
X84371429Y-75438500D03*
X84871429Y-75438500D03*
X85371429Y-75438500D03*
X85871429Y-75438500D03*
X86371429Y-75438500D03*
X86871429Y-75438500D03*
X87371429Y-75438500D03*
D19*
X89071429Y-72838500D03*
X82671429Y-72838500D03*
%TD*%
D18*
%TO.C,CS1_0.5*%
X75400000Y-75438500D03*
X75900000Y-75438500D03*
X76400000Y-75438500D03*
X76900000Y-75438500D03*
X77400000Y-75438500D03*
X77900000Y-75438500D03*
X78400000Y-75438500D03*
D19*
X80100000Y-72838500D03*
X73700000Y-72838500D03*
%TD*%
D23*
%TO.C,CS8_1.0*%
X143925000Y-92300000D03*
X143925000Y-91300000D03*
X143925000Y-90300000D03*
X143925000Y-89300000D03*
X143925000Y-88300000D03*
X143925000Y-87300000D03*
X143925000Y-86300000D03*
D24*
X146525000Y-84100000D03*
X146525000Y-94500000D03*
%TD*%
D18*
%TO.C,CS5_0.5*%
X111285714Y-75438500D03*
X111785714Y-75438500D03*
X112285714Y-75438500D03*
X112785714Y-75438500D03*
X113285714Y-75438500D03*
X113785714Y-75438500D03*
X114285714Y-75438500D03*
D19*
X115985714Y-72838500D03*
X109585714Y-72838500D03*
%TD*%
D20*
%TO.C,CS4_1.0*%
X104850000Y-110100000D03*
X105850000Y-110100000D03*
X106850000Y-110100000D03*
X107850000Y-110100000D03*
X108850000Y-110100000D03*
X109850000Y-110100000D03*
X110850000Y-110100000D03*
D19*
X113050000Y-112700000D03*
X102650000Y-112700000D03*
%TD*%
%LPD*%
M02*
