%TF.GenerationSoftware,KiCad,Pcbnew,9.0.2*%
%TF.CreationDate,2025-08-25T15:59:26+09:00*%
%TF.ProjectId,imu_controller_board,696d755f-636f-46e7-9472-6f6c6c65725f,rev?*%
%TF.SameCoordinates,Original*%
%TF.FileFunction,Legend,Bot*%
%TF.FilePolarity,Positive*%
%FSLAX46Y46*%
G04 Gerber Fmt 4.6, Leading zero omitted, Abs format (unit mm)*
G04 Created by KiCad (PCBNEW 9.0.2) date 2025-08-25 15:59:26*
%MOMM*%
%LPD*%
G01*
G04 APERTURE LIST*
%ADD10R,1.700000X1.700000*%
%ADD11C,1.700000*%
%ADD12C,1.524000*%
G04 APERTURE END LIST*
%LPC*%
D10*
%TO.C,J1*%
X93300000Y-85180000D03*
D11*
X93300000Y-87720000D03*
X93300000Y-90260000D03*
X93300000Y-92800000D03*
X93300000Y-95340000D03*
X93300000Y-97880000D03*
%TD*%
D10*
%TO.C,J2*%
X99385714Y-85180000D03*
D11*
X99385714Y-87720000D03*
X99385714Y-90260000D03*
X99385714Y-92800000D03*
X99385714Y-95340000D03*
X99385714Y-97880000D03*
%TD*%
D10*
%TO.C,J3*%
X105471429Y-85180000D03*
D11*
X105471429Y-87720000D03*
X105471429Y-90260000D03*
X105471429Y-92800000D03*
X105471429Y-95340000D03*
X105471429Y-97880000D03*
%TD*%
D10*
%TO.C,J8*%
X135900000Y-85180000D03*
D11*
X135900000Y-87720000D03*
X135900000Y-90260000D03*
X135900000Y-92800000D03*
X135900000Y-95340000D03*
X135900000Y-97880000D03*
%TD*%
D10*
%TO.C,J7*%
X129814286Y-85180000D03*
D11*
X129814286Y-87720000D03*
X129814286Y-90260000D03*
X129814286Y-92800000D03*
X129814286Y-95340000D03*
X129814286Y-97880000D03*
%TD*%
D10*
%TO.C,J6*%
X123728571Y-85180000D03*
D11*
X123728571Y-87720000D03*
X123728571Y-90260000D03*
X123728571Y-92800000D03*
X123728571Y-95340000D03*
X123728571Y-97880000D03*
%TD*%
D10*
%TO.C,J5*%
X117642857Y-85180000D03*
D11*
X117642857Y-87720000D03*
X117642857Y-90260000D03*
X117642857Y-92800000D03*
X117642857Y-95340000D03*
X117642857Y-97880000D03*
%TD*%
D10*
%TO.C,J4*%
X111557143Y-85180000D03*
D11*
X111557143Y-87720000D03*
X111557143Y-90260000D03*
X111557143Y-92800000D03*
X111557143Y-95340000D03*
X111557143Y-97880000D03*
%TD*%
D12*
%TO.C,U1*%
X69000000Y-95900000D03*
X71540000Y-95900000D03*
X74080000Y-95900000D03*
X76620000Y-95900000D03*
X79160000Y-95900000D03*
X81700000Y-95900000D03*
X84240000Y-95900000D03*
X84240000Y-80660000D03*
X81700000Y-80660000D03*
X79160000Y-80660000D03*
X76620000Y-80660000D03*
X74080000Y-80660000D03*
X71540000Y-80660000D03*
X69000000Y-80660000D03*
%TD*%
%LPD*%
M02*
