%TF.GenerationSoftware,KiCad,Pcbnew,9.0.2*%
%TF.CreationDate,2025-08-22T16:30:00+09:00*%
%TF.ProjectId,imu_controller_board,696d755f-636f-46e7-9472-6f6c6c65725f,rev?*%
%TF.SameCoordinates,Original*%
%TF.FileFunction,Copper,L1,Top*%
%TF.FilePolarity,Positive*%
%FSLAX46Y46*%
G04 Gerber Fmt 4.6, Leading zero omitted, Abs format (unit mm)*
G04 Created by KiCad (PCBNEW 9.0.2) date 2025-08-22 16:30:00*
%MOMM*%
%LPD*%
G01*
G04 APERTURE LIST*
G04 Aperture macros list*
%AMRoundRect*
0 Rectangle with rounded corners*
0 $1 Rounding radius*
0 $2 $3 $4 $5 $6 $7 $8 $9 X,Y pos of 4 corners*
0 Add a 4 corners polygon primitive as box body*
4,1,4,$2,$3,$4,$5,$6,$7,$8,$9,$2,$3,0*
0 Add four circle primitives for the rounded corners*
1,1,$1+$1,$2,$3*
1,1,$1+$1,$4,$5*
1,1,$1+$1,$6,$7*
1,1,$1+$1,$8,$9*
0 Add four rect primitives between the rounded corners*
20,1,$1+$1,$2,$3,$4,$5,0*
20,1,$1+$1,$4,$5,$6,$7,0*
20,1,$1+$1,$6,$7,$8,$9,0*
20,1,$1+$1,$8,$9,$2,$3,0*%
G04 Aperture macros list end*
%TA.AperFunction,SMDPad,CuDef*%
%ADD10R,0.500000X1.500000*%
%TD*%
%TA.AperFunction,ComponentPad*%
%ADD11R,1.700000X1.700000*%
%TD*%
%TA.AperFunction,ComponentPad*%
%ADD12C,1.700000*%
%TD*%
%TA.AperFunction,SMDPad,CuDef*%
%ADD13R,0.450000X0.800000*%
%TD*%
%TA.AperFunction,SMDPad,CuDef*%
%ADD14R,0.300000X0.800000*%
%TD*%
%TA.AperFunction,SMDPad,CuDef*%
%ADD15RoundRect,0.152400X-1.063600X-0.609600X1.063600X-0.609600X1.063600X0.609600X-1.063600X0.609600X0*%
%TD*%
%TA.AperFunction,ComponentPad*%
%ADD16C,1.524000*%
%TD*%
%TA.AperFunction,SMDPad,CuDef*%
%ADD17RoundRect,0.152400X1.063600X0.609600X-1.063600X0.609600X-1.063600X-0.609600X1.063600X-0.609600X0*%
%TD*%
%TA.AperFunction,ViaPad*%
%ADD18C,0.600000*%
%TD*%
%TA.AperFunction,Conductor*%
%ADD19C,0.200000*%
%TD*%
G04 APERTURE END LIST*
D10*
%TO.P,CS1_1.0,1,Pin_1*%
%TO.N,+3V3*%
X101300000Y-110750000D03*
X101300000Y-107450000D03*
%TO.P,CS1_1.0,2,Pin_2*%
%TO.N,/MOSI*%
X100300000Y-110750000D03*
X100300000Y-107450000D03*
%TO.P,CS1_1.0,3,Pin_3*%
%TO.N,/MISO*%
X99300000Y-110750000D03*
X99300000Y-107450000D03*
%TO.P,CS1_1.0,4,Pin_4*%
%TO.N,GND*%
X98300000Y-110750000D03*
X98300000Y-107450000D03*
%TO.P,CS1_1.0,5,Pin_5*%
%TO.N,/SCK*%
X97300000Y-110750000D03*
X97300000Y-107450000D03*
%TO.P,CS1_1.0,6,Pin_6*%
%TO.N,/CS1*%
X96300000Y-110750000D03*
X96300000Y-107450000D03*
%TO.P,CS1_1.0,7,Pin_7*%
%TO.N,+3V3*%
X95300000Y-110750000D03*
X95300000Y-107450000D03*
%TD*%
D11*
%TO.P,DEBUG1,1,Pin_1*%
%TO.N,/MOSI*%
X75175000Y-87850000D03*
D12*
%TO.P,DEBUG1,2,Pin_2*%
%TO.N,/MISO*%
X72635000Y-87850000D03*
%TO.P,DEBUG1,3,Pin_3*%
%TO.N,/SCK*%
X75175000Y-85310000D03*
%TO.P,DEBUG1,4,Pin_4*%
%TO.N,/CS1*%
X72635000Y-85310000D03*
%TO.P,DEBUG1,5,Pin_5*%
%TO.N,/CS2*%
X75175000Y-82770000D03*
%TO.P,DEBUG1,6,Pin_6*%
%TO.N,/CS3*%
X72635000Y-82770000D03*
%TO.P,DEBUG1,7,Pin_7*%
%TO.N,/CS4*%
X75175000Y-80230000D03*
%TO.P,DEBUG1,8,Pin_8*%
%TO.N,/CS5*%
X72635000Y-80230000D03*
%TO.P,DEBUG1,9,Pin_9*%
%TO.N,/CS6*%
X75175000Y-77690000D03*
%TO.P,DEBUG1,10,Pin_10*%
%TO.N,/CS7*%
X72635000Y-77690000D03*
%TO.P,DEBUG1,11,Pin_11*%
%TO.N,/CS8*%
X75175000Y-75150000D03*
%TO.P,DEBUG1,12*%
%TO.N,N/C*%
X72635000Y-75150000D03*
%TD*%
D10*
%TO.P,CS7_1.0,1,Pin_1*%
%TO.N,+3V3*%
X116700000Y-97716666D03*
X116700000Y-94416666D03*
%TO.P,CS7_1.0,2,Pin_2*%
%TO.N,/MOSI*%
X115700000Y-97716666D03*
X115700000Y-94416666D03*
%TO.P,CS7_1.0,3,Pin_3*%
%TO.N,/MISO*%
X114700000Y-97716666D03*
X114700000Y-94416666D03*
%TO.P,CS7_1.0,4,Pin_4*%
%TO.N,GND*%
X113700000Y-97716666D03*
X113700000Y-94416666D03*
%TO.P,CS7_1.0,5,Pin_5*%
%TO.N,/SCK*%
X112700000Y-97716666D03*
X112700000Y-94416666D03*
%TO.P,CS7_1.0,6,Pin_6*%
%TO.N,/CS7*%
X111700000Y-97716666D03*
X111700000Y-94416666D03*
%TO.P,CS7_1.0,7,Pin_7*%
%TO.N,+3V3*%
X110700000Y-97716666D03*
X110700000Y-94416666D03*
%TD*%
%TO.P,CS5_1.0,1,Pin_1*%
%TO.N,+3V3*%
X116700000Y-110783333D03*
X116700000Y-107483333D03*
%TO.P,CS5_1.0,2,Pin_2*%
%TO.N,/MOSI*%
X115700000Y-110783333D03*
X115700000Y-107483333D03*
%TO.P,CS5_1.0,3,Pin_3*%
%TO.N,/MISO*%
X114700000Y-110783333D03*
X114700000Y-107483333D03*
%TO.P,CS5_1.0,4,Pin_4*%
%TO.N,GND*%
X113700000Y-110783333D03*
X113700000Y-107483333D03*
%TO.P,CS5_1.0,5,Pin_5*%
%TO.N,/SCK*%
X112700000Y-110783333D03*
X112700000Y-107483333D03*
%TO.P,CS5_1.0,6,Pin_6*%
%TO.N,/CS5*%
X111700000Y-110783333D03*
X111700000Y-107483333D03*
%TO.P,CS5_1.0,7,Pin_7*%
%TO.N,+3V3*%
X110700000Y-110783333D03*
X110700000Y-107483333D03*
%TD*%
%TO.P,CS6_1.0,1,Pin_1*%
%TO.N,+3V3*%
X116700000Y-104250000D03*
X116700000Y-100950000D03*
%TO.P,CS6_1.0,2,Pin_2*%
%TO.N,/MOSI*%
X115700000Y-104250000D03*
X115700000Y-100950000D03*
%TO.P,CS6_1.0,3,Pin_3*%
%TO.N,/MISO*%
X114700000Y-104250000D03*
X114700000Y-100950000D03*
%TO.P,CS6_1.0,4,Pin_4*%
%TO.N,GND*%
X113700000Y-104250000D03*
X113700000Y-100950000D03*
%TO.P,CS6_1.0,5,Pin_5*%
%TO.N,/SCK*%
X112700000Y-104250000D03*
X112700000Y-100950000D03*
%TO.P,CS6_1.0,6,Pin_6*%
%TO.N,/CS6*%
X111700000Y-104250000D03*
X111700000Y-100950000D03*
%TO.P,CS6_1.0,7,Pin_7*%
%TO.N,+3V3*%
X110700000Y-104250000D03*
X110700000Y-100950000D03*
%TD*%
%TO.P,CS8_1.0,1,Pin_1*%
%TO.N,+3V3*%
X116700000Y-91183333D03*
X116700000Y-87883333D03*
%TO.P,CS8_1.0,2,Pin_2*%
%TO.N,/MOSI*%
X115700000Y-91183333D03*
X115700000Y-87883333D03*
%TO.P,CS8_1.0,3,Pin_3*%
%TO.N,/MISO*%
X114700000Y-91183333D03*
X114700000Y-87883333D03*
%TO.P,CS8_1.0,4,Pin_4*%
%TO.N,GND*%
X113700000Y-91183333D03*
X113700000Y-87883333D03*
%TO.P,CS8_1.0,5,Pin_5*%
%TO.N,/SCK*%
X112700000Y-91183333D03*
X112700000Y-87883333D03*
%TO.P,CS8_1.0,6,Pin_6*%
%TO.N,/CS8*%
X111700000Y-91183333D03*
X111700000Y-87883333D03*
%TO.P,CS8_1.0,7,Pin_7*%
%TO.N,+3V3*%
X110700000Y-91183333D03*
X110700000Y-87883333D03*
%TD*%
D13*
%TO.P,CS7_0.5,0*%
%TO.N,N/C*%
X111400000Y-81700000D03*
X106300000Y-81700000D03*
D14*
%TO.P,CS7_0.5,1,Pin_1*%
%TO.N,+3V3*%
X110350000Y-84200000D03*
%TO.P,CS7_0.5,2,Pin_2*%
%TO.N,/MOSI*%
X109850000Y-84200000D03*
%TO.P,CS7_0.5,3,Pin_3*%
%TO.N,/MISO*%
X109350000Y-84200000D03*
%TO.P,CS7_0.5,4,Pin_4*%
%TO.N,GND*%
X108850000Y-84200000D03*
%TO.P,CS7_0.5,5,Pin_5*%
%TO.N,/SCK*%
X108350000Y-84200000D03*
%TO.P,CS7_0.5,6,Pin_6*%
%TO.N,/CS7*%
X107850000Y-84200000D03*
%TO.P,CS7_0.5,7,Pin_7*%
%TO.N,+3V3*%
X107350000Y-84200000D03*
%TD*%
D13*
%TO.P,CS3_0.5,0*%
%TO.N,N/C*%
X111400000Y-74925000D03*
X106300000Y-74925000D03*
D14*
%TO.P,CS3_0.5,1,Pin_1*%
%TO.N,+3V3*%
X110350000Y-77425000D03*
%TO.P,CS3_0.5,2,Pin_2*%
%TO.N,/MOSI*%
X109850000Y-77425000D03*
%TO.P,CS3_0.5,3,Pin_3*%
%TO.N,/MISO*%
X109350000Y-77425000D03*
%TO.P,CS3_0.5,4,Pin_4*%
%TO.N,GND*%
X108850000Y-77425000D03*
%TO.P,CS3_0.5,5,Pin_5*%
%TO.N,/SCK*%
X108350000Y-77425000D03*
%TO.P,CS3_0.5,6,Pin_6*%
%TO.N,/CS3*%
X107850000Y-77425000D03*
%TO.P,CS3_0.5,7,Pin_7*%
%TO.N,+3V3*%
X107350000Y-77425000D03*
%TD*%
D10*
%TO.P,CS3_1.0,1,Pin_1*%
%TO.N,+3V3*%
X101300000Y-97750000D03*
X101300000Y-94450000D03*
%TO.P,CS3_1.0,2,Pin_2*%
%TO.N,/MOSI*%
X100300000Y-97750000D03*
X100300000Y-94450000D03*
%TO.P,CS3_1.0,3,Pin_3*%
%TO.N,/MISO*%
X99300000Y-97750000D03*
X99300000Y-94450000D03*
%TO.P,CS3_1.0,4,Pin_4*%
%TO.N,GND*%
X98300000Y-97750000D03*
X98300000Y-94450000D03*
%TO.P,CS3_1.0,5,Pin_5*%
%TO.N,/SCK*%
X97300000Y-97750000D03*
X97300000Y-94450000D03*
%TO.P,CS3_1.0,6,Pin_6*%
%TO.N,/CS3*%
X96300000Y-97750000D03*
X96300000Y-94450000D03*
%TO.P,CS3_1.0,7,Pin_7*%
%TO.N,+3V3*%
X95300000Y-97750000D03*
X95300000Y-94450000D03*
%TD*%
D13*
%TO.P,CS4_0.5,0*%
%TO.N,N/C*%
X118800000Y-74925000D03*
X113700000Y-74925000D03*
D14*
%TO.P,CS4_0.5,1,Pin_1*%
%TO.N,+3V3*%
X117750000Y-77425000D03*
%TO.P,CS4_0.5,2,Pin_2*%
%TO.N,/MOSI*%
X117250000Y-77425000D03*
%TO.P,CS4_0.5,3,Pin_3*%
%TO.N,/MISO*%
X116750000Y-77425000D03*
%TO.P,CS4_0.5,4,Pin_4*%
%TO.N,GND*%
X116250000Y-77425000D03*
%TO.P,CS4_0.5,5,Pin_5*%
%TO.N,/SCK*%
X115750000Y-77425000D03*
%TO.P,CS4_0.5,6,Pin_6*%
%TO.N,/CS4*%
X115250000Y-77425000D03*
%TO.P,CS4_0.5,7,Pin_7*%
%TO.N,+3V3*%
X114750000Y-77425000D03*
%TD*%
D15*
%TO.P,U1,1,GPIO0/A0/D0*%
%TO.N,/CS1*%
X88055000Y-108601500D03*
D16*
X87220000Y-108601500D03*
D15*
%TO.P,U1,2,GPIO1/A1/D1*%
%TO.N,/CS2*%
X88055000Y-106061500D03*
D16*
X87220000Y-106061500D03*
D15*
%TO.P,U1,3,GPIO2/A2/D2*%
%TO.N,/CS3*%
X88055000Y-103521500D03*
D16*
X87220000Y-103521500D03*
D15*
%TO.P,U1,4,GPIO21/D3*%
%TO.N,/CS4*%
X88055000Y-100981500D03*
D16*
X87220000Y-100981500D03*
D15*
%TO.P,U1,5,GPIO22/D4/SDA*%
%TO.N,/CS5*%
X88055000Y-98441500D03*
D16*
X87220000Y-98441500D03*
D15*
%TO.P,U1,6,GPIO23/D5/SCL*%
%TO.N,/CS6*%
X88055000Y-95901500D03*
D16*
X87220000Y-95901500D03*
D15*
%TO.P,U1,7,GPIO16/D6/TX*%
%TO.N,/CS7*%
X88055000Y-93361500D03*
D16*
X87220000Y-93361500D03*
%TO.P,U1,8,GPIO17/D7/RX*%
%TO.N,/CS8*%
X71980000Y-93361500D03*
D17*
X71145000Y-93361500D03*
D16*
%TO.P,U1,9,GPIO19/D8/SCK*%
%TO.N,/SCK*%
X71980000Y-95901500D03*
D17*
X71145000Y-95901500D03*
D16*
%TO.P,U1,10,GPIO20/D9/MISO*%
%TO.N,/MISO*%
X71980000Y-98441500D03*
D17*
X71145000Y-98441500D03*
D16*
%TO.P,U1,11,GPIO18/D10/MOSI*%
%TO.N,/MOSI*%
X71980000Y-100981500D03*
D17*
X71145000Y-100981500D03*
D16*
%TO.P,U1,12,3V3*%
%TO.N,+3V3*%
X71980000Y-103521500D03*
D17*
X71145000Y-103521500D03*
D16*
%TO.P,U1,13,GND*%
%TO.N,GND*%
X71980000Y-106061500D03*
D17*
X71145000Y-106061500D03*
D16*
%TO.P,U1,14,VBUS*%
%TO.N,unconnected-(U1-VBUS-Pad14)*%
X71980000Y-108601500D03*
D17*
X71145000Y-108601500D03*
%TD*%
D10*
%TO.P,CS2_1.0,1,Pin_1*%
%TO.N,+3V3*%
X101300000Y-104250000D03*
X101300000Y-100950000D03*
%TO.P,CS2_1.0,2,Pin_2*%
%TO.N,/MOSI*%
X100300000Y-104250000D03*
X100300000Y-100950000D03*
%TO.P,CS2_1.0,3,Pin_3*%
%TO.N,/MISO*%
X99300000Y-104250000D03*
X99300000Y-100950000D03*
%TO.P,CS2_1.0,4,Pin_4*%
%TO.N,GND*%
X98300000Y-104250000D03*
X98300000Y-100950000D03*
%TO.P,CS2_1.0,5,Pin_5*%
%TO.N,/SCK*%
X97300000Y-104250000D03*
X97300000Y-100950000D03*
%TO.P,CS2_1.0,6,Pin_6*%
%TO.N,/CS2*%
X96300000Y-104250000D03*
X96300000Y-100950000D03*
%TO.P,CS2_1.0,7,Pin_7*%
%TO.N,+3V3*%
X95300000Y-104250000D03*
X95300000Y-100950000D03*
%TD*%
D13*
%TO.P,CS8_0.5,0*%
%TO.N,N/C*%
X118800000Y-81700000D03*
X113700000Y-81700000D03*
D14*
%TO.P,CS8_0.5,1,Pin_1*%
%TO.N,+3V3*%
X117750000Y-84200000D03*
%TO.P,CS8_0.5,2,Pin_2*%
%TO.N,/MOSI*%
X117250000Y-84200000D03*
%TO.P,CS8_0.5,3,Pin_3*%
%TO.N,/MISO*%
X116750000Y-84200000D03*
%TO.P,CS8_0.5,4,Pin_4*%
%TO.N,GND*%
X116250000Y-84200000D03*
%TO.P,CS8_0.5,5,Pin_5*%
%TO.N,/SCK*%
X115750000Y-84200000D03*
%TO.P,CS8_0.5,6,Pin_6*%
%TO.N,/CS8*%
X115250000Y-84200000D03*
%TO.P,CS8_0.5,7,Pin_7*%
%TO.N,+3V3*%
X114750000Y-84200000D03*
%TD*%
D13*
%TO.P,CS2_0.5,0*%
%TO.N,N/C*%
X103650000Y-74925000D03*
X98550000Y-74925000D03*
D14*
%TO.P,CS2_0.5,1,Pin_1*%
%TO.N,+3V3*%
X102600000Y-77425000D03*
%TO.P,CS2_0.5,2,Pin_2*%
%TO.N,/MOSI*%
X102100000Y-77425000D03*
%TO.P,CS2_0.5,3,Pin_3*%
%TO.N,/MISO*%
X101600000Y-77425000D03*
%TO.P,CS2_0.5,4,Pin_4*%
%TO.N,GND*%
X101100000Y-77425000D03*
%TO.P,CS2_0.5,5,Pin_5*%
%TO.N,/SCK*%
X100600000Y-77425000D03*
%TO.P,CS2_0.5,6,Pin_6*%
%TO.N,/CS2*%
X100100000Y-77425000D03*
%TO.P,CS2_0.5,7,Pin_7*%
%TO.N,+3V3*%
X99600000Y-77425000D03*
%TD*%
D13*
%TO.P,CS1_0.5,0*%
%TO.N,N/C*%
X96300000Y-74925000D03*
X91200000Y-74925000D03*
D14*
%TO.P,CS1_0.5,1,Pin_1*%
%TO.N,+3V3*%
X95250000Y-77425000D03*
%TO.P,CS1_0.5,2,Pin_2*%
%TO.N,/MOSI*%
X94750000Y-77425000D03*
%TO.P,CS1_0.5,3,Pin_3*%
%TO.N,/MISO*%
X94250000Y-77425000D03*
%TO.P,CS1_0.5,4,Pin_4*%
%TO.N,GND*%
X93750000Y-77425000D03*
%TO.P,CS1_0.5,5,Pin_5*%
%TO.N,/SCK*%
X93250000Y-77425000D03*
%TO.P,CS1_0.5,6,Pin_6*%
%TO.N,/CS1*%
X92750000Y-77425000D03*
%TO.P,CS1_0.5,7,Pin_7*%
%TO.N,+3V3*%
X92250000Y-77425000D03*
%TD*%
D13*
%TO.P,CS6_0.5,0*%
%TO.N,N/C*%
X103650000Y-81700000D03*
X98550000Y-81700000D03*
D14*
%TO.P,CS6_0.5,1,Pin_1*%
%TO.N,+3V3*%
X102600000Y-84200000D03*
%TO.P,CS6_0.5,2,Pin_2*%
%TO.N,/MOSI*%
X102100000Y-84200000D03*
%TO.P,CS6_0.5,3,Pin_3*%
%TO.N,/MISO*%
X101600000Y-84200000D03*
%TO.P,CS6_0.5,4,Pin_4*%
%TO.N,GND*%
X101100000Y-84200000D03*
%TO.P,CS6_0.5,5,Pin_5*%
%TO.N,/SCK*%
X100600000Y-84200000D03*
%TO.P,CS6_0.5,6,Pin_6*%
%TO.N,/CS6*%
X100100000Y-84200000D03*
%TO.P,CS6_0.5,7,Pin_7*%
%TO.N,+3V3*%
X99600000Y-84200000D03*
%TD*%
D13*
%TO.P,CS5_0.5,0*%
%TO.N,N/C*%
X96300000Y-81700000D03*
X91200000Y-81700000D03*
D14*
%TO.P,CS5_0.5,1,Pin_1*%
%TO.N,+3V3*%
X95250000Y-84200000D03*
%TO.P,CS5_0.5,2,Pin_2*%
%TO.N,/MOSI*%
X94750000Y-84200000D03*
%TO.P,CS5_0.5,3,Pin_3*%
%TO.N,/MISO*%
X94250000Y-84200000D03*
%TO.P,CS5_0.5,4,Pin_4*%
%TO.N,GND*%
X93750000Y-84200000D03*
%TO.P,CS5_0.5,5,Pin_5*%
%TO.N,/SCK*%
X93250000Y-84200000D03*
%TO.P,CS5_0.5,6,Pin_6*%
%TO.N,/CS5*%
X92750000Y-84200000D03*
%TO.P,CS5_0.5,7,Pin_7*%
%TO.N,+3V3*%
X92250000Y-84200000D03*
%TD*%
D10*
%TO.P,CS4_1.0,1,Pin_1*%
%TO.N,+3V3*%
X101300000Y-91250000D03*
X101300000Y-87950000D03*
%TO.P,CS4_1.0,2,Pin_2*%
%TO.N,/MOSI*%
X100300000Y-91250000D03*
X100300000Y-87950000D03*
%TO.P,CS4_1.0,3,Pin_3*%
%TO.N,/MISO*%
X99300000Y-91250000D03*
X99300000Y-87950000D03*
%TO.P,CS4_1.0,4,Pin_4*%
%TO.N,GND*%
X98300000Y-91250000D03*
X98300000Y-87950000D03*
%TO.P,CS4_1.0,5,Pin_5*%
%TO.N,/SCK*%
X97300000Y-91250000D03*
X97300000Y-87950000D03*
%TO.P,CS4_1.0,6,Pin_6*%
%TO.N,/CS4*%
X96300000Y-91250000D03*
X96300000Y-87950000D03*
%TO.P,CS4_1.0,7,Pin_7*%
%TO.N,+3V3*%
X95300000Y-91250000D03*
X95300000Y-87950000D03*
%TD*%
D18*
%TO.N,GND*%
X106000000Y-111500000D03*
X105800000Y-104500000D03*
X106000000Y-102100000D03*
X105900000Y-98400000D03*
X105700000Y-91600000D03*
X86300000Y-74300000D03*
X84100000Y-80000000D03*
X74600000Y-110200000D03*
X77300000Y-98800000D03*
X77700000Y-106900000D03*
X82200000Y-72800000D03*
X82900000Y-76100000D03*
X80900000Y-70300000D03*
X121600000Y-108700000D03*
X119300000Y-114900000D03*
X123600000Y-111000000D03*
X123900000Y-74400000D03*
X120000000Y-70200000D03*
X72800000Y-70400000D03*
X67500000Y-74400000D03*
X67500000Y-110700000D03*
X71700000Y-114300000D03*
X68400000Y-106200000D03*
X98200000Y-89600000D03*
%TO.N,/CS1*%
X78500000Y-92600000D03*
%TO.N,GND*%
X104600000Y-88200000D03*
X116800000Y-70700000D03*
X108600000Y-70500000D03*
%TO.N,/MOSI*%
X103000000Y-72500000D03*
%TO.N,GND*%
X100700000Y-70400000D03*
X94200000Y-70600000D03*
%TO.N,/CS2*%
X80000000Y-92400000D03*
%TO.N,/CS3*%
X81300000Y-92500000D03*
%TO.N,/CS4*%
X82200000Y-92500000D03*
%TO.N,/CS5*%
X83300000Y-92300000D03*
%TO.N,/CS6*%
X84200000Y-92200000D03*
%TO.N,/CS7*%
X85900000Y-89200000D03*
%TO.N,/SCK*%
X74000000Y-90600000D03*
X97300000Y-110750000D03*
X86500000Y-111600000D03*
%TO.N,/MISO*%
X99600000Y-112700000D03*
X86500000Y-112700000D03*
%TO.N,/MOSI*%
X99600000Y-114000000D03*
X86400000Y-113900000D03*
%TO.N,+3V3*%
X89050000Y-113450000D03*
%TO.N,/MISO*%
X109487851Y-71885421D03*
%TO.N,/SCK*%
X107900000Y-71100000D03*
X115600000Y-71300000D03*
%TO.N,/MISO*%
X117700000Y-71900000D03*
%TO.N,/MOSI*%
X118400000Y-72600000D03*
X110800000Y-72500000D03*
%TO.N,/SCK*%
X93234358Y-71356239D03*
X99800000Y-71400000D03*
%TO.N,/MISO*%
X94900000Y-72000000D03*
X102100000Y-71900000D03*
%TO.N,/MOSI*%
X95600000Y-72700000D03*
%TO.N,/CS8*%
X93800000Y-87151473D03*
%TO.N,/CS7*%
X105700000Y-86900000D03*
%TO.N,/CS6*%
X103600000Y-91300000D03*
%TO.N,/CS5*%
X91000000Y-87000000D03*
X111500000Y-105900000D03*
X92900000Y-94400000D03*
%TO.N,/CS4*%
X114900000Y-76500000D03*
%TO.N,/CS3*%
X107600000Y-76400000D03*
%TO.N,/CS2*%
X99700000Y-76000000D03*
%TO.N,+3V3*%
X116800000Y-113400000D03*
X110400000Y-113400000D03*
X101100000Y-113400000D03*
X95600000Y-113500000D03*
%TO.N,/CS8*%
X111700000Y-86600000D03*
%TO.N,/CS7*%
X111600000Y-92800000D03*
X93800000Y-88000000D03*
%TO.N,/CS6*%
X111600000Y-99300000D03*
X94000000Y-91300000D03*
%TO.N,/CS4*%
X96400000Y-92600000D03*
X94100000Y-92800000D03*
%TO.N,/CS3*%
X96300000Y-99300000D03*
X93700000Y-99500000D03*
%TO.N,/CS2*%
X96200000Y-105800000D03*
X93500000Y-105900000D03*
%TO.N,/CS1*%
X92400000Y-76148585D03*
%TO.N,+3V3*%
X98800000Y-73300000D03*
X106200000Y-73200000D03*
X96200000Y-73300000D03*
X111400000Y-73200000D03*
X113400000Y-73200000D03*
X91900000Y-73400000D03*
X118800000Y-73600000D03*
X103500000Y-73300000D03*
%TD*%
D19*
%TO.N,GND*%
X68538500Y-106061500D02*
X68400000Y-106200000D01*
X71980000Y-106061500D02*
X68538500Y-106061500D01*
X98300000Y-89500000D02*
X98200000Y-89600000D01*
X98300000Y-87950000D02*
X98300000Y-89500000D01*
%TO.N,/CS1*%
X78500000Y-99881500D02*
X78500000Y-92600000D01*
X87220000Y-108601500D02*
X78500000Y-99881500D01*
%TO.N,GND*%
X113700000Y-87383333D02*
X113700000Y-87883333D01*
X114403867Y-86832333D02*
X114251000Y-86832333D01*
X116250000Y-84986200D02*
X114403867Y-86832333D01*
X116250000Y-84200000D02*
X116250000Y-84986200D01*
X114251000Y-86832333D02*
X113700000Y-87383333D01*
%TO.N,+3V3*%
X116700000Y-87883333D02*
X117750000Y-86833333D01*
X117750000Y-86833333D02*
X117750000Y-84200000D01*
X110350000Y-87533333D02*
X110700000Y-87883333D01*
X110350000Y-84200000D02*
X110350000Y-87533333D01*
%TO.N,GND*%
X105502000Y-88200000D02*
X104600000Y-88200000D01*
X108850000Y-84852000D02*
X105502000Y-88200000D01*
X108850000Y-84200000D02*
X108850000Y-84852000D01*
X101100000Y-84852000D02*
X104448000Y-88200000D01*
X104448000Y-88200000D02*
X104600000Y-88200000D01*
X101100000Y-84200000D02*
X101100000Y-84852000D01*
X116250000Y-71250000D02*
X116250000Y-77425000D01*
X116800000Y-70700000D02*
X116250000Y-71250000D01*
%TO.N,/MISO*%
X116750000Y-72850000D02*
X116750000Y-77425000D01*
X117700000Y-71900000D02*
X116750000Y-72850000D01*
%TO.N,/SCK*%
X115700000Y-77375000D02*
X115750000Y-77425000D01*
X115700000Y-71400000D02*
X115700000Y-77375000D01*
X115600000Y-71300000D02*
X115700000Y-71400000D01*
%TO.N,/CS4*%
X115250000Y-76650000D02*
X115250000Y-77425000D01*
X114900000Y-76500000D02*
X115100000Y-76500000D01*
X115100000Y-76500000D02*
X115250000Y-76650000D01*
%TO.N,+3V3*%
X114300000Y-74100000D02*
X114300000Y-76975000D01*
X114300000Y-76975000D02*
X114750000Y-77425000D01*
X113400000Y-73200000D02*
X114300000Y-74100000D01*
%TO.N,GND*%
X108600000Y-70500000D02*
X108850000Y-70750000D01*
X108850000Y-70750000D02*
X108850000Y-77425000D01*
%TO.N,/MOSI*%
X110000000Y-72500000D02*
X109850000Y-72650000D01*
X110800000Y-72500000D02*
X110000000Y-72500000D01*
X109850000Y-72650000D02*
X109850000Y-77425000D01*
%TO.N,+3V3*%
X111200000Y-73200000D02*
X111400000Y-73200000D01*
X110800000Y-73600000D02*
X111200000Y-73200000D01*
%TO.N,/MISO*%
X109487851Y-72162206D02*
X109399000Y-72251057D01*
X109350000Y-72550000D02*
X109350000Y-77425000D01*
X109399000Y-72251057D02*
X109399000Y-72501000D01*
X109487851Y-71885421D02*
X109487851Y-72162206D01*
X109399000Y-72501000D02*
X109350000Y-72550000D01*
%TO.N,/SCK*%
X108350000Y-75250057D02*
X108350000Y-77425000D01*
X107900000Y-74800057D02*
X108350000Y-75250057D01*
X107900000Y-71100000D02*
X107900000Y-74800057D01*
%TO.N,/CS3*%
X107600000Y-76400000D02*
X107850000Y-76650000D01*
X107850000Y-76650000D02*
X107850000Y-77425000D01*
%TO.N,+3V3*%
X107000000Y-77075000D02*
X107350000Y-77425000D01*
X107000000Y-74000000D02*
X107000000Y-77075000D01*
X106200000Y-73200000D02*
X107000000Y-74000000D01*
%TO.N,GND*%
X101100000Y-70800000D02*
X101100000Y-77425000D01*
X100700000Y-70400000D02*
X101100000Y-70800000D01*
%TO.N,/MISO*%
X101600000Y-72400000D02*
X102100000Y-71900000D01*
X101600000Y-77425000D02*
X101600000Y-72400000D01*
%TO.N,GND*%
X116250000Y-84200000D02*
X116250000Y-77425000D01*
X108850000Y-84200000D02*
X108850000Y-77425000D01*
%TO.N,/MOSI*%
X103000000Y-72849943D02*
X102100000Y-73749943D01*
X103000000Y-72500000D02*
X103000000Y-72849943D01*
X102100000Y-73749943D02*
X102100000Y-77425000D01*
%TO.N,+3V3*%
X103000000Y-77025000D02*
X102600000Y-77425000D01*
X103000000Y-73800000D02*
X103000000Y-77025000D01*
X103500000Y-73300000D02*
X103000000Y-73800000D01*
%TO.N,/SCK*%
X99800000Y-74500000D02*
X99800000Y-71400000D01*
X100600000Y-75300000D02*
X99800000Y-74500000D01*
X100600000Y-77425000D02*
X100600000Y-75300000D01*
%TO.N,/CS2*%
X100100000Y-76600000D02*
X100100000Y-77425000D01*
X99700000Y-76200000D02*
X100100000Y-76600000D01*
X99700000Y-76000000D02*
X99700000Y-76200000D01*
%TO.N,+3V3*%
X99100000Y-73600000D02*
X99100000Y-76925000D01*
X99100000Y-76925000D02*
X99600000Y-77425000D01*
X98800000Y-73300000D02*
X99100000Y-73600000D01*
%TO.N,GND*%
X94200000Y-72132900D02*
X94200000Y-70600000D01*
X93750000Y-72582900D02*
X94200000Y-72132900D01*
X93750000Y-77425000D02*
X93750000Y-72582900D01*
%TO.N,/MISO*%
X94250000Y-72650000D02*
X94250000Y-77425000D01*
X94900000Y-72000000D02*
X94250000Y-72650000D01*
%TO.N,/MOSI*%
X95600000Y-72849943D02*
X94750000Y-73699943D01*
X94750000Y-73699943D02*
X94750000Y-77425000D01*
X95600000Y-72700000D02*
X95600000Y-72849943D01*
%TO.N,+3V3*%
X95250000Y-74150000D02*
X95250000Y-77425000D01*
X96100000Y-73300000D02*
X95250000Y-74150000D01*
X96200000Y-73300000D02*
X96100000Y-73300000D01*
%TO.N,/SCK*%
X93234358Y-77409358D02*
X93234358Y-71356239D01*
X93250000Y-77425000D02*
X93234358Y-77409358D01*
%TO.N,/CS1*%
X92548585Y-76148585D02*
X92750000Y-76350000D01*
X92400000Y-76148585D02*
X92548585Y-76148585D01*
X92750000Y-76350000D02*
X92750000Y-77425000D01*
%TO.N,+3V3*%
X91800000Y-76975000D02*
X92250000Y-77425000D01*
X91800000Y-73500000D02*
X91800000Y-76975000D01*
X91900000Y-73400000D02*
X91800000Y-73500000D01*
%TO.N,GND*%
X93750000Y-84200000D02*
X93750000Y-77425000D01*
%TO.N,/CS2*%
X80000000Y-98841500D02*
X80000000Y-92400000D01*
X87220000Y-106061500D02*
X80000000Y-98841500D01*
%TO.N,/CS3*%
X81300000Y-97601500D02*
X81300000Y-92500000D01*
X87220000Y-103521500D02*
X81300000Y-97601500D01*
%TO.N,/CS4*%
X82200000Y-95961500D02*
X82200000Y-92500000D01*
X87220000Y-100981500D02*
X82200000Y-95961500D01*
%TO.N,/CS5*%
X83300000Y-94521500D02*
X83300000Y-92300000D01*
X87220000Y-98441500D02*
X83300000Y-94521500D01*
%TO.N,/CS6*%
X84200000Y-92881500D02*
X84200000Y-92200000D01*
X87220000Y-95901500D02*
X84200000Y-92881500D01*
%TO.N,/CS7*%
X74025000Y-76300000D02*
X72635000Y-77690000D01*
X85900000Y-84700000D02*
X77500000Y-76300000D01*
X77500000Y-76300000D02*
X74025000Y-76300000D01*
X85900000Y-89200000D02*
X85900000Y-84700000D01*
%TO.N,/SCK*%
X74000000Y-90600000D02*
X74000000Y-86485000D01*
X74000000Y-86485000D02*
X75175000Y-85310000D01*
%TO.N,/CS8*%
X74041500Y-91300000D02*
X71980000Y-93361500D01*
X88700000Y-91300000D02*
X74041500Y-91300000D01*
X92848527Y-87151473D02*
X88700000Y-91300000D01*
X93800000Y-87151473D02*
X92848527Y-87151473D01*
%TO.N,/SCK*%
X86500000Y-110421500D02*
X86500000Y-111600000D01*
X71980000Y-95901500D02*
X86500000Y-110421500D01*
%TO.N,/MISO*%
X99300000Y-112400000D02*
X99300000Y-110750000D01*
X99600000Y-112700000D02*
X99300000Y-112400000D01*
X72241500Y-98441500D02*
X86500000Y-112700000D01*
X71145000Y-98441500D02*
X72241500Y-98441500D01*
%TO.N,/MOSI*%
X100300000Y-113300000D02*
X100300000Y-110750000D01*
X99600000Y-114000000D02*
X100300000Y-113300000D01*
X73481500Y-100981500D02*
X86400000Y-113900000D01*
X71980000Y-100981500D02*
X73481500Y-100981500D01*
%TO.N,+3V3*%
X82800000Y-114500000D02*
X71821500Y-103521500D01*
X71821500Y-103521500D02*
X71145000Y-103521500D01*
X88000000Y-114500000D02*
X82800000Y-114500000D01*
X89050000Y-113450000D02*
X88000000Y-114500000D01*
%TO.N,/SCK*%
X115750000Y-84919100D02*
X115750000Y-84200000D01*
X115367100Y-85302000D02*
X115750000Y-84919100D01*
X114781333Y-85302000D02*
X115367100Y-85302000D01*
X112700000Y-87383333D02*
X114781333Y-85302000D01*
X112700000Y-87883333D02*
X112700000Y-87383333D01*
%TO.N,/CS8*%
X114299000Y-84901000D02*
X115201000Y-84901000D01*
X115201000Y-84200000D02*
X115250000Y-84200000D01*
X112600000Y-86600000D02*
X114299000Y-84901000D01*
X115201000Y-84901000D02*
X115201000Y-84200000D01*
X111700000Y-86600000D02*
X112600000Y-86600000D01*
%TO.N,/MISO*%
X114700000Y-87383333D02*
X116750000Y-85333333D01*
X114700000Y-87883333D02*
X114700000Y-87383333D01*
X116750000Y-85333333D02*
X116750000Y-84200000D01*
%TO.N,/MOSI*%
X117250000Y-85750000D02*
X117250000Y-84200000D01*
X115700000Y-87300000D02*
X117250000Y-85750000D01*
X115700000Y-87883333D02*
X115700000Y-87300000D01*
X117250000Y-73750000D02*
X117250000Y-77425000D01*
X118400000Y-72600000D02*
X117250000Y-73750000D01*
%TO.N,+3V3*%
X117750000Y-74650000D02*
X117750000Y-77425000D01*
X118800000Y-73600000D02*
X117750000Y-74650000D01*
%TO.N,/MOSI*%
X94750000Y-84850000D02*
X94750000Y-84200000D01*
X95300000Y-85400000D02*
X94750000Y-84850000D01*
X98352000Y-85400000D02*
X95300000Y-85400000D01*
X100300000Y-87348000D02*
X98352000Y-85400000D01*
X100300000Y-87950000D02*
X100300000Y-87348000D01*
%TO.N,/MISO*%
X99300000Y-87348000D02*
X99300000Y-87950000D01*
X94799000Y-86199000D02*
X98151000Y-86199000D01*
X98151000Y-86199000D02*
X99300000Y-87348000D01*
X94250000Y-85650000D02*
X94799000Y-86199000D01*
X94250000Y-84200000D02*
X94250000Y-85650000D01*
%TO.N,/SCK*%
X97300000Y-87348000D02*
X97300000Y-87950000D01*
X96552000Y-86600000D02*
X97300000Y-87348000D01*
X94300000Y-86600000D02*
X96552000Y-86600000D01*
X93250000Y-85550000D02*
X94300000Y-86600000D01*
X93250000Y-84200000D02*
X93250000Y-85550000D01*
%TO.N,/CS7*%
X92581500Y-88000000D02*
X87220000Y-93361500D01*
X93800000Y-88000000D02*
X92581500Y-88000000D01*
X107850000Y-84750000D02*
X105700000Y-86900000D01*
X107850000Y-84200000D02*
X107850000Y-84750000D01*
%TO.N,/CS6*%
X103600000Y-88352000D02*
X103600000Y-91300000D01*
X100100000Y-84852000D02*
X103600000Y-88352000D01*
X100100000Y-84200000D02*
X100100000Y-84852000D01*
%TO.N,/CS5*%
X92750000Y-85250000D02*
X91000000Y-87000000D01*
X92750000Y-84200000D02*
X92750000Y-85250000D01*
X111500000Y-107283333D02*
X111700000Y-107483333D01*
X111500000Y-105900000D02*
X111500000Y-107283333D01*
X88858500Y-98441500D02*
X92900000Y-94400000D01*
X88055000Y-98441500D02*
X88858500Y-98441500D01*
%TO.N,/CS1*%
X95848943Y-114101000D02*
X96300000Y-113649943D01*
X92719500Y-114101000D02*
X95848943Y-114101000D01*
X96300000Y-113649943D02*
X96300000Y-110750000D01*
X87220000Y-108601500D02*
X92719500Y-114101000D01*
%TO.N,+3V3*%
X116700000Y-113300000D02*
X116700000Y-110783333D01*
X116800000Y-113400000D02*
X116700000Y-113300000D01*
X110400000Y-113400000D02*
X110700000Y-113100000D01*
X110700000Y-113100000D02*
X110700000Y-110783333D01*
X101300000Y-113200000D02*
X101300000Y-110750000D01*
X101100000Y-113400000D02*
X101300000Y-113200000D01*
X95300000Y-113200000D02*
X95600000Y-113500000D01*
X95300000Y-110750000D02*
X95300000Y-113200000D01*
%TO.N,/CS8*%
X111700000Y-86600000D02*
X111700000Y-87883333D01*
%TO.N,/CS7*%
X111600000Y-94316666D02*
X111700000Y-94416666D01*
X111600000Y-92800000D02*
X111600000Y-94316666D01*
%TO.N,/CS6*%
X111600000Y-100850000D02*
X111700000Y-100950000D01*
X111600000Y-99300000D02*
X111600000Y-100850000D01*
X89398500Y-95901500D02*
X94000000Y-91300000D01*
X87220000Y-95901500D02*
X89398500Y-95901500D01*
%TO.N,/CS4*%
X96400000Y-91350000D02*
X96300000Y-91250000D01*
X96400000Y-92600000D02*
X96400000Y-91350000D01*
X94100000Y-95179130D02*
X94100000Y-92800000D01*
X88297630Y-100981500D02*
X94100000Y-95179130D01*
X87220000Y-100981500D02*
X88297630Y-100981500D01*
%TO.N,/CS3*%
X89678500Y-103521500D02*
X93700000Y-99500000D01*
X96300000Y-99300000D02*
X96300000Y-97750000D01*
X87220000Y-103521500D02*
X89678500Y-103521500D01*
%TO.N,/CS2*%
X96200000Y-104350000D02*
X96300000Y-104250000D01*
X96200000Y-105800000D02*
X96200000Y-104350000D01*
X93338500Y-106061500D02*
X93500000Y-105900000D01*
X88055000Y-106061500D02*
X93338500Y-106061500D01*
%TO.N,/CS8*%
X111700000Y-91183333D02*
X111700000Y-87883333D01*
%TO.N,/CS7*%
X111700000Y-97716666D02*
X111700000Y-94416666D01*
%TO.N,/CS6*%
X111700000Y-100950000D02*
X111700000Y-104250000D01*
%TO.N,/SCK*%
X112700000Y-100950000D02*
X112700000Y-94416666D01*
X112700000Y-100950000D02*
X112700000Y-97716666D01*
X112700000Y-104250000D02*
X112700000Y-100950000D01*
X112700000Y-107483333D02*
X112700000Y-104250000D01*
X112700000Y-107483333D02*
X112700000Y-110783333D01*
%TO.N,/CS5*%
X111700000Y-110783333D02*
X111700000Y-107483333D01*
%TO.N,/CS1*%
X96300000Y-107450000D02*
X96300000Y-110750000D01*
%TO.N,/CS2*%
X96300000Y-100950000D02*
X96300000Y-104250000D01*
%TO.N,/CS3*%
X96300000Y-94450000D02*
X96300000Y-97750000D01*
%TO.N,/CS4*%
X96300000Y-87950000D02*
X96300000Y-91250000D01*
%TO.N,/MOSI*%
X115700000Y-91183333D02*
X115700000Y-87883333D01*
X115700000Y-94416666D02*
X115700000Y-91183333D01*
X115700000Y-100950000D02*
X115700000Y-94416666D01*
X115700000Y-100950000D02*
X115700000Y-97716666D01*
X115700000Y-104250000D02*
X115700000Y-100950000D01*
X115700000Y-110783333D02*
X115700000Y-104250000D01*
X115700000Y-110783333D02*
X115700000Y-107483333D01*
%TO.N,/MISO*%
X114700000Y-110783333D02*
X114700000Y-107483333D01*
X114700000Y-107483333D02*
X114700000Y-104250000D01*
X114700000Y-104250000D02*
X114700000Y-100950000D01*
X114700000Y-100950000D02*
X114700000Y-97716666D01*
X114700000Y-97716666D02*
X114700000Y-94416666D01*
X114700000Y-91183333D02*
X114700000Y-94416666D01*
X114700000Y-87883333D02*
X114700000Y-91183333D01*
%TO.N,/MOSI*%
X100300000Y-107450000D02*
X100300000Y-110750000D01*
X100300000Y-104250000D02*
X100300000Y-107450000D01*
X100300000Y-100950000D02*
X100300000Y-104250000D01*
X100300000Y-97750000D02*
X100300000Y-100950000D01*
X100300000Y-94450000D02*
X100300000Y-97750000D01*
X100300000Y-87950000D02*
X100300000Y-94450000D01*
X100300000Y-87950000D02*
X100300000Y-91250000D01*
%TO.N,/MISO*%
X99300000Y-91250000D02*
X99300000Y-87950000D01*
X99300000Y-94450000D02*
X99300000Y-91250000D01*
X99300000Y-104250000D02*
X99300000Y-94450000D01*
X99300000Y-104250000D02*
X99300000Y-97750000D01*
X99300000Y-104250000D02*
X99300000Y-100950000D01*
X99300000Y-110750000D02*
X99300000Y-104250000D01*
X99300000Y-110750000D02*
X99300000Y-107450000D01*
%TO.N,/SCK*%
X97300000Y-107450000D02*
X97300000Y-110750000D01*
X97300000Y-107450000D02*
X97300000Y-104250000D01*
X97300000Y-100950000D02*
X97300000Y-104250000D01*
X97300000Y-97750000D02*
X97300000Y-100950000D01*
X97300000Y-94450000D02*
X97300000Y-97750000D01*
X97300000Y-91250000D02*
X97300000Y-94450000D01*
X97300000Y-87950000D02*
X97300000Y-91250000D01*
%TO.N,+3V3*%
X116700000Y-100950000D02*
X116700000Y-104250000D01*
X110700000Y-100950000D02*
X110700000Y-97716666D01*
%TO.N,/SCK*%
X112700000Y-87883333D02*
X112700000Y-91183333D01*
X112700000Y-91183333D02*
X112700000Y-94416666D01*
%TO.N,+3V3*%
X116700000Y-107483333D02*
X116700000Y-110783333D01*
X116700000Y-87883333D02*
X116700000Y-91183333D01*
X110700000Y-94416666D02*
X110700000Y-91183333D01*
X110700000Y-110783333D02*
X110700000Y-107483333D01*
X110700000Y-107483333D02*
X110700000Y-104250000D01*
X110700000Y-104250000D02*
X110700000Y-100950000D01*
X116700000Y-97716666D02*
X116700000Y-100950000D01*
X110700000Y-97716666D02*
X110700000Y-94416666D01*
X116700000Y-91183333D02*
X116700000Y-94416666D01*
X110700000Y-91183333D02*
X110700000Y-87883333D01*
X116700000Y-107483333D02*
X116700000Y-104250000D01*
X116700000Y-94416666D02*
X116700000Y-97716666D01*
%TO.N,/MOSI*%
X109850000Y-77425000D02*
X109850000Y-84200000D01*
X117250000Y-77425000D02*
X117250000Y-84200000D01*
X102100000Y-77425000D02*
X102100000Y-84200000D01*
X94750000Y-77425000D02*
X94750000Y-84200000D01*
%TO.N,/MISO*%
X101600000Y-77425000D02*
X101600000Y-84200000D01*
X116750000Y-77425000D02*
X116750000Y-84200000D01*
X109350000Y-77425000D02*
X109350000Y-84200000D01*
X94250000Y-84200000D02*
X94250000Y-77425000D01*
%TO.N,+3V3*%
X99600000Y-77425000D02*
X99600000Y-84200000D01*
X101300000Y-100950000D02*
X101300000Y-104250000D01*
X95300000Y-94450000D02*
X95300000Y-91250000D01*
X101300000Y-110750000D02*
X101300000Y-107450000D01*
X95300000Y-97750000D02*
X95300000Y-94450000D01*
X102600000Y-77425000D02*
X102600000Y-84200000D01*
X95300000Y-100950000D02*
X95300000Y-97750000D01*
X110350000Y-77425000D02*
X110350000Y-84200000D01*
X107350000Y-77425000D02*
X107350000Y-84200000D01*
X95250000Y-77425000D02*
X95250000Y-84200000D01*
X95300000Y-91250000D02*
X95300000Y-87950000D01*
X101300000Y-104250000D02*
X101300000Y-107450000D01*
X117750000Y-77425000D02*
X117750000Y-84200000D01*
X101300000Y-97750000D02*
X101300000Y-100950000D01*
X101300000Y-87950000D02*
X101300000Y-91250000D01*
X95300000Y-100950000D02*
X95300000Y-104250000D01*
X95300000Y-107450000D02*
X95300000Y-104250000D01*
X95300000Y-110750000D02*
X95300000Y-107450000D01*
X92250000Y-84200000D02*
X92250000Y-77425000D01*
X114750000Y-77425000D02*
X114750000Y-84200000D01*
X101300000Y-94450000D02*
X101300000Y-97750000D01*
X101300000Y-91250000D02*
X101300000Y-94450000D01*
%TO.N,/SCK*%
X100600000Y-77425000D02*
X100600000Y-84200000D01*
X93250000Y-77425000D02*
X93250000Y-84200000D01*
X115750000Y-77425000D02*
X115750000Y-84200000D01*
X108350000Y-77425000D02*
X108350000Y-84200000D01*
%TO.N,+3V3*%
X110800000Y-76975000D02*
X110350000Y-77425000D01*
X110800000Y-73600000D02*
X110800000Y-76975000D01*
%TD*%
%TA.AperFunction,Conductor*%
%TO.N,GND*%
G36*
X73248442Y-101601685D02*
G01*
X73269084Y-101618319D01*
X85338584Y-113687819D01*
X85372069Y-113749142D01*
X85367085Y-113818834D01*
X85325213Y-113874767D01*
X85259749Y-113899184D01*
X85250903Y-113899500D01*
X83100098Y-113899500D01*
X83033059Y-113879815D01*
X83012417Y-113863181D01*
X73205050Y-104055815D01*
X73171565Y-103994492D01*
X73174799Y-103929818D01*
X73211413Y-103817136D01*
X73242500Y-103620861D01*
X73242500Y-103422139D01*
X73211413Y-103225864D01*
X73172783Y-103106972D01*
X73150006Y-103036870D01*
X73150005Y-103036867D01*
X73102197Y-102943039D01*
X73059787Y-102859806D01*
X72942981Y-102699036D01*
X72802464Y-102558519D01*
X72722938Y-102500740D01*
X72716175Y-102495460D01*
X72712000Y-102491961D01*
X72611947Y-102391908D01*
X72546259Y-102353060D01*
X72538477Y-102346538D01*
X72524510Y-102325573D01*
X72507321Y-102307163D01*
X72505471Y-102296992D01*
X72499740Y-102288390D01*
X72499324Y-102263202D01*
X72494817Y-102238421D01*
X72498758Y-102228866D01*
X72498588Y-102218530D01*
X72511856Y-102197116D01*
X72521462Y-102173832D01*
X72531874Y-102164809D01*
X72535389Y-102159138D01*
X72542127Y-102155925D01*
X72555004Y-102144768D01*
X72611947Y-102111092D01*
X72708148Y-102014889D01*
X72722939Y-102002258D01*
X72802464Y-101944481D01*
X72942981Y-101803964D01*
X73059787Y-101643194D01*
X73059789Y-101643189D01*
X73061000Y-101641215D01*
X73061656Y-101640621D01*
X73062651Y-101639252D01*
X73062938Y-101639460D01*
X73068701Y-101634246D01*
X73073017Y-101624797D01*
X73094168Y-101611203D01*
X73112810Y-101594337D01*
X73124618Y-101591635D01*
X73131795Y-101587023D01*
X73166730Y-101582000D01*
X73181403Y-101582000D01*
X73248442Y-101601685D01*
G37*
%TD.AperFunction*%
%TA.AperFunction,Conductor*%
G36*
X77782401Y-91903363D02*
G01*
X77792485Y-91902097D01*
X77815359Y-91913040D01*
X77839689Y-91920185D01*
X77846343Y-91927865D01*
X77855513Y-91932252D01*
X77868840Y-91953828D01*
X77885444Y-91972989D01*
X77886890Y-91983047D01*
X77892232Y-91991695D01*
X77891779Y-92017047D01*
X77895388Y-92042147D01*
X77891132Y-92053253D01*
X77890984Y-92061553D01*
X77875752Y-92093391D01*
X77790609Y-92220814D01*
X77790602Y-92220827D01*
X77730264Y-92366498D01*
X77730261Y-92366510D01*
X77699500Y-92521153D01*
X77699500Y-92678846D01*
X77730261Y-92833489D01*
X77730264Y-92833501D01*
X77790602Y-92979172D01*
X77790609Y-92979185D01*
X77878602Y-93110874D01*
X77899480Y-93177551D01*
X77899500Y-93179765D01*
X77899500Y-99794830D01*
X77899499Y-99794848D01*
X77899499Y-99960554D01*
X77899498Y-99960554D01*
X77901642Y-99968556D01*
X77940423Y-100113285D01*
X77940424Y-100113287D01*
X77940423Y-100113287D01*
X77945333Y-100121790D01*
X77945334Y-100121791D01*
X78019477Y-100250212D01*
X78019481Y-100250217D01*
X78138349Y-100369085D01*
X78138355Y-100369090D01*
X85956237Y-108186972D01*
X85989722Y-108248295D01*
X85989160Y-108301022D01*
X85989349Y-108301052D01*
X85989146Y-108302331D01*
X85989133Y-108303587D01*
X85988587Y-108305860D01*
X85961694Y-108475661D01*
X85957500Y-108502139D01*
X85957500Y-108700861D01*
X85959697Y-108714731D01*
X85950740Y-108784024D01*
X85905743Y-108837475D01*
X85838991Y-108858113D01*
X85771677Y-108839387D01*
X85749542Y-108821807D01*
X73243762Y-96316027D01*
X73210277Y-96254704D01*
X73210843Y-96201978D01*
X73210651Y-96201948D01*
X73210857Y-96200643D01*
X73210871Y-96199391D01*
X73211409Y-96197146D01*
X73211413Y-96197136D01*
X73242500Y-96000861D01*
X73242500Y-95802139D01*
X73211413Y-95605864D01*
X73172783Y-95486972D01*
X73150006Y-95416870D01*
X73150005Y-95416867D01*
X73094270Y-95307482D01*
X73059787Y-95239806D01*
X72942981Y-95079036D01*
X72802464Y-94938519D01*
X72722938Y-94880740D01*
X72716175Y-94875460D01*
X72712000Y-94871961D01*
X72611947Y-94771908D01*
X72546259Y-94733060D01*
X72538477Y-94726538D01*
X72524510Y-94705573D01*
X72507321Y-94687163D01*
X72505471Y-94676992D01*
X72499740Y-94668390D01*
X72499324Y-94643202D01*
X72494817Y-94618421D01*
X72498758Y-94608866D01*
X72498588Y-94598530D01*
X72511856Y-94577116D01*
X72521462Y-94553832D01*
X72531874Y-94544809D01*
X72535389Y-94539138D01*
X72542127Y-94535925D01*
X72555004Y-94524768D01*
X72611947Y-94491092D01*
X72708148Y-94394889D01*
X72722939Y-94382258D01*
X72802464Y-94324481D01*
X72942981Y-94183964D01*
X73059787Y-94023194D01*
X73150005Y-93846132D01*
X73211413Y-93657136D01*
X73242500Y-93460861D01*
X73242500Y-93262139D01*
X73213018Y-93076000D01*
X73211414Y-93065870D01*
X73210870Y-93063604D01*
X73210914Y-93062715D01*
X73210651Y-93061052D01*
X73211000Y-93060996D01*
X73214359Y-92993821D01*
X73243762Y-92946972D01*
X73746196Y-92444539D01*
X74253916Y-91936819D01*
X74315239Y-91903334D01*
X74341597Y-91900500D01*
X77772650Y-91900500D01*
X77782401Y-91903363D01*
G37*
%TD.AperFunction*%
%TA.AperFunction,Conductor*%
G36*
X108705703Y-72123228D02*
G01*
X108739060Y-72169488D01*
X108758287Y-72215906D01*
X108778338Y-72264314D01*
X108785806Y-72333783D01*
X108783551Y-72343858D01*
X108749499Y-72470943D01*
X108749499Y-72639046D01*
X108749500Y-72639059D01*
X108749500Y-74500960D01*
X108743261Y-74522205D01*
X108741682Y-74544294D01*
X108733609Y-74555077D01*
X108729815Y-74567999D01*
X108713081Y-74582498D01*
X108699810Y-74600227D01*
X108687189Y-74604934D01*
X108677011Y-74613754D01*
X108655093Y-74616905D01*
X108634346Y-74624644D01*
X108621185Y-74621781D01*
X108607853Y-74623698D01*
X108587709Y-74614498D01*
X108566073Y-74609792D01*
X108548347Y-74596523D01*
X108544297Y-74594673D01*
X108537819Y-74588641D01*
X108536819Y-74587641D01*
X108503334Y-74526318D01*
X108500500Y-74499960D01*
X108500500Y-72216941D01*
X108520185Y-72149902D01*
X108572989Y-72104147D01*
X108642147Y-72094203D01*
X108705703Y-72123228D01*
G37*
%TD.AperFunction*%
%TA.AperFunction,Conductor*%
G36*
X121444625Y-69520185D02*
G01*
X121490380Y-69572989D01*
X121500324Y-69642147D01*
X121475961Y-69699987D01*
X121333075Y-69886196D01*
X121201958Y-70113299D01*
X121201953Y-70113309D01*
X121101605Y-70355571D01*
X121101602Y-70355581D01*
X121036245Y-70599500D01*
X121033730Y-70608885D01*
X120999500Y-70868872D01*
X120999500Y-71131127D01*
X121024519Y-71321153D01*
X121033730Y-71391116D01*
X121098677Y-71633501D01*
X121101602Y-71644418D01*
X121101605Y-71644428D01*
X121201953Y-71886690D01*
X121201958Y-71886700D01*
X121333075Y-72113803D01*
X121492718Y-72321851D01*
X121492726Y-72321860D01*
X121678140Y-72507274D01*
X121678148Y-72507281D01*
X121678149Y-72507282D01*
X121699986Y-72524038D01*
X121886196Y-72666924D01*
X122113299Y-72798041D01*
X122113309Y-72798046D01*
X122336769Y-72890606D01*
X122355581Y-72898398D01*
X122608884Y-72966270D01*
X122868880Y-73000500D01*
X122868887Y-73000500D01*
X123131113Y-73000500D01*
X123131120Y-73000500D01*
X123391116Y-72966270D01*
X123644419Y-72898398D01*
X123886697Y-72798043D01*
X124113803Y-72666924D01*
X124300015Y-72524036D01*
X124365182Y-72498843D01*
X124433627Y-72512881D01*
X124483617Y-72561694D01*
X124499500Y-72622413D01*
X124499500Y-112377586D01*
X124479815Y-112444625D01*
X124427011Y-112490380D01*
X124357853Y-112500324D01*
X124300013Y-112475961D01*
X124113803Y-112333075D01*
X123886700Y-112201958D01*
X123886690Y-112201953D01*
X123644428Y-112101605D01*
X123644421Y-112101603D01*
X123644419Y-112101602D01*
X123391116Y-112033730D01*
X123333339Y-112026123D01*
X123131127Y-111999500D01*
X123131120Y-111999500D01*
X122868880Y-111999500D01*
X122868872Y-111999500D01*
X122637772Y-112029926D01*
X122608884Y-112033730D01*
X122402370Y-112089065D01*
X122355581Y-112101602D01*
X122355571Y-112101605D01*
X122113309Y-112201953D01*
X122113299Y-112201958D01*
X121886196Y-112333075D01*
X121678148Y-112492718D01*
X121492718Y-112678148D01*
X121333075Y-112886196D01*
X121201958Y-113113299D01*
X121201953Y-113113309D01*
X121101605Y-113355571D01*
X121101602Y-113355581D01*
X121033730Y-113608884D01*
X121032158Y-113620827D01*
X120999500Y-113868872D01*
X120999500Y-114131127D01*
X121019703Y-114284574D01*
X121033730Y-114391116D01*
X121098831Y-114634076D01*
X121101602Y-114644418D01*
X121101605Y-114644428D01*
X121201953Y-114886690D01*
X121201958Y-114886700D01*
X121333075Y-115113803D01*
X121475961Y-115300013D01*
X121501156Y-115365182D01*
X121487118Y-115433627D01*
X121438304Y-115483617D01*
X121377586Y-115499500D01*
X69622414Y-115499500D01*
X69555375Y-115479815D01*
X69509620Y-115427011D01*
X69499676Y-115357853D01*
X69524039Y-115300013D01*
X69666924Y-115113803D01*
X69698232Y-115059576D01*
X69798043Y-114886697D01*
X69898398Y-114644419D01*
X69966270Y-114391116D01*
X70000500Y-114131120D01*
X70000500Y-113868880D01*
X69966270Y-113608884D01*
X69898398Y-113355581D01*
X69893762Y-113344388D01*
X69798046Y-113113309D01*
X69798041Y-113113299D01*
X69666924Y-112886196D01*
X69516843Y-112690609D01*
X69507282Y-112678149D01*
X69507281Y-112678148D01*
X69507274Y-112678140D01*
X69321860Y-112492726D01*
X69321851Y-112492718D01*
X69113803Y-112333075D01*
X68886700Y-112201958D01*
X68886690Y-112201953D01*
X68644428Y-112101605D01*
X68644421Y-112101603D01*
X68644419Y-112101602D01*
X68391116Y-112033730D01*
X68333339Y-112026123D01*
X68131127Y-111999500D01*
X68131120Y-111999500D01*
X67868880Y-111999500D01*
X67868872Y-111999500D01*
X67637772Y-112029926D01*
X67608884Y-112033730D01*
X67402370Y-112089065D01*
X67355581Y-112101602D01*
X67355571Y-112101605D01*
X67113309Y-112201953D01*
X67113299Y-112201958D01*
X66886196Y-112333075D01*
X66699987Y-112475961D01*
X66634818Y-112501156D01*
X66566373Y-112487118D01*
X66516383Y-112438304D01*
X66500500Y-112377586D01*
X66500500Y-92685958D01*
X69428500Y-92685958D01*
X69428500Y-94037041D01*
X69431412Y-94074046D01*
X69431413Y-94074052D01*
X69477434Y-94232454D01*
X69477435Y-94232457D01*
X69561405Y-94374443D01*
X69561412Y-94374452D01*
X69678047Y-94491087D01*
X69678050Y-94491089D01*
X69678053Y-94491092D01*
X69734996Y-94524768D01*
X69782679Y-94575838D01*
X69795182Y-94644579D01*
X69768536Y-94709169D01*
X69734996Y-94738232D01*
X69678053Y-94771908D01*
X69678047Y-94771912D01*
X69561412Y-94888547D01*
X69561405Y-94888556D01*
X69477435Y-95030542D01*
X69477434Y-95030545D01*
X69431413Y-95188947D01*
X69431412Y-95188953D01*
X69428500Y-95225958D01*
X69428500Y-96577041D01*
X69431412Y-96614046D01*
X69431413Y-96614052D01*
X69477434Y-96772454D01*
X69477435Y-96772457D01*
X69561405Y-96914443D01*
X69561412Y-96914452D01*
X69678047Y-97031087D01*
X69678050Y-97031089D01*
X69678053Y-97031092D01*
X69734996Y-97064768D01*
X69782679Y-97115838D01*
X69795182Y-97184579D01*
X69768536Y-97249169D01*
X69734996Y-97278232D01*
X69678053Y-97311908D01*
X69678047Y-97311912D01*
X69561412Y-97428547D01*
X69561405Y-97428556D01*
X69477435Y-97570542D01*
X69477434Y-97570545D01*
X69431413Y-97728947D01*
X69431412Y-97728953D01*
X69428500Y-97765958D01*
X69428500Y-99117035D01*
X69431412Y-99154046D01*
X69431413Y-99154052D01*
X69477434Y-99312454D01*
X69477435Y-99312457D01*
X69477436Y-99312459D01*
X69483091Y-99322021D01*
X69561405Y-99454443D01*
X69561412Y-99454452D01*
X69678047Y-99571087D01*
X69678050Y-99571089D01*
X69678053Y-99571092D01*
X69734663Y-99604571D01*
X69734996Y-99604768D01*
X69782679Y-99655838D01*
X69795182Y-99724579D01*
X69768536Y-99789169D01*
X69734996Y-99818232D01*
X69678053Y-99851908D01*
X69678047Y-99851912D01*
X69561412Y-99968547D01*
X69561405Y-99968556D01*
X69477435Y-100110542D01*
X69477434Y-100110545D01*
X69431413Y-100268947D01*
X69431412Y-100268953D01*
X69428500Y-100305958D01*
X69428500Y-101657041D01*
X69431412Y-101694046D01*
X69431413Y-101694052D01*
X69477434Y-101852454D01*
X69477435Y-101852457D01*
X69561405Y-101994443D01*
X69561412Y-101994452D01*
X69678047Y-102111087D01*
X69678050Y-102111089D01*
X69678053Y-102111092D01*
X69734996Y-102144768D01*
X69782679Y-102195838D01*
X69795182Y-102264579D01*
X69768536Y-102329169D01*
X69734996Y-102358232D01*
X69678053Y-102391908D01*
X69678047Y-102391912D01*
X69561412Y-102508547D01*
X69561405Y-102508556D01*
X69477435Y-102650542D01*
X69477434Y-102650545D01*
X69431413Y-102808947D01*
X69431412Y-102808953D01*
X69428500Y-102845958D01*
X69428500Y-104197041D01*
X69431412Y-104234046D01*
X69431413Y-104234052D01*
X69477434Y-104392454D01*
X69477435Y-104392457D01*
X69561405Y-104534443D01*
X69561412Y-104534452D01*
X69678047Y-104651087D01*
X69678056Y-104651094D01*
X69735486Y-104685058D01*
X69783170Y-104736127D01*
X69795673Y-104804869D01*
X69769028Y-104869458D01*
X69735487Y-104898521D01*
X69678367Y-104932301D01*
X69678356Y-104932310D01*
X69561810Y-105048856D01*
X69561803Y-105048865D01*
X69477897Y-105190743D01*
X69477896Y-105190746D01*
X69431911Y-105349026D01*
X69431910Y-105349032D01*
X69429000Y-105386011D01*
X69429000Y-106736969D01*
X69429001Y-106736991D01*
X69431910Y-106773966D01*
X69477897Y-106932257D01*
X69561803Y-107074134D01*
X69561810Y-107074143D01*
X69678356Y-107190689D01*
X69678364Y-107190695D01*
X69735486Y-107224477D01*
X69783169Y-107275546D01*
X69795673Y-107344288D01*
X69769028Y-107408877D01*
X69735487Y-107437940D01*
X69678058Y-107471903D01*
X69678047Y-107471912D01*
X69561412Y-107588547D01*
X69561405Y-107588556D01*
X69477435Y-107730542D01*
X69477434Y-107730545D01*
X69431413Y-107888947D01*
X69431412Y-107888953D01*
X69428500Y-107925958D01*
X69428500Y-109277041D01*
X69431412Y-109314046D01*
X69431413Y-109314052D01*
X69477434Y-109472454D01*
X69477435Y-109472457D01*
X69561405Y-109614443D01*
X69561412Y-109614452D01*
X69678047Y-109731087D01*
X69678056Y-109731094D01*
X69717287Y-109754295D01*
X69820041Y-109815064D01*
X69838022Y-109820288D01*
X69978447Y-109861086D01*
X69978450Y-109861086D01*
X69978452Y-109861087D01*
X70015466Y-109864000D01*
X70015474Y-109864000D01*
X72274526Y-109864000D01*
X72274534Y-109864000D01*
X72311548Y-109861087D01*
X72311550Y-109861086D01*
X72311552Y-109861086D01*
X72394672Y-109836937D01*
X72469959Y-109815064D01*
X72611947Y-109731092D01*
X72708148Y-109634889D01*
X72722939Y-109622258D01*
X72802464Y-109564481D01*
X72942981Y-109423964D01*
X73059787Y-109263194D01*
X73150005Y-109086132D01*
X73211413Y-108897136D01*
X73242500Y-108700861D01*
X73242500Y-108502139D01*
X73211413Y-108305864D01*
X73150005Y-108116868D01*
X73150005Y-108116867D01*
X73059786Y-107939805D01*
X72942981Y-107779036D01*
X72802464Y-107638519D01*
X72722938Y-107580740D01*
X72716213Y-107575492D01*
X72712019Y-107571980D01*
X72611947Y-107471908D01*
X72545791Y-107432783D01*
X72538024Y-107426279D01*
X72524036Y-107405300D01*
X72506829Y-107386871D01*
X72504983Y-107376725D01*
X72499263Y-107368146D01*
X72498837Y-107342934D01*
X72494326Y-107318130D01*
X72498258Y-107308598D01*
X72498084Y-107298287D01*
X72511356Y-107276847D01*
X72520972Y-107253540D01*
X72531355Y-107244542D01*
X72534862Y-107238879D01*
X72541606Y-107235660D01*
X72554514Y-107224476D01*
X72611635Y-107190695D01*
X72683639Y-107118691D01*
X72064094Y-106499147D01*
X72151571Y-106475708D01*
X72252930Y-106417189D01*
X72335689Y-106334430D01*
X72394208Y-106233071D01*
X72417647Y-106145594D01*
X73032268Y-106760215D01*
X73059362Y-106722925D01*
X73149542Y-106545937D01*
X73210924Y-106357023D01*
X73210924Y-106357020D01*
X73242000Y-106160821D01*
X73242000Y-106090597D01*
X73261685Y-106023558D01*
X73314489Y-105977803D01*
X73383647Y-105967859D01*
X73447203Y-105996884D01*
X73453679Y-106002914D01*
X82431284Y-114980520D01*
X82431286Y-114980521D01*
X82431290Y-114980524D01*
X82568209Y-115059573D01*
X82568216Y-115059577D01*
X82720943Y-115100501D01*
X82720945Y-115100501D01*
X82886654Y-115100501D01*
X82886670Y-115100500D01*
X87913331Y-115100500D01*
X87913347Y-115100501D01*
X87920943Y-115100501D01*
X88079054Y-115100501D01*
X88079057Y-115100501D01*
X88231785Y-115059577D01*
X88281904Y-115030639D01*
X88368716Y-114980520D01*
X88480520Y-114868716D01*
X88480520Y-114868714D01*
X88490728Y-114858507D01*
X88490729Y-114858504D01*
X89064662Y-114284572D01*
X89125983Y-114251089D01*
X89128150Y-114250638D01*
X89186085Y-114239113D01*
X89283497Y-114219737D01*
X89429179Y-114159394D01*
X89560289Y-114071789D01*
X89671789Y-113960289D01*
X89759394Y-113829179D01*
X89819737Y-113683497D01*
X89850500Y-113528842D01*
X89850500Y-113371158D01*
X89850500Y-113371155D01*
X89850499Y-113371153D01*
X89848288Y-113360037D01*
X89819737Y-113216503D01*
X89817162Y-113210287D01*
X89759397Y-113070827D01*
X89759390Y-113070814D01*
X89671789Y-112939711D01*
X89671786Y-112939707D01*
X89560292Y-112828213D01*
X89560288Y-112828210D01*
X89429185Y-112740609D01*
X89429172Y-112740602D01*
X89283501Y-112680264D01*
X89283489Y-112680261D01*
X89128845Y-112649500D01*
X89128842Y-112649500D01*
X88971158Y-112649500D01*
X88971155Y-112649500D01*
X88816510Y-112680261D01*
X88816498Y-112680264D01*
X88670827Y-112740602D01*
X88670814Y-112740609D01*
X88539711Y-112828210D01*
X88539707Y-112828213D01*
X88428213Y-112939707D01*
X88428210Y-112939711D01*
X88340609Y-113070814D01*
X88340602Y-113070827D01*
X88280264Y-113216498D01*
X88280261Y-113216508D01*
X88249361Y-113371850D01*
X88216976Y-113433761D01*
X88215425Y-113435339D01*
X87787584Y-113863181D01*
X87726261Y-113896666D01*
X87699903Y-113899500D01*
X87317848Y-113899500D01*
X87250809Y-113879815D01*
X87205054Y-113827011D01*
X87196231Y-113799692D01*
X87169738Y-113666508D01*
X87169737Y-113666507D01*
X87169737Y-113666503D01*
X87145871Y-113608884D01*
X87109397Y-113520827D01*
X87109390Y-113520814D01*
X87046514Y-113426714D01*
X87025636Y-113360037D01*
X87044120Y-113292656D01*
X87061928Y-113270149D01*
X87121789Y-113210289D01*
X87209394Y-113079179D01*
X87212854Y-113070827D01*
X87267163Y-112939711D01*
X87269737Y-112933497D01*
X87300500Y-112778842D01*
X87300500Y-112621158D01*
X87300500Y-112621155D01*
X87300499Y-112621153D01*
X87269737Y-112466503D01*
X87232907Y-112377586D01*
X87209397Y-112320827D01*
X87209393Y-112320820D01*
X87141284Y-112218888D01*
X87120408Y-112152214D01*
X87138892Y-112084834D01*
X87141257Y-112081152D01*
X87209394Y-111979179D01*
X87269737Y-111833497D01*
X87300500Y-111678842D01*
X87300500Y-111521158D01*
X87300500Y-111521155D01*
X87300499Y-111521153D01*
X87269738Y-111366510D01*
X87269737Y-111366503D01*
X87269735Y-111366498D01*
X87209397Y-111220827D01*
X87209390Y-111220814D01*
X87121398Y-111089125D01*
X87100520Y-111022447D01*
X87100500Y-111020234D01*
X87100500Y-110510559D01*
X87100501Y-110510546D01*
X87100501Y-110342445D01*
X87100501Y-110342443D01*
X87059577Y-110189715D01*
X87007491Y-110099500D01*
X86980520Y-110052784D01*
X86980519Y-110052783D01*
X86978912Y-110049999D01*
X86962441Y-109982098D01*
X86985293Y-109916072D01*
X87040215Y-109872882D01*
X87086300Y-109864000D01*
X87120639Y-109864000D01*
X87319361Y-109864000D01*
X87581903Y-109864000D01*
X87648942Y-109883685D01*
X87669584Y-109900319D01*
X92234639Y-114465374D01*
X92234649Y-114465385D01*
X92238979Y-114469715D01*
X92238980Y-114469716D01*
X92350784Y-114581520D01*
X92350786Y-114581521D01*
X92350790Y-114581524D01*
X92459729Y-114644419D01*
X92487716Y-114660577D01*
X92599519Y-114690534D01*
X92640442Y-114701500D01*
X92640443Y-114701500D01*
X95762274Y-114701500D01*
X95762290Y-114701501D01*
X95769886Y-114701501D01*
X95927997Y-114701501D01*
X95928000Y-114701501D01*
X96080728Y-114660577D01*
X96169379Y-114609394D01*
X96217659Y-114581520D01*
X96329463Y-114469716D01*
X96329463Y-114469714D01*
X96339667Y-114459511D01*
X96339671Y-114459506D01*
X96658506Y-114140671D01*
X96658511Y-114140667D01*
X96668714Y-114130463D01*
X96668716Y-114130463D01*
X96780520Y-114018659D01*
X96849315Y-113899502D01*
X96849316Y-113899501D01*
X96853479Y-113892288D01*
X96859577Y-113881728D01*
X96900501Y-113729000D01*
X96900501Y-113570886D01*
X96900501Y-113563291D01*
X96900500Y-113563273D01*
X96900500Y-112124499D01*
X96920185Y-112057460D01*
X96972989Y-112011705D01*
X97024495Y-112000499D01*
X97597872Y-112000499D01*
X97657483Y-111994091D01*
X97757382Y-111956830D01*
X97827072Y-111951847D01*
X97844047Y-111956831D01*
X97942620Y-111993596D01*
X97942627Y-111993598D01*
X98002155Y-111999999D01*
X98002172Y-112000000D01*
X98050000Y-112000000D01*
X98050000Y-111559167D01*
X98050427Y-111551188D01*
X98050322Y-111551183D01*
X98050497Y-111547898D01*
X98050500Y-111547873D01*
X98050499Y-111054604D01*
X98059938Y-111007152D01*
X98069737Y-110983497D01*
X98100500Y-110828842D01*
X98100500Y-110671158D01*
X98100500Y-110671155D01*
X98100499Y-110671153D01*
X98069738Y-110516510D01*
X98069737Y-110516503D01*
X98067270Y-110510546D01*
X98059938Y-110492845D01*
X98050499Y-110445393D01*
X98050499Y-109952129D01*
X98050321Y-109948804D01*
X98050426Y-109948798D01*
X98050000Y-109940836D01*
X98050000Y-109500000D01*
X98024500Y-109500000D01*
X97957461Y-109480315D01*
X97911706Y-109427511D01*
X97900500Y-109376000D01*
X97900500Y-108824000D01*
X97920185Y-108756961D01*
X97972989Y-108711206D01*
X98024500Y-108700000D01*
X98050000Y-108700000D01*
X98050000Y-108259167D01*
X98050427Y-108251188D01*
X98050322Y-108251183D01*
X98050497Y-108247898D01*
X98050500Y-108247873D01*
X98050499Y-106652128D01*
X98050498Y-106652127D01*
X98050321Y-106648804D01*
X98050426Y-106648798D01*
X98050000Y-106640836D01*
X98050000Y-106200000D01*
X98024500Y-106200000D01*
X97957461Y-106180315D01*
X97911706Y-106127511D01*
X97900500Y-106076000D01*
X97900500Y-105624000D01*
X97920185Y-105556961D01*
X97972989Y-105511206D01*
X98024500Y-105500000D01*
X98050000Y-105500000D01*
X98050000Y-105059167D01*
X98050427Y-105051188D01*
X98050322Y-105051183D01*
X98050497Y-105047898D01*
X98050500Y-105047873D01*
X98050499Y-103452128D01*
X98050498Y-103452127D01*
X98050321Y-103448804D01*
X98050426Y-103448798D01*
X98050000Y-103440836D01*
X98050000Y-103000000D01*
X98024500Y-103000000D01*
X97957461Y-102980315D01*
X97911706Y-102927511D01*
X97900500Y-102876000D01*
X97900500Y-102324000D01*
X97920185Y-102256961D01*
X97972989Y-102211206D01*
X98024500Y-102200000D01*
X98050000Y-102200000D01*
X98050000Y-101759167D01*
X98050427Y-101751188D01*
X98050322Y-101751183D01*
X98050497Y-101747898D01*
X98050500Y-101747873D01*
X98050499Y-100152128D01*
X98050498Y-100152127D01*
X98050321Y-100148804D01*
X98050426Y-100148798D01*
X98050000Y-100140836D01*
X98050000Y-99700000D01*
X98024500Y-99700000D01*
X97957461Y-99680315D01*
X97911706Y-99627511D01*
X97900500Y-99576000D01*
X97900500Y-99124000D01*
X97920185Y-99056961D01*
X97972989Y-99011206D01*
X98024500Y-99000000D01*
X98050000Y-99000000D01*
X98050000Y-98559167D01*
X98050427Y-98551188D01*
X98050322Y-98551183D01*
X98050497Y-98547898D01*
X98050500Y-98547873D01*
X98050499Y-96952128D01*
X98050498Y-96952127D01*
X98050321Y-96948804D01*
X98050426Y-96948798D01*
X98050000Y-96940836D01*
X98050000Y-96500000D01*
X98024500Y-96500000D01*
X97957461Y-96480315D01*
X97911706Y-96427511D01*
X97900500Y-96376000D01*
X97900500Y-95824000D01*
X97920185Y-95756961D01*
X97972989Y-95711206D01*
X98024500Y-95700000D01*
X98050000Y-95700000D01*
X98050000Y-95259167D01*
X98050427Y-95251188D01*
X98050322Y-95251183D01*
X98050497Y-95247898D01*
X98050500Y-95247873D01*
X98050499Y-93652128D01*
X98050498Y-93652127D01*
X98050321Y-93648804D01*
X98050426Y-93648798D01*
X98050000Y-93640836D01*
X98050000Y-93200000D01*
X98024500Y-93200000D01*
X97957461Y-93180315D01*
X97911706Y-93127511D01*
X97900500Y-93076000D01*
X97900500Y-92624000D01*
X97920185Y-92556961D01*
X97972989Y-92511206D01*
X98024500Y-92500000D01*
X98050000Y-92500000D01*
X98050000Y-92059167D01*
X98050427Y-92051188D01*
X98050322Y-92051183D01*
X98050497Y-92047898D01*
X98050500Y-92047873D01*
X98050499Y-90452128D01*
X98050498Y-90452127D01*
X98050321Y-90448804D01*
X98050426Y-90448798D01*
X98050000Y-90440836D01*
X98050000Y-90000000D01*
X98024500Y-90000000D01*
X97957461Y-89980315D01*
X97911706Y-89927511D01*
X97900500Y-89876000D01*
X97900500Y-89324000D01*
X97920185Y-89256961D01*
X97972989Y-89211206D01*
X98024500Y-89200000D01*
X98050000Y-89200000D01*
X98050000Y-88759167D01*
X98050427Y-88751188D01*
X98050322Y-88751183D01*
X98050497Y-88747898D01*
X98050500Y-88747873D01*
X98050499Y-88073998D01*
X98070183Y-88006961D01*
X98122987Y-87961206D01*
X98174499Y-87950000D01*
X98425500Y-87950000D01*
X98492539Y-87969685D01*
X98538294Y-88022489D01*
X98549500Y-88074000D01*
X98549500Y-88747863D01*
X98549679Y-88751180D01*
X98549572Y-88751185D01*
X98550000Y-88759156D01*
X98550000Y-89200000D01*
X98575500Y-89200000D01*
X98642539Y-89219685D01*
X98688294Y-89272489D01*
X98699500Y-89324000D01*
X98699500Y-89876000D01*
X98679815Y-89943039D01*
X98627011Y-89988794D01*
X98575500Y-90000000D01*
X98550000Y-90000000D01*
X98550000Y-90440826D01*
X98549572Y-90448798D01*
X98549678Y-90448804D01*
X98549501Y-90452116D01*
X98549500Y-90452127D01*
X98549501Y-92047872D01*
X98549501Y-92047880D01*
X98549679Y-92051180D01*
X98549572Y-92051185D01*
X98550000Y-92059156D01*
X98550000Y-92500000D01*
X98575500Y-92500000D01*
X98642539Y-92519685D01*
X98688294Y-92572489D01*
X98699500Y-92624000D01*
X98699500Y-93076000D01*
X98679815Y-93143039D01*
X98627011Y-93188794D01*
X98575500Y-93200000D01*
X98550000Y-93200000D01*
X98550000Y-93640826D01*
X98549572Y-93648798D01*
X98549678Y-93648804D01*
X98549500Y-93652123D01*
X98549500Y-93652127D01*
X98549501Y-95247872D01*
X98549501Y-95247880D01*
X98549679Y-95251180D01*
X98549572Y-95251185D01*
X98550000Y-95259156D01*
X98550000Y-95700000D01*
X98575500Y-95700000D01*
X98642539Y-95719685D01*
X98688294Y-95772489D01*
X98699500Y-95824000D01*
X98699500Y-96376000D01*
X98679815Y-96443039D01*
X98627011Y-96488794D01*
X98575500Y-96500000D01*
X98550000Y-96500000D01*
X98550000Y-96940826D01*
X98549572Y-96948798D01*
X98549678Y-96948804D01*
X98549501Y-96952116D01*
X98549500Y-96952127D01*
X98549501Y-98547872D01*
X98549501Y-98547880D01*
X98549679Y-98551180D01*
X98549572Y-98551185D01*
X98550000Y-98559156D01*
X98550000Y-99000000D01*
X98575500Y-99000000D01*
X98642539Y-99019685D01*
X98688294Y-99072489D01*
X98699500Y-99124000D01*
X98699500Y-99576000D01*
X98679815Y-99643039D01*
X98627011Y-99688794D01*
X98575500Y-99700000D01*
X98550000Y-99700000D01*
X98550000Y-100140826D01*
X98549572Y-100148798D01*
X98549678Y-100148804D01*
X98549501Y-100152116D01*
X98549500Y-100152127D01*
X98549501Y-101747872D01*
X98549501Y-101747880D01*
X98549679Y-101751180D01*
X98549572Y-101751185D01*
X98550000Y-101759156D01*
X98550000Y-102200000D01*
X98575500Y-102200000D01*
X98642539Y-102219685D01*
X98688294Y-102272489D01*
X98699500Y-102324000D01*
X98699500Y-102876000D01*
X98679815Y-102943039D01*
X98627011Y-102988794D01*
X98575500Y-103000000D01*
X98550000Y-103000000D01*
X98550000Y-103440826D01*
X98549572Y-103448798D01*
X98549678Y-103448804D01*
X98549501Y-103452116D01*
X98549500Y-103452127D01*
X98549501Y-105047872D01*
X98549501Y-105047880D01*
X98549679Y-105051180D01*
X98549572Y-105051185D01*
X98550000Y-105059156D01*
X98550000Y-105500000D01*
X98575500Y-105500000D01*
X98642539Y-105519685D01*
X98688294Y-105572489D01*
X98699500Y-105624000D01*
X98699500Y-106076000D01*
X98679815Y-106143039D01*
X98627011Y-106188794D01*
X98575500Y-106200000D01*
X98550000Y-106200000D01*
X98550000Y-106640826D01*
X98549572Y-106648798D01*
X98549678Y-106648804D01*
X98549501Y-106652116D01*
X98549500Y-106652127D01*
X98549501Y-108247872D01*
X98549501Y-108247880D01*
X98549679Y-108251180D01*
X98549572Y-108251185D01*
X98550000Y-108259156D01*
X98550000Y-108700000D01*
X98575500Y-108700000D01*
X98642539Y-108719685D01*
X98688294Y-108772489D01*
X98699500Y-108824000D01*
X98699500Y-109376000D01*
X98679815Y-109443039D01*
X98627011Y-109488794D01*
X98575500Y-109500000D01*
X98550000Y-109500000D01*
X98550000Y-109940826D01*
X98549572Y-109948798D01*
X98549678Y-109948804D01*
X98549501Y-109952116D01*
X98549500Y-109952127D01*
X98549501Y-111547872D01*
X98549501Y-111547880D01*
X98549679Y-111551180D01*
X98549572Y-111551185D01*
X98550000Y-111559156D01*
X98550000Y-112000000D01*
X98575500Y-112000000D01*
X98584185Y-112002550D01*
X98593147Y-112001262D01*
X98617187Y-112012240D01*
X98642539Y-112019685D01*
X98648466Y-112026525D01*
X98656703Y-112030287D01*
X98670992Y-112052521D01*
X98688294Y-112072489D01*
X98690581Y-112083003D01*
X98694477Y-112089065D01*
X98699500Y-112124000D01*
X98699500Y-112313330D01*
X98699499Y-112313348D01*
X98699499Y-112479054D01*
X98699498Y-112479054D01*
X98737575Y-112621155D01*
X98740423Y-112631785D01*
X98750651Y-112649500D01*
X98767191Y-112678149D01*
X98782887Y-112705334D01*
X98799500Y-112767334D01*
X98799500Y-112778846D01*
X98830261Y-112933489D01*
X98830264Y-112933501D01*
X98890602Y-113079172D01*
X98890609Y-113079185D01*
X98978210Y-113210288D01*
X98978213Y-113210292D01*
X99030240Y-113262319D01*
X99063725Y-113323642D01*
X99058741Y-113393334D01*
X99030240Y-113437681D01*
X98978213Y-113489707D01*
X98978210Y-113489711D01*
X98890609Y-113620814D01*
X98890602Y-113620827D01*
X98830264Y-113766498D01*
X98830261Y-113766510D01*
X98799500Y-113921153D01*
X98799500Y-114078846D01*
X98830261Y-114233489D01*
X98830264Y-114233501D01*
X98890602Y-114379172D01*
X98890609Y-114379185D01*
X98978210Y-114510288D01*
X98978213Y-114510292D01*
X99089707Y-114621786D01*
X99089711Y-114621789D01*
X99220814Y-114709390D01*
X99220827Y-114709397D01*
X99366498Y-114769735D01*
X99366503Y-114769737D01*
X99521153Y-114800499D01*
X99521156Y-114800500D01*
X99521158Y-114800500D01*
X99678844Y-114800500D01*
X99678845Y-114800499D01*
X99833497Y-114769737D01*
X99979179Y-114709394D01*
X100110289Y-114621789D01*
X100221789Y-114510289D01*
X100309394Y-114379179D01*
X100369737Y-114233497D01*
X100396510Y-114098901D01*
X100428895Y-114036990D01*
X100489610Y-114002416D01*
X100559380Y-114006155D01*
X100587018Y-114019990D01*
X100720814Y-114109390D01*
X100720827Y-114109397D01*
X100866498Y-114169735D01*
X100866503Y-114169737D01*
X101021153Y-114200499D01*
X101021156Y-114200500D01*
X101021158Y-114200500D01*
X101178844Y-114200500D01*
X101178845Y-114200499D01*
X101333497Y-114169737D01*
X101479179Y-114109394D01*
X101610289Y-114021789D01*
X101721789Y-113910289D01*
X101809394Y-113779179D01*
X101869737Y-113633497D01*
X101900500Y-113478842D01*
X101900500Y-113321158D01*
X101900500Y-113321156D01*
X101899903Y-113315098D01*
X101900276Y-113315061D01*
X101898781Y-113299137D01*
X101898911Y-113284987D01*
X101900501Y-113279057D01*
X101900501Y-113120942D01*
X101900500Y-113120938D01*
X101900500Y-111908230D01*
X101920185Y-111841191D01*
X101925233Y-111833919D01*
X101925555Y-111833489D01*
X101993796Y-111742331D01*
X102044091Y-111607483D01*
X102050500Y-111547873D01*
X102050499Y-109952128D01*
X102044091Y-109892517D01*
X102033454Y-109863999D01*
X101993797Y-109757671D01*
X101993795Y-109757668D01*
X101925233Y-109666080D01*
X101900816Y-109600615D01*
X101900500Y-109591769D01*
X101900500Y-108608230D01*
X101920185Y-108541191D01*
X101925233Y-108533919D01*
X101993796Y-108442331D01*
X102044091Y-108307483D01*
X102050500Y-108247873D01*
X102050499Y-106652128D01*
X102044091Y-106592517D01*
X102011822Y-106506000D01*
X101993797Y-106457671D01*
X101993795Y-106457668D01*
X101925233Y-106366080D01*
X101900816Y-106300615D01*
X101900500Y-106291769D01*
X101900500Y-105408230D01*
X101920185Y-105341191D01*
X101925233Y-105333919D01*
X101993796Y-105242331D01*
X102044091Y-105107483D01*
X102050500Y-105047873D01*
X102050499Y-103452128D01*
X102044091Y-103392517D01*
X101993796Y-103257669D01*
X101967342Y-103222331D01*
X101925233Y-103166080D01*
X101900816Y-103100615D01*
X101900500Y-103091769D01*
X101900500Y-102108230D01*
X101920185Y-102041191D01*
X101925233Y-102033919D01*
X101944640Y-102007995D01*
X101993796Y-101942331D01*
X102044091Y-101807483D01*
X102050500Y-101747873D01*
X102050499Y-100152128D01*
X102044091Y-100092517D01*
X102044089Y-100092512D01*
X101993797Y-99957671D01*
X101993795Y-99957668D01*
X101925233Y-99866080D01*
X101900816Y-99800615D01*
X101900500Y-99791769D01*
X101900500Y-98908230D01*
X101920185Y-98841191D01*
X101925233Y-98833919D01*
X101978743Y-98762439D01*
X101993796Y-98742331D01*
X102044091Y-98607483D01*
X102050500Y-98547873D01*
X102050499Y-96952128D01*
X102044091Y-96892517D01*
X102031658Y-96859183D01*
X101993797Y-96757671D01*
X101993795Y-96757668D01*
X101925233Y-96666080D01*
X101900816Y-96600615D01*
X101900500Y-96591769D01*
X101900500Y-95608230D01*
X101920185Y-95541191D01*
X101925233Y-95533919D01*
X101950187Y-95500585D01*
X101993796Y-95442331D01*
X102044091Y-95307483D01*
X102050500Y-95247873D01*
X102050499Y-93652128D01*
X102044091Y-93592517D01*
X102040096Y-93581807D01*
X101993797Y-93457671D01*
X101993795Y-93457668D01*
X101925233Y-93366080D01*
X101900816Y-93300615D01*
X101900500Y-93291769D01*
X101900500Y-92408230D01*
X101920185Y-92341191D01*
X101925233Y-92333919D01*
X101929586Y-92328104D01*
X101993796Y-92242331D01*
X102044091Y-92107483D01*
X102050500Y-92047873D01*
X102050499Y-90452128D01*
X102044091Y-90392517D01*
X102041459Y-90385461D01*
X101993797Y-90257671D01*
X101993795Y-90257668D01*
X101925233Y-90166080D01*
X101900816Y-90100615D01*
X101900500Y-90091769D01*
X101900500Y-89108230D01*
X101920185Y-89041191D01*
X101925233Y-89033919D01*
X101926134Y-89032716D01*
X101993796Y-88942331D01*
X102044091Y-88807483D01*
X102050500Y-88747873D01*
X102050499Y-87951095D01*
X102070183Y-87884057D01*
X102122987Y-87838302D01*
X102192146Y-87828358D01*
X102255702Y-87857383D01*
X102262180Y-87863415D01*
X102963181Y-88564416D01*
X102996666Y-88625739D01*
X102999500Y-88652097D01*
X102999500Y-90720234D01*
X102979815Y-90787273D01*
X102978602Y-90789125D01*
X102890609Y-90920814D01*
X102890602Y-90920827D01*
X102830264Y-91066498D01*
X102830261Y-91066510D01*
X102799500Y-91221153D01*
X102799500Y-91378846D01*
X102830261Y-91533489D01*
X102830264Y-91533501D01*
X102890602Y-91679172D01*
X102890609Y-91679185D01*
X102978210Y-91810288D01*
X102978213Y-91810292D01*
X103089707Y-91921786D01*
X103089711Y-91921789D01*
X103220814Y-92009390D01*
X103220827Y-92009397D01*
X103366498Y-92069735D01*
X103366503Y-92069737D01*
X103471418Y-92090606D01*
X103521153Y-92100499D01*
X103521156Y-92100500D01*
X103521158Y-92100500D01*
X103678844Y-92100500D01*
X103678845Y-92100499D01*
X103833497Y-92069737D01*
X103979179Y-92009394D01*
X104110289Y-91921789D01*
X104221789Y-91810289D01*
X104309394Y-91679179D01*
X104369737Y-91533497D01*
X104400500Y-91378842D01*
X104400500Y-91221158D01*
X104400500Y-91221155D01*
X104400499Y-91221153D01*
X104378821Y-91112171D01*
X104369737Y-91066503D01*
X104353760Y-91027930D01*
X104309397Y-90920827D01*
X104309390Y-90920814D01*
X104221398Y-90789125D01*
X104200520Y-90722447D01*
X104200500Y-90720234D01*
X104200500Y-88272943D01*
X104194901Y-88252050D01*
X104194900Y-88252046D01*
X104176074Y-88181785D01*
X104171910Y-88166243D01*
X104159577Y-88120216D01*
X104159573Y-88120209D01*
X104080524Y-87983290D01*
X104080521Y-87983286D01*
X104080520Y-87983284D01*
X103968716Y-87871480D01*
X103968715Y-87871479D01*
X103964385Y-87867149D01*
X103964374Y-87867139D01*
X102918388Y-86821153D01*
X104899500Y-86821153D01*
X104899500Y-86978846D01*
X104930261Y-87133489D01*
X104930264Y-87133501D01*
X104990602Y-87279172D01*
X104990609Y-87279185D01*
X105078210Y-87410288D01*
X105078213Y-87410292D01*
X105189707Y-87521786D01*
X105189711Y-87521789D01*
X105320814Y-87609390D01*
X105320827Y-87609397D01*
X105466498Y-87669735D01*
X105466503Y-87669737D01*
X105621153Y-87700499D01*
X105621156Y-87700500D01*
X105621158Y-87700500D01*
X105778844Y-87700500D01*
X105778845Y-87700499D01*
X105933497Y-87669737D01*
X106079179Y-87609394D01*
X106210289Y-87521789D01*
X106321789Y-87410289D01*
X106409394Y-87279179D01*
X106469737Y-87133497D01*
X106489113Y-87036085D01*
X106500638Y-86978150D01*
X106533023Y-86916239D01*
X106534519Y-86914715D01*
X108218713Y-85230521D01*
X108218716Y-85230520D01*
X108312420Y-85136816D01*
X108373744Y-85103332D01*
X108373748Y-85103332D01*
X108400100Y-85100499D01*
X108547870Y-85100499D01*
X108547872Y-85100499D01*
X108561240Y-85099062D01*
X108589094Y-85096068D01*
X108615606Y-85096068D01*
X108652166Y-85099999D01*
X108652182Y-85100000D01*
X109047819Y-85100000D01*
X109047833Y-85099999D01*
X109084395Y-85096068D01*
X109110905Y-85096068D01*
X109152127Y-85100500D01*
X109547872Y-85100499D01*
X109547873Y-85100498D01*
X109547885Y-85100498D01*
X109586744Y-85096320D01*
X109613252Y-85096320D01*
X109638759Y-85099062D01*
X109703308Y-85125801D01*
X109743155Y-85183194D01*
X109749500Y-85222351D01*
X109749500Y-87446663D01*
X109749499Y-87446681D01*
X109749499Y-87612387D01*
X109749498Y-87612387D01*
X109790424Y-87765122D01*
X109790425Y-87765123D01*
X109809971Y-87798977D01*
X109809974Y-87798981D01*
X109813031Y-87804276D01*
X109869480Y-87902049D01*
X109920360Y-87952929D01*
X109926272Y-87961174D01*
X109934592Y-87984961D01*
X109946666Y-88007073D01*
X109948592Y-88024988D01*
X109949340Y-88027126D01*
X109948982Y-88028619D01*
X109949500Y-88033431D01*
X109949500Y-88681203D01*
X109949501Y-88681209D01*
X109955908Y-88740816D01*
X110006202Y-88875661D01*
X110006203Y-88875663D01*
X110045914Y-88928709D01*
X110074211Y-88966510D01*
X110074767Y-88967252D01*
X110099184Y-89032716D01*
X110099500Y-89041563D01*
X110099500Y-90025102D01*
X110079815Y-90092141D01*
X110074767Y-90099413D01*
X110006204Y-90191001D01*
X110006202Y-90191004D01*
X109955908Y-90325850D01*
X109951538Y-90366503D01*
X109949501Y-90385456D01*
X109949500Y-90385468D01*
X109949500Y-91981203D01*
X109949501Y-91981209D01*
X109955908Y-92040816D01*
X110006202Y-92175661D01*
X110006203Y-92175663D01*
X110074767Y-92267252D01*
X110099184Y-92332716D01*
X110099500Y-92341563D01*
X110099500Y-93258435D01*
X110079815Y-93325474D01*
X110074767Y-93332746D01*
X110006204Y-93424334D01*
X110006202Y-93424337D01*
X109955908Y-93559183D01*
X109949858Y-93615464D01*
X109949501Y-93618789D01*
X109949500Y-93618801D01*
X109949500Y-95214536D01*
X109949501Y-95214542D01*
X109955908Y-95274149D01*
X110006202Y-95408994D01*
X110006203Y-95408996D01*
X110074767Y-95500585D01*
X110099184Y-95566049D01*
X110099500Y-95574896D01*
X110099500Y-96558435D01*
X110079815Y-96625474D01*
X110074767Y-96632746D01*
X110006204Y-96724334D01*
X110006202Y-96724337D01*
X109955908Y-96859183D01*
X109949858Y-96915464D01*
X109949501Y-96918789D01*
X109949500Y-96918801D01*
X109949500Y-98514536D01*
X109949501Y-98514542D01*
X109955908Y-98574149D01*
X110006202Y-98708994D01*
X110006203Y-98708996D01*
X110074767Y-98800585D01*
X110099184Y-98866049D01*
X110099500Y-98874896D01*
X110099500Y-99791769D01*
X110079815Y-99858808D01*
X110074767Y-99866080D01*
X110006204Y-99957668D01*
X110006202Y-99957671D01*
X109955908Y-100092517D01*
X109950715Y-100140826D01*
X109949501Y-100152123D01*
X109949500Y-100152135D01*
X109949500Y-101747870D01*
X109949501Y-101747876D01*
X109955908Y-101807483D01*
X110006202Y-101942328D01*
X110006203Y-101942330D01*
X110074767Y-102033919D01*
X110099184Y-102099383D01*
X110099500Y-102108230D01*
X110099500Y-103091769D01*
X110079815Y-103158808D01*
X110074767Y-103166080D01*
X110006204Y-103257668D01*
X110006202Y-103257671D01*
X109955908Y-103392517D01*
X109952724Y-103422139D01*
X109949501Y-103452123D01*
X109949500Y-103452135D01*
X109949500Y-105047870D01*
X109949501Y-105047876D01*
X109955908Y-105107483D01*
X110006202Y-105242328D01*
X110006203Y-105242330D01*
X110074767Y-105333919D01*
X110099184Y-105399383D01*
X110099500Y-105408230D01*
X110099500Y-106325102D01*
X110079815Y-106392141D01*
X110074767Y-106399413D01*
X110006204Y-106491001D01*
X110006202Y-106491004D01*
X109955908Y-106625850D01*
X109951190Y-106669737D01*
X109949501Y-106685456D01*
X109949500Y-106685468D01*
X109949500Y-108281203D01*
X109949501Y-108281209D01*
X109955908Y-108340816D01*
X110006202Y-108475661D01*
X110006203Y-108475663D01*
X110074767Y-108567252D01*
X110099184Y-108632716D01*
X110099500Y-108641563D01*
X110099500Y-109625102D01*
X110079815Y-109692141D01*
X110074767Y-109699413D01*
X110006204Y-109791001D01*
X110006202Y-109791004D01*
X109955908Y-109925850D01*
X109950715Y-109974159D01*
X109949501Y-109985456D01*
X109949500Y-109985468D01*
X109949500Y-111581203D01*
X109949501Y-111581209D01*
X109955908Y-111640816D01*
X110006202Y-111775661D01*
X110006203Y-111775663D01*
X110074767Y-111867252D01*
X110099184Y-111932716D01*
X110099500Y-111941563D01*
X110099500Y-112575161D01*
X110079815Y-112642200D01*
X110027011Y-112687955D01*
X110022962Y-112689718D01*
X110020830Y-112690601D01*
X110020814Y-112690609D01*
X109889711Y-112778210D01*
X109889707Y-112778213D01*
X109778213Y-112889707D01*
X109778210Y-112889711D01*
X109690609Y-113020814D01*
X109690602Y-113020827D01*
X109630264Y-113166498D01*
X109630261Y-113166510D01*
X109599500Y-113321153D01*
X109599500Y-113478846D01*
X109630261Y-113633489D01*
X109630264Y-113633501D01*
X109690602Y-113779172D01*
X109690609Y-113779185D01*
X109778210Y-113910288D01*
X109778213Y-113910292D01*
X109889707Y-114021786D01*
X109889711Y-114021789D01*
X110020814Y-114109390D01*
X110020827Y-114109397D01*
X110166498Y-114169735D01*
X110166503Y-114169737D01*
X110321153Y-114200499D01*
X110321156Y-114200500D01*
X110321158Y-114200500D01*
X110478844Y-114200500D01*
X110478845Y-114200499D01*
X110633497Y-114169737D01*
X110779179Y-114109394D01*
X110910289Y-114021789D01*
X111021789Y-113910289D01*
X111109394Y-113779179D01*
X111169737Y-113633497D01*
X111200500Y-113478842D01*
X111200500Y-113467334D01*
X111204650Y-113451843D01*
X111203996Y-113438099D01*
X111217111Y-113405337D01*
X111236969Y-113370943D01*
X111259577Y-113331785D01*
X111300500Y-113179057D01*
X111300500Y-113020943D01*
X111300500Y-112157832D01*
X111320185Y-112090793D01*
X111372989Y-112045038D01*
X111424495Y-112033832D01*
X111997872Y-112033832D01*
X112057483Y-112027424D01*
X112156669Y-111990429D01*
X112226358Y-111985446D01*
X112243319Y-111990425D01*
X112321768Y-112019685D01*
X112342511Y-112027422D01*
X112342517Y-112027424D01*
X112402127Y-112033833D01*
X112997872Y-112033832D01*
X113057483Y-112027424D01*
X113157382Y-111990163D01*
X113227072Y-111985180D01*
X113244047Y-111990164D01*
X113342620Y-112026929D01*
X113342627Y-112026931D01*
X113402155Y-112033332D01*
X113402172Y-112033333D01*
X113450000Y-112033333D01*
X113450000Y-111592500D01*
X113450427Y-111584521D01*
X113450322Y-111584516D01*
X113450497Y-111581231D01*
X113450500Y-111581206D01*
X113450499Y-109985461D01*
X113450498Y-109985460D01*
X113450321Y-109982137D01*
X113450426Y-109982131D01*
X113450000Y-109974169D01*
X113450000Y-109533333D01*
X113424500Y-109533333D01*
X113357461Y-109513648D01*
X113311706Y-109460844D01*
X113300500Y-109409333D01*
X113300500Y-108857333D01*
X113320185Y-108790294D01*
X113372989Y-108744539D01*
X113424500Y-108733333D01*
X113450000Y-108733333D01*
X113450000Y-108292500D01*
X113450427Y-108284521D01*
X113450322Y-108284516D01*
X113450497Y-108281231D01*
X113450500Y-108281206D01*
X113450499Y-106685461D01*
X113450498Y-106685460D01*
X113450321Y-106682137D01*
X113450426Y-106682131D01*
X113450000Y-106674169D01*
X113450000Y-106233333D01*
X113424500Y-106233333D01*
X113357461Y-106213648D01*
X113311706Y-106160844D01*
X113300500Y-106109333D01*
X113300500Y-105624000D01*
X113320185Y-105556961D01*
X113372989Y-105511206D01*
X113424500Y-105500000D01*
X113450000Y-105500000D01*
X113450000Y-105059167D01*
X113450427Y-105051188D01*
X113450322Y-105051183D01*
X113450497Y-105047898D01*
X113450500Y-105047873D01*
X113450499Y-103452128D01*
X113450498Y-103452127D01*
X113450321Y-103448804D01*
X113450426Y-103448798D01*
X113450000Y-103440836D01*
X113450000Y-103000000D01*
X113424500Y-103000000D01*
X113357461Y-102980315D01*
X113311706Y-102927511D01*
X113300500Y-102876000D01*
X113300500Y-102324000D01*
X113320185Y-102256961D01*
X113372989Y-102211206D01*
X113424500Y-102200000D01*
X113450000Y-102200000D01*
X113450000Y-101759167D01*
X113450427Y-101751188D01*
X113450322Y-101751183D01*
X113450497Y-101747898D01*
X113450500Y-101747873D01*
X113450499Y-100152128D01*
X113450498Y-100152127D01*
X113450321Y-100148804D01*
X113450426Y-100148798D01*
X113450000Y-100140836D01*
X113450000Y-99700000D01*
X113424500Y-99700000D01*
X113357461Y-99680315D01*
X113311706Y-99627511D01*
X113300500Y-99576000D01*
X113300500Y-99090666D01*
X113320185Y-99023627D01*
X113372989Y-98977872D01*
X113424500Y-98966666D01*
X113450000Y-98966666D01*
X113450000Y-98525833D01*
X113450427Y-98517854D01*
X113450322Y-98517849D01*
X113450497Y-98514564D01*
X113450500Y-98514539D01*
X113450499Y-96918794D01*
X113450498Y-96918793D01*
X113450321Y-96915470D01*
X113450426Y-96915464D01*
X113450000Y-96907502D01*
X113450000Y-96466666D01*
X113424500Y-96466666D01*
X113357461Y-96446981D01*
X113311706Y-96394177D01*
X113300500Y-96342666D01*
X113300500Y-95790666D01*
X113320185Y-95723627D01*
X113372989Y-95677872D01*
X113424500Y-95666666D01*
X113450000Y-95666666D01*
X113450000Y-95225833D01*
X113450427Y-95217854D01*
X113450322Y-95217849D01*
X113450497Y-95214564D01*
X113450500Y-95214539D01*
X113450499Y-93618794D01*
X113450498Y-93618793D01*
X113450321Y-93615470D01*
X113450426Y-93615464D01*
X113450000Y-93607502D01*
X113450000Y-93166666D01*
X113424500Y-93166666D01*
X113357461Y-93146981D01*
X113311706Y-93094177D01*
X113300500Y-93042666D01*
X113300500Y-92557333D01*
X113320185Y-92490294D01*
X113372989Y-92444539D01*
X113424500Y-92433333D01*
X113450000Y-92433333D01*
X113450000Y-91992500D01*
X113450427Y-91984521D01*
X113450322Y-91984516D01*
X113450497Y-91981231D01*
X113450500Y-91981206D01*
X113450499Y-90385461D01*
X113450498Y-90385460D01*
X113450321Y-90382137D01*
X113450426Y-90382131D01*
X113450000Y-90374169D01*
X113450000Y-89933333D01*
X113424500Y-89933333D01*
X113357461Y-89913648D01*
X113311706Y-89860844D01*
X113300500Y-89809333D01*
X113300500Y-89257333D01*
X113320185Y-89190294D01*
X113372989Y-89144539D01*
X113424500Y-89133333D01*
X113450000Y-89133333D01*
X113450000Y-88692500D01*
X113450427Y-88684521D01*
X113450322Y-88684516D01*
X113450497Y-88681231D01*
X113450500Y-88681206D01*
X113450499Y-88007331D01*
X113470183Y-87940294D01*
X113522987Y-87894539D01*
X113574499Y-87883333D01*
X113825501Y-87883333D01*
X113892540Y-87903018D01*
X113938295Y-87955822D01*
X113949500Y-88007331D01*
X113949501Y-88681205D01*
X113949501Y-88681213D01*
X113949679Y-88684513D01*
X113949572Y-88684518D01*
X113950000Y-88692489D01*
X113950000Y-89133333D01*
X113975500Y-89133333D01*
X114042539Y-89153018D01*
X114088294Y-89205822D01*
X114099500Y-89257333D01*
X114099500Y-89809333D01*
X114079815Y-89876372D01*
X114027011Y-89922127D01*
X113975500Y-89933333D01*
X113950000Y-89933333D01*
X113950000Y-90374159D01*
X113949572Y-90382131D01*
X113949678Y-90382137D01*
X113949501Y-90385449D01*
X113949500Y-90385460D01*
X113949501Y-91981205D01*
X113949501Y-91981213D01*
X113949679Y-91984513D01*
X113949572Y-91984518D01*
X113950000Y-91992489D01*
X113950000Y-92433333D01*
X113975500Y-92433333D01*
X114042539Y-92453018D01*
X114088294Y-92505822D01*
X114099500Y-92557333D01*
X114099500Y-93042666D01*
X114079815Y-93109705D01*
X114027011Y-93155460D01*
X113975500Y-93166666D01*
X113950000Y-93166666D01*
X113950000Y-93607492D01*
X113949572Y-93615464D01*
X113949678Y-93615470D01*
X113949501Y-93618782D01*
X113949500Y-93618793D01*
X113949501Y-95214538D01*
X113949501Y-95214546D01*
X113949679Y-95217846D01*
X113949572Y-95217851D01*
X113950000Y-95225822D01*
X113950000Y-95666666D01*
X113975500Y-95666666D01*
X114042539Y-95686351D01*
X114088294Y-95739155D01*
X114099500Y-95790666D01*
X114099500Y-96342666D01*
X114079815Y-96409705D01*
X114027011Y-96455460D01*
X113975500Y-96466666D01*
X113950000Y-96466666D01*
X113950000Y-96907492D01*
X113949572Y-96915464D01*
X113949678Y-96915470D01*
X113949501Y-96918782D01*
X113949500Y-96918793D01*
X113949501Y-98514538D01*
X113949501Y-98514546D01*
X113949679Y-98517846D01*
X113949572Y-98517851D01*
X113950000Y-98525822D01*
X113950000Y-98966666D01*
X113975500Y-98966666D01*
X114042539Y-98986351D01*
X114088294Y-99039155D01*
X114099500Y-99090666D01*
X114099500Y-99576000D01*
X114079815Y-99643039D01*
X114027011Y-99688794D01*
X113975500Y-99700000D01*
X113950000Y-99700000D01*
X113950000Y-100140826D01*
X113949572Y-100148798D01*
X113949678Y-100148804D01*
X113949501Y-100152116D01*
X113949500Y-100152127D01*
X113949501Y-101747872D01*
X113949501Y-101747880D01*
X113949679Y-101751180D01*
X113949572Y-101751185D01*
X113950000Y-101759156D01*
X113950000Y-102200000D01*
X113975500Y-102200000D01*
X114042539Y-102219685D01*
X114088294Y-102272489D01*
X114099500Y-102324000D01*
X114099500Y-102876000D01*
X114079815Y-102943039D01*
X114027011Y-102988794D01*
X113975500Y-103000000D01*
X113950000Y-103000000D01*
X113950000Y-103440826D01*
X113949572Y-103448798D01*
X113949678Y-103448804D01*
X113949501Y-103452116D01*
X113949500Y-103452127D01*
X113949501Y-105047872D01*
X113949501Y-105047880D01*
X113949679Y-105051180D01*
X113949572Y-105051185D01*
X113950000Y-105059156D01*
X113950000Y-105500000D01*
X113975500Y-105500000D01*
X114042539Y-105519685D01*
X114088294Y-105572489D01*
X114099500Y-105624000D01*
X114099500Y-106109333D01*
X114079815Y-106176372D01*
X114027011Y-106222127D01*
X113975500Y-106233333D01*
X113950000Y-106233333D01*
X113950000Y-106674159D01*
X113949572Y-106682131D01*
X113949678Y-106682137D01*
X113949501Y-106685449D01*
X113949500Y-106685460D01*
X113949501Y-108281205D01*
X113949501Y-108281213D01*
X113949679Y-108284513D01*
X113949572Y-108284518D01*
X113950000Y-108292489D01*
X113950000Y-108733333D01*
X113975500Y-108733333D01*
X114042539Y-108753018D01*
X114088294Y-108805822D01*
X114099500Y-108857333D01*
X114099500Y-109409333D01*
X114079815Y-109476372D01*
X114027011Y-109522127D01*
X113975500Y-109533333D01*
X113950000Y-109533333D01*
X113950000Y-109974159D01*
X113949572Y-109982131D01*
X113949678Y-109982137D01*
X113949501Y-109985449D01*
X113949500Y-109985460D01*
X113949501Y-111581205D01*
X113949501Y-111581213D01*
X113949679Y-111584513D01*
X113949572Y-111584518D01*
X113950000Y-111592489D01*
X113950000Y-112033333D01*
X113997828Y-112033333D01*
X113997844Y-112033332D01*
X114057372Y-112026931D01*
X114057376Y-112026930D01*
X114155951Y-111990164D01*
X114225643Y-111985180D01*
X114242616Y-111990163D01*
X114342517Y-112027424D01*
X114402127Y-112033833D01*
X114997872Y-112033832D01*
X115057483Y-112027424D01*
X115156669Y-111990429D01*
X115226358Y-111985446D01*
X115243319Y-111990425D01*
X115321768Y-112019685D01*
X115342511Y-112027422D01*
X115342517Y-112027424D01*
X115402127Y-112033833D01*
X115975500Y-112033832D01*
X116042539Y-112053516D01*
X116088294Y-112106320D01*
X116099500Y-112157832D01*
X116099500Y-112974684D01*
X116090061Y-113022136D01*
X116030264Y-113166498D01*
X116030261Y-113166510D01*
X115999500Y-113321153D01*
X115999500Y-113478846D01*
X116030261Y-113633489D01*
X116030264Y-113633501D01*
X116090602Y-113779172D01*
X116090609Y-113779185D01*
X116178210Y-113910288D01*
X116178213Y-113910292D01*
X116289707Y-114021786D01*
X116289711Y-114021789D01*
X116420814Y-114109390D01*
X116420827Y-114109397D01*
X116566498Y-114169735D01*
X116566503Y-114169737D01*
X116721153Y-114200499D01*
X116721156Y-114200500D01*
X116721158Y-114200500D01*
X116878844Y-114200500D01*
X116878845Y-114200499D01*
X117033497Y-114169737D01*
X117179179Y-114109394D01*
X117310289Y-114021789D01*
X117421789Y-113910289D01*
X117509394Y-113779179D01*
X117569737Y-113633497D01*
X117600500Y-113478842D01*
X117600500Y-113321158D01*
X117600500Y-113321156D01*
X117600500Y-113321155D01*
X117600499Y-113321153D01*
X117595694Y-113296996D01*
X117569737Y-113166503D01*
X117547712Y-113113330D01*
X117509397Y-113020827D01*
X117509390Y-113020814D01*
X117421789Y-112889711D01*
X117421786Y-112889707D01*
X117336819Y-112804740D01*
X117303334Y-112743417D01*
X117300500Y-112717059D01*
X117300500Y-111941563D01*
X117320185Y-111874524D01*
X117325233Y-111867252D01*
X117350508Y-111833489D01*
X117393796Y-111775664D01*
X117444091Y-111640816D01*
X117450500Y-111581206D01*
X117450499Y-109985461D01*
X117444091Y-109925850D01*
X117431658Y-109892516D01*
X117393797Y-109791004D01*
X117393795Y-109791001D01*
X117325233Y-109699413D01*
X117300816Y-109633948D01*
X117300500Y-109625102D01*
X117300500Y-108641563D01*
X117320185Y-108574524D01*
X117325233Y-108567252D01*
X117350186Y-108533919D01*
X117393796Y-108475664D01*
X117444091Y-108340816D01*
X117450500Y-108281206D01*
X117450499Y-106685461D01*
X117444091Y-106625850D01*
X117441831Y-106619791D01*
X117393797Y-106491004D01*
X117393795Y-106491001D01*
X117325233Y-106399413D01*
X117300816Y-106333948D01*
X117300500Y-106325102D01*
X117300500Y-105408230D01*
X117320185Y-105341191D01*
X117325233Y-105333919D01*
X117393796Y-105242331D01*
X117444091Y-105107483D01*
X117450500Y-105047873D01*
X117450499Y-103452128D01*
X117444091Y-103392517D01*
X117393796Y-103257669D01*
X117367342Y-103222331D01*
X117325233Y-103166080D01*
X117300816Y-103100615D01*
X117300500Y-103091769D01*
X117300500Y-102108230D01*
X117320185Y-102041191D01*
X117325233Y-102033919D01*
X117344640Y-102007995D01*
X117393796Y-101942331D01*
X117444091Y-101807483D01*
X117450500Y-101747873D01*
X117450499Y-100152128D01*
X117444091Y-100092517D01*
X117444089Y-100092512D01*
X117393797Y-99957671D01*
X117393795Y-99957668D01*
X117325233Y-99866080D01*
X117300816Y-99800615D01*
X117300500Y-99791769D01*
X117300500Y-98874896D01*
X117320185Y-98807857D01*
X117325233Y-98800585D01*
X117353789Y-98762439D01*
X117393796Y-98708997D01*
X117444091Y-98574149D01*
X117450500Y-98514539D01*
X117450499Y-96918794D01*
X117444091Y-96859183D01*
X117411744Y-96772457D01*
X117393797Y-96724337D01*
X117393795Y-96724334D01*
X117392733Y-96722916D01*
X117366490Y-96687859D01*
X117325233Y-96632746D01*
X117300816Y-96567281D01*
X117300500Y-96558435D01*
X117300500Y-95574896D01*
X117320185Y-95507857D01*
X117325233Y-95500585D01*
X117335424Y-95486972D01*
X117393796Y-95408997D01*
X117444091Y-95274149D01*
X117450500Y-95214539D01*
X117450499Y-93618794D01*
X117444091Y-93559183D01*
X117412592Y-93474731D01*
X117393797Y-93424337D01*
X117393795Y-93424334D01*
X117325233Y-93332746D01*
X117300816Y-93267281D01*
X117300500Y-93258435D01*
X117300500Y-92341563D01*
X117320185Y-92274524D01*
X117325233Y-92267252D01*
X117343889Y-92242331D01*
X117393796Y-92175664D01*
X117444091Y-92040816D01*
X117450500Y-91981206D01*
X117450499Y-90385461D01*
X117444091Y-90325850D01*
X117393796Y-90191002D01*
X117353504Y-90137179D01*
X117325233Y-90099413D01*
X117300816Y-90033948D01*
X117300500Y-90025102D01*
X117300500Y-89041563D01*
X117320185Y-88974524D01*
X117325233Y-88967252D01*
X117393796Y-88875664D01*
X117444091Y-88740816D01*
X117450500Y-88681206D01*
X117450499Y-88033428D01*
X117470183Y-87966390D01*
X117486813Y-87945753D01*
X118108506Y-87324061D01*
X118108511Y-87324057D01*
X118118714Y-87313853D01*
X118118716Y-87313853D01*
X118230520Y-87202049D01*
X118283497Y-87110289D01*
X118309577Y-87065118D01*
X118350500Y-86912391D01*
X118350500Y-86754276D01*
X118350500Y-84846728D01*
X118358318Y-84803394D01*
X118394091Y-84707483D01*
X118400500Y-84647873D01*
X118400499Y-83752128D01*
X118394091Y-83692517D01*
X118378153Y-83649786D01*
X118358318Y-83596604D01*
X118350500Y-83553271D01*
X118350500Y-82719556D01*
X118370185Y-82652517D01*
X118422989Y-82606762D01*
X118487755Y-82596267D01*
X118491628Y-82596683D01*
X118527127Y-82600500D01*
X119072872Y-82600499D01*
X119132483Y-82594091D01*
X119267331Y-82543796D01*
X119382546Y-82457546D01*
X119468796Y-82342331D01*
X119519091Y-82207483D01*
X119525500Y-82147873D01*
X119525499Y-81252128D01*
X119519091Y-81192517D01*
X119488234Y-81109786D01*
X119468797Y-81057671D01*
X119468793Y-81057664D01*
X119382547Y-80942455D01*
X119382544Y-80942452D01*
X119267335Y-80856206D01*
X119267328Y-80856202D01*
X119132486Y-80805910D01*
X119132485Y-80805909D01*
X119132483Y-80805909D01*
X119072873Y-80799500D01*
X119072863Y-80799500D01*
X118527129Y-80799500D01*
X118527120Y-80799501D01*
X118487752Y-80803733D01*
X118418993Y-80791325D01*
X118367857Y-80743714D01*
X118350500Y-80680443D01*
X118350500Y-78071728D01*
X118358318Y-78028394D01*
X118366580Y-78006243D01*
X118394091Y-77932483D01*
X118400500Y-77872873D01*
X118400499Y-76977128D01*
X118394091Y-76917517D01*
X118390216Y-76907128D01*
X118358318Y-76821604D01*
X118350500Y-76778271D01*
X118350500Y-75944556D01*
X118370185Y-75877517D01*
X118422989Y-75831762D01*
X118487755Y-75821267D01*
X118491628Y-75821683D01*
X118527127Y-75825500D01*
X119072872Y-75825499D01*
X119132483Y-75819091D01*
X119267331Y-75768796D01*
X119382546Y-75682546D01*
X119468796Y-75567331D01*
X119519091Y-75432483D01*
X119525500Y-75372873D01*
X119525499Y-74477128D01*
X119519091Y-74417517D01*
X119468796Y-74282669D01*
X119435682Y-74238435D01*
X119411266Y-74172972D01*
X119426117Y-74104699D01*
X119431848Y-74095234D01*
X119509394Y-73979179D01*
X119569737Y-73833497D01*
X119600500Y-73678842D01*
X119600500Y-73521158D01*
X119600500Y-73521155D01*
X119600499Y-73521153D01*
X119569737Y-73366503D01*
X119533427Y-73278842D01*
X119509397Y-73220827D01*
X119509390Y-73220814D01*
X119421789Y-73089711D01*
X119421786Y-73089707D01*
X119310292Y-72978213D01*
X119310288Y-72978210D01*
X119229708Y-72924368D01*
X119184903Y-72870756D01*
X119176196Y-72801431D01*
X119176982Y-72797074D01*
X119200500Y-72678844D01*
X119200500Y-72521155D01*
X119200499Y-72521153D01*
X119192126Y-72479060D01*
X119169737Y-72366503D01*
X119154465Y-72329633D01*
X119109397Y-72220827D01*
X119109390Y-72220814D01*
X119021789Y-72089711D01*
X119021786Y-72089707D01*
X118910292Y-71978213D01*
X118910288Y-71978210D01*
X118779185Y-71890609D01*
X118779172Y-71890602D01*
X118633501Y-71830264D01*
X118633492Y-71830261D01*
X118578166Y-71819256D01*
X118516256Y-71786870D01*
X118481682Y-71726154D01*
X118480750Y-71721874D01*
X118469737Y-71666503D01*
X118437941Y-71589740D01*
X118409397Y-71520827D01*
X118409390Y-71520814D01*
X118321789Y-71389711D01*
X118321786Y-71389707D01*
X118210292Y-71278213D01*
X118210288Y-71278210D01*
X118079185Y-71190609D01*
X118079172Y-71190602D01*
X117933501Y-71130264D01*
X117933489Y-71130261D01*
X117778845Y-71099500D01*
X117778842Y-71099500D01*
X117621158Y-71099500D01*
X117621155Y-71099500D01*
X117466510Y-71130261D01*
X117466498Y-71130264D01*
X117320827Y-71190602D01*
X117320814Y-71190609D01*
X117189711Y-71278210D01*
X117189707Y-71278213D01*
X117078213Y-71389707D01*
X117078210Y-71389711D01*
X116990609Y-71520814D01*
X116990602Y-71520827D01*
X116930264Y-71666498D01*
X116930261Y-71666508D01*
X116899361Y-71821850D01*
X116866976Y-71883761D01*
X116865425Y-71885339D01*
X116512181Y-72238583D01*
X116450858Y-72272068D01*
X116381166Y-72267084D01*
X116325233Y-72225212D01*
X116300816Y-72159748D01*
X116300500Y-72150902D01*
X116300500Y-71725316D01*
X116309939Y-71677864D01*
X116338478Y-71608963D01*
X116369737Y-71533497D01*
X116400500Y-71378842D01*
X116400500Y-71221158D01*
X116400500Y-71221155D01*
X116400499Y-71221153D01*
X116394422Y-71190602D01*
X116369737Y-71066503D01*
X116350955Y-71021158D01*
X116309397Y-70920827D01*
X116309390Y-70920814D01*
X116221789Y-70789711D01*
X116221786Y-70789707D01*
X116110292Y-70678213D01*
X116110288Y-70678210D01*
X115979185Y-70590609D01*
X115979172Y-70590602D01*
X115833501Y-70530264D01*
X115833489Y-70530261D01*
X115678845Y-70499500D01*
X115678842Y-70499500D01*
X115521158Y-70499500D01*
X115521155Y-70499500D01*
X115366510Y-70530261D01*
X115366498Y-70530264D01*
X115220827Y-70590602D01*
X115220814Y-70590609D01*
X115089711Y-70678210D01*
X115089707Y-70678213D01*
X114978213Y-70789707D01*
X114978210Y-70789711D01*
X114890609Y-70920814D01*
X114890602Y-70920827D01*
X114830264Y-71066498D01*
X114830261Y-71066510D01*
X114799500Y-71221153D01*
X114799500Y-71378846D01*
X114830261Y-71533489D01*
X114830264Y-71533501D01*
X114890602Y-71679172D01*
X114890609Y-71679185D01*
X114978209Y-71810287D01*
X114978210Y-71810288D01*
X114978211Y-71810289D01*
X115063182Y-71895260D01*
X115096666Y-71956581D01*
X115099500Y-71982940D01*
X115099500Y-73824050D01*
X115098343Y-73827989D01*
X115099245Y-73831993D01*
X115088581Y-73861232D01*
X115079815Y-73891089D01*
X115076713Y-73893776D01*
X115075307Y-73897634D01*
X115050520Y-73916472D01*
X115027011Y-73936844D01*
X115022949Y-73937427D01*
X115019680Y-73939913D01*
X114988652Y-73942359D01*
X114957853Y-73946788D01*
X114954118Y-73945082D01*
X114950027Y-73945405D01*
X114922608Y-73930692D01*
X114894297Y-73917763D01*
X114891042Y-73913754D01*
X114888461Y-73912369D01*
X114881374Y-73901845D01*
X114867104Y-73884269D01*
X114860873Y-73873054D01*
X114859577Y-73868215D01*
X114823239Y-73805276D01*
X114780520Y-73731284D01*
X114668716Y-73619480D01*
X114668715Y-73619479D01*
X114664385Y-73615149D01*
X114664374Y-73615139D01*
X114234574Y-73185339D01*
X114201089Y-73124016D01*
X114200638Y-73121849D01*
X114172066Y-72978211D01*
X114169737Y-72966503D01*
X114169735Y-72966498D01*
X114109397Y-72820827D01*
X114109390Y-72820814D01*
X114021789Y-72689711D01*
X114021786Y-72689707D01*
X113910292Y-72578213D01*
X113910288Y-72578210D01*
X113779185Y-72490609D01*
X113779172Y-72490602D01*
X113633501Y-72430264D01*
X113633489Y-72430261D01*
X113478845Y-72399500D01*
X113478842Y-72399500D01*
X113321158Y-72399500D01*
X113321155Y-72399500D01*
X113166510Y-72430261D01*
X113166498Y-72430264D01*
X113020827Y-72490602D01*
X113020814Y-72490609D01*
X112889711Y-72578210D01*
X112889707Y-72578213D01*
X112778213Y-72689707D01*
X112778210Y-72689711D01*
X112690609Y-72820814D01*
X112690602Y-72820827D01*
X112630264Y-72966498D01*
X112630261Y-72966510D01*
X112599500Y-73121153D01*
X112599500Y-73278846D01*
X112630261Y-73433489D01*
X112630264Y-73433501D01*
X112690602Y-73579172D01*
X112690609Y-73579185D01*
X112778210Y-73710288D01*
X112778213Y-73710292D01*
X112889707Y-73821786D01*
X112889711Y-73821789D01*
X113020814Y-73909390D01*
X113020826Y-73909397D01*
X113103779Y-73943756D01*
X113158183Y-73987596D01*
X113180248Y-74053890D01*
X113162969Y-74121590D01*
X113130642Y-74157581D01*
X113117452Y-74167455D01*
X113031206Y-74282664D01*
X113031202Y-74282671D01*
X112980908Y-74417517D01*
X112974501Y-74477116D01*
X112974501Y-74477123D01*
X112974500Y-74477135D01*
X112974500Y-75372870D01*
X112974501Y-75372876D01*
X112980908Y-75432483D01*
X113031202Y-75567328D01*
X113031206Y-75567335D01*
X113117452Y-75682544D01*
X113117455Y-75682547D01*
X113232664Y-75768793D01*
X113232671Y-75768797D01*
X113277618Y-75785561D01*
X113367517Y-75819091D01*
X113427127Y-75825500D01*
X113575500Y-75825499D01*
X113642539Y-75845183D01*
X113688294Y-75897987D01*
X113699500Y-75949499D01*
X113699500Y-76888330D01*
X113699499Y-76888348D01*
X113699499Y-77054054D01*
X113699498Y-77054054D01*
X113740423Y-77206787D01*
X113740424Y-77206788D01*
X113745791Y-77216083D01*
X113745793Y-77216086D01*
X113819477Y-77343712D01*
X113819481Y-77343717D01*
X113938349Y-77462585D01*
X113938355Y-77462590D01*
X114063181Y-77587416D01*
X114096666Y-77648739D01*
X114099500Y-77675096D01*
X114099500Y-77872869D01*
X114099501Y-77872876D01*
X114105908Y-77932483D01*
X114141682Y-78028395D01*
X114149500Y-78071728D01*
X114149500Y-80680443D01*
X114129815Y-80747482D01*
X114077011Y-80793237D01*
X114012248Y-80803733D01*
X113996640Y-80802055D01*
X113972873Y-80799500D01*
X113972867Y-80799500D01*
X113427129Y-80799500D01*
X113427123Y-80799501D01*
X113367516Y-80805908D01*
X113232671Y-80856202D01*
X113232664Y-80856206D01*
X113117455Y-80942452D01*
X113117452Y-80942455D01*
X113031206Y-81057664D01*
X113031202Y-81057671D01*
X112980908Y-81192517D01*
X112974501Y-81252116D01*
X112974501Y-81252123D01*
X112974500Y-81252135D01*
X112974500Y-82147870D01*
X112974501Y-82147876D01*
X112980908Y-82207483D01*
X113031202Y-82342328D01*
X113031206Y-82342335D01*
X113117452Y-82457544D01*
X113117455Y-82457547D01*
X113232664Y-82543793D01*
X113232671Y-82543797D01*
X113277618Y-82560561D01*
X113367517Y-82594091D01*
X113427127Y-82600500D01*
X113972872Y-82600499D01*
X114012246Y-82596266D01*
X114081005Y-82608672D01*
X114132142Y-82656283D01*
X114149500Y-82719556D01*
X114149500Y-83553271D01*
X114141682Y-83596604D01*
X114105908Y-83692517D01*
X114099501Y-83752116D01*
X114099501Y-83752123D01*
X114099500Y-83752135D01*
X114099500Y-84251191D01*
X114096118Y-84262706D01*
X114097260Y-84274654D01*
X114086456Y-84295611D01*
X114079815Y-84318230D01*
X114069945Y-84327640D01*
X114065246Y-84336758D01*
X114037504Y-84358576D01*
X114018621Y-84369479D01*
X114018617Y-84369481D01*
X113930287Y-84420477D01*
X113930282Y-84420481D01*
X113818480Y-84532284D01*
X113818478Y-84532286D01*
X113099908Y-85250857D01*
X112387584Y-85963181D01*
X112360656Y-85977884D01*
X112334838Y-85994477D01*
X112328637Y-85995368D01*
X112326261Y-85996666D01*
X112299903Y-85999500D01*
X112279766Y-85999500D01*
X112212727Y-85979815D01*
X112210875Y-85978602D01*
X112079185Y-85890609D01*
X112079172Y-85890602D01*
X111933501Y-85830264D01*
X111933489Y-85830261D01*
X111778845Y-85799500D01*
X111778842Y-85799500D01*
X111621158Y-85799500D01*
X111621155Y-85799500D01*
X111466510Y-85830261D01*
X111466498Y-85830264D01*
X111320827Y-85890602D01*
X111320814Y-85890609D01*
X111189711Y-85978210D01*
X111189707Y-85978213D01*
X111162181Y-86005740D01*
X111100858Y-86039225D01*
X111031166Y-86034241D01*
X110975233Y-85992369D01*
X110950816Y-85926905D01*
X110950500Y-85918059D01*
X110950500Y-84846728D01*
X110958318Y-84803394D01*
X110994091Y-84707483D01*
X111000500Y-84647873D01*
X111000499Y-83752128D01*
X110994091Y-83692517D01*
X110978153Y-83649786D01*
X110958318Y-83596604D01*
X110950500Y-83553271D01*
X110950500Y-82719556D01*
X110970185Y-82652517D01*
X111022989Y-82606762D01*
X111087755Y-82596267D01*
X111091628Y-82596683D01*
X111127127Y-82600500D01*
X111672872Y-82600499D01*
X111732483Y-82594091D01*
X111867331Y-82543796D01*
X111982546Y-82457546D01*
X112068796Y-82342331D01*
X112119091Y-82207483D01*
X112125500Y-82147873D01*
X112125499Y-81252128D01*
X112119091Y-81192517D01*
X112088234Y-81109786D01*
X112068797Y-81057671D01*
X112068793Y-81057664D01*
X111982547Y-80942455D01*
X111982544Y-80942452D01*
X111867335Y-80856206D01*
X111867328Y-80856202D01*
X111732486Y-80805910D01*
X111732485Y-80805909D01*
X111732483Y-80805909D01*
X111672873Y-80799500D01*
X111672863Y-80799500D01*
X111127129Y-80799500D01*
X111127120Y-80799501D01*
X111087752Y-80803733D01*
X111018993Y-80791325D01*
X110967857Y-80743714D01*
X110950500Y-80680443D01*
X110950500Y-78071728D01*
X110958318Y-78028394D01*
X110966580Y-78006243D01*
X110994091Y-77932483D01*
X111000500Y-77872873D01*
X111000499Y-77675096D01*
X111009144Y-77645651D01*
X111015667Y-77615669D01*
X111019419Y-77610655D01*
X111020183Y-77608057D01*
X111036813Y-77587420D01*
X111158506Y-77465728D01*
X111158511Y-77465724D01*
X111168714Y-77455520D01*
X111168716Y-77455520D01*
X111280520Y-77343716D01*
X111354207Y-77216086D01*
X111359577Y-77206785D01*
X111400500Y-77054057D01*
X111400500Y-76895943D01*
X111400500Y-75949499D01*
X111420185Y-75882460D01*
X111472989Y-75836705D01*
X111524500Y-75825499D01*
X111672871Y-75825499D01*
X111672872Y-75825499D01*
X111732483Y-75819091D01*
X111867331Y-75768796D01*
X111982546Y-75682546D01*
X112068796Y-75567331D01*
X112119091Y-75432483D01*
X112125500Y-75372873D01*
X112125499Y-74477128D01*
X112119091Y-74417517D01*
X112068796Y-74282669D01*
X112068795Y-74282668D01*
X112068793Y-74282664D01*
X111982547Y-74167455D01*
X111982544Y-74167452D01*
X111867335Y-74081206D01*
X111859546Y-74076953D01*
X111860945Y-74074389D01*
X111816808Y-74041334D01*
X111792405Y-73975865D01*
X111807271Y-73907595D01*
X111847198Y-73863944D01*
X111910289Y-73821789D01*
X112021789Y-73710289D01*
X112109394Y-73579179D01*
X112169737Y-73433497D01*
X112200500Y-73278842D01*
X112200500Y-73121158D01*
X112200500Y-73121155D01*
X112200499Y-73121153D01*
X112180543Y-73020827D01*
X112169737Y-72966503D01*
X112169735Y-72966498D01*
X112109397Y-72820827D01*
X112109390Y-72820814D01*
X112021789Y-72689711D01*
X112021786Y-72689707D01*
X111910292Y-72578213D01*
X111910288Y-72578210D01*
X111779185Y-72490609D01*
X111779172Y-72490602D01*
X111660745Y-72441549D01*
X111606341Y-72397708D01*
X111586580Y-72351182D01*
X111569737Y-72266503D01*
X111537929Y-72189711D01*
X111509397Y-72120827D01*
X111509390Y-72120814D01*
X111421789Y-71989711D01*
X111421786Y-71989707D01*
X111310292Y-71878213D01*
X111310288Y-71878210D01*
X111179185Y-71790609D01*
X111179172Y-71790602D01*
X111033501Y-71730264D01*
X111033489Y-71730261D01*
X110878845Y-71699500D01*
X110878842Y-71699500D01*
X110721158Y-71699500D01*
X110721155Y-71699500D01*
X110566510Y-71730261D01*
X110566498Y-71730264D01*
X110435091Y-71784694D01*
X110365621Y-71792163D01*
X110303142Y-71760887D01*
X110267491Y-71700798D01*
X110266026Y-71694349D01*
X110257588Y-71651924D01*
X110249952Y-71633489D01*
X110197248Y-71506248D01*
X110197241Y-71506235D01*
X110109640Y-71375132D01*
X110109637Y-71375128D01*
X109998143Y-71263634D01*
X109998139Y-71263631D01*
X109867036Y-71176030D01*
X109867023Y-71176023D01*
X109721352Y-71115685D01*
X109721340Y-71115682D01*
X109566696Y-71084921D01*
X109566693Y-71084921D01*
X109409009Y-71084921D01*
X109409006Y-71084921D01*
X109254361Y-71115682D01*
X109254349Y-71115685D01*
X109108678Y-71176023D01*
X109108665Y-71176030D01*
X108977562Y-71263631D01*
X108899697Y-71341496D01*
X108838373Y-71374980D01*
X108768682Y-71369996D01*
X108712748Y-71328124D01*
X108688332Y-71262659D01*
X108690399Y-71229621D01*
X108692084Y-71221153D01*
X108700500Y-71178842D01*
X108700500Y-71021158D01*
X108700500Y-71021155D01*
X108700499Y-71021153D01*
X108680543Y-70920827D01*
X108669737Y-70866503D01*
X108637929Y-70789711D01*
X108609397Y-70720827D01*
X108609390Y-70720814D01*
X108521789Y-70589711D01*
X108521786Y-70589707D01*
X108410292Y-70478213D01*
X108410288Y-70478210D01*
X108279185Y-70390609D01*
X108279172Y-70390602D01*
X108133501Y-70330264D01*
X108133489Y-70330261D01*
X107978845Y-70299500D01*
X107978842Y-70299500D01*
X107821158Y-70299500D01*
X107821155Y-70299500D01*
X107666510Y-70330261D01*
X107666498Y-70330264D01*
X107520827Y-70390602D01*
X107520814Y-70390609D01*
X107389711Y-70478210D01*
X107389707Y-70478213D01*
X107278213Y-70589707D01*
X107278210Y-70589711D01*
X107190609Y-70720814D01*
X107190602Y-70720827D01*
X107130264Y-70866498D01*
X107130261Y-70866510D01*
X107099500Y-71021153D01*
X107099500Y-71178846D01*
X107130261Y-71333489D01*
X107130264Y-71333501D01*
X107190602Y-71479172D01*
X107190609Y-71479185D01*
X107278602Y-71610874D01*
X107299480Y-71677551D01*
X107299500Y-71679765D01*
X107299500Y-73150903D01*
X107293261Y-73172148D01*
X107291682Y-73194237D01*
X107283609Y-73205020D01*
X107279815Y-73217942D01*
X107263081Y-73232441D01*
X107249810Y-73250170D01*
X107237189Y-73254877D01*
X107227011Y-73263697D01*
X107205093Y-73266848D01*
X107184346Y-73274587D01*
X107171185Y-73271724D01*
X107157853Y-73273641D01*
X107137709Y-73264441D01*
X107116073Y-73259735D01*
X107098347Y-73246466D01*
X107094297Y-73244616D01*
X107087819Y-73238584D01*
X107034574Y-73185339D01*
X107001089Y-73124016D01*
X107000638Y-73121849D01*
X106972066Y-72978211D01*
X106969737Y-72966503D01*
X106969735Y-72966498D01*
X106909397Y-72820827D01*
X106909390Y-72820814D01*
X106821789Y-72689711D01*
X106821786Y-72689707D01*
X106710292Y-72578213D01*
X106710288Y-72578210D01*
X106579185Y-72490609D01*
X106579172Y-72490602D01*
X106433501Y-72430264D01*
X106433489Y-72430261D01*
X106278845Y-72399500D01*
X106278842Y-72399500D01*
X106121158Y-72399500D01*
X106121155Y-72399500D01*
X105966510Y-72430261D01*
X105966498Y-72430264D01*
X105820827Y-72490602D01*
X105820814Y-72490609D01*
X105689711Y-72578210D01*
X105689707Y-72578213D01*
X105578213Y-72689707D01*
X105578210Y-72689711D01*
X105490609Y-72820814D01*
X105490602Y-72820827D01*
X105430264Y-72966498D01*
X105430261Y-72966510D01*
X105399500Y-73121153D01*
X105399500Y-73278846D01*
X105430261Y-73433489D01*
X105430264Y-73433501D01*
X105490602Y-73579172D01*
X105490609Y-73579185D01*
X105578210Y-73710288D01*
X105578213Y-73710292D01*
X105689707Y-73821786D01*
X105689711Y-73821789D01*
X105802647Y-73897251D01*
X105847452Y-73950863D01*
X105856159Y-74020188D01*
X105826005Y-74083216D01*
X105808068Y-74099619D01*
X105717452Y-74167455D01*
X105631206Y-74282664D01*
X105631202Y-74282671D01*
X105580908Y-74417517D01*
X105574501Y-74477116D01*
X105574501Y-74477123D01*
X105574500Y-74477135D01*
X105574500Y-75372870D01*
X105574501Y-75372876D01*
X105580908Y-75432483D01*
X105631202Y-75567328D01*
X105631206Y-75567335D01*
X105717452Y-75682544D01*
X105717455Y-75682547D01*
X105832664Y-75768793D01*
X105832671Y-75768797D01*
X105877618Y-75785561D01*
X105967517Y-75819091D01*
X106027127Y-75825500D01*
X106275501Y-75825499D01*
X106342539Y-75845183D01*
X106388294Y-75897987D01*
X106399500Y-75949499D01*
X106399500Y-76988330D01*
X106399499Y-76988348D01*
X106399499Y-77154054D01*
X106399498Y-77154054D01*
X106440424Y-77306789D01*
X106440425Y-77306790D01*
X106463030Y-77345942D01*
X106463031Y-77345944D01*
X106519475Y-77443709D01*
X106519481Y-77443717D01*
X106663181Y-77587417D01*
X106696666Y-77648740D01*
X106699500Y-77675097D01*
X106699500Y-77872869D01*
X106699501Y-77872876D01*
X106705908Y-77932483D01*
X106741682Y-78028395D01*
X106749500Y-78071728D01*
X106749500Y-80680443D01*
X106729815Y-80747482D01*
X106677011Y-80793237D01*
X106612248Y-80803733D01*
X106596640Y-80802055D01*
X106572873Y-80799500D01*
X106572867Y-80799500D01*
X106027129Y-80799500D01*
X106027123Y-80799501D01*
X105967516Y-80805908D01*
X105832671Y-80856202D01*
X105832664Y-80856206D01*
X105717455Y-80942452D01*
X105717452Y-80942455D01*
X105631206Y-81057664D01*
X105631202Y-81057671D01*
X105580908Y-81192517D01*
X105574501Y-81252116D01*
X105574501Y-81252123D01*
X105574500Y-81252135D01*
X105574500Y-82147870D01*
X105574501Y-82147876D01*
X105580908Y-82207483D01*
X105631202Y-82342328D01*
X105631206Y-82342335D01*
X105717452Y-82457544D01*
X105717455Y-82457547D01*
X105832664Y-82543793D01*
X105832671Y-82543797D01*
X105877618Y-82560561D01*
X105967517Y-82594091D01*
X106027127Y-82600500D01*
X106572872Y-82600499D01*
X106612246Y-82596266D01*
X106681005Y-82608672D01*
X106732142Y-82656283D01*
X106749500Y-82719556D01*
X106749500Y-83553271D01*
X106741682Y-83596604D01*
X106705908Y-83692517D01*
X106699501Y-83752116D01*
X106699501Y-83752123D01*
X106699500Y-83752135D01*
X106699500Y-84647870D01*
X106699501Y-84647876D01*
X106705908Y-84707483D01*
X106756202Y-84842328D01*
X106756206Y-84842335D01*
X106756984Y-84843374D01*
X106757437Y-84844589D01*
X106760454Y-84850114D01*
X106759659Y-84850547D01*
X106781401Y-84908838D01*
X106766549Y-84977111D01*
X106745398Y-85005365D01*
X105685339Y-86065425D01*
X105624016Y-86098910D01*
X105621850Y-86099361D01*
X105466508Y-86130261D01*
X105466498Y-86130264D01*
X105320827Y-86190602D01*
X105320814Y-86190609D01*
X105189711Y-86278210D01*
X105189707Y-86278213D01*
X105078213Y-86389707D01*
X105078210Y-86389711D01*
X104990609Y-86520814D01*
X104990602Y-86520827D01*
X104930264Y-86666498D01*
X104930261Y-86666510D01*
X104899500Y-86821153D01*
X102918388Y-86821153D01*
X101409415Y-85312180D01*
X101375930Y-85250857D01*
X101380914Y-85181165D01*
X101422786Y-85125232D01*
X101488250Y-85100815D01*
X101497074Y-85100499D01*
X101797872Y-85100499D01*
X101797885Y-85100498D01*
X101836744Y-85096320D01*
X101863252Y-85096320D01*
X101902127Y-85100500D01*
X102297872Y-85100499D01*
X102297873Y-85100498D01*
X102297885Y-85100498D01*
X102336744Y-85096320D01*
X102363252Y-85096320D01*
X102402127Y-85100500D01*
X102797872Y-85100499D01*
X102857483Y-85094091D01*
X102992331Y-85043796D01*
X103107546Y-84957546D01*
X103193796Y-84842331D01*
X103244091Y-84707483D01*
X103250500Y-84647873D01*
X103250499Y-83752128D01*
X103244091Y-83692517D01*
X103228153Y-83649786D01*
X103208318Y-83596604D01*
X103200500Y-83553271D01*
X103200500Y-82719556D01*
X103220185Y-82652517D01*
X103272989Y-82606762D01*
X103337755Y-82596267D01*
X103341628Y-82596683D01*
X103377127Y-82600500D01*
X103922872Y-82600499D01*
X103982483Y-82594091D01*
X104117331Y-82543796D01*
X104232546Y-82457546D01*
X104318796Y-82342331D01*
X104369091Y-82207483D01*
X104375500Y-82147873D01*
X104375499Y-81252128D01*
X104369091Y-81192517D01*
X104338234Y-81109786D01*
X104318797Y-81057671D01*
X104318793Y-81057664D01*
X104232547Y-80942455D01*
X104232544Y-80942452D01*
X104117335Y-80856206D01*
X104117328Y-80856202D01*
X103982486Y-80805910D01*
X103982485Y-80805909D01*
X103982483Y-80805909D01*
X103922873Y-80799500D01*
X103922863Y-80799500D01*
X103377129Y-80799500D01*
X103377120Y-80799501D01*
X103337752Y-80803733D01*
X103268993Y-80791325D01*
X103217857Y-80743714D01*
X103200500Y-80680443D01*
X103200500Y-78071728D01*
X103208318Y-78028394D01*
X103216580Y-78006243D01*
X103244091Y-77932483D01*
X103250500Y-77872873D01*
X103250499Y-77675096D01*
X103259144Y-77645651D01*
X103265667Y-77615669D01*
X103269419Y-77610655D01*
X103270183Y-77608057D01*
X103286813Y-77587420D01*
X103358506Y-77515728D01*
X103358511Y-77515724D01*
X103368714Y-77505520D01*
X103368716Y-77505520D01*
X103480520Y-77393716D01*
X103559577Y-77256784D01*
X103600500Y-77104057D01*
X103600500Y-75949499D01*
X103620185Y-75882460D01*
X103672989Y-75836705D01*
X103724500Y-75825499D01*
X103922871Y-75825499D01*
X103922872Y-75825499D01*
X103982483Y-75819091D01*
X104117331Y-75768796D01*
X104232546Y-75682546D01*
X104318796Y-75567331D01*
X104369091Y-75432483D01*
X104375500Y-75372873D01*
X104375499Y-74477128D01*
X104369091Y-74417517D01*
X104318796Y-74282669D01*
X104318795Y-74282668D01*
X104318793Y-74282664D01*
X104232547Y-74167455D01*
X104232544Y-74167452D01*
X104117335Y-74081206D01*
X104117330Y-74081203D01*
X104104041Y-74076247D01*
X104048108Y-74034375D01*
X104023691Y-73968911D01*
X104038543Y-73900638D01*
X104059691Y-73872386D01*
X104121789Y-73810289D01*
X104209394Y-73679179D01*
X104269737Y-73533497D01*
X104300500Y-73378842D01*
X104300500Y-73221158D01*
X104300500Y-73221155D01*
X104300499Y-73221153D01*
X104280746Y-73121849D01*
X104269737Y-73066503D01*
X104242398Y-73000500D01*
X104209397Y-72920827D01*
X104209390Y-72920814D01*
X104121789Y-72789711D01*
X104121786Y-72789707D01*
X104010292Y-72678213D01*
X104010288Y-72678210D01*
X103879185Y-72590609D01*
X103879169Y-72590601D01*
X103877038Y-72589718D01*
X103876094Y-72588957D01*
X103873809Y-72587736D01*
X103874040Y-72587302D01*
X103822638Y-72545873D01*
X103800579Y-72479577D01*
X103800500Y-72475161D01*
X103800500Y-72421155D01*
X103800499Y-72421153D01*
X103795835Y-72397708D01*
X103769737Y-72266503D01*
X103737929Y-72189711D01*
X103709397Y-72120827D01*
X103709390Y-72120814D01*
X103621789Y-71989711D01*
X103621786Y-71989707D01*
X103510292Y-71878213D01*
X103510288Y-71878210D01*
X103379185Y-71790609D01*
X103379172Y-71790602D01*
X103233501Y-71730264D01*
X103233489Y-71730261D01*
X103078845Y-71699500D01*
X103078842Y-71699500D01*
X102966259Y-71699500D01*
X102899220Y-71679815D01*
X102853465Y-71627011D01*
X102851698Y-71622952D01*
X102809397Y-71520827D01*
X102809390Y-71520814D01*
X102721789Y-71389711D01*
X102721786Y-71389707D01*
X102610292Y-71278213D01*
X102610288Y-71278210D01*
X102479185Y-71190609D01*
X102479172Y-71190602D01*
X102333501Y-71130264D01*
X102333489Y-71130261D01*
X102178845Y-71099500D01*
X102178842Y-71099500D01*
X102021158Y-71099500D01*
X102021155Y-71099500D01*
X101866510Y-71130261D01*
X101866498Y-71130264D01*
X101720827Y-71190602D01*
X101720814Y-71190609D01*
X101589711Y-71278210D01*
X101589707Y-71278213D01*
X101478213Y-71389707D01*
X101478210Y-71389711D01*
X101390609Y-71520814D01*
X101390602Y-71520827D01*
X101330264Y-71666498D01*
X101330261Y-71666508D01*
X101299362Y-71821847D01*
X101290597Y-71838602D01*
X101286578Y-71857081D01*
X101267834Y-71882118D01*
X101266977Y-71883758D01*
X101265427Y-71885335D01*
X101224224Y-71926538D01*
X101224212Y-71926552D01*
X101119478Y-72031286D01*
X101074385Y-72109392D01*
X101074384Y-72109393D01*
X101040423Y-72168214D01*
X101040423Y-72168215D01*
X100999499Y-72320943D01*
X100999499Y-72320945D01*
X100999499Y-72489046D01*
X100999500Y-72489059D01*
X100999500Y-74550903D01*
X100979815Y-74617942D01*
X100927011Y-74663697D01*
X100857853Y-74673641D01*
X100794297Y-74644616D01*
X100787819Y-74638584D01*
X100436819Y-74287584D01*
X100403334Y-74226261D01*
X100400500Y-74199903D01*
X100400500Y-71979765D01*
X100420185Y-71912726D01*
X100421398Y-71910874D01*
X100441039Y-71881480D01*
X100509394Y-71779179D01*
X100569737Y-71633497D01*
X100600500Y-71478842D01*
X100600500Y-71321158D01*
X100600500Y-71321155D01*
X100600499Y-71321153D01*
X100582292Y-71229621D01*
X100569737Y-71166503D01*
X100555078Y-71131113D01*
X100509397Y-71020827D01*
X100509390Y-71020814D01*
X100421789Y-70889711D01*
X100421786Y-70889707D01*
X100310292Y-70778213D01*
X100310288Y-70778210D01*
X100179185Y-70690609D01*
X100179172Y-70690602D01*
X100033501Y-70630264D01*
X100033489Y-70630261D01*
X99878845Y-70599500D01*
X99878842Y-70599500D01*
X99721158Y-70599500D01*
X99721155Y-70599500D01*
X99566510Y-70630261D01*
X99566498Y-70630264D01*
X99420827Y-70690602D01*
X99420814Y-70690609D01*
X99289711Y-70778210D01*
X99289707Y-70778213D01*
X99178213Y-70889707D01*
X99178210Y-70889711D01*
X99090609Y-71020814D01*
X99090602Y-71020827D01*
X99030264Y-71166498D01*
X99030261Y-71166510D01*
X98999500Y-71321153D01*
X98999500Y-71478846D01*
X99030261Y-71633489D01*
X99030264Y-71633501D01*
X99090602Y-71779172D01*
X99090609Y-71779185D01*
X99178602Y-71910874D01*
X99199480Y-71977551D01*
X99199500Y-71979765D01*
X99199500Y-72413444D01*
X99179815Y-72480483D01*
X99127011Y-72526238D01*
X99057853Y-72536182D01*
X99039575Y-72531202D01*
X99039324Y-72532031D01*
X99033500Y-72530264D01*
X99033497Y-72530263D01*
X99033492Y-72530262D01*
X99033489Y-72530261D01*
X98878845Y-72499500D01*
X98878842Y-72499500D01*
X98721158Y-72499500D01*
X98721155Y-72499500D01*
X98566510Y-72530261D01*
X98566498Y-72530264D01*
X98420827Y-72590602D01*
X98420814Y-72590609D01*
X98289711Y-72678210D01*
X98289707Y-72678213D01*
X98178213Y-72789707D01*
X98178210Y-72789711D01*
X98090609Y-72920814D01*
X98090602Y-72920827D01*
X98030264Y-73066498D01*
X98030261Y-73066510D01*
X97999500Y-73221153D01*
X97999500Y-73378846D01*
X98030261Y-73533489D01*
X98030264Y-73533501D01*
X98090602Y-73679172D01*
X98090609Y-73679185D01*
X98178210Y-73810288D01*
X98178213Y-73810292D01*
X98213139Y-73845218D01*
X98246624Y-73906541D01*
X98241640Y-73976233D01*
X98199768Y-74032166D01*
X98168792Y-74049080D01*
X98082675Y-74081200D01*
X98082664Y-74081206D01*
X97967455Y-74167452D01*
X97967452Y-74167455D01*
X97881206Y-74282664D01*
X97881202Y-74282671D01*
X97830908Y-74417517D01*
X97824501Y-74477116D01*
X97824501Y-74477123D01*
X97824500Y-74477135D01*
X97824500Y-75372870D01*
X97824501Y-75372876D01*
X97830908Y-75432483D01*
X97881202Y-75567328D01*
X97881206Y-75567335D01*
X97967452Y-75682544D01*
X97967455Y-75682547D01*
X98082664Y-75768793D01*
X98082671Y-75768797D01*
X98127618Y-75785561D01*
X98217517Y-75819091D01*
X98277127Y-75825500D01*
X98375500Y-75825499D01*
X98442538Y-75845183D01*
X98488294Y-75897986D01*
X98499500Y-75949499D01*
X98499500Y-76838330D01*
X98499499Y-76838348D01*
X98499499Y-77004054D01*
X98499498Y-77004054D01*
X98499499Y-77004057D01*
X98540423Y-77156785D01*
X98543457Y-77162040D01*
X98547899Y-77169735D01*
X98547901Y-77169737D01*
X98619477Y-77293712D01*
X98619481Y-77293717D01*
X98913181Y-77587417D01*
X98946666Y-77648740D01*
X98949500Y-77675097D01*
X98949500Y-77872869D01*
X98949501Y-77872876D01*
X98955908Y-77932483D01*
X98991682Y-78028395D01*
X98999500Y-78071728D01*
X98999500Y-80680443D01*
X98979815Y-80747482D01*
X98927011Y-80793237D01*
X98862248Y-80803733D01*
X98846640Y-80802055D01*
X98822873Y-80799500D01*
X98822867Y-80799500D01*
X98277129Y-80799500D01*
X98277123Y-80799501D01*
X98217516Y-80805908D01*
X98082671Y-80856202D01*
X98082664Y-80856206D01*
X97967455Y-80942452D01*
X97967452Y-80942455D01*
X97881206Y-81057664D01*
X97881202Y-81057671D01*
X97830908Y-81192517D01*
X97824501Y-81252116D01*
X97824501Y-81252123D01*
X97824500Y-81252135D01*
X97824500Y-82147870D01*
X97824501Y-82147876D01*
X97830908Y-82207483D01*
X97881202Y-82342328D01*
X97881206Y-82342335D01*
X97967452Y-82457544D01*
X97967455Y-82457547D01*
X98082664Y-82543793D01*
X98082671Y-82543797D01*
X98127618Y-82560561D01*
X98217517Y-82594091D01*
X98277127Y-82600500D01*
X98822872Y-82600499D01*
X98862246Y-82596266D01*
X98931005Y-82608672D01*
X98982142Y-82656283D01*
X98999500Y-82719556D01*
X98999500Y-83553271D01*
X98991682Y-83596604D01*
X98955908Y-83692517D01*
X98949501Y-83752116D01*
X98949501Y-83752123D01*
X98949500Y-83752135D01*
X98949500Y-84647870D01*
X98949501Y-84647876D01*
X98955908Y-84707483D01*
X99006202Y-84842328D01*
X99006206Y-84842335D01*
X99046993Y-84896819D01*
X99056228Y-84921578D01*
X99068893Y-84944772D01*
X99068247Y-84953801D01*
X99071411Y-84962283D01*
X99067673Y-84979464D01*
X99070023Y-84978588D01*
X99095846Y-84984205D01*
X99122204Y-84986091D01*
X99133918Y-84992487D01*
X99138296Y-84993440D01*
X99153181Y-85003006D01*
X99207668Y-85043795D01*
X99207671Y-85043797D01*
X99247926Y-85058811D01*
X99342517Y-85094091D01*
X99402127Y-85100500D01*
X99478480Y-85100499D01*
X99545519Y-85120183D01*
X99585868Y-85162499D01*
X99619477Y-85220712D01*
X99619481Y-85220717D01*
X99738349Y-85339585D01*
X99738355Y-85339590D01*
X100924187Y-86525422D01*
X100957672Y-86586745D01*
X100952688Y-86656437D01*
X100910816Y-86712370D01*
X100879839Y-86729285D01*
X100843333Y-86742901D01*
X100773642Y-86747885D01*
X100756668Y-86742901D01*
X100657485Y-86705909D01*
X100657483Y-86705908D01*
X100597883Y-86699501D01*
X100597881Y-86699500D01*
X100597873Y-86699500D01*
X100597865Y-86699500D01*
X100552097Y-86699500D01*
X100485058Y-86679815D01*
X100464416Y-86663181D01*
X98991188Y-85189953D01*
X98978523Y-85166760D01*
X98962687Y-85145604D01*
X98962041Y-85136574D01*
X98957703Y-85128630D01*
X98959588Y-85102271D01*
X98958990Y-85093912D01*
X98956573Y-85094814D01*
X98947727Y-85092889D01*
X98938882Y-85094814D01*
X98914120Y-85085579D01*
X98888300Y-85079962D01*
X98877616Y-85071964D01*
X98873417Y-85070398D01*
X98860046Y-85058811D01*
X98839590Y-85038355D01*
X98839588Y-85038352D01*
X98720717Y-84919481D01*
X98720716Y-84919480D01*
X98633904Y-84869360D01*
X98633904Y-84869359D01*
X98633900Y-84869358D01*
X98583785Y-84840423D01*
X98431057Y-84799499D01*
X98272943Y-84799499D01*
X98265347Y-84799499D01*
X98265331Y-84799500D01*
X96022244Y-84799500D01*
X95955205Y-84779815D01*
X95909450Y-84727011D01*
X95898954Y-84662247D01*
X95900500Y-84647873D01*
X95900499Y-83752128D01*
X95894091Y-83692517D01*
X95878153Y-83649786D01*
X95858318Y-83596604D01*
X95850500Y-83553271D01*
X95850500Y-82719556D01*
X95870185Y-82652517D01*
X95922989Y-82606762D01*
X95987755Y-82596267D01*
X95991628Y-82596683D01*
X96027127Y-82600500D01*
X96572872Y-82600499D01*
X96632483Y-82594091D01*
X96767331Y-82543796D01*
X96882546Y-82457546D01*
X96968796Y-82342331D01*
X97019091Y-82207483D01*
X97025500Y-82147873D01*
X97025499Y-81252128D01*
X97019091Y-81192517D01*
X96988234Y-81109786D01*
X96968797Y-81057671D01*
X96968793Y-81057664D01*
X96882547Y-80942455D01*
X96882544Y-80942452D01*
X96767335Y-80856206D01*
X96767328Y-80856202D01*
X96632486Y-80805910D01*
X96632485Y-80805909D01*
X96632483Y-80805909D01*
X96572873Y-80799500D01*
X96572863Y-80799500D01*
X96027129Y-80799500D01*
X96027120Y-80799501D01*
X95987752Y-80803733D01*
X95918993Y-80791325D01*
X95867857Y-80743714D01*
X95850500Y-80680443D01*
X95850500Y-78071728D01*
X95858318Y-78028394D01*
X95866580Y-78006243D01*
X95894091Y-77932483D01*
X95900500Y-77872873D01*
X95900499Y-76977128D01*
X95894091Y-76917517D01*
X95890216Y-76907128D01*
X95858318Y-76821604D01*
X95850500Y-76778271D01*
X95850500Y-75944556D01*
X95870185Y-75877517D01*
X95922989Y-75831762D01*
X95987755Y-75821267D01*
X95991628Y-75821683D01*
X96027127Y-75825500D01*
X96572872Y-75825499D01*
X96632483Y-75819091D01*
X96767331Y-75768796D01*
X96882546Y-75682546D01*
X96968796Y-75567331D01*
X97019091Y-75432483D01*
X97025500Y-75372873D01*
X97025499Y-74477128D01*
X97019091Y-74417517D01*
X96968796Y-74282669D01*
X96968795Y-74282668D01*
X96968793Y-74282664D01*
X96882547Y-74167455D01*
X96882544Y-74167452D01*
X96760231Y-74075888D01*
X96762041Y-74073469D01*
X96723309Y-74034748D01*
X96708448Y-73966477D01*
X96732856Y-73901010D01*
X96744445Y-73887632D01*
X96821789Y-73810289D01*
X96909394Y-73679179D01*
X96969737Y-73533497D01*
X97000500Y-73378842D01*
X97000500Y-73221158D01*
X97000500Y-73221155D01*
X97000499Y-73221153D01*
X96980746Y-73121849D01*
X96969737Y-73066503D01*
X96942398Y-73000500D01*
X96909397Y-72920827D01*
X96909390Y-72920814D01*
X96821789Y-72789711D01*
X96821786Y-72789707D01*
X96710292Y-72678213D01*
X96710288Y-72678210D01*
X96579185Y-72590609D01*
X96579172Y-72590602D01*
X96435864Y-72531243D01*
X96381460Y-72487402D01*
X96368761Y-72464147D01*
X96309394Y-72320821D01*
X96309392Y-72320818D01*
X96309390Y-72320814D01*
X96221789Y-72189711D01*
X96221786Y-72189707D01*
X96110292Y-72078213D01*
X96110288Y-72078210D01*
X95979185Y-71990609D01*
X95979172Y-71990602D01*
X95833501Y-71930264D01*
X95833492Y-71930261D01*
X95778166Y-71919256D01*
X95716256Y-71886870D01*
X95681682Y-71826154D01*
X95680745Y-71821847D01*
X95669737Y-71766503D01*
X95633569Y-71679185D01*
X95609397Y-71620827D01*
X95609390Y-71620814D01*
X95521789Y-71489711D01*
X95521786Y-71489707D01*
X95410292Y-71378213D01*
X95410288Y-71378210D01*
X95279185Y-71290609D01*
X95279172Y-71290602D01*
X95133501Y-71230264D01*
X95133489Y-71230261D01*
X94978845Y-71199500D01*
X94978842Y-71199500D01*
X94821158Y-71199500D01*
X94821155Y-71199500D01*
X94666510Y-71230261D01*
X94666498Y-71230264D01*
X94520827Y-71290602D01*
X94520814Y-71290609D01*
X94389711Y-71378210D01*
X94389707Y-71378213D01*
X94278213Y-71489707D01*
X94278209Y-71489712D01*
X94261499Y-71514720D01*
X94207886Y-71559523D01*
X94138561Y-71568229D01*
X94075534Y-71538072D01*
X94038816Y-71478628D01*
X94035636Y-71441173D01*
X94034858Y-71441173D01*
X94034858Y-71277394D01*
X94034857Y-71277392D01*
X94031926Y-71262659D01*
X94004095Y-71122742D01*
X93961881Y-71020827D01*
X93943755Y-70977066D01*
X93943748Y-70977053D01*
X93856147Y-70845950D01*
X93856144Y-70845946D01*
X93744650Y-70734452D01*
X93744646Y-70734449D01*
X93613543Y-70646848D01*
X93613530Y-70646841D01*
X93467859Y-70586503D01*
X93467847Y-70586500D01*
X93313203Y-70555739D01*
X93313200Y-70555739D01*
X93155516Y-70555739D01*
X93155513Y-70555739D01*
X93000868Y-70586500D01*
X93000856Y-70586503D01*
X92855185Y-70646841D01*
X92855172Y-70646848D01*
X92724069Y-70734449D01*
X92724065Y-70734452D01*
X92612571Y-70845946D01*
X92612568Y-70845950D01*
X92524967Y-70977053D01*
X92524960Y-70977066D01*
X92464622Y-71122737D01*
X92464619Y-71122749D01*
X92433858Y-71277392D01*
X92433858Y-71435085D01*
X92464619Y-71589728D01*
X92464622Y-71589740D01*
X92524960Y-71735411D01*
X92524967Y-71735424D01*
X92612960Y-71867113D01*
X92633838Y-71933790D01*
X92633858Y-71936004D01*
X92633858Y-72702417D01*
X92614173Y-72769456D01*
X92561369Y-72815211D01*
X92492211Y-72825155D01*
X92428655Y-72796130D01*
X92422177Y-72790098D01*
X92410292Y-72778213D01*
X92410288Y-72778210D01*
X92279185Y-72690609D01*
X92279172Y-72690602D01*
X92133501Y-72630264D01*
X92133489Y-72630261D01*
X91978845Y-72599500D01*
X91978842Y-72599500D01*
X91821158Y-72599500D01*
X91821155Y-72599500D01*
X91666510Y-72630261D01*
X91666498Y-72630264D01*
X91520827Y-72690602D01*
X91520814Y-72690609D01*
X91389711Y-72778210D01*
X91389707Y-72778213D01*
X91278213Y-72889707D01*
X91278210Y-72889711D01*
X91190609Y-73020814D01*
X91190602Y-73020827D01*
X91130264Y-73166498D01*
X91130261Y-73166510D01*
X91099500Y-73321153D01*
X91099500Y-73478846D01*
X91130261Y-73633489D01*
X91130264Y-73633501D01*
X91190061Y-73777864D01*
X91191687Y-73786040D01*
X91194477Y-73790381D01*
X91199500Y-73825316D01*
X91199500Y-73900500D01*
X91179815Y-73967539D01*
X91127011Y-74013294D01*
X91075501Y-74024500D01*
X90927130Y-74024500D01*
X90927123Y-74024501D01*
X90867516Y-74030908D01*
X90732671Y-74081202D01*
X90732664Y-74081206D01*
X90617455Y-74167452D01*
X90617452Y-74167455D01*
X90531206Y-74282664D01*
X90531202Y-74282671D01*
X90480908Y-74417517D01*
X90474501Y-74477116D01*
X90474501Y-74477123D01*
X90474500Y-74477135D01*
X90474500Y-75372870D01*
X90474501Y-75372876D01*
X90480908Y-75432483D01*
X90531202Y-75567328D01*
X90531206Y-75567335D01*
X90617452Y-75682544D01*
X90617455Y-75682547D01*
X90732664Y-75768793D01*
X90732671Y-75768797D01*
X90777618Y-75785561D01*
X90867517Y-75819091D01*
X90927127Y-75825500D01*
X91075500Y-75825499D01*
X91142539Y-75845183D01*
X91188294Y-75897987D01*
X91199500Y-75949499D01*
X91199500Y-76888330D01*
X91199499Y-76888348D01*
X91199499Y-77054054D01*
X91199498Y-77054054D01*
X91240423Y-77206787D01*
X91240424Y-77206788D01*
X91245791Y-77216083D01*
X91245793Y-77216086D01*
X91319477Y-77343712D01*
X91319481Y-77343717D01*
X91438349Y-77462585D01*
X91438355Y-77462590D01*
X91563181Y-77587416D01*
X91596666Y-77648739D01*
X91599500Y-77675096D01*
X91599500Y-77872869D01*
X91599501Y-77872876D01*
X91605908Y-77932483D01*
X91641682Y-78028395D01*
X91649500Y-78071728D01*
X91649500Y-80680443D01*
X91629815Y-80747482D01*
X91577011Y-80793237D01*
X91512248Y-80803733D01*
X91496640Y-80802055D01*
X91472873Y-80799500D01*
X91472867Y-80799500D01*
X90927129Y-80799500D01*
X90927123Y-80799501D01*
X90867516Y-80805908D01*
X90732671Y-80856202D01*
X90732664Y-80856206D01*
X90617455Y-80942452D01*
X90617452Y-80942455D01*
X90531206Y-81057664D01*
X90531202Y-81057671D01*
X90480908Y-81192517D01*
X90474501Y-81252116D01*
X90474501Y-81252123D01*
X90474500Y-81252135D01*
X90474500Y-82147870D01*
X90474501Y-82147876D01*
X90480908Y-82207483D01*
X90531202Y-82342328D01*
X90531206Y-82342335D01*
X90617452Y-82457544D01*
X90617455Y-82457547D01*
X90732664Y-82543793D01*
X90732671Y-82543797D01*
X90777618Y-82560561D01*
X90867517Y-82594091D01*
X90927127Y-82600500D01*
X91472872Y-82600499D01*
X91512246Y-82596266D01*
X91581005Y-82608672D01*
X91632142Y-82656283D01*
X91649500Y-82719556D01*
X91649500Y-83553271D01*
X91641682Y-83596604D01*
X91605908Y-83692517D01*
X91599501Y-83752116D01*
X91599501Y-83752123D01*
X91599500Y-83752135D01*
X91599500Y-84647870D01*
X91599501Y-84647876D01*
X91605908Y-84707483D01*
X91656202Y-84842328D01*
X91656206Y-84842335D01*
X91742452Y-84957544D01*
X91742455Y-84957547D01*
X91857664Y-85043793D01*
X91857669Y-85043796D01*
X91858452Y-85044088D01*
X91859121Y-85044589D01*
X91865454Y-85048047D01*
X91864957Y-85048956D01*
X91914389Y-85085954D01*
X91938811Y-85151417D01*
X91923965Y-85219691D01*
X91902809Y-85247954D01*
X90985339Y-86165425D01*
X90924016Y-86198910D01*
X90921850Y-86199361D01*
X90766508Y-86230261D01*
X90766498Y-86230264D01*
X90620827Y-86290602D01*
X90620814Y-86290609D01*
X90489711Y-86378210D01*
X90489707Y-86378213D01*
X90378213Y-86489707D01*
X90378210Y-86489711D01*
X90290609Y-86620814D01*
X90290602Y-86620827D01*
X90230264Y-86766498D01*
X90230261Y-86766510D01*
X90199500Y-86921153D01*
X90199500Y-87078846D01*
X90230261Y-87233489D01*
X90230264Y-87233501D01*
X90290602Y-87379172D01*
X90290609Y-87379185D01*
X90378210Y-87510288D01*
X90378213Y-87510292D01*
X90489707Y-87621786D01*
X90489711Y-87621789D01*
X90620814Y-87709390D01*
X90620827Y-87709397D01*
X90766498Y-87769735D01*
X90766503Y-87769737D01*
X90921153Y-87800499D01*
X90921156Y-87800500D01*
X91050902Y-87800500D01*
X91117941Y-87820185D01*
X91163696Y-87872989D01*
X91173640Y-87942147D01*
X91144615Y-88005703D01*
X91138583Y-88012181D01*
X88487584Y-90663181D01*
X88426261Y-90696666D01*
X88399903Y-90699500D01*
X74924500Y-90699500D01*
X74857461Y-90679815D01*
X74811706Y-90627011D01*
X74800500Y-90575500D01*
X74800500Y-90521155D01*
X74800499Y-90521153D01*
X74786768Y-90452123D01*
X74769737Y-90366503D01*
X74724657Y-90257669D01*
X74709397Y-90220827D01*
X74709390Y-90220814D01*
X74621398Y-90089125D01*
X74600520Y-90022447D01*
X74600500Y-90020234D01*
X74600500Y-89324499D01*
X74620185Y-89257460D01*
X74672989Y-89211705D01*
X74724500Y-89200499D01*
X76072871Y-89200499D01*
X76072872Y-89200499D01*
X76132483Y-89194091D01*
X76267331Y-89143796D01*
X76382546Y-89057546D01*
X76468796Y-88942331D01*
X76519091Y-88807483D01*
X76525500Y-88747873D01*
X76525499Y-86952128D01*
X76519091Y-86892517D01*
X76472093Y-86766510D01*
X76468797Y-86757671D01*
X76468793Y-86757664D01*
X76382547Y-86642455D01*
X76382544Y-86642452D01*
X76267335Y-86556206D01*
X76267328Y-86556202D01*
X76135917Y-86507189D01*
X76079983Y-86465318D01*
X76055566Y-86399853D01*
X76070418Y-86331580D01*
X76091563Y-86303332D01*
X76205104Y-86189792D01*
X76248356Y-86130261D01*
X76330048Y-86017820D01*
X76330047Y-86017820D01*
X76330051Y-86017816D01*
X76426557Y-85828412D01*
X76492246Y-85626243D01*
X76525500Y-85416287D01*
X76525500Y-85203713D01*
X76492246Y-84993757D01*
X76426557Y-84791588D01*
X76330051Y-84602184D01*
X76330049Y-84602181D01*
X76330048Y-84602179D01*
X76205109Y-84430213D01*
X76054786Y-84279890D01*
X75882820Y-84154951D01*
X75882115Y-84154591D01*
X75874054Y-84150485D01*
X75823259Y-84102512D01*
X75806463Y-84034692D01*
X75828999Y-83968556D01*
X75874054Y-83929515D01*
X75882816Y-83925051D01*
X75904789Y-83909086D01*
X76054786Y-83800109D01*
X76054788Y-83800106D01*
X76054792Y-83800104D01*
X76205104Y-83649792D01*
X76205106Y-83649788D01*
X76205109Y-83649786D01*
X76330048Y-83477820D01*
X76330047Y-83477820D01*
X76330051Y-83477816D01*
X76426557Y-83288412D01*
X76492246Y-83086243D01*
X76525500Y-82876287D01*
X76525500Y-82663713D01*
X76492246Y-82453757D01*
X76426557Y-82251588D01*
X76330051Y-82062184D01*
X76330049Y-82062181D01*
X76330048Y-82062179D01*
X76205109Y-81890213D01*
X76054786Y-81739890D01*
X75882820Y-81614951D01*
X75882115Y-81614591D01*
X75874054Y-81610485D01*
X75823259Y-81562512D01*
X75806463Y-81494692D01*
X75828999Y-81428556D01*
X75874054Y-81389515D01*
X75882816Y-81385051D01*
X75904789Y-81369086D01*
X76054786Y-81260109D01*
X76054788Y-81260106D01*
X76054792Y-81260104D01*
X76205104Y-81109792D01*
X76205106Y-81109788D01*
X76205109Y-81109786D01*
X76330048Y-80937820D01*
X76330047Y-80937820D01*
X76330051Y-80937816D01*
X76426557Y-80748412D01*
X76492246Y-80546243D01*
X76525500Y-80336287D01*
X76525500Y-80123713D01*
X76492246Y-79913757D01*
X76426557Y-79711588D01*
X76330051Y-79522184D01*
X76330049Y-79522181D01*
X76330048Y-79522179D01*
X76205109Y-79350213D01*
X76054786Y-79199890D01*
X75882820Y-79074951D01*
X75882115Y-79074591D01*
X75874054Y-79070485D01*
X75823259Y-79022512D01*
X75806463Y-78954692D01*
X75828999Y-78888556D01*
X75874054Y-78849515D01*
X75882816Y-78845051D01*
X75904789Y-78829086D01*
X76054786Y-78720109D01*
X76054788Y-78720106D01*
X76054792Y-78720104D01*
X76205104Y-78569792D01*
X76205106Y-78569788D01*
X76205109Y-78569786D01*
X76330048Y-78397820D01*
X76330047Y-78397820D01*
X76330051Y-78397816D01*
X76426557Y-78208412D01*
X76492246Y-78006243D01*
X76525500Y-77796287D01*
X76525500Y-77583713D01*
X76492246Y-77373757D01*
X76426557Y-77171588D01*
X76380296Y-77080795D01*
X76367400Y-77012125D01*
X76393677Y-76947385D01*
X76450783Y-76907128D01*
X76490781Y-76900500D01*
X77199903Y-76900500D01*
X77266942Y-76920185D01*
X77287584Y-76936819D01*
X85263181Y-84912416D01*
X85296666Y-84973739D01*
X85299500Y-85000097D01*
X85299500Y-88620234D01*
X85279815Y-88687273D01*
X85278602Y-88689125D01*
X85190609Y-88820814D01*
X85190602Y-88820827D01*
X85130264Y-88966498D01*
X85130261Y-88966510D01*
X85099500Y-89121153D01*
X85099500Y-89278846D01*
X85130261Y-89433489D01*
X85130264Y-89433501D01*
X85190602Y-89579172D01*
X85190609Y-89579185D01*
X85278210Y-89710288D01*
X85278213Y-89710292D01*
X85389707Y-89821786D01*
X85389711Y-89821789D01*
X85520814Y-89909390D01*
X85520827Y-89909397D01*
X85666498Y-89969735D01*
X85666503Y-89969737D01*
X85818644Y-90000000D01*
X85821153Y-90000499D01*
X85821156Y-90000500D01*
X85821158Y-90000500D01*
X85978844Y-90000500D01*
X85978845Y-90000499D01*
X86133497Y-89969737D01*
X86279179Y-89909394D01*
X86410289Y-89821789D01*
X86521789Y-89710289D01*
X86609394Y-89579179D01*
X86669737Y-89433497D01*
X86700500Y-89278842D01*
X86700500Y-89121158D01*
X86700500Y-89121155D01*
X86700499Y-89121153D01*
X86687846Y-89057544D01*
X86669737Y-88966503D01*
X86668645Y-88963867D01*
X86609397Y-88820827D01*
X86609390Y-88820814D01*
X86521398Y-88689125D01*
X86500520Y-88622447D01*
X86500500Y-88620234D01*
X86500500Y-84789059D01*
X86500501Y-84789046D01*
X86500501Y-84620945D01*
X86500501Y-84620943D01*
X86459577Y-84468215D01*
X86409387Y-84381284D01*
X86380520Y-84331284D01*
X86268716Y-84219480D01*
X86268715Y-84219479D01*
X86264385Y-84215149D01*
X86264374Y-84215139D01*
X77987590Y-75938355D01*
X77987588Y-75938352D01*
X77868717Y-75819481D01*
X77868716Y-75819480D01*
X77776956Y-75766503D01*
X77776955Y-75766502D01*
X77731783Y-75740422D01*
X77675881Y-75725443D01*
X77579057Y-75699499D01*
X77420943Y-75699499D01*
X77413347Y-75699499D01*
X77413331Y-75699500D01*
X76587127Y-75699500D01*
X76520088Y-75679815D01*
X76474333Y-75627011D01*
X76464389Y-75557853D01*
X76469196Y-75537182D01*
X76492246Y-75466243D01*
X76525500Y-75256287D01*
X76525500Y-75043713D01*
X76492246Y-74833757D01*
X76426557Y-74631588D01*
X76330051Y-74442184D01*
X76330049Y-74442181D01*
X76330048Y-74442179D01*
X76205109Y-74270213D01*
X76054786Y-74119890D01*
X75882820Y-73994951D01*
X75693414Y-73898444D01*
X75693413Y-73898443D01*
X75693412Y-73898443D01*
X75491243Y-73832754D01*
X75491241Y-73832753D01*
X75491240Y-73832753D01*
X75312205Y-73804397D01*
X75281287Y-73799500D01*
X75068713Y-73799500D01*
X75037795Y-73804397D01*
X74858760Y-73832753D01*
X74858757Y-73832754D01*
X74670952Y-73893776D01*
X74656585Y-73898444D01*
X74467179Y-73994951D01*
X74295213Y-74119890D01*
X74144890Y-74270213D01*
X74019949Y-74442182D01*
X74015484Y-74450946D01*
X73967509Y-74501742D01*
X73899688Y-74518536D01*
X73833553Y-74495998D01*
X73794516Y-74450946D01*
X73790050Y-74442182D01*
X73665109Y-74270213D01*
X73514786Y-74119890D01*
X73342820Y-73994951D01*
X73153414Y-73898444D01*
X73153413Y-73898443D01*
X73153412Y-73898443D01*
X72951243Y-73832754D01*
X72951241Y-73832753D01*
X72951240Y-73832753D01*
X72772205Y-73804397D01*
X72741287Y-73799500D01*
X72528713Y-73799500D01*
X72497795Y-73804397D01*
X72318760Y-73832753D01*
X72318757Y-73832754D01*
X72130952Y-73893776D01*
X72116585Y-73898444D01*
X71927179Y-73994951D01*
X71755213Y-74119890D01*
X71604890Y-74270213D01*
X71479951Y-74442179D01*
X71383444Y-74631585D01*
X71317753Y-74833760D01*
X71284500Y-75043713D01*
X71284500Y-75256286D01*
X71312406Y-75432482D01*
X71317754Y-75466243D01*
X71365618Y-75613554D01*
X71383444Y-75668414D01*
X71479951Y-75857820D01*
X71604890Y-76029786D01*
X71755213Y-76180109D01*
X71927182Y-76305050D01*
X71935946Y-76309516D01*
X71986742Y-76357491D01*
X72003536Y-76425312D01*
X71980998Y-76491447D01*
X71935946Y-76530484D01*
X71927182Y-76534949D01*
X71755213Y-76659890D01*
X71604890Y-76810213D01*
X71479951Y-76982179D01*
X71383444Y-77171585D01*
X71317753Y-77373760D01*
X71284500Y-77583713D01*
X71284500Y-77796286D01*
X71306071Y-77932484D01*
X71317754Y-78006243D01*
X71339031Y-78071728D01*
X71383444Y-78208414D01*
X71479951Y-78397820D01*
X71604890Y-78569786D01*
X71755213Y-78720109D01*
X71927182Y-78845050D01*
X71935946Y-78849516D01*
X71986742Y-78897491D01*
X72003536Y-78965312D01*
X71980998Y-79031447D01*
X71935946Y-79070484D01*
X71927182Y-79074949D01*
X71755213Y-79199890D01*
X71604890Y-79350213D01*
X71479951Y-79522179D01*
X71383444Y-79711585D01*
X71317753Y-79913760D01*
X71284500Y-80123713D01*
X71284500Y-80336287D01*
X71317754Y-80546243D01*
X71361358Y-80680443D01*
X71383444Y-80748414D01*
X71479951Y-80937820D01*
X71604890Y-81109786D01*
X71755213Y-81260109D01*
X71927182Y-81385050D01*
X71935946Y-81389516D01*
X71986742Y-81437491D01*
X72003536Y-81505312D01*
X71980998Y-81571447D01*
X71935946Y-81610484D01*
X71927182Y-81614949D01*
X71755213Y-81739890D01*
X71604890Y-81890213D01*
X71479951Y-82062179D01*
X71383444Y-82251585D01*
X71317753Y-82453760D01*
X71284500Y-82663713D01*
X71284500Y-82876286D01*
X71317753Y-83086239D01*
X71383444Y-83288414D01*
X71479951Y-83477820D01*
X71604890Y-83649786D01*
X71755213Y-83800109D01*
X71927182Y-83925050D01*
X71935946Y-83929516D01*
X71986742Y-83977491D01*
X72003536Y-84045312D01*
X71980998Y-84111447D01*
X71935946Y-84150484D01*
X71927182Y-84154949D01*
X71755213Y-84279890D01*
X71604890Y-84430213D01*
X71479951Y-84602179D01*
X71383444Y-84791585D01*
X71383443Y-84791587D01*
X71383443Y-84791588D01*
X71366956Y-84842331D01*
X71317753Y-84993760D01*
X71284500Y-85203713D01*
X71284500Y-85416286D01*
X71317753Y-85626239D01*
X71383444Y-85828414D01*
X71479951Y-86017820D01*
X71604890Y-86189786D01*
X71755213Y-86340109D01*
X71927182Y-86465050D01*
X71935946Y-86469516D01*
X71986742Y-86517491D01*
X72003536Y-86585312D01*
X71980998Y-86651447D01*
X71935946Y-86690484D01*
X71927182Y-86694949D01*
X71755213Y-86819890D01*
X71604890Y-86970213D01*
X71479951Y-87142179D01*
X71383444Y-87331585D01*
X71317753Y-87533760D01*
X71291344Y-87700499D01*
X71284500Y-87743713D01*
X71284500Y-87956287D01*
X71288776Y-87983284D01*
X71310463Y-88120214D01*
X71317754Y-88166243D01*
X71355480Y-88282352D01*
X71383444Y-88368414D01*
X71479951Y-88557820D01*
X71604890Y-88729786D01*
X71755213Y-88880109D01*
X71927179Y-89005048D01*
X71927181Y-89005049D01*
X71927184Y-89005051D01*
X72116588Y-89101557D01*
X72318757Y-89167246D01*
X72528713Y-89200500D01*
X72528714Y-89200500D01*
X72741286Y-89200500D01*
X72741287Y-89200500D01*
X72951243Y-89167246D01*
X73153412Y-89101557D01*
X73219205Y-89068033D01*
X73287873Y-89055137D01*
X73352614Y-89081413D01*
X73392871Y-89138519D01*
X73399500Y-89178518D01*
X73399500Y-90020234D01*
X73379815Y-90087273D01*
X73378602Y-90089125D01*
X73290609Y-90220814D01*
X73290602Y-90220827D01*
X73230264Y-90366498D01*
X73230261Y-90366510D01*
X73199500Y-90521153D01*
X73199500Y-90678846D01*
X73230261Y-90833489D01*
X73230264Y-90833501D01*
X73290602Y-90979172D01*
X73290606Y-90979179D01*
X73323181Y-91027931D01*
X73344059Y-91094608D01*
X73325575Y-91161988D01*
X73307760Y-91184503D01*
X72424166Y-92068097D01*
X72362843Y-92101582D01*
X72317870Y-92102336D01*
X72317865Y-92102410D01*
X72317096Y-92102349D01*
X72314207Y-92102398D01*
X72311552Y-92101913D01*
X72274541Y-92099000D01*
X72274534Y-92099000D01*
X70015466Y-92099000D01*
X70015458Y-92099000D01*
X69978453Y-92101912D01*
X69978447Y-92101913D01*
X69820045Y-92147934D01*
X69820042Y-92147935D01*
X69678056Y-92231905D01*
X69678047Y-92231912D01*
X69561412Y-92348547D01*
X69561405Y-92348556D01*
X69477435Y-92490542D01*
X69477434Y-92490545D01*
X69431413Y-92648947D01*
X69431412Y-92648953D01*
X69428500Y-92685958D01*
X66500500Y-92685958D01*
X66500500Y-72622413D01*
X66520185Y-72555374D01*
X66572989Y-72509619D01*
X66642147Y-72499675D01*
X66699984Y-72524036D01*
X66782998Y-72587736D01*
X66886196Y-72666924D01*
X67113299Y-72798041D01*
X67113309Y-72798046D01*
X67336769Y-72890606D01*
X67355581Y-72898398D01*
X67608884Y-72966270D01*
X67868880Y-73000500D01*
X67868887Y-73000500D01*
X68131113Y-73000500D01*
X68131120Y-73000500D01*
X68391116Y-72966270D01*
X68644419Y-72898398D01*
X68886697Y-72798043D01*
X69113803Y-72666924D01*
X69321851Y-72507282D01*
X69321855Y-72507277D01*
X69321860Y-72507274D01*
X69507274Y-72321860D01*
X69507277Y-72321855D01*
X69507282Y-72321851D01*
X69666924Y-72113803D01*
X69798043Y-71886697D01*
X69801559Y-71878210D01*
X69875045Y-71700798D01*
X69898398Y-71644419D01*
X69966270Y-71391116D01*
X70000500Y-71131120D01*
X70000500Y-70868880D01*
X69966270Y-70608884D01*
X69898398Y-70355581D01*
X69898394Y-70355571D01*
X69798046Y-70113309D01*
X69798041Y-70113299D01*
X69666924Y-69886196D01*
X69524039Y-69699987D01*
X69498844Y-69634818D01*
X69512882Y-69566373D01*
X69561696Y-69516383D01*
X69622414Y-69500500D01*
X121377586Y-69500500D01*
X121444625Y-69520185D01*
G37*
%TD.AperFunction*%
%TD*%
M02*
